%TF.GenerationSoftware,KiCad,Pcbnew,7.0.9*%
%TF.CreationDate,2024-02-01T23:09:16-08:00*%
%TF.ProjectId,Sensing Device,53656e73-696e-4672-9044-65766963652e,rev?*%
%TF.SameCoordinates,Original*%
%TF.FileFunction,Copper,L1,Top*%
%TF.FilePolarity,Positive*%
%FSLAX46Y46*%
G04 Gerber Fmt 4.6, Leading zero omitted, Abs format (unit mm)*
G04 Created by KiCad (PCBNEW 7.0.9) date 2024-02-01 23:09:16*
%MOMM*%
%LPD*%
G01*
G04 APERTURE LIST*
G04 Aperture macros list*
%AMRoundRect*
0 Rectangle with rounded corners*
0 $1 Rounding radius*
0 $2 $3 $4 $5 $6 $7 $8 $9 X,Y pos of 4 corners*
0 Add a 4 corners polygon primitive as box body*
4,1,4,$2,$3,$4,$5,$6,$7,$8,$9,$2,$3,0*
0 Add four circle primitives for the rounded corners*
1,1,$1+$1,$2,$3*
1,1,$1+$1,$4,$5*
1,1,$1+$1,$6,$7*
1,1,$1+$1,$8,$9*
0 Add four rect primitives between the rounded corners*
20,1,$1+$1,$2,$3,$4,$5,0*
20,1,$1+$1,$4,$5,$6,$7,0*
20,1,$1+$1,$6,$7,$8,$9,0*
20,1,$1+$1,$8,$9,$2,$3,0*%
G04 Aperture macros list end*
%TA.AperFunction,SMDPad,CuDef*%
%ADD10RoundRect,0.250000X0.337500X0.475000X-0.337500X0.475000X-0.337500X-0.475000X0.337500X-0.475000X0*%
%TD*%
%TA.AperFunction,ComponentPad*%
%ADD11O,3.048000X1.850000*%
%TD*%
%TA.AperFunction,ComponentPad*%
%ADD12C,1.320800*%
%TD*%
%TA.AperFunction,ComponentPad*%
%ADD13C,2.006600*%
%TD*%
%TA.AperFunction,ComponentPad*%
%ADD14O,3.556000X1.778000*%
%TD*%
%TA.AperFunction,ComponentPad*%
%ADD15RoundRect,0.250001X-1.099999X-1.099999X1.099999X-1.099999X1.099999X1.099999X-1.099999X1.099999X0*%
%TD*%
%TA.AperFunction,ComponentPad*%
%ADD16C,2.700000*%
%TD*%
%TA.AperFunction,SMDPad,CuDef*%
%ADD17RoundRect,0.150000X-0.512500X-0.150000X0.512500X-0.150000X0.512500X0.150000X-0.512500X0.150000X0*%
%TD*%
%TA.AperFunction,SMDPad,CuDef*%
%ADD18RoundRect,0.250000X-0.350000X-0.450000X0.350000X-0.450000X0.350000X0.450000X-0.350000X0.450000X0*%
%TD*%
%TA.AperFunction,SMDPad,CuDef*%
%ADD19RoundRect,0.250000X0.450000X-0.350000X0.450000X0.350000X-0.450000X0.350000X-0.450000X-0.350000X0*%
%TD*%
%TA.AperFunction,SMDPad,CuDef*%
%ADD20RoundRect,0.250000X0.475000X-0.337500X0.475000X0.337500X-0.475000X0.337500X-0.475000X-0.337500X0*%
%TD*%
%TA.AperFunction,SMDPad,CuDef*%
%ADD21RoundRect,0.250000X-1.650000X0.650000X-1.650000X-0.650000X1.650000X-0.650000X1.650000X0.650000X0*%
%TD*%
%TA.AperFunction,SMDPad,CuDef*%
%ADD22RoundRect,0.200000X-1.250000X0.200000X-1.250000X-0.200000X1.250000X-0.200000X1.250000X0.200000X0*%
%TD*%
%TA.AperFunction,SMDPad,CuDef*%
%ADD23RoundRect,0.250000X-0.450000X0.350000X-0.450000X-0.350000X0.450000X-0.350000X0.450000X0.350000X0*%
%TD*%
%TA.AperFunction,SMDPad,CuDef*%
%ADD24RoundRect,0.250000X0.350000X0.450000X-0.350000X0.450000X-0.350000X-0.450000X0.350000X-0.450000X0*%
%TD*%
%TA.AperFunction,ComponentPad*%
%ADD25C,5.000000*%
%TD*%
%TA.AperFunction,ComponentPad*%
%ADD26C,1.800000*%
%TD*%
%TA.AperFunction,ComponentPad*%
%ADD27R,1.800000X1.800000*%
%TD*%
%TA.AperFunction,ViaPad*%
%ADD28C,1.778000*%
%TD*%
%TA.AperFunction,Conductor*%
%ADD29C,0.500000*%
%TD*%
%TA.AperFunction,Conductor*%
%ADD30C,0.254000*%
%TD*%
G04 APERTURE END LIST*
D10*
%TO.P,C4,1*%
%TO.N,VCC*%
X85133000Y-64770000D03*
%TO.P,C4,2*%
%TO.N,GND*%
X83058000Y-64770000D03*
%TD*%
D11*
%TO.P,SW1,1,A*%
%TO.N,GND*%
X66150000Y-67500000D03*
X78650000Y-67500000D03*
%TO.P,SW1,2,B*%
%TO.N,/Button*%
X66150000Y-72500000D03*
X78650000Y-72500000D03*
%TD*%
D12*
%TO.P,SW2,1,A*%
%TO.N,VCC*%
X91764099Y-97282000D03*
%TO.P,SW2,2,B*%
%TO.N,Net-(BT1-+)*%
X93764100Y-97282000D03*
%TO.P,SW2,3,C*%
%TO.N,unconnected-(SW2-C-Pad3)*%
X95764101Y-97282000D03*
D13*
%TO.P,SW2,4*%
%TO.N,N/C*%
X89662000Y-97282000D03*
%TO.P,SW2,5*%
X97866200Y-97282000D03*
%TD*%
D14*
%TO.P,U1,14,GPIO44_D7_RX*%
%TO.N,unconnected-(U1-GPIO44_D7_RX-Pad14)*%
X95758000Y-57912000D03*
%TO.P,U1,13,GPIO7_A8_D8_SCK*%
%TO.N,/Id*%
X95758000Y-55372000D03*
%TO.P,U1,12,GPIO8_A9_D9_CIPO*%
%TO.N,unconnected-(U1-GPIO8_A9_D9_CIPO-Pad12)*%
X95758000Y-52832000D03*
%TO.P,U1,11,GPIO9_A10_D10_COPI*%
%TO.N,unconnected-(U1-GPIO9_A10_D10_COPI-Pad11)*%
X95758000Y-50292000D03*
%TO.P,U1,10,3V3*%
%TO.N,/3V3*%
X95758000Y-47752000D03*
%TO.P,U1,9,GND*%
%TO.N,GND*%
X95758000Y-45212000D03*
%TO.P,U1,8,5V*%
%TO.N,unconnected-(U1-5V-Pad8)*%
X95758000Y-42672000D03*
%TO.P,U1,7,GPIO43_TX_D6*%
%TO.N,unconnected-(U1-GPIO43_TX_D6-Pad7)*%
X78994000Y-57912000D03*
%TO.P,U1,6,GPIO6_A5_D5_SCL*%
%TO.N,/SCL_XIAO*%
X78994000Y-55372000D03*
%TO.P,U1,5,GPIO4_A3_D3_SDA*%
%TO.N,/SDA_XIAO*%
X78994000Y-52832000D03*
%TO.P,U1,4,GPIO4_A3_D3*%
%TO.N,/LED*%
X78994000Y-50292000D03*
%TO.P,U1,3,GPIO3_A2_D2*%
%TO.N,unconnected-(U1-GPIO3_A2_D2-Pad3)*%
X78994000Y-47752000D03*
%TO.P,U1,2,GPIO2_A1_D1*%
%TO.N,unconnected-(U1-GPIO2_A1_D1-Pad2)*%
X78994000Y-45212000D03*
%TO.P,U1,1,GPIO1_A0_D0*%
%TO.N,/Button*%
X78994000Y-42672000D03*
%TD*%
D15*
%TO.P,J1,1,Pin_1*%
%TO.N,VCC*%
X91520000Y-69342000D03*
D16*
%TO.P,J1,2,Pin_2*%
%TO.N,GND*%
X96520000Y-69342000D03*
%TD*%
D17*
%TO.P,U2,1,SCL/INT*%
%TO.N,/SCL_TLV*%
X128862500Y-69050000D03*
%TO.P,U2,2,GND*%
%TO.N,GND*%
X128862500Y-70000000D03*
%TO.P,U2,3,GND*%
X128862500Y-70950000D03*
%TO.P,U2,4,VDD*%
%TO.N,/3V3*%
X131137500Y-70950000D03*
%TO.P,U2,5,GND*%
%TO.N,GND*%
X131137500Y-70000000D03*
%TO.P,U2,6,SDA/ADDR*%
%TO.N,/SDA_TLV*%
X131137500Y-69050000D03*
%TD*%
D18*
%TO.P,R7,2*%
%TO.N,Net-(C1-Pad1)*%
X121666000Y-69088000D03*
%TO.P,R7,1*%
%TO.N,/SCL_TLV*%
X119666000Y-69088000D03*
%TD*%
D19*
%TO.P,R5,1*%
%TO.N,/SDA_TLV*%
X135382000Y-62415400D03*
%TO.P,R5,2*%
%TO.N,/SDA_XIAO*%
X135382000Y-60415400D03*
%TD*%
D20*
%TO.P,C3,1*%
%TO.N,/3V3*%
X100584000Y-45212000D03*
%TO.P,C3,2*%
%TO.N,GND*%
X100584000Y-43137000D03*
%TD*%
D21*
%TO.P,BT1,MP*%
%TO.N,N/C*%
X92582000Y-87436000D03*
X92582000Y-80736000D03*
D22*
%TO.P,BT1,2,-*%
%TO.N,GND*%
X97282000Y-84836000D03*
%TO.P,BT1,1,+*%
%TO.N,Net-(BT1-+)*%
X97282000Y-83336000D03*
%TD*%
D18*
%TO.P,R8,2*%
%TO.N,Net-(C1-Pad1)*%
X121666000Y-73660000D03*
%TO.P,R8,1*%
%TO.N,/SCL_XIAO*%
X119666000Y-73660000D03*
%TD*%
D23*
%TO.P,R3,1*%
%TO.N,/Id*%
X126238000Y-60415400D03*
%TO.P,R3,2*%
%TO.N,/3V3*%
X126238000Y-62415400D03*
%TD*%
D18*
%TO.P,R1,1*%
%TO.N,/Button*%
X71628000Y-83312000D03*
%TO.P,R1,2*%
%TO.N,/3V3*%
X73628000Y-83312000D03*
%TD*%
D10*
%TO.P,C1,2*%
%TO.N,GND*%
X119845000Y-78486000D03*
%TO.P,C1,1*%
%TO.N,Net-(C1-Pad1)*%
X121920000Y-78486000D03*
%TD*%
D24*
%TO.P,R6,2*%
%TO.N,/3V3*%
X131080000Y-56134000D03*
%TO.P,R6,1*%
%TO.N,Net-(C1-Pad1)*%
X133080000Y-56134000D03*
%TD*%
D18*
%TO.P,R2,1*%
%TO.N,Net-(D1-K)*%
X72390000Y-48768000D03*
%TO.P,R2,2*%
%TO.N,GND*%
X74390000Y-48768000D03*
%TD*%
D19*
%TO.P,R4,1*%
%TO.N,/SDA_XIAO*%
X131064000Y-62415400D03*
%TO.P,R4,2*%
%TO.N,/3V3*%
X131064000Y-60415400D03*
%TD*%
D25*
%TO.P,J2,4*%
%TO.N,N/C*%
X150000000Y-90000000D03*
%TO.P,J2,3*%
X110000000Y-90000000D03*
%TO.P,J2,2,Pin_2*%
%TO.N,GND*%
X150000000Y-50000000D03*
%TO.P,J2,1,Pin_1*%
%TO.N,/Id*%
X110000000Y-50000000D03*
%TD*%
D26*
%TO.P,D1,2,A*%
%TO.N,/LED*%
X65532000Y-48768000D03*
D27*
%TO.P,D1,1,K*%
%TO.N,Net-(D1-K)*%
X68072000Y-48768000D03*
%TD*%
D20*
%TO.P,C2,2*%
%TO.N,GND*%
X104648000Y-43137000D03*
%TO.P,C2,1*%
%TO.N,/3V3*%
X104648000Y-45212000D03*
%TD*%
D28*
%TO.N,Net-(C1-Pad1)*%
X133096000Y-51562000D03*
X115062000Y-75946000D03*
%TO.N,/3V3*%
X77978000Y-83312000D03*
%TD*%
D29*
%TO.N,/3V3*%
X104648000Y-45212000D02*
X117094000Y-45212000D01*
X117094000Y-45212000D02*
X128016000Y-56134000D01*
X128016000Y-56134000D02*
X131080000Y-56134000D01*
X131080000Y-51038000D02*
X137414000Y-44704000D01*
X131080000Y-56134000D02*
X131080000Y-51038000D01*
X151638000Y-44704000D02*
X156210000Y-49276000D01*
X137414000Y-44704000D02*
X151638000Y-44704000D01*
X100584000Y-45212000D02*
X104648000Y-45212000D01*
X94996000Y-47752000D02*
X98044000Y-47752000D01*
X98044000Y-47752000D02*
X100584000Y-45212000D01*
%TO.N,GND*%
X100584000Y-43137000D02*
X104648000Y-43137000D01*
X94996000Y-45212000D02*
X98509000Y-45212000D01*
X98509000Y-45212000D02*
X100584000Y-43137000D01*
%TO.N,/LED*%
X74676000Y-51308000D02*
X75692000Y-50292000D01*
X66294000Y-51308000D02*
X74676000Y-51308000D01*
X65532000Y-48768000D02*
X65532000Y-50546000D01*
X65532000Y-50546000D02*
X66294000Y-51308000D01*
X75692000Y-50292000D02*
X79756000Y-50292000D01*
%TO.N,VCC*%
X85133000Y-64770000D02*
X86948000Y-64770000D01*
X86948000Y-64770000D02*
X91520000Y-69342000D01*
%TO.N,GND*%
X78650000Y-67500000D02*
X81380000Y-64770000D01*
X81380000Y-64770000D02*
X83058000Y-64770000D01*
X99568000Y-84836000D02*
X101346000Y-83058000D01*
X128862500Y-70000000D02*
X131137500Y-70000000D01*
X96520000Y-74930000D02*
X96520000Y-69342000D01*
X66150000Y-67500000D02*
X78650000Y-67500000D01*
X101346000Y-79756000D02*
X96520000Y-74930000D01*
X97282000Y-84836000D02*
X99568000Y-84836000D01*
X76454000Y-40894000D02*
X90678000Y-40894000D01*
X128862500Y-73255296D02*
X128862500Y-76369500D01*
X128862500Y-70950000D02*
X128862500Y-70000000D01*
X90678000Y-40894000D02*
X94996000Y-45212000D01*
X62230000Y-45720000D02*
X62230000Y-63580000D01*
X122385000Y-81026000D02*
X119845000Y-78486000D01*
X70088000Y-44466000D02*
X74390000Y-48768000D01*
X74390000Y-48768000D02*
X74390000Y-42958000D01*
X131137500Y-70000000D02*
X131799999Y-70000000D01*
X62230000Y-63580000D02*
X66150000Y-67500000D01*
X119845000Y-78486000D02*
X105664000Y-78486000D01*
X101346000Y-83058000D02*
X101346000Y-79756000D01*
X63484000Y-44466000D02*
X70088000Y-44466000D01*
D30*
X150000000Y-51799999D02*
X150000000Y-50000000D01*
D29*
X105664000Y-78486000D02*
X101346000Y-74168000D01*
X128862500Y-76369500D02*
X124206000Y-81026000D01*
X124206000Y-81026000D02*
X122385000Y-81026000D01*
X74390000Y-42958000D02*
X76454000Y-40894000D01*
X101346000Y-74168000D02*
X96520000Y-69342000D01*
X128862500Y-70950000D02*
X128862500Y-73255296D01*
X131799999Y-70000000D02*
X150000000Y-51799999D01*
X63484000Y-44466000D02*
X62230000Y-45720000D01*
%TO.N,Net-(BT1-+)*%
X94996000Y-96050100D02*
X94996000Y-83820000D01*
X93764100Y-97282000D02*
X94996000Y-96050100D01*
X95480000Y-83336000D02*
X97282000Y-83336000D01*
X94996000Y-83820000D02*
X95480000Y-83336000D01*
%TO.N,VCC*%
X86868000Y-79756000D02*
X86868000Y-92356355D01*
X91520000Y-69342000D02*
X91520000Y-75104000D01*
X86868000Y-92356355D02*
X91764099Y-97252454D01*
X91764099Y-97252454D02*
X91764099Y-97282000D01*
X91520000Y-75104000D02*
X86868000Y-79756000D01*
D30*
%TO.N,Net-(D1-K)*%
X68072000Y-48768000D02*
X72390000Y-48768000D01*
%TO.N,Net-(C1-Pad1)*%
X121666000Y-78232000D02*
X121920000Y-78486000D01*
X121666000Y-75946000D02*
X121666000Y-78232000D01*
X121666000Y-69088000D02*
X121666000Y-75946000D01*
X119079296Y-75946000D02*
X121158000Y-73867296D01*
X133096000Y-51562000D02*
X133080000Y-51578000D01*
X115062000Y-75946000D02*
X119079296Y-75946000D01*
X133080000Y-51578000D02*
X133080000Y-56134000D01*
%TO.N,/Id*%
X120415400Y-60415400D02*
X110000000Y-50000000D01*
X104628000Y-55372000D02*
X110000000Y-50000000D01*
X126238000Y-60415400D02*
X120415400Y-60415400D01*
X94996000Y-55372000D02*
X104628000Y-55372000D01*
%TO.N,/Button*%
X66150000Y-72500000D02*
X66150000Y-77834000D01*
X66150000Y-77834000D02*
X71628000Y-83312000D01*
X66150000Y-72500000D02*
X78650000Y-72500000D01*
D29*
%TO.N,/3V3*%
X94996000Y-47752000D02*
X92456000Y-47752000D01*
X156210000Y-62738000D02*
X147998000Y-70950000D01*
X147998000Y-70950000D02*
X131137500Y-70950000D01*
X156210000Y-49276000D02*
X156210000Y-62738000D01*
X131080000Y-56134000D02*
X131080000Y-60399400D01*
X90932000Y-49276000D02*
X90932000Y-59690000D01*
X126238000Y-62415400D02*
X129064000Y-62415400D01*
D30*
X125588180Y-62484000D02*
X125878790Y-62774610D01*
D29*
X129064000Y-62415400D02*
X131064000Y-60415400D01*
X93726000Y-62484000D02*
X125588180Y-62484000D01*
X92456000Y-47752000D02*
X90932000Y-49276000D01*
X90932000Y-59690000D02*
X93726000Y-62484000D01*
X73628000Y-83312000D02*
X77978000Y-83312000D01*
D30*
X131080000Y-60399400D02*
X131064000Y-60415400D01*
%TO.N,/SDA_XIAO*%
X91948000Y-65024000D02*
X128778000Y-65024000D01*
X131064000Y-62738000D02*
X131064000Y-62415400D01*
X79756000Y-52832000D02*
X91948000Y-65024000D01*
X128778000Y-65024000D02*
X131064000Y-62738000D01*
X133382000Y-62415400D02*
X135382000Y-60415400D01*
X131064000Y-62415400D02*
X133382000Y-62415400D01*
%TO.N,/SDA_TLV*%
X135382000Y-64805500D02*
X135382000Y-62415400D01*
X131137500Y-69050000D02*
X135382000Y-64805500D01*
%TO.N,/SCL_TLV*%
X127819500Y-68007000D02*
X120747000Y-68007000D01*
X128862500Y-69050000D02*
X127819500Y-68007000D01*
X120747000Y-68007000D02*
X119666000Y-69088000D01*
%TO.N,/SCL_XIAO*%
X112554000Y-66548000D02*
X119666000Y-73660000D01*
X90932000Y-66548000D02*
X112554000Y-66548000D01*
X79756000Y-55372000D02*
X90932000Y-66548000D01*
%TD*%
%TA.AperFunction,Conductor*%
%TO.N,GND*%
G36*
X159942539Y-40020185D02*
G01*
X159988294Y-40072989D01*
X159999500Y-40124500D01*
X159999500Y-99875500D01*
X159979815Y-99942539D01*
X159927011Y-99988294D01*
X159875500Y-99999500D01*
X60124500Y-99999500D01*
X60057461Y-99979815D01*
X60011706Y-99927011D01*
X60000500Y-99875500D01*
X60000500Y-72439281D01*
X64121635Y-72439281D01*
X64131933Y-72681715D01*
X64131933Y-72681719D01*
X64183056Y-72918929D01*
X64183057Y-72918932D01*
X64266867Y-73127500D01*
X64273532Y-73144086D01*
X64299639Y-73186486D01*
X64400757Y-73350713D01*
X64561075Y-73532869D01*
X64561079Y-73532873D01*
X64749870Y-73685311D01*
X64961709Y-73803652D01*
X64961712Y-73803653D01*
X65190507Y-73884491D01*
X65190513Y-73884492D01*
X65419456Y-73923749D01*
X65482205Y-73954480D01*
X65518377Y-74014257D01*
X65522500Y-74045965D01*
X65522500Y-77751032D01*
X65520772Y-77766681D01*
X65521054Y-77766708D01*
X65520319Y-77774475D01*
X65522500Y-77843859D01*
X65522500Y-77873477D01*
X65523371Y-77880380D01*
X65523829Y-77886199D01*
X65525298Y-77932942D01*
X65530916Y-77952275D01*
X65534862Y-77971329D01*
X65537383Y-77991287D01*
X65537386Y-77991299D01*
X65554595Y-78034765D01*
X65556487Y-78040293D01*
X65569530Y-78085187D01*
X65569530Y-78085188D01*
X65579777Y-78102515D01*
X65588335Y-78119985D01*
X65595745Y-78138701D01*
X65623229Y-78176529D01*
X65626437Y-78181413D01*
X65650234Y-78221652D01*
X65650240Y-78221660D01*
X65664469Y-78235888D01*
X65677109Y-78250687D01*
X65688934Y-78266964D01*
X65688936Y-78266965D01*
X65688937Y-78266967D01*
X65724957Y-78296765D01*
X65729268Y-78300687D01*
X68864582Y-81436001D01*
X70491181Y-83062600D01*
X70524666Y-83123923D01*
X70527500Y-83150281D01*
X70527500Y-83812001D01*
X70527501Y-83812019D01*
X70538000Y-83914796D01*
X70538001Y-83914799D01*
X70586945Y-84062500D01*
X70593186Y-84081334D01*
X70685288Y-84230656D01*
X70809344Y-84354712D01*
X70958666Y-84446814D01*
X71125203Y-84501999D01*
X71227991Y-84512500D01*
X72028008Y-84512499D01*
X72028016Y-84512498D01*
X72028019Y-84512498D01*
X72084302Y-84506748D01*
X72130797Y-84501999D01*
X72297334Y-84446814D01*
X72446656Y-84354712D01*
X72540319Y-84261049D01*
X72601642Y-84227564D01*
X72671334Y-84232548D01*
X72715681Y-84261049D01*
X72809344Y-84354712D01*
X72958666Y-84446814D01*
X73125203Y-84501999D01*
X73227991Y-84512500D01*
X74028008Y-84512499D01*
X74028016Y-84512498D01*
X74028019Y-84512498D01*
X74084302Y-84506748D01*
X74130797Y-84501999D01*
X74297334Y-84446814D01*
X74446656Y-84354712D01*
X74570712Y-84230656D01*
X74638099Y-84121402D01*
X74690047Y-84074679D01*
X74743638Y-84062500D01*
X76741455Y-84062500D01*
X76808494Y-84082185D01*
X76845264Y-84118679D01*
X76877728Y-84168370D01*
X76918102Y-84212227D01*
X77033692Y-84337792D01*
X77215411Y-84479229D01*
X77417931Y-84588828D01*
X77531025Y-84627653D01*
X77635725Y-84663597D01*
X77635727Y-84663597D01*
X77635729Y-84663598D01*
X77862863Y-84701500D01*
X77862864Y-84701500D01*
X78093136Y-84701500D01*
X78093137Y-84701500D01*
X78320271Y-84663598D01*
X78538069Y-84588828D01*
X78740589Y-84479229D01*
X78922308Y-84337792D01*
X79078269Y-84168373D01*
X79204217Y-83975595D01*
X79296717Y-83764716D01*
X79353246Y-83541488D01*
X79361697Y-83439493D01*
X79372262Y-83312005D01*
X79372262Y-83311994D01*
X79359584Y-83159008D01*
X79353246Y-83082512D01*
X79296717Y-82859284D01*
X79204217Y-82648405D01*
X79190249Y-82627026D01*
X79078271Y-82455629D01*
X79023780Y-82396436D01*
X78922308Y-82286208D01*
X78854036Y-82233070D01*
X78740591Y-82144772D01*
X78538069Y-82035172D01*
X78538061Y-82035169D01*
X78320274Y-81960402D01*
X78149920Y-81931975D01*
X78093137Y-81922500D01*
X77862863Y-81922500D01*
X77817436Y-81930080D01*
X77635725Y-81960402D01*
X77417938Y-82035169D01*
X77417930Y-82035172D01*
X77215408Y-82144772D01*
X77033694Y-82286206D01*
X77033689Y-82286211D01*
X76877728Y-82455629D01*
X76845264Y-82505321D01*
X76792117Y-82550678D01*
X76741455Y-82561500D01*
X74743638Y-82561500D01*
X74676599Y-82541815D01*
X74638099Y-82502597D01*
X74631885Y-82492522D01*
X74570712Y-82393344D01*
X74446656Y-82269288D01*
X74297334Y-82177186D01*
X74130797Y-82122001D01*
X74130795Y-82122000D01*
X74028010Y-82111500D01*
X73227998Y-82111500D01*
X73227980Y-82111501D01*
X73125203Y-82122000D01*
X73125200Y-82122001D01*
X72958668Y-82177185D01*
X72958663Y-82177187D01*
X72809342Y-82269289D01*
X72715681Y-82362951D01*
X72654358Y-82396436D01*
X72584666Y-82391452D01*
X72540319Y-82362951D01*
X72446657Y-82269289D01*
X72446656Y-82269288D01*
X72297334Y-82177186D01*
X72130797Y-82122001D01*
X72130795Y-82122000D01*
X72028016Y-82111500D01*
X72028009Y-82111500D01*
X71366281Y-82111500D01*
X71299242Y-82091815D01*
X71278600Y-82075181D01*
X66813819Y-77610400D01*
X66780334Y-77549077D01*
X66777500Y-77522719D01*
X66777500Y-74042122D01*
X66797185Y-73975083D01*
X66849989Y-73929328D01*
X66890984Y-73918569D01*
X66910750Y-73916886D01*
X66990775Y-73910076D01*
X66990775Y-73910075D01*
X66990782Y-73910075D01*
X67225608Y-73848931D01*
X67225611Y-73848930D01*
X67446713Y-73748986D01*
X67446716Y-73748983D01*
X67446723Y-73748981D01*
X67647765Y-73613100D01*
X67822952Y-73445197D01*
X67967244Y-73250102D01*
X67994685Y-73195676D01*
X68042442Y-73144676D01*
X68105408Y-73127500D01*
X76694049Y-73127500D01*
X76761088Y-73147185D01*
X76799639Y-73186486D01*
X76900757Y-73350713D01*
X77061075Y-73532869D01*
X77061079Y-73532873D01*
X77249870Y-73685311D01*
X77461709Y-73803652D01*
X77461712Y-73803653D01*
X77690507Y-73884491D01*
X77690513Y-73884492D01*
X77929662Y-73925499D01*
X77929670Y-73925499D01*
X77929672Y-73925500D01*
X77929673Y-73925500D01*
X79309559Y-73925500D01*
X79490775Y-73910076D01*
X79490775Y-73910075D01*
X79490782Y-73910075D01*
X79725608Y-73848931D01*
X79725611Y-73848930D01*
X79946713Y-73748986D01*
X79946716Y-73748983D01*
X79946723Y-73748981D01*
X80147765Y-73613100D01*
X80322952Y-73445197D01*
X80467244Y-73250102D01*
X80576488Y-73033429D01*
X80647543Y-72801409D01*
X80678365Y-72560719D01*
X80676855Y-72525185D01*
X80668066Y-72318284D01*
X80668066Y-72318280D01*
X80642271Y-72198591D01*
X80616944Y-72081072D01*
X80526468Y-71855914D01*
X80399242Y-71649286D01*
X80238925Y-71467131D01*
X80238924Y-71467130D01*
X80238920Y-71467126D01*
X80050129Y-71314688D01*
X79838290Y-71196347D01*
X79609500Y-71115511D01*
X79609486Y-71115507D01*
X79370337Y-71074500D01*
X79370328Y-71074500D01*
X77990446Y-71074500D01*
X77990441Y-71074500D01*
X77809224Y-71089923D01*
X77809222Y-71089924D01*
X77574391Y-71151068D01*
X77574388Y-71151069D01*
X77353286Y-71251013D01*
X77353274Y-71251020D01*
X77152234Y-71386900D01*
X77152232Y-71386902D01*
X76977047Y-71554803D01*
X76977046Y-71554804D01*
X76832758Y-71749893D01*
X76832753Y-71749901D01*
X76805315Y-71804324D01*
X76757558Y-71855324D01*
X76694592Y-71872500D01*
X68105951Y-71872500D01*
X68038912Y-71852815D01*
X68000361Y-71813514D01*
X67959774Y-71747597D01*
X67899242Y-71649286D01*
X67738925Y-71467131D01*
X67738924Y-71467130D01*
X67738920Y-71467126D01*
X67550129Y-71314688D01*
X67338290Y-71196347D01*
X67109500Y-71115511D01*
X67109486Y-71115507D01*
X66870337Y-71074500D01*
X66870328Y-71074500D01*
X65490446Y-71074500D01*
X65490441Y-71074500D01*
X65309224Y-71089923D01*
X65309222Y-71089924D01*
X65074391Y-71151068D01*
X65074388Y-71151069D01*
X64853286Y-71251013D01*
X64853274Y-71251020D01*
X64652234Y-71386900D01*
X64652232Y-71386902D01*
X64477047Y-71554803D01*
X64477046Y-71554804D01*
X64332758Y-71749893D01*
X64223515Y-71966565D01*
X64223512Y-71966571D01*
X64152456Y-72198594D01*
X64121635Y-72439281D01*
X60000500Y-72439281D01*
X60000500Y-67249999D01*
X64146377Y-67249999D01*
X64146378Y-67250000D01*
X65549272Y-67250000D01*
X65526900Y-67297543D01*
X65496127Y-67458862D01*
X65506439Y-67622766D01*
X65547780Y-67750000D01*
X64147161Y-67750000D01*
X64183536Y-67918782D01*
X64183537Y-67918785D01*
X64273978Y-68143856D01*
X64401161Y-68350415D01*
X64561422Y-68532507D01*
X64561426Y-68532511D01*
X64750144Y-68684890D01*
X64750150Y-68684894D01*
X64961917Y-68803194D01*
X65190629Y-68884003D01*
X65190637Y-68884005D01*
X65429706Y-68924999D01*
X65429715Y-68925000D01*
X65900000Y-68925000D01*
X65900000Y-68104310D01*
X65908817Y-68109158D01*
X66067886Y-68150000D01*
X66190894Y-68150000D01*
X66312933Y-68134583D01*
X66400000Y-68100110D01*
X66400000Y-68925000D01*
X66809539Y-68925000D01*
X66990692Y-68909582D01*
X67225440Y-68848458D01*
X67446472Y-68748546D01*
X67446480Y-68748541D01*
X67647450Y-68612708D01*
X67647453Y-68612706D01*
X67822575Y-68444864D01*
X67822576Y-68444863D01*
X67966813Y-68249843D01*
X68076021Y-68033242D01*
X68147053Y-67801299D01*
X68153622Y-67750000D01*
X66750728Y-67750000D01*
X66773100Y-67702457D01*
X66803873Y-67541138D01*
X66793561Y-67377234D01*
X66752220Y-67250000D01*
X68152839Y-67250000D01*
X68152839Y-67249999D01*
X76646377Y-67249999D01*
X76646378Y-67250000D01*
X78049272Y-67250000D01*
X78026900Y-67297543D01*
X77996127Y-67458862D01*
X78006439Y-67622766D01*
X78047780Y-67750000D01*
X76647161Y-67750000D01*
X76683536Y-67918782D01*
X76683537Y-67918785D01*
X76773978Y-68143856D01*
X76901161Y-68350415D01*
X77061422Y-68532507D01*
X77061426Y-68532511D01*
X77250144Y-68684890D01*
X77250150Y-68684894D01*
X77461917Y-68803194D01*
X77690629Y-68884003D01*
X77690637Y-68884005D01*
X77929706Y-68924999D01*
X77929715Y-68925000D01*
X78400000Y-68925000D01*
X78400000Y-68104310D01*
X78408817Y-68109158D01*
X78567886Y-68150000D01*
X78690894Y-68150000D01*
X78812933Y-68134583D01*
X78900000Y-68100110D01*
X78900000Y-68925000D01*
X79309539Y-68925000D01*
X79490692Y-68909582D01*
X79725440Y-68848458D01*
X79946472Y-68748546D01*
X79946480Y-68748541D01*
X80147450Y-68612708D01*
X80147453Y-68612706D01*
X80322575Y-68444864D01*
X80322576Y-68444863D01*
X80466813Y-68249843D01*
X80576021Y-68033242D01*
X80647053Y-67801299D01*
X80653622Y-67750000D01*
X79250728Y-67750000D01*
X79273100Y-67702457D01*
X79303873Y-67541138D01*
X79293561Y-67377234D01*
X79252220Y-67250000D01*
X80652839Y-67250000D01*
X80616463Y-67081217D01*
X80616462Y-67081214D01*
X80526021Y-66856143D01*
X80398838Y-66649584D01*
X80238577Y-66467492D01*
X80238573Y-66467488D01*
X80049855Y-66315109D01*
X80049849Y-66315105D01*
X79838082Y-66196805D01*
X79609370Y-66115996D01*
X79609362Y-66115994D01*
X79370293Y-66075000D01*
X78900000Y-66075000D01*
X78900000Y-66895689D01*
X78891183Y-66890842D01*
X78732114Y-66850000D01*
X78609106Y-66850000D01*
X78487067Y-66865417D01*
X78400000Y-66899889D01*
X78400000Y-66075000D01*
X77990461Y-66075000D01*
X77809307Y-66090417D01*
X77574559Y-66151541D01*
X77353527Y-66251453D01*
X77353519Y-66251458D01*
X77152549Y-66387291D01*
X77152546Y-66387293D01*
X76977424Y-66555135D01*
X76977423Y-66555136D01*
X76833186Y-66750156D01*
X76723978Y-66966757D01*
X76652946Y-67198700D01*
X76646377Y-67249999D01*
X68152839Y-67249999D01*
X68116463Y-67081217D01*
X68116462Y-67081214D01*
X68026021Y-66856143D01*
X67898838Y-66649584D01*
X67738577Y-66467492D01*
X67738573Y-66467488D01*
X67549855Y-66315109D01*
X67549849Y-66315105D01*
X67338082Y-66196805D01*
X67109370Y-66115996D01*
X67109362Y-66115994D01*
X66870293Y-66075000D01*
X66400000Y-66075000D01*
X66400000Y-66895689D01*
X66391183Y-66890842D01*
X66232114Y-66850000D01*
X66109106Y-66850000D01*
X65987067Y-66865417D01*
X65900000Y-66899889D01*
X65900000Y-66075000D01*
X65490461Y-66075000D01*
X65309307Y-66090417D01*
X65074559Y-66151541D01*
X64853527Y-66251453D01*
X64853519Y-66251458D01*
X64652549Y-66387291D01*
X64652546Y-66387293D01*
X64477424Y-66555135D01*
X64477423Y-66555136D01*
X64333186Y-66750156D01*
X64223978Y-66966757D01*
X64152946Y-67198700D01*
X64146377Y-67249999D01*
X60000500Y-67249999D01*
X60000500Y-65020000D01*
X81970501Y-65020000D01*
X81970501Y-65294986D01*
X81980994Y-65397697D01*
X82036141Y-65564119D01*
X82036143Y-65564124D01*
X82128184Y-65713345D01*
X82252154Y-65837315D01*
X82401375Y-65929356D01*
X82401380Y-65929358D01*
X82567802Y-65984505D01*
X82567809Y-65984506D01*
X82670519Y-65994999D01*
X82807999Y-65994999D01*
X82808000Y-65994998D01*
X82808000Y-65020000D01*
X81970501Y-65020000D01*
X60000500Y-65020000D01*
X60000500Y-64520000D01*
X81970500Y-64520000D01*
X82808000Y-64520000D01*
X82808000Y-63545000D01*
X82670527Y-63545000D01*
X82670512Y-63545001D01*
X82567802Y-63555494D01*
X82401380Y-63610641D01*
X82401375Y-63610643D01*
X82252154Y-63702684D01*
X82128184Y-63826654D01*
X82036143Y-63975875D01*
X82036141Y-63975880D01*
X81980994Y-64142302D01*
X81980993Y-64142309D01*
X81970500Y-64245013D01*
X81970500Y-64520000D01*
X60000500Y-64520000D01*
X60000500Y-48768006D01*
X64126700Y-48768006D01*
X64145864Y-48999297D01*
X64145866Y-48999308D01*
X64202842Y-49224300D01*
X64296075Y-49436848D01*
X64423016Y-49631147D01*
X64423019Y-49631151D01*
X64423021Y-49631153D01*
X64580216Y-49801913D01*
X64733662Y-49921344D01*
X64774475Y-49978055D01*
X64781500Y-50019198D01*
X64781500Y-50482294D01*
X64780191Y-50500263D01*
X64776710Y-50524025D01*
X64781264Y-50576064D01*
X64781500Y-50581470D01*
X64781500Y-50589709D01*
X64785306Y-50622274D01*
X64792000Y-50698791D01*
X64793461Y-50705867D01*
X64793403Y-50705878D01*
X64795034Y-50713237D01*
X64795092Y-50713224D01*
X64796757Y-50720250D01*
X64823025Y-50792424D01*
X64847185Y-50865331D01*
X64850236Y-50871874D01*
X64850182Y-50871898D01*
X64853470Y-50878688D01*
X64853521Y-50878663D01*
X64856761Y-50885113D01*
X64856762Y-50885114D01*
X64856763Y-50885117D01*
X64865503Y-50898405D01*
X64898965Y-50949283D01*
X64939287Y-51014655D01*
X64943766Y-51020319D01*
X64943719Y-51020356D01*
X64948482Y-51026202D01*
X64948528Y-51026164D01*
X64953173Y-51031700D01*
X65009017Y-51084385D01*
X65718270Y-51793638D01*
X65730051Y-51807270D01*
X65744388Y-51826528D01*
X65784409Y-51860111D01*
X65788397Y-51863766D01*
X65794216Y-51869585D01*
X65794220Y-51869588D01*
X65794223Y-51869591D01*
X65819959Y-51889940D01*
X65878786Y-51939302D01*
X65878787Y-51939302D01*
X65878789Y-51939304D01*
X65884818Y-51943270D01*
X65884785Y-51943319D01*
X65891147Y-51947372D01*
X65891179Y-51947321D01*
X65897319Y-51951108D01*
X65897323Y-51951111D01*
X65932132Y-51967343D01*
X65966941Y-51983575D01*
X65985336Y-51992813D01*
X66035567Y-52018040D01*
X66035569Y-52018040D01*
X66042357Y-52020511D01*
X66042336Y-52020567D01*
X66049455Y-52023042D01*
X66049474Y-52022986D01*
X66056329Y-52025258D01*
X66131562Y-52040791D01*
X66206279Y-52058500D01*
X66206289Y-52058500D01*
X66213452Y-52059338D01*
X66213444Y-52059397D01*
X66220945Y-52060164D01*
X66220951Y-52060105D01*
X66228140Y-52060734D01*
X66228144Y-52060733D01*
X66228145Y-52060734D01*
X66304918Y-52058500D01*
X74612295Y-52058500D01*
X74630265Y-52059809D01*
X74654023Y-52063289D01*
X74706068Y-52058735D01*
X74711470Y-52058500D01*
X74719704Y-52058500D01*
X74719709Y-52058500D01*
X74731327Y-52057141D01*
X74752276Y-52054693D01*
X74765028Y-52053577D01*
X74828797Y-52047999D01*
X74828805Y-52047996D01*
X74835866Y-52046539D01*
X74835878Y-52046598D01*
X74843243Y-52044965D01*
X74843229Y-52044906D01*
X74850246Y-52043241D01*
X74850255Y-52043241D01*
X74922423Y-52016974D01*
X74995334Y-51992814D01*
X74995343Y-51992807D01*
X75001882Y-51989760D01*
X75001908Y-51989816D01*
X75008690Y-51986532D01*
X75008663Y-51986478D01*
X75015106Y-51983240D01*
X75015117Y-51983237D01*
X75079283Y-51941034D01*
X75144656Y-51900712D01*
X75144662Y-51900705D01*
X75150325Y-51896229D01*
X75150363Y-51896277D01*
X75156200Y-51891522D01*
X75156161Y-51891475D01*
X75161696Y-51886830D01*
X75214385Y-51830982D01*
X75966549Y-51078819D01*
X76027872Y-51045334D01*
X76054230Y-51042500D01*
X76866060Y-51042500D01*
X76933099Y-51062185D01*
X76971650Y-51101486D01*
X76983806Y-51121229D01*
X77140075Y-51298785D01*
X77140079Y-51298789D01*
X77324102Y-51447377D01*
X77338892Y-51455639D01*
X77387819Y-51505516D01*
X77402014Y-51573928D01*
X77376970Y-51639155D01*
X77347858Y-51666629D01*
X77228942Y-51747002D01*
X77228932Y-51747010D01*
X77101040Y-51869585D01*
X77058168Y-51910674D01*
X76917524Y-52100838D01*
X76917521Y-52100842D01*
X76811039Y-52312037D01*
X76811036Y-52312043D01*
X76741775Y-52538206D01*
X76711733Y-52772815D01*
X76721770Y-53009125D01*
X76721770Y-53009126D01*
X76771603Y-53240348D01*
X76859791Y-53459816D01*
X76983806Y-53661229D01*
X77140075Y-53838785D01*
X77140079Y-53838789D01*
X77324102Y-53987377D01*
X77338892Y-53995639D01*
X77387819Y-54045516D01*
X77402014Y-54113928D01*
X77376970Y-54179155D01*
X77347858Y-54206629D01*
X77228942Y-54287002D01*
X77228932Y-54287010D01*
X77058168Y-54450674D01*
X76917524Y-54640838D01*
X76917521Y-54640842D01*
X76811039Y-54852037D01*
X76811036Y-54852043D01*
X76741775Y-55078206D01*
X76711733Y-55312815D01*
X76721770Y-55549125D01*
X76721770Y-55549126D01*
X76771603Y-55780348D01*
X76859166Y-55998261D01*
X76859793Y-55999820D01*
X76901572Y-56067673D01*
X76983806Y-56201229D01*
X77140075Y-56378785D01*
X77140079Y-56378789D01*
X77324102Y-56527377D01*
X77338892Y-56535639D01*
X77387819Y-56585516D01*
X77402014Y-56653928D01*
X77376970Y-56719155D01*
X77347858Y-56746629D01*
X77228942Y-56827002D01*
X77228932Y-56827010D01*
X77058168Y-56990674D01*
X76917524Y-57180838D01*
X76917521Y-57180842D01*
X76811039Y-57392037D01*
X76811036Y-57392043D01*
X76741775Y-57618206D01*
X76711733Y-57852815D01*
X76721770Y-58089125D01*
X76721770Y-58089126D01*
X76771603Y-58320348D01*
X76859791Y-58539816D01*
X76983806Y-58741229D01*
X77140075Y-58918785D01*
X77140079Y-58918789D01*
X77324102Y-59067377D01*
X77530594Y-59182730D01*
X77753611Y-59261527D01*
X77753617Y-59261528D01*
X77986726Y-59301499D01*
X77986734Y-59301499D01*
X77986736Y-59301500D01*
X77986737Y-59301500D01*
X79942033Y-59301500D01*
X80118671Y-59286466D01*
X80118674Y-59286465D01*
X80118676Y-59286465D01*
X80347571Y-59226865D01*
X80563102Y-59129439D01*
X80759068Y-58996990D01*
X80929831Y-58833327D01*
X81070478Y-58643159D01*
X81176964Y-58431957D01*
X81246224Y-58205797D01*
X81265924Y-58051949D01*
X81293964Y-57987955D01*
X81352152Y-57949278D01*
X81422013Y-57948199D01*
X81476601Y-57980020D01*
X87366407Y-63869826D01*
X87399892Y-63931149D01*
X87394908Y-64000841D01*
X87353036Y-64056774D01*
X87287572Y-64081191D01*
X87223078Y-64068319D01*
X87206431Y-64059959D01*
X87199645Y-64057489D01*
X87199665Y-64057433D01*
X87192549Y-64054959D01*
X87192531Y-64055015D01*
X87185671Y-64052742D01*
X87157841Y-64046996D01*
X87110434Y-64037207D01*
X87061472Y-64025603D01*
X87035719Y-64019499D01*
X87028547Y-64018661D01*
X87028553Y-64018601D01*
X87021055Y-64017835D01*
X87021050Y-64017895D01*
X87013860Y-64017265D01*
X86937083Y-64019500D01*
X86251558Y-64019500D01*
X86184519Y-63999815D01*
X86146019Y-63960597D01*
X86063212Y-63826344D01*
X85939156Y-63702288D01*
X85789834Y-63610186D01*
X85623297Y-63555001D01*
X85623295Y-63555000D01*
X85520510Y-63544500D01*
X84745498Y-63544500D01*
X84745480Y-63544501D01*
X84642703Y-63555000D01*
X84642700Y-63555001D01*
X84476168Y-63610185D01*
X84476163Y-63610187D01*
X84326842Y-63702289D01*
X84202788Y-63826343D01*
X84202783Y-63826349D01*
X84200741Y-63829661D01*
X84198747Y-63831453D01*
X84198307Y-63832011D01*
X84198211Y-63831935D01*
X84148791Y-63876383D01*
X84079828Y-63887602D01*
X84015747Y-63859755D01*
X83989668Y-63829656D01*
X83987819Y-63826659D01*
X83987816Y-63826655D01*
X83863845Y-63702684D01*
X83714624Y-63610643D01*
X83714619Y-63610641D01*
X83548197Y-63555494D01*
X83548190Y-63555493D01*
X83445486Y-63545000D01*
X83308000Y-63545000D01*
X83308000Y-65994999D01*
X83445472Y-65994999D01*
X83445486Y-65994998D01*
X83548197Y-65984505D01*
X83714619Y-65929358D01*
X83714624Y-65929356D01*
X83863845Y-65837315D01*
X83987818Y-65713342D01*
X83989665Y-65710348D01*
X83991469Y-65708724D01*
X83992298Y-65707677D01*
X83992476Y-65707818D01*
X84041610Y-65663621D01*
X84110573Y-65652396D01*
X84174656Y-65680236D01*
X84200743Y-65710341D01*
X84202788Y-65713656D01*
X84326844Y-65837712D01*
X84476166Y-65929814D01*
X84642703Y-65984999D01*
X84745491Y-65995500D01*
X85520508Y-65995499D01*
X85520516Y-65995498D01*
X85520519Y-65995498D01*
X85576802Y-65989748D01*
X85623297Y-65984999D01*
X85789834Y-65929814D01*
X85939156Y-65837712D01*
X86063212Y-65713656D01*
X86146019Y-65579402D01*
X86197967Y-65532679D01*
X86251558Y-65520500D01*
X86585770Y-65520500D01*
X86652809Y-65540185D01*
X86673451Y-65556819D01*
X89633181Y-68516548D01*
X89666666Y-68577871D01*
X89669500Y-68604229D01*
X89669500Y-70492015D01*
X89680000Y-70594795D01*
X89680001Y-70594796D01*
X89735186Y-70761335D01*
X89735187Y-70761337D01*
X89827286Y-70910651D01*
X89827289Y-70910655D01*
X89951344Y-71034710D01*
X89951348Y-71034713D01*
X90100662Y-71126812D01*
X90100664Y-71126813D01*
X90100666Y-71126814D01*
X90267203Y-71181999D01*
X90369992Y-71192500D01*
X90645500Y-71192500D01*
X90712539Y-71212185D01*
X90758294Y-71264989D01*
X90769500Y-71316500D01*
X90769500Y-74741769D01*
X90749815Y-74808808D01*
X90733181Y-74829450D01*
X86382358Y-79180272D01*
X86368729Y-79192051D01*
X86349468Y-79206390D01*
X86315898Y-79246397D01*
X86312253Y-79250376D01*
X86306409Y-79256222D01*
X86286059Y-79281959D01*
X86236695Y-79340789D01*
X86232729Y-79346819D01*
X86232682Y-79346788D01*
X86228630Y-79353147D01*
X86228679Y-79353177D01*
X86224889Y-79359321D01*
X86192424Y-79428941D01*
X86157960Y-79497566D01*
X86155488Y-79504357D01*
X86155432Y-79504336D01*
X86152960Y-79511450D01*
X86153015Y-79511469D01*
X86150742Y-79518327D01*
X86143518Y-79553315D01*
X86135207Y-79593565D01*
X86122933Y-79645356D01*
X86117498Y-79668286D01*
X86116661Y-79675454D01*
X86116601Y-79675447D01*
X86115835Y-79682945D01*
X86115895Y-79682951D01*
X86115265Y-79690140D01*
X86117500Y-79766916D01*
X86117500Y-92292649D01*
X86116191Y-92310618D01*
X86112710Y-92334380D01*
X86117264Y-92386419D01*
X86117500Y-92391825D01*
X86117500Y-92400064D01*
X86121306Y-92432629D01*
X86128000Y-92509146D01*
X86129461Y-92516222D01*
X86129403Y-92516233D01*
X86131034Y-92523592D01*
X86131092Y-92523579D01*
X86132757Y-92530605D01*
X86159025Y-92602779D01*
X86183185Y-92675686D01*
X86186236Y-92682229D01*
X86186182Y-92682253D01*
X86189470Y-92689043D01*
X86189521Y-92689018D01*
X86192761Y-92695468D01*
X86192762Y-92695469D01*
X86192763Y-92695472D01*
X86234965Y-92759638D01*
X86275287Y-92825010D01*
X86279766Y-92830674D01*
X86279719Y-92830711D01*
X86284482Y-92836557D01*
X86284528Y-92836519D01*
X86289173Y-92842055D01*
X86345018Y-92894741D01*
X89136617Y-95686340D01*
X89170102Y-95747663D01*
X89165118Y-95817355D01*
X89123246Y-95873288D01*
X89096389Y-95888582D01*
X88977177Y-95937960D01*
X88775359Y-96061634D01*
X88775358Y-96061635D01*
X88595365Y-96215365D01*
X88441635Y-96395358D01*
X88441634Y-96395359D01*
X88317960Y-96597177D01*
X88227378Y-96815863D01*
X88172122Y-97046022D01*
X88153550Y-97282000D01*
X88172122Y-97517977D01*
X88227378Y-97748136D01*
X88317960Y-97966822D01*
X88441634Y-98168640D01*
X88441635Y-98168641D01*
X88441636Y-98168643D01*
X88441638Y-98168645D01*
X88595365Y-98348635D01*
X88775355Y-98502362D01*
X88775357Y-98502363D01*
X88775358Y-98502364D01*
X88775359Y-98502365D01*
X88977177Y-98626039D01*
X89195863Y-98716621D01*
X89426026Y-98771878D01*
X89662000Y-98790450D01*
X89897974Y-98771878D01*
X90128137Y-98716621D01*
X90346822Y-98626039D01*
X90548645Y-98502362D01*
X90728635Y-98348635D01*
X90856601Y-98198806D01*
X90915106Y-98160615D01*
X90984974Y-98160116D01*
X91034428Y-98187704D01*
X91061504Y-98212387D01*
X91244425Y-98325647D01*
X91445043Y-98403367D01*
X91656526Y-98442900D01*
X91656528Y-98442900D01*
X91871670Y-98442900D01*
X91871672Y-98442900D01*
X92083155Y-98403367D01*
X92283773Y-98325647D01*
X92466694Y-98212387D01*
X92625690Y-98067444D01*
X92665147Y-98015193D01*
X92721253Y-97973560D01*
X92790965Y-97968867D01*
X92852147Y-98002609D01*
X92863050Y-98015192D01*
X92863053Y-98015196D01*
X92902511Y-98067446D01*
X92902514Y-98067449D01*
X93061502Y-98212385D01*
X93061504Y-98212386D01*
X93061505Y-98212387D01*
X93244426Y-98325647D01*
X93445044Y-98403367D01*
X93656527Y-98442900D01*
X93656529Y-98442900D01*
X93871671Y-98442900D01*
X93871673Y-98442900D01*
X94083156Y-98403367D01*
X94283774Y-98325647D01*
X94466695Y-98212387D01*
X94625691Y-98067444D01*
X94665148Y-98015193D01*
X94721254Y-97973560D01*
X94790966Y-97968867D01*
X94852148Y-98002609D01*
X94863051Y-98015192D01*
X94863054Y-98015196D01*
X94902512Y-98067446D01*
X94902515Y-98067449D01*
X95061503Y-98212385D01*
X95061505Y-98212386D01*
X95061506Y-98212387D01*
X95244427Y-98325647D01*
X95445045Y-98403367D01*
X95656528Y-98442900D01*
X95656530Y-98442900D01*
X95871672Y-98442900D01*
X95871674Y-98442900D01*
X96083157Y-98403367D01*
X96283775Y-98325647D01*
X96466696Y-98212387D01*
X96493771Y-98187704D01*
X96556573Y-98157086D01*
X96625960Y-98165282D01*
X96671599Y-98198807D01*
X96799565Y-98348635D01*
X96979555Y-98502362D01*
X96979557Y-98502363D01*
X96979558Y-98502364D01*
X96979559Y-98502365D01*
X97181377Y-98626039D01*
X97400063Y-98716621D01*
X97630226Y-98771878D01*
X97866200Y-98790450D01*
X98102174Y-98771878D01*
X98332337Y-98716621D01*
X98551022Y-98626039D01*
X98752845Y-98502362D01*
X98932835Y-98348635D01*
X99086562Y-98168645D01*
X99210239Y-97966822D01*
X99300821Y-97748137D01*
X99356078Y-97517974D01*
X99374650Y-97282000D01*
X99356078Y-97046026D01*
X99300821Y-96815863D01*
X99210239Y-96597178D01*
X99210239Y-96597177D01*
X99086565Y-96395359D01*
X99086564Y-96395358D01*
X99086563Y-96395357D01*
X99086562Y-96395355D01*
X98932835Y-96215365D01*
X98752845Y-96061638D01*
X98752843Y-96061636D01*
X98752841Y-96061635D01*
X98752840Y-96061634D01*
X98551022Y-95937960D01*
X98332336Y-95847378D01*
X98102177Y-95792122D01*
X97866200Y-95773550D01*
X97630222Y-95792122D01*
X97400063Y-95847378D01*
X97181377Y-95937960D01*
X96979559Y-96061634D01*
X96979558Y-96061635D01*
X96799565Y-96215365D01*
X96671600Y-96365191D01*
X96613093Y-96403384D01*
X96543225Y-96403882D01*
X96493773Y-96376297D01*
X96466696Y-96351613D01*
X96283775Y-96238353D01*
X96083157Y-96160633D01*
X95871674Y-96121100D01*
X95871672Y-96121100D01*
X95870500Y-96121100D01*
X95869958Y-96120941D01*
X95865965Y-96120571D01*
X95866037Y-96119789D01*
X95803461Y-96101415D01*
X95757706Y-96048611D01*
X95746500Y-95997100D01*
X95746500Y-90000003D01*
X106994415Y-90000003D01*
X107014738Y-90348927D01*
X107014739Y-90348938D01*
X107075428Y-90693127D01*
X107075430Y-90693134D01*
X107175674Y-91027972D01*
X107314107Y-91348895D01*
X107314113Y-91348908D01*
X107488870Y-91651597D01*
X107697584Y-91931949D01*
X107697589Y-91931955D01*
X107756244Y-91994125D01*
X107937442Y-92186183D01*
X108075090Y-92301683D01*
X108205186Y-92410847D01*
X108205194Y-92410853D01*
X108497203Y-92602911D01*
X108497207Y-92602913D01*
X108809549Y-92759777D01*
X109137989Y-92879319D01*
X109478086Y-92959923D01*
X109825241Y-93000500D01*
X109825248Y-93000500D01*
X110174752Y-93000500D01*
X110174759Y-93000500D01*
X110521914Y-92959923D01*
X110862011Y-92879319D01*
X111190451Y-92759777D01*
X111502793Y-92602913D01*
X111794811Y-92410849D01*
X112062558Y-92186183D01*
X112302412Y-91931953D01*
X112511130Y-91651596D01*
X112685889Y-91348904D01*
X112824326Y-91027971D01*
X112924569Y-90693136D01*
X112985262Y-90348927D01*
X113005585Y-90000003D01*
X146994415Y-90000003D01*
X147014738Y-90348927D01*
X147014739Y-90348938D01*
X147075428Y-90693127D01*
X147075430Y-90693134D01*
X147175674Y-91027972D01*
X147314107Y-91348895D01*
X147314113Y-91348908D01*
X147488870Y-91651597D01*
X147697584Y-91931949D01*
X147697589Y-91931955D01*
X147756244Y-91994125D01*
X147937442Y-92186183D01*
X148075090Y-92301683D01*
X148205186Y-92410847D01*
X148205194Y-92410853D01*
X148497203Y-92602911D01*
X148497207Y-92602913D01*
X148809549Y-92759777D01*
X149137989Y-92879319D01*
X149478086Y-92959923D01*
X149825241Y-93000500D01*
X149825248Y-93000500D01*
X150174752Y-93000500D01*
X150174759Y-93000500D01*
X150521914Y-92959923D01*
X150862011Y-92879319D01*
X151190451Y-92759777D01*
X151502793Y-92602913D01*
X151794811Y-92410849D01*
X152062558Y-92186183D01*
X152302412Y-91931953D01*
X152511130Y-91651596D01*
X152685889Y-91348904D01*
X152824326Y-91027971D01*
X152924569Y-90693136D01*
X152985262Y-90348927D01*
X153005585Y-90000000D01*
X152985262Y-89651073D01*
X152985260Y-89651061D01*
X152924571Y-89306872D01*
X152924569Y-89306865D01*
X152824325Y-88972027D01*
X152697801Y-88678712D01*
X152685889Y-88651096D01*
X152544000Y-88405336D01*
X152511129Y-88348402D01*
X152302415Y-88068050D01*
X152302410Y-88068044D01*
X152186433Y-87945117D01*
X152062558Y-87813817D01*
X151914488Y-87689572D01*
X151794813Y-87589152D01*
X151794805Y-87589146D01*
X151502796Y-87397088D01*
X151190458Y-87240226D01*
X151190452Y-87240223D01*
X150862012Y-87120681D01*
X150862009Y-87120680D01*
X150521915Y-87040077D01*
X150478519Y-87035004D01*
X150174759Y-86999500D01*
X149825241Y-86999500D01*
X149521480Y-87035004D01*
X149478085Y-87040077D01*
X149478083Y-87040077D01*
X149137990Y-87120680D01*
X149137987Y-87120681D01*
X148809547Y-87240223D01*
X148809541Y-87240226D01*
X148497203Y-87397088D01*
X148205194Y-87589146D01*
X148205186Y-87589152D01*
X147937442Y-87813817D01*
X147937440Y-87813819D01*
X147697589Y-88068044D01*
X147697584Y-88068050D01*
X147488870Y-88348402D01*
X147314113Y-88651091D01*
X147314107Y-88651104D01*
X147175674Y-88972027D01*
X147075430Y-89306865D01*
X147075428Y-89306872D01*
X147014739Y-89651061D01*
X147014738Y-89651072D01*
X146994415Y-89999996D01*
X146994415Y-90000003D01*
X113005585Y-90000003D01*
X113005585Y-90000000D01*
X112985262Y-89651073D01*
X112985260Y-89651061D01*
X112924571Y-89306872D01*
X112924569Y-89306865D01*
X112824325Y-88972027D01*
X112697801Y-88678712D01*
X112685889Y-88651096D01*
X112544000Y-88405336D01*
X112511129Y-88348402D01*
X112302415Y-88068050D01*
X112302410Y-88068044D01*
X112186433Y-87945117D01*
X112062558Y-87813817D01*
X111914488Y-87689572D01*
X111794813Y-87589152D01*
X111794805Y-87589146D01*
X111502796Y-87397088D01*
X111190458Y-87240226D01*
X111190452Y-87240223D01*
X110862012Y-87120681D01*
X110862009Y-87120680D01*
X110521915Y-87040077D01*
X110478519Y-87035004D01*
X110174759Y-86999500D01*
X109825241Y-86999500D01*
X109521480Y-87035004D01*
X109478085Y-87040077D01*
X109478083Y-87040077D01*
X109137990Y-87120680D01*
X109137987Y-87120681D01*
X108809547Y-87240223D01*
X108809541Y-87240226D01*
X108497203Y-87397088D01*
X108205194Y-87589146D01*
X108205186Y-87589152D01*
X107937442Y-87813817D01*
X107937440Y-87813819D01*
X107697589Y-88068044D01*
X107697584Y-88068050D01*
X107488870Y-88348402D01*
X107314113Y-88651091D01*
X107314107Y-88651104D01*
X107175674Y-88972027D01*
X107075430Y-89306865D01*
X107075428Y-89306872D01*
X107014739Y-89651061D01*
X107014738Y-89651072D01*
X106994415Y-89999996D01*
X106994415Y-90000003D01*
X95746500Y-90000003D01*
X95746500Y-85848753D01*
X95766185Y-85781714D01*
X95818989Y-85735959D01*
X95888147Y-85726015D01*
X95898449Y-85728346D01*
X95898457Y-85728310D01*
X95904898Y-85729591D01*
X95975427Y-85735999D01*
X97031999Y-85735999D01*
X97032000Y-85735998D01*
X97032000Y-85086000D01*
X97532000Y-85086000D01*
X97532000Y-85735999D01*
X98588581Y-85735999D01*
X98659102Y-85729591D01*
X98659107Y-85729590D01*
X98821396Y-85679018D01*
X98966877Y-85591072D01*
X99087072Y-85470877D01*
X99175019Y-85325395D01*
X99225590Y-85163106D01*
X99232000Y-85092572D01*
X99232000Y-85086000D01*
X97532000Y-85086000D01*
X97032000Y-85086000D01*
X97032000Y-84710000D01*
X97051685Y-84642961D01*
X97104489Y-84597206D01*
X97156000Y-84586000D01*
X99231999Y-84586000D01*
X99231999Y-84579417D01*
X99225591Y-84508897D01*
X99225590Y-84508892D01*
X99175018Y-84346603D01*
X99087072Y-84201122D01*
X99059984Y-84174034D01*
X99026499Y-84112711D01*
X99031483Y-84043019D01*
X99059982Y-83998674D01*
X99087472Y-83971185D01*
X99175478Y-83825606D01*
X99226086Y-83663196D01*
X99232500Y-83592616D01*
X99232500Y-83079384D01*
X99226086Y-83008804D01*
X99175478Y-82846394D01*
X99087472Y-82700815D01*
X99087470Y-82700813D01*
X99087469Y-82700811D01*
X98967188Y-82580530D01*
X98945827Y-82567617D01*
X98821606Y-82492522D01*
X98659196Y-82441914D01*
X98659194Y-82441913D01*
X98659192Y-82441913D01*
X98609778Y-82437423D01*
X98588616Y-82435500D01*
X95975384Y-82435500D01*
X95956145Y-82437248D01*
X95904807Y-82441913D01*
X95742393Y-82492522D01*
X95669358Y-82536673D01*
X95618171Y-82567617D01*
X95554023Y-82585500D01*
X95543705Y-82585500D01*
X95525735Y-82584191D01*
X95501972Y-82580710D01*
X95456890Y-82584655D01*
X95449933Y-82585264D01*
X95444532Y-82585500D01*
X95436288Y-82585500D01*
X95403707Y-82589308D01*
X95327199Y-82596001D01*
X95320133Y-82597461D01*
X95320121Y-82597404D01*
X95312754Y-82599038D01*
X95312768Y-82599094D01*
X95305751Y-82600756D01*
X95233573Y-82627026D01*
X95160662Y-82651187D01*
X95154119Y-82654238D01*
X95154094Y-82654186D01*
X95147314Y-82657468D01*
X95147340Y-82657520D01*
X95140881Y-82660764D01*
X95076709Y-82702970D01*
X95011345Y-82743288D01*
X95005677Y-82747770D01*
X95005641Y-82747724D01*
X94999798Y-82752484D01*
X94999835Y-82752528D01*
X94994310Y-82757164D01*
X94941599Y-82813033D01*
X94510358Y-83244272D01*
X94496729Y-83256051D01*
X94477468Y-83270390D01*
X94443898Y-83310397D01*
X94440253Y-83314376D01*
X94434409Y-83320222D01*
X94414059Y-83345959D01*
X94364695Y-83404789D01*
X94360729Y-83410819D01*
X94360682Y-83410788D01*
X94356630Y-83417147D01*
X94356679Y-83417177D01*
X94352889Y-83423321D01*
X94320424Y-83492941D01*
X94285960Y-83561566D01*
X94283488Y-83568357D01*
X94283432Y-83568336D01*
X94280960Y-83575450D01*
X94281015Y-83575469D01*
X94278742Y-83582327D01*
X94276618Y-83592616D01*
X94263207Y-83657565D01*
X94250001Y-83713284D01*
X94245498Y-83732286D01*
X94244661Y-83739454D01*
X94244601Y-83739447D01*
X94243835Y-83746945D01*
X94243895Y-83746951D01*
X94243265Y-83754140D01*
X94245500Y-83830916D01*
X94245500Y-85911500D01*
X94225815Y-85978539D01*
X94173011Y-86024294D01*
X94121500Y-86035500D01*
X90881998Y-86035500D01*
X90881981Y-86035501D01*
X90779203Y-86046000D01*
X90779200Y-86046001D01*
X90612668Y-86101185D01*
X90612663Y-86101187D01*
X90463342Y-86193289D01*
X90339289Y-86317342D01*
X90247187Y-86466663D01*
X90247186Y-86466666D01*
X90192001Y-86633203D01*
X90192001Y-86633204D01*
X90192000Y-86633204D01*
X90181500Y-86735983D01*
X90181500Y-88136001D01*
X90181501Y-88136018D01*
X90192000Y-88238796D01*
X90192001Y-88238799D01*
X90228321Y-88348404D01*
X90247186Y-88405334D01*
X90339288Y-88554656D01*
X90463344Y-88678712D01*
X90612666Y-88770814D01*
X90779203Y-88825999D01*
X90881991Y-88836500D01*
X94121500Y-88836499D01*
X94188539Y-88856184D01*
X94234294Y-88908988D01*
X94245500Y-88960499D01*
X94245500Y-95687870D01*
X94225815Y-95754909D01*
X94209181Y-95775551D01*
X93899951Y-96084781D01*
X93838628Y-96118266D01*
X93812270Y-96121100D01*
X93656527Y-96121100D01*
X93445044Y-96160633D01*
X93318175Y-96209782D01*
X93244428Y-96238352D01*
X93244427Y-96238352D01*
X93061502Y-96351614D01*
X92902514Y-96496550D01*
X92902509Y-96496555D01*
X92863052Y-96548805D01*
X92806943Y-96590440D01*
X92737231Y-96595131D01*
X92676049Y-96561388D01*
X92665146Y-96548805D01*
X92625690Y-96496556D01*
X92625687Y-96496553D01*
X92625684Y-96496550D01*
X92466696Y-96351614D01*
X92426910Y-96326979D01*
X92283773Y-96238353D01*
X92083155Y-96160633D01*
X91871672Y-96121100D01*
X91871670Y-96121100D01*
X91745474Y-96121100D01*
X91678435Y-96101415D01*
X91657793Y-96084781D01*
X87654819Y-92081806D01*
X87621334Y-92020483D01*
X87618500Y-91994125D01*
X87618500Y-81436001D01*
X90181500Y-81436001D01*
X90181501Y-81436018D01*
X90192000Y-81538796D01*
X90192001Y-81538799D01*
X90247185Y-81705331D01*
X90247186Y-81705334D01*
X90339288Y-81854656D01*
X90463344Y-81978712D01*
X90612666Y-82070814D01*
X90779203Y-82125999D01*
X90881991Y-82136500D01*
X94282008Y-82136499D01*
X94384797Y-82125999D01*
X94551334Y-82070814D01*
X94700656Y-81978712D01*
X94824712Y-81854656D01*
X94916814Y-81705334D01*
X94971999Y-81538797D01*
X94982500Y-81436009D01*
X94982499Y-80035992D01*
X94971999Y-79933203D01*
X94916814Y-79766666D01*
X94824712Y-79617344D01*
X94700656Y-79493288D01*
X94597493Y-79429657D01*
X94551336Y-79401187D01*
X94551331Y-79401185D01*
X94536396Y-79396236D01*
X94384797Y-79346001D01*
X94384795Y-79346000D01*
X94282010Y-79335500D01*
X90881998Y-79335500D01*
X90881981Y-79335501D01*
X90779203Y-79346000D01*
X90779200Y-79346001D01*
X90612668Y-79401185D01*
X90612663Y-79401187D01*
X90463342Y-79493289D01*
X90339289Y-79617342D01*
X90247187Y-79766663D01*
X90247186Y-79766666D01*
X90192001Y-79933203D01*
X90192001Y-79933204D01*
X90192000Y-79933204D01*
X90181500Y-80035983D01*
X90181500Y-81436001D01*
X87618500Y-81436001D01*
X87618500Y-80118228D01*
X87638185Y-80051189D01*
X87654814Y-80030552D01*
X88949366Y-78736000D01*
X118757501Y-78736000D01*
X118757501Y-79010986D01*
X118767994Y-79113697D01*
X118823141Y-79280119D01*
X118823143Y-79280124D01*
X118915184Y-79429345D01*
X119039154Y-79553315D01*
X119188375Y-79645356D01*
X119188380Y-79645358D01*
X119354802Y-79700505D01*
X119354809Y-79700506D01*
X119457519Y-79710999D01*
X119594999Y-79710999D01*
X119595000Y-79710998D01*
X119595000Y-78736000D01*
X118757501Y-78736000D01*
X88949366Y-78736000D01*
X89449366Y-78236000D01*
X118757500Y-78236000D01*
X119595000Y-78236000D01*
X119595000Y-77261000D01*
X119457527Y-77261000D01*
X119457512Y-77261001D01*
X119354802Y-77271494D01*
X119188380Y-77326641D01*
X119188375Y-77326643D01*
X119039154Y-77418684D01*
X118915184Y-77542654D01*
X118823143Y-77691875D01*
X118823141Y-77691880D01*
X118767994Y-77858302D01*
X118767993Y-77858309D01*
X118757500Y-77961013D01*
X118757500Y-78236000D01*
X89449366Y-78236000D01*
X92005638Y-75679727D01*
X92019267Y-75667950D01*
X92038530Y-75653610D01*
X92038532Y-75653606D01*
X92038534Y-75653606D01*
X92056663Y-75631999D01*
X92072113Y-75613585D01*
X92075767Y-75609599D01*
X92081590Y-75603777D01*
X92101923Y-75578060D01*
X92151302Y-75519214D01*
X92151309Y-75519198D01*
X92155272Y-75513176D01*
X92155324Y-75513210D01*
X92159371Y-75506858D01*
X92159317Y-75506825D01*
X92163104Y-75500684D01*
X92163110Y-75500677D01*
X92195561Y-75431086D01*
X92230036Y-75362440D01*
X92230040Y-75362433D01*
X92230042Y-75362421D01*
X92232510Y-75355644D01*
X92232568Y-75355665D01*
X92235043Y-75348546D01*
X92234985Y-75348527D01*
X92237256Y-75341672D01*
X92242041Y-75318500D01*
X92252784Y-75266467D01*
X92270500Y-75191721D01*
X92270500Y-75191720D01*
X92271339Y-75184548D01*
X92271397Y-75184554D01*
X92272164Y-75177056D01*
X92272104Y-75177051D01*
X92272733Y-75169860D01*
X92270500Y-75093103D01*
X92270500Y-71316500D01*
X92290185Y-71249461D01*
X92342989Y-71203706D01*
X92394500Y-71192500D01*
X92670003Y-71192500D01*
X92670008Y-71192500D01*
X92772797Y-71181999D01*
X92939334Y-71126814D01*
X93088655Y-71034711D01*
X93212711Y-70910655D01*
X93304814Y-70761334D01*
X93359999Y-70594797D01*
X93370500Y-70492008D01*
X93370500Y-69342001D01*
X94665274Y-69342001D01*
X94684152Y-69605960D01*
X94740400Y-69864528D01*
X94832884Y-70112487D01*
X94959701Y-70344735D01*
X94959706Y-70344743D01*
X95047038Y-70461406D01*
X95047039Y-70461406D01*
X95768766Y-69739679D01*
X95812316Y-69821822D01*
X95932009Y-69962735D01*
X96079195Y-70074623D01*
X96121402Y-70094150D01*
X95400592Y-70814959D01*
X95400593Y-70814960D01*
X95517256Y-70902293D01*
X95517264Y-70902298D01*
X95749513Y-71029115D01*
X95749512Y-71029115D01*
X95997471Y-71121599D01*
X96256039Y-71177847D01*
X96519999Y-71196726D01*
X96520001Y-71196726D01*
X96783960Y-71177847D01*
X97042528Y-71121599D01*
X97290487Y-71029115D01*
X97522735Y-70902298D01*
X97522736Y-70902297D01*
X97639406Y-70814959D01*
X96918609Y-70094161D01*
X97037431Y-70022669D01*
X97171658Y-69895523D01*
X97274861Y-69743308D01*
X97992959Y-70461406D01*
X98080297Y-70344736D01*
X98080298Y-70344735D01*
X98207115Y-70112487D01*
X98299599Y-69864528D01*
X98355847Y-69605960D01*
X98374726Y-69342001D01*
X98374726Y-69341998D01*
X98355847Y-69078039D01*
X98299599Y-68819471D01*
X98207115Y-68571512D01*
X98080298Y-68339264D01*
X98080293Y-68339256D01*
X97992960Y-68222593D01*
X97992959Y-68222592D01*
X97271232Y-68944319D01*
X97227684Y-68862178D01*
X97107991Y-68721265D01*
X96960805Y-68609377D01*
X96918596Y-68589849D01*
X97639406Y-67869039D01*
X97639406Y-67869038D01*
X97522743Y-67781706D01*
X97522735Y-67781701D01*
X97290486Y-67654884D01*
X97290487Y-67654884D01*
X97042528Y-67562400D01*
X96783960Y-67506152D01*
X96520001Y-67487274D01*
X96519999Y-67487274D01*
X96256039Y-67506152D01*
X95997471Y-67562400D01*
X95749512Y-67654884D01*
X95517264Y-67781701D01*
X95400593Y-67869039D01*
X96121391Y-68589837D01*
X96002569Y-68661331D01*
X95868342Y-68788477D01*
X95765138Y-68940692D01*
X95047039Y-68222593D01*
X94959701Y-68339264D01*
X94832884Y-68571512D01*
X94740400Y-68819471D01*
X94684152Y-69078039D01*
X94665274Y-69341998D01*
X94665274Y-69342001D01*
X93370500Y-69342001D01*
X93370500Y-68191992D01*
X93359999Y-68089203D01*
X93304814Y-67922666D01*
X93302420Y-67918785D01*
X93212713Y-67773348D01*
X93212710Y-67773344D01*
X93088655Y-67649289D01*
X93088651Y-67649286D01*
X92939337Y-67557187D01*
X92939335Y-67557186D01*
X92849180Y-67527312D01*
X92772797Y-67502001D01*
X92772795Y-67502000D01*
X92670015Y-67491500D01*
X92670008Y-67491500D01*
X90782229Y-67491500D01*
X90715190Y-67471815D01*
X90694548Y-67455181D01*
X90584114Y-67344747D01*
X90550629Y-67283424D01*
X90555613Y-67213732D01*
X90597485Y-67157799D01*
X90662949Y-67133382D01*
X90702632Y-67136962D01*
X90718659Y-67141077D01*
X90737064Y-67147377D01*
X90755542Y-67155374D01*
X90799038Y-67162262D01*
X90801724Y-67162688D01*
X90807429Y-67163869D01*
X90852728Y-67175500D01*
X90872858Y-67175500D01*
X90892257Y-67177027D01*
X90912133Y-67180175D01*
X90954779Y-67176143D01*
X90958679Y-67175775D01*
X90964517Y-67175500D01*
X112242719Y-67175500D01*
X112309758Y-67195185D01*
X112330400Y-67211819D01*
X118529181Y-73410600D01*
X118562666Y-73471923D01*
X118565500Y-73498281D01*
X118565500Y-74160001D01*
X118565501Y-74160019D01*
X118576000Y-74262796D01*
X118576001Y-74262799D01*
X118631185Y-74429331D01*
X118631186Y-74429334D01*
X118723288Y-74578656D01*
X118847344Y-74702712D01*
X118996666Y-74794814D01*
X119066018Y-74817795D01*
X119123462Y-74857566D01*
X119150285Y-74922082D01*
X119137970Y-74990858D01*
X119114695Y-75023181D01*
X118855694Y-75282182D01*
X118794374Y-75315666D01*
X118768015Y-75318500D01*
X116378905Y-75318500D01*
X116311866Y-75298815D01*
X116275096Y-75262322D01*
X116228970Y-75191721D01*
X116162269Y-75089627D01*
X116006308Y-74920208D01*
X115889702Y-74829450D01*
X115824591Y-74778772D01*
X115622069Y-74669172D01*
X115622061Y-74669169D01*
X115404274Y-74594402D01*
X115233920Y-74565975D01*
X115177137Y-74556500D01*
X114946863Y-74556500D01*
X114901436Y-74564080D01*
X114719725Y-74594402D01*
X114501938Y-74669169D01*
X114501930Y-74669172D01*
X114299408Y-74778772D01*
X114117694Y-74920206D01*
X114117689Y-74920211D01*
X113961728Y-75089629D01*
X113835782Y-75282405D01*
X113743282Y-75493285D01*
X113686753Y-75716515D01*
X113667738Y-75945994D01*
X113667738Y-75946005D01*
X113686753Y-76175484D01*
X113743282Y-76398714D01*
X113835782Y-76609594D01*
X113961728Y-76802370D01*
X113961730Y-76802372D01*
X113961731Y-76802373D01*
X114117692Y-76971792D01*
X114299411Y-77113229D01*
X114501931Y-77222828D01*
X114563752Y-77244051D01*
X114719725Y-77297597D01*
X114719727Y-77297597D01*
X114719729Y-77297598D01*
X114946863Y-77335500D01*
X114946864Y-77335500D01*
X115177136Y-77335500D01*
X115177137Y-77335500D01*
X115404271Y-77297598D01*
X115622069Y-77222828D01*
X115824589Y-77113229D01*
X116006308Y-76971792D01*
X116162269Y-76802373D01*
X116275096Y-76629677D01*
X116328243Y-76584322D01*
X116378905Y-76573500D01*
X118996329Y-76573500D01*
X119011977Y-76575227D01*
X119012004Y-76574946D01*
X119019771Y-76575680D01*
X119019772Y-76575679D01*
X119019773Y-76575680D01*
X119089156Y-76573500D01*
X119118772Y-76573500D01*
X119125674Y-76572627D01*
X119131486Y-76572169D01*
X119178239Y-76570701D01*
X119197568Y-76565084D01*
X119216624Y-76561137D01*
X119236589Y-76558616D01*
X119280066Y-76541401D01*
X119285572Y-76539516D01*
X119330487Y-76526468D01*
X119347811Y-76516221D01*
X119365279Y-76507663D01*
X119383999Y-76500253D01*
X119421838Y-76472759D01*
X119426687Y-76469574D01*
X119466952Y-76445763D01*
X119481193Y-76431520D01*
X119495974Y-76418897D01*
X119512263Y-76407063D01*
X119512265Y-76407059D01*
X119512267Y-76407059D01*
X119524141Y-76392703D01*
X119542072Y-76371028D01*
X119545985Y-76366728D01*
X120826820Y-75085893D01*
X120888142Y-75052410D01*
X120957834Y-75057394D01*
X121013767Y-75099266D01*
X121038184Y-75164730D01*
X121038500Y-75173576D01*
X121038500Y-77442270D01*
X121018815Y-77509309D01*
X121002181Y-77529951D01*
X120989788Y-77542343D01*
X120989783Y-77542349D01*
X120987741Y-77545661D01*
X120985747Y-77547453D01*
X120985307Y-77548011D01*
X120985211Y-77547935D01*
X120935791Y-77592383D01*
X120866828Y-77603602D01*
X120802747Y-77575755D01*
X120776668Y-77545656D01*
X120774819Y-77542659D01*
X120774816Y-77542655D01*
X120650845Y-77418684D01*
X120501624Y-77326643D01*
X120501619Y-77326641D01*
X120335197Y-77271494D01*
X120335190Y-77271493D01*
X120232486Y-77261000D01*
X120095000Y-77261000D01*
X120095000Y-79710999D01*
X120232472Y-79710999D01*
X120232486Y-79710998D01*
X120335197Y-79700505D01*
X120501619Y-79645358D01*
X120501624Y-79645356D01*
X120650845Y-79553315D01*
X120774818Y-79429342D01*
X120776665Y-79426348D01*
X120778469Y-79424724D01*
X120779298Y-79423677D01*
X120779476Y-79423818D01*
X120828610Y-79379621D01*
X120897573Y-79368396D01*
X120961656Y-79396236D01*
X120987743Y-79426341D01*
X120989788Y-79429656D01*
X121113844Y-79553712D01*
X121263166Y-79645814D01*
X121429703Y-79700999D01*
X121532491Y-79711500D01*
X122307508Y-79711499D01*
X122307516Y-79711498D01*
X122307519Y-79711498D01*
X122363802Y-79705748D01*
X122410297Y-79700999D01*
X122576834Y-79645814D01*
X122726156Y-79553712D01*
X122850212Y-79429656D01*
X122942314Y-79280334D01*
X122997499Y-79113797D01*
X123008000Y-79011009D01*
X123007999Y-77960992D01*
X122997499Y-77858203D01*
X122942314Y-77691666D01*
X122850212Y-77542344D01*
X122726156Y-77418288D01*
X122633388Y-77361069D01*
X122576836Y-77326187D01*
X122576831Y-77326185D01*
X122575362Y-77325698D01*
X122410297Y-77271001D01*
X122404894Y-77270449D01*
X122340203Y-77244051D01*
X122300053Y-77186869D01*
X122293500Y-77147091D01*
X122293500Y-74889824D01*
X122313185Y-74822785D01*
X122352404Y-74784285D01*
X122361344Y-74778771D01*
X122484656Y-74702712D01*
X122608712Y-74578656D01*
X122700814Y-74429334D01*
X122755999Y-74262797D01*
X122766500Y-74160009D01*
X122766499Y-73159992D01*
X122764934Y-73144676D01*
X122755999Y-73057203D01*
X122755998Y-73057200D01*
X122710179Y-72918928D01*
X122700814Y-72890666D01*
X122608712Y-72741344D01*
X122484656Y-72617288D01*
X122352403Y-72535714D01*
X122305679Y-72483766D01*
X122293500Y-72430175D01*
X122293500Y-71200001D01*
X127702704Y-71200001D01*
X127702899Y-71202486D01*
X127748718Y-71360198D01*
X127832314Y-71501552D01*
X127832321Y-71501561D01*
X127948438Y-71617678D01*
X127948447Y-71617685D01*
X128089803Y-71701282D01*
X128089806Y-71701283D01*
X128247504Y-71747099D01*
X128247510Y-71747100D01*
X128284356Y-71750000D01*
X128612500Y-71750000D01*
X128612500Y-71200000D01*
X127702705Y-71200000D01*
X127702704Y-71200001D01*
X122293500Y-71200001D01*
X122293500Y-70699998D01*
X127702704Y-70699998D01*
X127702705Y-70700000D01*
X128612500Y-70700000D01*
X128612500Y-70250000D01*
X127702705Y-70250000D01*
X127702704Y-70250001D01*
X127702899Y-70252488D01*
X127702900Y-70252494D01*
X127748716Y-70410193D01*
X127748722Y-70410208D01*
X127749716Y-70411888D01*
X127750093Y-70413375D01*
X127751817Y-70417359D01*
X127751174Y-70417637D01*
X127766893Y-70479613D01*
X127751378Y-70532451D01*
X127751817Y-70532641D01*
X127750278Y-70536196D01*
X127749716Y-70538112D01*
X127748722Y-70539791D01*
X127748716Y-70539806D01*
X127702900Y-70697505D01*
X127702899Y-70697511D01*
X127702704Y-70699998D01*
X122293500Y-70699998D01*
X122293500Y-70317824D01*
X122313185Y-70250785D01*
X122352404Y-70212285D01*
X122375149Y-70198256D01*
X122484656Y-70130712D01*
X122608712Y-70006656D01*
X122700814Y-69857334D01*
X122755999Y-69690797D01*
X122766500Y-69588009D01*
X122766499Y-68758499D01*
X122786183Y-68691461D01*
X122838987Y-68645706D01*
X122890499Y-68634500D01*
X127508219Y-68634500D01*
X127575258Y-68654185D01*
X127595900Y-68670819D01*
X127663447Y-68738366D01*
X127696932Y-68799689D01*
X127699388Y-68835725D01*
X127699501Y-68834279D01*
X127699500Y-68834304D01*
X127699500Y-69265696D01*
X127702401Y-69302567D01*
X127702402Y-69302573D01*
X127748254Y-69460393D01*
X127748256Y-69460399D01*
X127749426Y-69462377D01*
X127749869Y-69464126D01*
X127751353Y-69467554D01*
X127750799Y-69467793D01*
X127766603Y-69530102D01*
X127751249Y-69582395D01*
X127751817Y-69582641D01*
X127749827Y-69587239D01*
X127749428Y-69588599D01*
X127748722Y-69589791D01*
X127748716Y-69589806D01*
X127702900Y-69747505D01*
X127702899Y-69747511D01*
X127702704Y-69749998D01*
X127702705Y-69750000D01*
X127968185Y-69750000D01*
X128031306Y-69767268D01*
X128089602Y-69801744D01*
X128131224Y-69813836D01*
X128247426Y-69847597D01*
X128247429Y-69847597D01*
X128247431Y-69847598D01*
X128259722Y-69848565D01*
X128284304Y-69850500D01*
X128284306Y-69850500D01*
X129440696Y-69850500D01*
X129459131Y-69849049D01*
X129477569Y-69847598D01*
X129477571Y-69847597D01*
X129477573Y-69847597D01*
X129519191Y-69835505D01*
X129635398Y-69801744D01*
X129693694Y-69767268D01*
X129756815Y-69750000D01*
X130243185Y-69750000D01*
X130306306Y-69767268D01*
X130364602Y-69801744D01*
X130406224Y-69813836D01*
X130522426Y-69847597D01*
X130522429Y-69847597D01*
X130522431Y-69847598D01*
X130534722Y-69848565D01*
X130559304Y-69850500D01*
X130559306Y-69850500D01*
X131715696Y-69850500D01*
X131734131Y-69849049D01*
X131752569Y-69847598D01*
X131752571Y-69847597D01*
X131752573Y-69847597D01*
X131794191Y-69835505D01*
X131910398Y-69801744D01*
X131968694Y-69767268D01*
X132031815Y-69750000D01*
X132297295Y-69750000D01*
X132297295Y-69749998D01*
X132297100Y-69747511D01*
X132297099Y-69747505D01*
X132251283Y-69589806D01*
X132251281Y-69589801D01*
X132250578Y-69588612D01*
X132250310Y-69587558D01*
X132248184Y-69582644D01*
X132248976Y-69582300D01*
X132233395Y-69520888D01*
X132249009Y-69467714D01*
X132248646Y-69467557D01*
X132249920Y-69464612D01*
X132250579Y-69462369D01*
X132251742Y-69460401D01*
X132251743Y-69460399D01*
X132251744Y-69460398D01*
X132297598Y-69302569D01*
X132300500Y-69265694D01*
X132300500Y-68834306D01*
X132300501Y-68834338D01*
X132300621Y-68835842D01*
X132314947Y-68767457D01*
X132336549Y-68738368D01*
X135767043Y-65307874D01*
X135779325Y-65298037D01*
X135779144Y-65297818D01*
X135785152Y-65292846D01*
X135785162Y-65292840D01*
X135832677Y-65242241D01*
X135853623Y-65221296D01*
X135857892Y-65215790D01*
X135861676Y-65211359D01*
X135893693Y-65177267D01*
X135903389Y-65159628D01*
X135914073Y-65143361D01*
X135926408Y-65127462D01*
X135944978Y-65084546D01*
X135947534Y-65079327D01*
X135970072Y-65038334D01*
X135975078Y-65018834D01*
X135981382Y-65000424D01*
X135989370Y-64981965D01*
X135989373Y-64981959D01*
X135996687Y-64935780D01*
X135997868Y-64930070D01*
X136009500Y-64884772D01*
X136009500Y-64864635D01*
X136011027Y-64845235D01*
X136014174Y-64825367D01*
X136009775Y-64778829D01*
X136009500Y-64772991D01*
X136009500Y-63586753D01*
X136029185Y-63519714D01*
X136081989Y-63473959D01*
X136094482Y-63469052D01*
X136151334Y-63450214D01*
X136300656Y-63358112D01*
X136424712Y-63234056D01*
X136516814Y-63084734D01*
X136571999Y-62918197D01*
X136582500Y-62815409D01*
X136582499Y-62015392D01*
X136571999Y-61912603D01*
X136516814Y-61746066D01*
X136424712Y-61596744D01*
X136331049Y-61503081D01*
X136297564Y-61441758D01*
X136302548Y-61372066D01*
X136331049Y-61327719D01*
X136424712Y-61234056D01*
X136516814Y-61084734D01*
X136571999Y-60918197D01*
X136582500Y-60815409D01*
X136582499Y-60015392D01*
X136571999Y-59912603D01*
X136516814Y-59746066D01*
X136424712Y-59596744D01*
X136300656Y-59472688D01*
X136207404Y-59415170D01*
X136151336Y-59380587D01*
X136151331Y-59380585D01*
X136146946Y-59379132D01*
X135984797Y-59325401D01*
X135984795Y-59325400D01*
X135882010Y-59314900D01*
X134881998Y-59314900D01*
X134881980Y-59314901D01*
X134779203Y-59325400D01*
X134779200Y-59325401D01*
X134612668Y-59380585D01*
X134612663Y-59380587D01*
X134463342Y-59472689D01*
X134339289Y-59596742D01*
X134247187Y-59746063D01*
X134247185Y-59746068D01*
X134219349Y-59830070D01*
X134192001Y-59912603D01*
X134192001Y-59912604D01*
X134192000Y-59912604D01*
X134181500Y-60015383D01*
X134181500Y-60677118D01*
X134161815Y-60744157D01*
X134145181Y-60764799D01*
X133158400Y-61751581D01*
X133097077Y-61785066D01*
X133070719Y-61787900D01*
X132293824Y-61787900D01*
X132226785Y-61768215D01*
X132188285Y-61728996D01*
X132178921Y-61713815D01*
X132106712Y-61596744D01*
X132013049Y-61503081D01*
X131979564Y-61441758D01*
X131984548Y-61372066D01*
X132013049Y-61327719D01*
X132106712Y-61234056D01*
X132198814Y-61084734D01*
X132253999Y-60918197D01*
X132264500Y-60815409D01*
X132264499Y-60015392D01*
X132253999Y-59912603D01*
X132198814Y-59746066D01*
X132106712Y-59596744D01*
X131982656Y-59472688D01*
X131982655Y-59472687D01*
X131889404Y-59415170D01*
X131842679Y-59363222D01*
X131830500Y-59309631D01*
X131830500Y-57287957D01*
X131850185Y-57220918D01*
X131889407Y-57182416D01*
X131898656Y-57176712D01*
X131992319Y-57083049D01*
X132053642Y-57049564D01*
X132123334Y-57054548D01*
X132167681Y-57083049D01*
X132261344Y-57176712D01*
X132410666Y-57268814D01*
X132577203Y-57323999D01*
X132679991Y-57334500D01*
X133480008Y-57334499D01*
X133480016Y-57334498D01*
X133480019Y-57334498D01*
X133536302Y-57328748D01*
X133582797Y-57323999D01*
X133749334Y-57268814D01*
X133898656Y-57176712D01*
X134022712Y-57052656D01*
X134114814Y-56903334D01*
X134169999Y-56736797D01*
X134180500Y-56634009D01*
X134180499Y-55633992D01*
X134169999Y-55531203D01*
X134114814Y-55364666D01*
X134022712Y-55215344D01*
X133898656Y-55091288D01*
X133766403Y-55009714D01*
X133719679Y-54957766D01*
X133707500Y-54904175D01*
X133707500Y-52884882D01*
X133727185Y-52817843D01*
X133772483Y-52775827D01*
X133802141Y-52759777D01*
X133858589Y-52729229D01*
X134040308Y-52587792D01*
X134196269Y-52418373D01*
X134322217Y-52225595D01*
X134414717Y-52014716D01*
X134471246Y-51791488D01*
X134485907Y-51614561D01*
X134490262Y-51562005D01*
X134490262Y-51561994D01*
X134474932Y-51376994D01*
X134471246Y-51332512D01*
X134414717Y-51109284D01*
X134322217Y-50898405D01*
X134304899Y-50871898D01*
X134196271Y-50705629D01*
X134131415Y-50635177D01*
X134040308Y-50536208D01*
X133954121Y-50469126D01*
X133858591Y-50394772D01*
X133656069Y-50285172D01*
X133656061Y-50285169D01*
X133438274Y-50210402D01*
X133273690Y-50182938D01*
X133210805Y-50152487D01*
X133174365Y-50092872D01*
X133175941Y-50023020D01*
X133189951Y-50000003D01*
X146994916Y-50000003D01*
X147015235Y-50348869D01*
X147015236Y-50348880D01*
X147075914Y-50693002D01*
X147075916Y-50693011D01*
X147176145Y-51027800D01*
X147314555Y-51348670D01*
X147314561Y-51348683D01*
X147489289Y-51651322D01*
X147697972Y-51931631D01*
X147697976Y-51931636D01*
X147706147Y-51940297D01*
X147706149Y-51940298D01*
X148702266Y-50944180D01*
X148865130Y-51134870D01*
X149055818Y-51297732D01*
X148062817Y-52290733D01*
X148062818Y-52290734D01*
X148205480Y-52410442D01*
X148497461Y-52602480D01*
X148809739Y-52759314D01*
X148809745Y-52759316D01*
X149138130Y-52878838D01*
X149138133Y-52878839D01*
X149478171Y-52959429D01*
X149825276Y-52999999D01*
X149825277Y-53000000D01*
X150174723Y-53000000D01*
X150174723Y-52999999D01*
X150521827Y-52959429D01*
X150521829Y-52959429D01*
X150861866Y-52878839D01*
X150861869Y-52878838D01*
X151190254Y-52759316D01*
X151190260Y-52759314D01*
X151502538Y-52602480D01*
X151794515Y-52410445D01*
X151937180Y-52290734D01*
X151937181Y-52290733D01*
X150944180Y-51297733D01*
X151134870Y-51134870D01*
X151297733Y-50944180D01*
X152293850Y-51940297D01*
X152302032Y-51931625D01*
X152510710Y-51651322D01*
X152685438Y-51348683D01*
X152685444Y-51348670D01*
X152823854Y-51027800D01*
X152924083Y-50693011D01*
X152924085Y-50693002D01*
X152984763Y-50348880D01*
X152984764Y-50348869D01*
X153005084Y-50000003D01*
X153005084Y-49999996D01*
X152984764Y-49651130D01*
X152984763Y-49651119D01*
X152924085Y-49306997D01*
X152924083Y-49306988D01*
X152823854Y-48972199D01*
X152685444Y-48651329D01*
X152685438Y-48651316D01*
X152510710Y-48348677D01*
X152302029Y-48068371D01*
X152293850Y-48059701D01*
X152293850Y-48059700D01*
X151297732Y-49055818D01*
X151134870Y-48865130D01*
X150944180Y-48702266D01*
X151937181Y-47709265D01*
X151937180Y-47709264D01*
X151794519Y-47589557D01*
X151502538Y-47397519D01*
X151190260Y-47240685D01*
X151190254Y-47240683D01*
X150861869Y-47121161D01*
X150861866Y-47121160D01*
X150521828Y-47040570D01*
X150174723Y-47000000D01*
X149825277Y-47000000D01*
X149478172Y-47040570D01*
X149478170Y-47040570D01*
X149138133Y-47121160D01*
X149138130Y-47121161D01*
X148809745Y-47240683D01*
X148809739Y-47240685D01*
X148497461Y-47397519D01*
X148205485Y-47589554D01*
X148062817Y-47709264D01*
X149055819Y-48702266D01*
X148865130Y-48865130D01*
X148702266Y-49055819D01*
X147706148Y-48059701D01*
X147706146Y-48059701D01*
X147697973Y-48068366D01*
X147489289Y-48348677D01*
X147314561Y-48651316D01*
X147314555Y-48651329D01*
X147176145Y-48972199D01*
X147075916Y-49306988D01*
X147075914Y-49306997D01*
X147015236Y-49651119D01*
X147015235Y-49651130D01*
X146994916Y-49999996D01*
X146994916Y-50000003D01*
X133189951Y-50000003D01*
X133206417Y-49972950D01*
X137688548Y-45490818D01*
X137749871Y-45457334D01*
X137776229Y-45454500D01*
X151275770Y-45454500D01*
X151342809Y-45474185D01*
X151363451Y-45490819D01*
X155423181Y-49550548D01*
X155456666Y-49611871D01*
X155459500Y-49638229D01*
X155459500Y-62375770D01*
X155439815Y-62442809D01*
X155423181Y-62463451D01*
X147723451Y-70163181D01*
X147662128Y-70196666D01*
X147635770Y-70199500D01*
X131932328Y-70199500D01*
X131897733Y-70194576D01*
X131752573Y-70152402D01*
X131752567Y-70152401D01*
X131715696Y-70149500D01*
X131715694Y-70149500D01*
X130559306Y-70149500D01*
X130559304Y-70149500D01*
X130522432Y-70152401D01*
X130522426Y-70152402D01*
X130364606Y-70198254D01*
X130364603Y-70198255D01*
X130306306Y-70232732D01*
X130243185Y-70250000D01*
X129112500Y-70250000D01*
X129112500Y-71750000D01*
X129440644Y-71750000D01*
X129477489Y-71747100D01*
X129477495Y-71747099D01*
X129635193Y-71701283D01*
X129635196Y-71701282D01*
X129776552Y-71617685D01*
X129776561Y-71617678D01*
X129892678Y-71501561D01*
X129892680Y-71501558D01*
X129892972Y-71501066D01*
X129893301Y-71500758D01*
X129897463Y-71495393D01*
X129898328Y-71496064D01*
X129944038Y-71453379D01*
X130012778Y-71440870D01*
X130077370Y-71467510D01*
X130101936Y-71495858D01*
X130102139Y-71495702D01*
X130105022Y-71499420D01*
X130106438Y-71501053D01*
X130106914Y-71501859D01*
X130106923Y-71501870D01*
X130223129Y-71618076D01*
X130223133Y-71618079D01*
X130223135Y-71618081D01*
X130364602Y-71701744D01*
X130376804Y-71705289D01*
X130522426Y-71747597D01*
X130522429Y-71747597D01*
X130522431Y-71747598D01*
X130534722Y-71748565D01*
X130559304Y-71750500D01*
X130559306Y-71750500D01*
X131715696Y-71750500D01*
X131734131Y-71749049D01*
X131752569Y-71747598D01*
X131752571Y-71747597D01*
X131752573Y-71747597D01*
X131897733Y-71705424D01*
X131932328Y-71700500D01*
X147934295Y-71700500D01*
X147952265Y-71701809D01*
X147976023Y-71705289D01*
X148028068Y-71700735D01*
X148033470Y-71700500D01*
X148041704Y-71700500D01*
X148041709Y-71700500D01*
X148053327Y-71699141D01*
X148074276Y-71696693D01*
X148087028Y-71695577D01*
X148150797Y-71689999D01*
X148150805Y-71689996D01*
X148157866Y-71688539D01*
X148157878Y-71688598D01*
X148165243Y-71686965D01*
X148165229Y-71686906D01*
X148172246Y-71685241D01*
X148172255Y-71685241D01*
X148244423Y-71658974D01*
X148317334Y-71634814D01*
X148317343Y-71634807D01*
X148323882Y-71631760D01*
X148323908Y-71631816D01*
X148330690Y-71628532D01*
X148330663Y-71628478D01*
X148337106Y-71625240D01*
X148337117Y-71625237D01*
X148401283Y-71583034D01*
X148466656Y-71542712D01*
X148466662Y-71542705D01*
X148472325Y-71538229D01*
X148472363Y-71538277D01*
X148478200Y-71533522D01*
X148478161Y-71533475D01*
X148483696Y-71528830D01*
X148536385Y-71472982D01*
X152614983Y-67394384D01*
X156695642Y-63313724D01*
X156709271Y-63301947D01*
X156728530Y-63287610D01*
X156762101Y-63247601D01*
X156765761Y-63243606D01*
X156771590Y-63237778D01*
X156772416Y-63236734D01*
X156791940Y-63212040D01*
X156841302Y-63153214D01*
X156841306Y-63153205D01*
X156845274Y-63147175D01*
X156845325Y-63147208D01*
X156849372Y-63140856D01*
X156849320Y-63140824D01*
X156853112Y-63134675D01*
X156885575Y-63065058D01*
X156914174Y-63008112D01*
X156920040Y-62996433D01*
X156920042Y-62996421D01*
X156922509Y-62989646D01*
X156922567Y-62989667D01*
X156925043Y-62982546D01*
X156924986Y-62982528D01*
X156927257Y-62975673D01*
X156942792Y-62900434D01*
X156957545Y-62838189D01*
X156960500Y-62825721D01*
X156960500Y-62825710D01*
X156961338Y-62818548D01*
X156961398Y-62818555D01*
X156962164Y-62811055D01*
X156962105Y-62811050D01*
X156962734Y-62803860D01*
X156962699Y-62802671D01*
X156960500Y-62727082D01*
X156960500Y-49339705D01*
X156961809Y-49321735D01*
X156965289Y-49297974D01*
X156960736Y-49245939D01*
X156960500Y-49240532D01*
X156960500Y-49232297D01*
X156960500Y-49232291D01*
X156956691Y-49199707D01*
X156956657Y-49199324D01*
X156949998Y-49123205D01*
X156949998Y-49123202D01*
X156949996Y-49123197D01*
X156948538Y-49116133D01*
X156948597Y-49116120D01*
X156946967Y-49108764D01*
X156946908Y-49108779D01*
X156945242Y-49101753D01*
X156945241Y-49101745D01*
X156918973Y-49029573D01*
X156917238Y-49024336D01*
X156894815Y-48956666D01*
X156891763Y-48950121D01*
X156891817Y-48950095D01*
X156888533Y-48943312D01*
X156888480Y-48943340D01*
X156885238Y-48936885D01*
X156885237Y-48936883D01*
X156843029Y-48872709D01*
X156802711Y-48807344D01*
X156802710Y-48807343D01*
X156802709Y-48807341D01*
X156798233Y-48801681D01*
X156798280Y-48801643D01*
X156793519Y-48795799D01*
X156793474Y-48795838D01*
X156788834Y-48790308D01*
X156732964Y-48737596D01*
X152213729Y-44218361D01*
X152201949Y-44204730D01*
X152190669Y-44189579D01*
X152187612Y-44185472D01*
X152187610Y-44185470D01*
X152147587Y-44151886D01*
X152143612Y-44148244D01*
X152140690Y-44145322D01*
X152137780Y-44142411D01*
X152112040Y-44122059D01*
X152053209Y-44072694D01*
X152047180Y-44068729D01*
X152047212Y-44068680D01*
X152040853Y-44064628D01*
X152040822Y-44064679D01*
X152034680Y-44060891D01*
X152034678Y-44060890D01*
X152034677Y-44060889D01*
X151995474Y-44042608D01*
X151965058Y-44028424D01*
X151906052Y-43998791D01*
X151896433Y-43993960D01*
X151896431Y-43993959D01*
X151896430Y-43993959D01*
X151889645Y-43991489D01*
X151889665Y-43991433D01*
X151882549Y-43988959D01*
X151882531Y-43989015D01*
X151875671Y-43986742D01*
X151847841Y-43980996D01*
X151800434Y-43971207D01*
X151751472Y-43959603D01*
X151725719Y-43953499D01*
X151718547Y-43952661D01*
X151718553Y-43952601D01*
X151711055Y-43951835D01*
X151711050Y-43951895D01*
X151703860Y-43951265D01*
X151627083Y-43953500D01*
X137477705Y-43953500D01*
X137459735Y-43952191D01*
X137435972Y-43948710D01*
X137391512Y-43952601D01*
X137383931Y-43953264D01*
X137378530Y-43953500D01*
X137370289Y-43953500D01*
X137348579Y-43956037D01*
X137337724Y-43957306D01*
X137322419Y-43958645D01*
X137261199Y-43964001D01*
X137254132Y-43965460D01*
X137254120Y-43965404D01*
X137246763Y-43967035D01*
X137246777Y-43967092D01*
X137239743Y-43968759D01*
X137167575Y-43995025D01*
X137094675Y-44019181D01*
X137088126Y-44022236D01*
X137088101Y-44022183D01*
X137081308Y-44025471D01*
X137081334Y-44025523D01*
X137074880Y-44028764D01*
X137010708Y-44070971D01*
X136945347Y-44111285D01*
X136939683Y-44115765D01*
X136939647Y-44115719D01*
X136933798Y-44120484D01*
X136933835Y-44120528D01*
X136928310Y-44125164D01*
X136928304Y-44125169D01*
X136928304Y-44125170D01*
X136912040Y-44142409D01*
X136875597Y-44181035D01*
X130594358Y-50462272D01*
X130580729Y-50474051D01*
X130561468Y-50488390D01*
X130527898Y-50528397D01*
X130524253Y-50532376D01*
X130518409Y-50538222D01*
X130498059Y-50563959D01*
X130448695Y-50622789D01*
X130444729Y-50628819D01*
X130444682Y-50628788D01*
X130440630Y-50635147D01*
X130440679Y-50635177D01*
X130436889Y-50641321D01*
X130404424Y-50710941D01*
X130369960Y-50779566D01*
X130367488Y-50786357D01*
X130367432Y-50786336D01*
X130364960Y-50793450D01*
X130365015Y-50793469D01*
X130362742Y-50800327D01*
X130360340Y-50811962D01*
X130347207Y-50875565D01*
X130336720Y-50919816D01*
X130329498Y-50950286D01*
X130328661Y-50957454D01*
X130328601Y-50957447D01*
X130327835Y-50964945D01*
X130327895Y-50964951D01*
X130327265Y-50972140D01*
X130329500Y-51048916D01*
X130329500Y-54980042D01*
X130309815Y-55047081D01*
X130270598Y-55085580D01*
X130261344Y-55091287D01*
X130137289Y-55215342D01*
X130069901Y-55324597D01*
X130017953Y-55371321D01*
X129964362Y-55383500D01*
X128378229Y-55383500D01*
X128311190Y-55363815D01*
X128290548Y-55347181D01*
X122983855Y-50040488D01*
X117669729Y-44726361D01*
X117657949Y-44712730D01*
X117650482Y-44702701D01*
X117643612Y-44693472D01*
X117641902Y-44692037D01*
X117603587Y-44659886D01*
X117599612Y-44656244D01*
X117596690Y-44653322D01*
X117593780Y-44650411D01*
X117568040Y-44630059D01*
X117513367Y-44584183D01*
X117509214Y-44580698D01*
X117509213Y-44580697D01*
X117509209Y-44580694D01*
X117503180Y-44576729D01*
X117503212Y-44576680D01*
X117496853Y-44572628D01*
X117496822Y-44572679D01*
X117490680Y-44568891D01*
X117490678Y-44568890D01*
X117490677Y-44568889D01*
X117451474Y-44550608D01*
X117421058Y-44536424D01*
X117386894Y-44519267D01*
X117352433Y-44501960D01*
X117352431Y-44501959D01*
X117352430Y-44501959D01*
X117345645Y-44499489D01*
X117345665Y-44499433D01*
X117338549Y-44496959D01*
X117338531Y-44497015D01*
X117331671Y-44494742D01*
X117303841Y-44488996D01*
X117256434Y-44479207D01*
X117207472Y-44467603D01*
X117181719Y-44461499D01*
X117174547Y-44460661D01*
X117174553Y-44460601D01*
X117167055Y-44459835D01*
X117167050Y-44459895D01*
X117159860Y-44459265D01*
X117083083Y-44461500D01*
X105819248Y-44461500D01*
X105752209Y-44441815D01*
X105721468Y-44410502D01*
X105720193Y-44411511D01*
X105715711Y-44405843D01*
X105591657Y-44281789D01*
X105591656Y-44281788D01*
X105588342Y-44279743D01*
X105586546Y-44277748D01*
X105585989Y-44277307D01*
X105586064Y-44277211D01*
X105541618Y-44227797D01*
X105530397Y-44158834D01*
X105558240Y-44094752D01*
X105588348Y-44068665D01*
X105591342Y-44066818D01*
X105715315Y-43942845D01*
X105807356Y-43793624D01*
X105807358Y-43793619D01*
X105862505Y-43627197D01*
X105862506Y-43627190D01*
X105872999Y-43524486D01*
X105873000Y-43524473D01*
X105873000Y-43387000D01*
X103423001Y-43387000D01*
X103423001Y-43524486D01*
X103433494Y-43627197D01*
X103488641Y-43793619D01*
X103488643Y-43793624D01*
X103580684Y-43942845D01*
X103704655Y-44066816D01*
X103704659Y-44066819D01*
X103707656Y-44068668D01*
X103709279Y-44070472D01*
X103710323Y-44071298D01*
X103710181Y-44071476D01*
X103754381Y-44120616D01*
X103765602Y-44189579D01*
X103737759Y-44253661D01*
X103707661Y-44279741D01*
X103704349Y-44281783D01*
X103704343Y-44281788D01*
X103580288Y-44405843D01*
X103575807Y-44411511D01*
X103573984Y-44410069D01*
X103530335Y-44449325D01*
X103476752Y-44461500D01*
X101755248Y-44461500D01*
X101688209Y-44441815D01*
X101657468Y-44410502D01*
X101656193Y-44411511D01*
X101651711Y-44405843D01*
X101527657Y-44281789D01*
X101527656Y-44281788D01*
X101524342Y-44279743D01*
X101522546Y-44277748D01*
X101521989Y-44277307D01*
X101522064Y-44277211D01*
X101477618Y-44227797D01*
X101466397Y-44158834D01*
X101494240Y-44094752D01*
X101524348Y-44068665D01*
X101527342Y-44066818D01*
X101651315Y-43942845D01*
X101743356Y-43793624D01*
X101743358Y-43793619D01*
X101798505Y-43627197D01*
X101798506Y-43627190D01*
X101808999Y-43524486D01*
X101809000Y-43524473D01*
X101809000Y-43387000D01*
X99359001Y-43387000D01*
X99359001Y-43524486D01*
X99369494Y-43627197D01*
X99424641Y-43793619D01*
X99424643Y-43793624D01*
X99516684Y-43942845D01*
X99640655Y-44066816D01*
X99640659Y-44066819D01*
X99643656Y-44068668D01*
X99645279Y-44070472D01*
X99646323Y-44071298D01*
X99646181Y-44071476D01*
X99690381Y-44120616D01*
X99701602Y-44189579D01*
X99673759Y-44253661D01*
X99643661Y-44279741D01*
X99640349Y-44281783D01*
X99640343Y-44281788D01*
X99516289Y-44405842D01*
X99424187Y-44555163D01*
X99424185Y-44555168D01*
X99414496Y-44584407D01*
X99369001Y-44721703D01*
X99369001Y-44721704D01*
X99369000Y-44721704D01*
X99358500Y-44824483D01*
X99358500Y-45324769D01*
X99338815Y-45391808D01*
X99322181Y-45412450D01*
X97882085Y-46852545D01*
X97820762Y-46886030D01*
X97751070Y-46881046D01*
X97701321Y-46846788D01*
X97611924Y-46745214D01*
X97611920Y-46745210D01*
X97427896Y-46596621D01*
X97427894Y-46596620D01*
X97412614Y-46588084D01*
X97363688Y-46538204D01*
X97349496Y-46469791D01*
X97374544Y-46404565D01*
X97403653Y-46377095D01*
X97522744Y-46296604D01*
X97522751Y-46296598D01*
X97693454Y-46132993D01*
X97834047Y-45942898D01*
X97940498Y-45731768D01*
X98009734Y-45505690D01*
X98015329Y-45462000D01*
X95439196Y-45462000D01*
X95462845Y-45425201D01*
X95504000Y-45285039D01*
X95504000Y-45138961D01*
X95462845Y-44998799D01*
X95439196Y-44962000D01*
X98014012Y-44962000D01*
X97979916Y-44803798D01*
X97979916Y-44803797D01*
X97891758Y-44584407D01*
X97767788Y-44383066D01*
X97611581Y-44205581D01*
X97611579Y-44205579D01*
X97427617Y-44057039D01*
X97427613Y-44057036D01*
X97412639Y-44048671D01*
X97363713Y-43998791D01*
X97349521Y-43930378D01*
X97374569Y-43865153D01*
X97403674Y-43837685D01*
X97523068Y-43756990D01*
X97693831Y-43593327D01*
X97834478Y-43403159D01*
X97940964Y-43191957D01*
X98010224Y-42965797D01*
X98020314Y-42887000D01*
X99359000Y-42887000D01*
X100334000Y-42887000D01*
X100334000Y-42049500D01*
X100834000Y-42049500D01*
X100834000Y-42887000D01*
X101808999Y-42887000D01*
X103423000Y-42887000D01*
X104398000Y-42887000D01*
X104398000Y-42049500D01*
X104898000Y-42049500D01*
X104898000Y-42887000D01*
X105872999Y-42887000D01*
X105872999Y-42749528D01*
X105872998Y-42749513D01*
X105862505Y-42646802D01*
X105807358Y-42480380D01*
X105807356Y-42480375D01*
X105715315Y-42331154D01*
X105591345Y-42207184D01*
X105442124Y-42115143D01*
X105442119Y-42115141D01*
X105275697Y-42059994D01*
X105275690Y-42059993D01*
X105172986Y-42049500D01*
X104898000Y-42049500D01*
X104398000Y-42049500D01*
X104123029Y-42049500D01*
X104123012Y-42049501D01*
X104020302Y-42059994D01*
X103853880Y-42115141D01*
X103853875Y-42115143D01*
X103704654Y-42207184D01*
X103580684Y-42331154D01*
X103488643Y-42480375D01*
X103488641Y-42480380D01*
X103433494Y-42646802D01*
X103433493Y-42646809D01*
X103423000Y-42749513D01*
X103423000Y-42887000D01*
X101808999Y-42887000D01*
X101808999Y-42749528D01*
X101808998Y-42749513D01*
X101798505Y-42646802D01*
X101743358Y-42480380D01*
X101743356Y-42480375D01*
X101651315Y-42331154D01*
X101527345Y-42207184D01*
X101378124Y-42115143D01*
X101378119Y-42115141D01*
X101211697Y-42059994D01*
X101211690Y-42059993D01*
X101108986Y-42049500D01*
X100834000Y-42049500D01*
X100334000Y-42049500D01*
X100059029Y-42049500D01*
X100059012Y-42049501D01*
X99956302Y-42059994D01*
X99789880Y-42115141D01*
X99789875Y-42115143D01*
X99640654Y-42207184D01*
X99516684Y-42331154D01*
X99424643Y-42480375D01*
X99424641Y-42480380D01*
X99369494Y-42646802D01*
X99369493Y-42646809D01*
X99359000Y-42749513D01*
X99359000Y-42887000D01*
X98020314Y-42887000D01*
X98040267Y-42731185D01*
X98030229Y-42494871D01*
X97980397Y-42263652D01*
X97892207Y-42044180D01*
X97768193Y-41842770D01*
X97611925Y-41665215D01*
X97611924Y-41665214D01*
X97611920Y-41665210D01*
X97427897Y-41516622D01*
X97221409Y-41401271D01*
X96998392Y-41322474D01*
X96998382Y-41322471D01*
X96765273Y-41282500D01*
X96765264Y-41282500D01*
X94809972Y-41282500D01*
X94809967Y-41282500D01*
X94633328Y-41297533D01*
X94404429Y-41357134D01*
X94188904Y-41454557D01*
X94188898Y-41454560D01*
X93992939Y-41587004D01*
X93992932Y-41587010D01*
X93822168Y-41750674D01*
X93681524Y-41940838D01*
X93681521Y-41940842D01*
X93575039Y-42152037D01*
X93575036Y-42152043D01*
X93505775Y-42378206D01*
X93475733Y-42612815D01*
X93485770Y-42849125D01*
X93485770Y-42849126D01*
X93535603Y-43080348D01*
X93623791Y-43299816D01*
X93747806Y-43501229D01*
X93904075Y-43678785D01*
X93904079Y-43678789D01*
X94088103Y-43827378D01*
X94088105Y-43827379D01*
X94103383Y-43835914D01*
X94152310Y-43885793D01*
X94166503Y-43954206D01*
X94141456Y-44019432D01*
X94112347Y-44046903D01*
X93993258Y-44127393D01*
X93993248Y-44127401D01*
X93822545Y-44291006D01*
X93681952Y-44481101D01*
X93575501Y-44692231D01*
X93506265Y-44918309D01*
X93500671Y-44962000D01*
X94552804Y-44962000D01*
X94529155Y-44998799D01*
X94488000Y-45138961D01*
X94488000Y-45285039D01*
X94529155Y-45425201D01*
X94552804Y-45462000D01*
X93501988Y-45462000D01*
X93536083Y-45620201D01*
X93536083Y-45620202D01*
X93624241Y-45839592D01*
X93748211Y-46040933D01*
X93904418Y-46218418D01*
X93904420Y-46218420D01*
X94088382Y-46366960D01*
X94088387Y-46366963D01*
X94103358Y-46375327D01*
X94152285Y-46425206D01*
X94166478Y-46493619D01*
X94141431Y-46558845D01*
X94112322Y-46586316D01*
X93992941Y-46667002D01*
X93992932Y-46667010D01*
X93822168Y-46830673D01*
X93822167Y-46830674D01*
X93733001Y-46951235D01*
X93677311Y-46993429D01*
X93633306Y-47001500D01*
X92519705Y-47001500D01*
X92501735Y-47000191D01*
X92477972Y-46996710D01*
X92432890Y-47000655D01*
X92425933Y-47001264D01*
X92420532Y-47001500D01*
X92412288Y-47001500D01*
X92379707Y-47005308D01*
X92303199Y-47012001D01*
X92296133Y-47013461D01*
X92296121Y-47013404D01*
X92288752Y-47015038D01*
X92288766Y-47015095D01*
X92281741Y-47016759D01*
X92209556Y-47043033D01*
X92136670Y-47067185D01*
X92136667Y-47067186D01*
X92136665Y-47067187D01*
X92136662Y-47067188D01*
X92130128Y-47070236D01*
X92130102Y-47070182D01*
X92123306Y-47073472D01*
X92123332Y-47073524D01*
X92116884Y-47076762D01*
X92052699Y-47118977D01*
X91987350Y-47159284D01*
X91981682Y-47163766D01*
X91981646Y-47163720D01*
X91975798Y-47168484D01*
X91975835Y-47168528D01*
X91970310Y-47173164D01*
X91917598Y-47229034D01*
X90446358Y-48700272D01*
X90432729Y-48712051D01*
X90413468Y-48726390D01*
X90379898Y-48766397D01*
X90376253Y-48770376D01*
X90370409Y-48776222D01*
X90350059Y-48801959D01*
X90300695Y-48860789D01*
X90296729Y-48866819D01*
X90296682Y-48866788D01*
X90292630Y-48873147D01*
X90292679Y-48873177D01*
X90288889Y-48879321D01*
X90256424Y-48948941D01*
X90221960Y-49017566D01*
X90219488Y-49024357D01*
X90219432Y-49024336D01*
X90216960Y-49031450D01*
X90217015Y-49031469D01*
X90214742Y-49038327D01*
X90207261Y-49074561D01*
X90199207Y-49113565D01*
X90186001Y-49169284D01*
X90181498Y-49188286D01*
X90180661Y-49195454D01*
X90180601Y-49195447D01*
X90179835Y-49202945D01*
X90179895Y-49202951D01*
X90179265Y-49210140D01*
X90181500Y-49286916D01*
X90181500Y-59626294D01*
X90180191Y-59644263D01*
X90176710Y-59668025D01*
X90181264Y-59720064D01*
X90181500Y-59725470D01*
X90181500Y-59733709D01*
X90185306Y-59766274D01*
X90192000Y-59842791D01*
X90193461Y-59849867D01*
X90193403Y-59849878D01*
X90195034Y-59857237D01*
X90195092Y-59857224D01*
X90196757Y-59864250D01*
X90223025Y-59936424D01*
X90247185Y-60009331D01*
X90250236Y-60015874D01*
X90250182Y-60015898D01*
X90253470Y-60022688D01*
X90253521Y-60022663D01*
X90256761Y-60029113D01*
X90256762Y-60029114D01*
X90256763Y-60029117D01*
X90298965Y-60093283D01*
X90339287Y-60158655D01*
X90343766Y-60164319D01*
X90343719Y-60164356D01*
X90348482Y-60170202D01*
X90348528Y-60170164D01*
X90353173Y-60175700D01*
X90409018Y-60228386D01*
X93150267Y-62969634D01*
X93162048Y-62983266D01*
X93163851Y-62985688D01*
X93176390Y-63002530D01*
X93216420Y-63036119D01*
X93220392Y-63039759D01*
X93223532Y-63042899D01*
X93226224Y-63045591D01*
X93226227Y-63045594D01*
X93251947Y-63065931D01*
X93310788Y-63115304D01*
X93316818Y-63119270D01*
X93316785Y-63119319D01*
X93323147Y-63123372D01*
X93323179Y-63123321D01*
X93329319Y-63127108D01*
X93329323Y-63127111D01*
X93358731Y-63140824D01*
X93398941Y-63159575D01*
X93435784Y-63178078D01*
X93467567Y-63194040D01*
X93467569Y-63194040D01*
X93474357Y-63196511D01*
X93474336Y-63196567D01*
X93481455Y-63199042D01*
X93481474Y-63198986D01*
X93488329Y-63201258D01*
X93563562Y-63216791D01*
X93638279Y-63234500D01*
X93638289Y-63234500D01*
X93645452Y-63235338D01*
X93645444Y-63235397D01*
X93652945Y-63236164D01*
X93652951Y-63236105D01*
X93660140Y-63236734D01*
X93660144Y-63236733D01*
X93660145Y-63236734D01*
X93736918Y-63234500D01*
X125144370Y-63234500D01*
X125211409Y-63254185D01*
X125232051Y-63270819D01*
X125319344Y-63358112D01*
X125468666Y-63450214D01*
X125635203Y-63505399D01*
X125737991Y-63515900D01*
X126738008Y-63515899D01*
X126738016Y-63515898D01*
X126738019Y-63515898D01*
X126807327Y-63508818D01*
X126840797Y-63505399D01*
X127007334Y-63450214D01*
X127156656Y-63358112D01*
X127280712Y-63234056D01*
X127286420Y-63224802D01*
X127338368Y-63178078D01*
X127391958Y-63165900D01*
X129000295Y-63165900D01*
X129018265Y-63167209D01*
X129042023Y-63170689D01*
X129094068Y-63166135D01*
X129099470Y-63165900D01*
X129107704Y-63165900D01*
X129107709Y-63165900D01*
X129119327Y-63164541D01*
X129140276Y-63162093D01*
X129153028Y-63160977D01*
X129216797Y-63155399D01*
X129216805Y-63155396D01*
X129223866Y-63153939D01*
X129223878Y-63153998D01*
X129231243Y-63152365D01*
X129231229Y-63152306D01*
X129238246Y-63150641D01*
X129238255Y-63150641D01*
X129310423Y-63124374D01*
X129383334Y-63100214D01*
X129383343Y-63100207D01*
X129389882Y-63097160D01*
X129389908Y-63097216D01*
X129396690Y-63093932D01*
X129396663Y-63093878D01*
X129403106Y-63090640D01*
X129403117Y-63090637D01*
X129467283Y-63048434D01*
X129532656Y-63008112D01*
X129532662Y-63008105D01*
X129538325Y-63003629D01*
X129538362Y-63003677D01*
X129544204Y-62998918D01*
X129544164Y-62998871D01*
X129549686Y-62994236D01*
X129549696Y-62994230D01*
X129572901Y-62969634D01*
X129602386Y-62938382D01*
X129652480Y-62888287D01*
X129669270Y-62871496D01*
X129730591Y-62838013D01*
X129800283Y-62842997D01*
X129856217Y-62884868D01*
X129874657Y-62920179D01*
X129880403Y-62937521D01*
X129882803Y-63007349D01*
X129850377Y-63064202D01*
X128554400Y-64360181D01*
X128493077Y-64393666D01*
X128466719Y-64396500D01*
X92259281Y-64396500D01*
X92192242Y-64376815D01*
X92171600Y-64360181D01*
X81226490Y-53415071D01*
X81193005Y-53353748D01*
X81195605Y-53291084D01*
X81246224Y-53125797D01*
X81276267Y-52891185D01*
X81266229Y-52654871D01*
X81216397Y-52423652D01*
X81128207Y-52204180D01*
X81004193Y-52002770D01*
X80847925Y-51825215D01*
X80847924Y-51825214D01*
X80847920Y-51825210D01*
X80663897Y-51676622D01*
X80649102Y-51668357D01*
X80600177Y-51618476D01*
X80585985Y-51550063D01*
X80611034Y-51484838D01*
X80640136Y-51457372D01*
X80759068Y-51376990D01*
X80929831Y-51213327D01*
X81070478Y-51023159D01*
X81176964Y-50811957D01*
X81246224Y-50585797D01*
X81276267Y-50351185D01*
X81266229Y-50114871D01*
X81216397Y-49883652D01*
X81128207Y-49664180D01*
X81004193Y-49462770D01*
X80847925Y-49285215D01*
X80847924Y-49285214D01*
X80847920Y-49285210D01*
X80663897Y-49136622D01*
X80649102Y-49128357D01*
X80600177Y-49078476D01*
X80585985Y-49010063D01*
X80611034Y-48944838D01*
X80640136Y-48917372D01*
X80759068Y-48836990D01*
X80929831Y-48673327D01*
X81070478Y-48483159D01*
X81176964Y-48271957D01*
X81246224Y-48045797D01*
X81276267Y-47811185D01*
X81266229Y-47574871D01*
X81216397Y-47343652D01*
X81128207Y-47124180D01*
X81004193Y-46922770D01*
X80847925Y-46745215D01*
X80847924Y-46745214D01*
X80847920Y-46745210D01*
X80663897Y-46596622D01*
X80649102Y-46588357D01*
X80600177Y-46538476D01*
X80585985Y-46470063D01*
X80611034Y-46404838D01*
X80640136Y-46377372D01*
X80759068Y-46296990D01*
X80929831Y-46133327D01*
X81070478Y-45943159D01*
X81176964Y-45731957D01*
X81246224Y-45505797D01*
X81276267Y-45271185D01*
X81266229Y-45034871D01*
X81216397Y-44803652D01*
X81128207Y-44584180D01*
X81004193Y-44382770D01*
X80847925Y-44205215D01*
X80847924Y-44205214D01*
X80847920Y-44205210D01*
X80663897Y-44056622D01*
X80649102Y-44048357D01*
X80600177Y-43998476D01*
X80585985Y-43930063D01*
X80611034Y-43864838D01*
X80640136Y-43837372D01*
X80759068Y-43756990D01*
X80929831Y-43593327D01*
X81070478Y-43403159D01*
X81176964Y-43191957D01*
X81246224Y-42965797D01*
X81276267Y-42731185D01*
X81266229Y-42494871D01*
X81216397Y-42263652D01*
X81128207Y-42044180D01*
X81004193Y-41842770D01*
X80847925Y-41665215D01*
X80847924Y-41665214D01*
X80847920Y-41665210D01*
X80663897Y-41516622D01*
X80457409Y-41401271D01*
X80234392Y-41322474D01*
X80234382Y-41322471D01*
X80001273Y-41282500D01*
X80001264Y-41282500D01*
X78045972Y-41282500D01*
X78045967Y-41282500D01*
X77869328Y-41297533D01*
X77640429Y-41357134D01*
X77424904Y-41454557D01*
X77424898Y-41454560D01*
X77228939Y-41587004D01*
X77228932Y-41587010D01*
X77058168Y-41750674D01*
X76917524Y-41940838D01*
X76917521Y-41940842D01*
X76811039Y-42152037D01*
X76811036Y-42152043D01*
X76741775Y-42378206D01*
X76711733Y-42612815D01*
X76721770Y-42849125D01*
X76721770Y-42849126D01*
X76771603Y-43080348D01*
X76859791Y-43299816D01*
X76983806Y-43501229D01*
X77140075Y-43678785D01*
X77140079Y-43678789D01*
X77282300Y-43793624D01*
X77324102Y-43827377D01*
X77338892Y-43835639D01*
X77387819Y-43885516D01*
X77402014Y-43953928D01*
X77376970Y-44019155D01*
X77347858Y-44046629D01*
X77228942Y-44127002D01*
X77228932Y-44127010D01*
X77058168Y-44290674D01*
X76917524Y-44480838D01*
X76917521Y-44480842D01*
X76811039Y-44692037D01*
X76811036Y-44692043D01*
X76741775Y-44918206D01*
X76711733Y-45152815D01*
X76721770Y-45389125D01*
X76721770Y-45389126D01*
X76771603Y-45620348D01*
X76859791Y-45839816D01*
X76983806Y-46041229D01*
X77140075Y-46218785D01*
X77140079Y-46218789D01*
X77240655Y-46299998D01*
X77324102Y-46367377D01*
X77338892Y-46375639D01*
X77387819Y-46425516D01*
X77402014Y-46493928D01*
X77376970Y-46559155D01*
X77347858Y-46586629D01*
X77228942Y-46667002D01*
X77228932Y-46667010D01*
X77058168Y-46830674D01*
X76917524Y-47020838D01*
X76917521Y-47020842D01*
X76811039Y-47232037D01*
X76811036Y-47232043D01*
X76741775Y-47458206D01*
X76711733Y-47692815D01*
X76721770Y-47929125D01*
X76721770Y-47929126D01*
X76771603Y-48160348D01*
X76845685Y-48344712D01*
X76859793Y-48379820D01*
X76893040Y-48433816D01*
X76983806Y-48581229D01*
X77140075Y-48758785D01*
X77140079Y-48758789D01*
X77281709Y-48873147D01*
X77324102Y-48907377D01*
X77338892Y-48915639D01*
X77387819Y-48965516D01*
X77402014Y-49033928D01*
X77376970Y-49099155D01*
X77347858Y-49126629D01*
X77228942Y-49207002D01*
X77228932Y-49207010D01*
X77058168Y-49370673D01*
X77058167Y-49370674D01*
X76969001Y-49491235D01*
X76913311Y-49533429D01*
X76869306Y-49541500D01*
X75755705Y-49541500D01*
X75737735Y-49540191D01*
X75713972Y-49536710D01*
X75668533Y-49540686D01*
X75661931Y-49541264D01*
X75656530Y-49541500D01*
X75648289Y-49541500D01*
X75638354Y-49542661D01*
X75615724Y-49545306D01*
X75610197Y-49545789D01*
X75603657Y-49546361D01*
X75535158Y-49532589D01*
X75484979Y-49483970D01*
X75469051Y-49415940D01*
X75475155Y-49383822D01*
X75479505Y-49370694D01*
X75479506Y-49370690D01*
X75489999Y-49267986D01*
X75490000Y-49267973D01*
X75490000Y-49018000D01*
X74640000Y-49018000D01*
X74640000Y-49967999D01*
X74655270Y-49967999D01*
X74722309Y-49987684D01*
X74768064Y-50040488D01*
X74778008Y-50109646D01*
X74748983Y-50173202D01*
X74742951Y-50179680D01*
X74401451Y-50521181D01*
X74340128Y-50554666D01*
X74313770Y-50557500D01*
X66656229Y-50557500D01*
X66589190Y-50537815D01*
X66568548Y-50521181D01*
X66318819Y-50271451D01*
X66285334Y-50210128D01*
X66282500Y-50183770D01*
X66282500Y-50019198D01*
X66302185Y-49952159D01*
X66330338Y-49921344D01*
X66483784Y-49801913D01*
X66492130Y-49792846D01*
X66552010Y-49756854D01*
X66621849Y-49758949D01*
X66679468Y-49798469D01*
X66699544Y-49833491D01*
X66728203Y-49910330D01*
X66728206Y-49910335D01*
X66814452Y-50025544D01*
X66814455Y-50025547D01*
X66929664Y-50111793D01*
X66929671Y-50111797D01*
X67064517Y-50162091D01*
X67064516Y-50162091D01*
X67071444Y-50162835D01*
X67124127Y-50168500D01*
X69019872Y-50168499D01*
X69079483Y-50162091D01*
X69214331Y-50111796D01*
X69329546Y-50025546D01*
X69415796Y-49910331D01*
X69466091Y-49775483D01*
X69472500Y-49715873D01*
X69472500Y-49519500D01*
X69492185Y-49452461D01*
X69544989Y-49406706D01*
X69596500Y-49395500D01*
X71218646Y-49395500D01*
X71285685Y-49415185D01*
X71331440Y-49467989D01*
X71336350Y-49480492D01*
X71344155Y-49504044D01*
X71355185Y-49537331D01*
X71355187Y-49537336D01*
X71366376Y-49555476D01*
X71447288Y-49686656D01*
X71571344Y-49810712D01*
X71720666Y-49902814D01*
X71887203Y-49957999D01*
X71989991Y-49968500D01*
X72790008Y-49968499D01*
X72790016Y-49968498D01*
X72790019Y-49968498D01*
X72846302Y-49962748D01*
X72892797Y-49957999D01*
X73059334Y-49902814D01*
X73208656Y-49810712D01*
X73302675Y-49716692D01*
X73363994Y-49683210D01*
X73433686Y-49688194D01*
X73478034Y-49716695D01*
X73571654Y-49810315D01*
X73720875Y-49902356D01*
X73720880Y-49902358D01*
X73887302Y-49957505D01*
X73887309Y-49957506D01*
X73990019Y-49967999D01*
X74139999Y-49967999D01*
X74140000Y-49967998D01*
X74140000Y-47568000D01*
X74640000Y-47568000D01*
X74640000Y-48518000D01*
X75489999Y-48518000D01*
X75489999Y-48268028D01*
X75489998Y-48268013D01*
X75479505Y-48165302D01*
X75424358Y-47998880D01*
X75424356Y-47998875D01*
X75332315Y-47849654D01*
X75208345Y-47725684D01*
X75059124Y-47633643D01*
X75059119Y-47633641D01*
X74892697Y-47578494D01*
X74892690Y-47578493D01*
X74789986Y-47568000D01*
X74640000Y-47568000D01*
X74140000Y-47568000D01*
X73990027Y-47568000D01*
X73990012Y-47568001D01*
X73887302Y-47578494D01*
X73720880Y-47633641D01*
X73720875Y-47633643D01*
X73571657Y-47725682D01*
X73478034Y-47819305D01*
X73416710Y-47852789D01*
X73347019Y-47847805D01*
X73302672Y-47819304D01*
X73208657Y-47725289D01*
X73208656Y-47725288D01*
X73059334Y-47633186D01*
X72892797Y-47578001D01*
X72892795Y-47578000D01*
X72790010Y-47567500D01*
X71989998Y-47567500D01*
X71989980Y-47567501D01*
X71887203Y-47578000D01*
X71887200Y-47578001D01*
X71720668Y-47633185D01*
X71720663Y-47633187D01*
X71571342Y-47725289D01*
X71447289Y-47849342D01*
X71355187Y-47998663D01*
X71355185Y-47998668D01*
X71336352Y-48055504D01*
X71296579Y-48112949D01*
X71232063Y-48139772D01*
X71218646Y-48140500D01*
X69596499Y-48140500D01*
X69529460Y-48120815D01*
X69483705Y-48068011D01*
X69472499Y-48016500D01*
X69472499Y-47820129D01*
X69472498Y-47820123D01*
X69472410Y-47819305D01*
X69466091Y-47760517D01*
X69456233Y-47734087D01*
X69415797Y-47625671D01*
X69415793Y-47625664D01*
X69329547Y-47510455D01*
X69329544Y-47510452D01*
X69214335Y-47424206D01*
X69214328Y-47424202D01*
X69079482Y-47373908D01*
X69079483Y-47373908D01*
X69019883Y-47367501D01*
X69019881Y-47367500D01*
X69019873Y-47367500D01*
X69019864Y-47367500D01*
X67124129Y-47367500D01*
X67124123Y-47367501D01*
X67064516Y-47373908D01*
X66929671Y-47424202D01*
X66929664Y-47424206D01*
X66814455Y-47510452D01*
X66814452Y-47510455D01*
X66728206Y-47625664D01*
X66728203Y-47625670D01*
X66699544Y-47702508D01*
X66657672Y-47758441D01*
X66592208Y-47782858D01*
X66523935Y-47768006D01*
X66492135Y-47743158D01*
X66483784Y-47734087D01*
X66483778Y-47734082D01*
X66483777Y-47734081D01*
X66300634Y-47591535D01*
X66300628Y-47591531D01*
X66096504Y-47481064D01*
X66096495Y-47481061D01*
X65876984Y-47405702D01*
X65686450Y-47373908D01*
X65648049Y-47367500D01*
X65415951Y-47367500D01*
X65377550Y-47373908D01*
X65187015Y-47405702D01*
X64967504Y-47481061D01*
X64967495Y-47481064D01*
X64763371Y-47591531D01*
X64763365Y-47591535D01*
X64580222Y-47734081D01*
X64580219Y-47734084D01*
X64580216Y-47734086D01*
X64580216Y-47734087D01*
X64535319Y-47782858D01*
X64423016Y-47904852D01*
X64296075Y-48099151D01*
X64202842Y-48311699D01*
X64145866Y-48536691D01*
X64145864Y-48536702D01*
X64126700Y-48767993D01*
X64126700Y-48768006D01*
X60000500Y-48768006D01*
X60000500Y-40124500D01*
X60020185Y-40057461D01*
X60072989Y-40011706D01*
X60124500Y-40000500D01*
X159875500Y-40000500D01*
X159942539Y-40020185D01*
G37*
%TD.AperFunction*%
%TD*%
M02*
