%TF.GenerationSoftware,KiCad,Pcbnew,7.0.9*%
%TF.CreationDate,2024-02-01T23:09:16-08:00*%
%TF.ProjectId,Sensing Device,53656e73-696e-4672-9044-65766963652e,rev?*%
%TF.SameCoordinates,Original*%
%TF.FileFunction,Legend,Top*%
%TF.FilePolarity,Positive*%
%FSLAX46Y46*%
G04 Gerber Fmt 4.6, Leading zero omitted, Abs format (unit mm)*
G04 Created by KiCad (PCBNEW 7.0.9) date 2024-02-01 23:09:16*
%MOMM*%
%LPD*%
G01*
G04 APERTURE LIST*
%ADD10C,0.150000*%
%ADD11C,0.100000*%
%ADD12C,0.120000*%
%ADD13C,0.152400*%
G04 APERTURE END LIST*
D10*
X115890874Y-97029438D02*
X115890874Y-95029438D01*
X115890874Y-95029438D02*
X116652779Y-95029438D01*
X116652779Y-95029438D02*
X116843255Y-95124676D01*
X116843255Y-95124676D02*
X116938493Y-95219914D01*
X116938493Y-95219914D02*
X117033731Y-95410390D01*
X117033731Y-95410390D02*
X117033731Y-95696104D01*
X117033731Y-95696104D02*
X116938493Y-95886580D01*
X116938493Y-95886580D02*
X116843255Y-95981819D01*
X116843255Y-95981819D02*
X116652779Y-96077057D01*
X116652779Y-96077057D02*
X115890874Y-96077057D01*
X117890874Y-97029438D02*
X117890874Y-95029438D01*
X117890874Y-95029438D02*
X118652779Y-95029438D01*
X118652779Y-95029438D02*
X118843255Y-95124676D01*
X118843255Y-95124676D02*
X118938493Y-95219914D01*
X118938493Y-95219914D02*
X119033731Y-95410390D01*
X119033731Y-95410390D02*
X119033731Y-95696104D01*
X119033731Y-95696104D02*
X118938493Y-95886580D01*
X118938493Y-95886580D02*
X118843255Y-95981819D01*
X118843255Y-95981819D02*
X118652779Y-96077057D01*
X118652779Y-96077057D02*
X117890874Y-96077057D01*
X121414684Y-97029438D02*
X121414684Y-95029438D01*
X121414684Y-95029438D02*
X122081351Y-96458009D01*
X122081351Y-96458009D02*
X122748017Y-95029438D01*
X122748017Y-95029438D02*
X122748017Y-97029438D01*
X124557541Y-97029438D02*
X124557541Y-95981819D01*
X124557541Y-95981819D02*
X124462303Y-95791342D01*
X124462303Y-95791342D02*
X124271827Y-95696104D01*
X124271827Y-95696104D02*
X123890874Y-95696104D01*
X123890874Y-95696104D02*
X123700398Y-95791342D01*
X124557541Y-96934200D02*
X124367065Y-97029438D01*
X124367065Y-97029438D02*
X123890874Y-97029438D01*
X123890874Y-97029438D02*
X123700398Y-96934200D01*
X123700398Y-96934200D02*
X123605160Y-96743723D01*
X123605160Y-96743723D02*
X123605160Y-96553247D01*
X123605160Y-96553247D02*
X123700398Y-96362771D01*
X123700398Y-96362771D02*
X123890874Y-96267533D01*
X123890874Y-96267533D02*
X124367065Y-96267533D01*
X124367065Y-96267533D02*
X124557541Y-96172295D01*
X126367065Y-95696104D02*
X126367065Y-97315152D01*
X126367065Y-97315152D02*
X126271827Y-97505628D01*
X126271827Y-97505628D02*
X126176589Y-97600866D01*
X126176589Y-97600866D02*
X125986112Y-97696104D01*
X125986112Y-97696104D02*
X125700398Y-97696104D01*
X125700398Y-97696104D02*
X125509922Y-97600866D01*
X126367065Y-96934200D02*
X126176589Y-97029438D01*
X126176589Y-97029438D02*
X125795636Y-97029438D01*
X125795636Y-97029438D02*
X125605160Y-96934200D01*
X125605160Y-96934200D02*
X125509922Y-96838961D01*
X125509922Y-96838961D02*
X125414684Y-96648485D01*
X125414684Y-96648485D02*
X125414684Y-96077057D01*
X125414684Y-96077057D02*
X125509922Y-95886580D01*
X125509922Y-95886580D02*
X125605160Y-95791342D01*
X125605160Y-95791342D02*
X125795636Y-95696104D01*
X125795636Y-95696104D02*
X126176589Y-95696104D01*
X126176589Y-95696104D02*
X126367065Y-95791342D01*
X127319446Y-97029438D02*
X127319446Y-95029438D01*
X127319446Y-95029438D02*
X127795636Y-95029438D01*
X127795636Y-95029438D02*
X128081351Y-95124676D01*
X128081351Y-95124676D02*
X128271827Y-95315152D01*
X128271827Y-95315152D02*
X128367065Y-95505628D01*
X128367065Y-95505628D02*
X128462303Y-95886580D01*
X128462303Y-95886580D02*
X128462303Y-96172295D01*
X128462303Y-96172295D02*
X128367065Y-96553247D01*
X128367065Y-96553247D02*
X128271827Y-96743723D01*
X128271827Y-96743723D02*
X128081351Y-96934200D01*
X128081351Y-96934200D02*
X127795636Y-97029438D01*
X127795636Y-97029438D02*
X127319446Y-97029438D01*
X129605160Y-97029438D02*
X129414684Y-96934200D01*
X129414684Y-96934200D02*
X129319446Y-96838961D01*
X129319446Y-96838961D02*
X129224208Y-96648485D01*
X129224208Y-96648485D02*
X129224208Y-96077057D01*
X129224208Y-96077057D02*
X129319446Y-95886580D01*
X129319446Y-95886580D02*
X129414684Y-95791342D01*
X129414684Y-95791342D02*
X129605160Y-95696104D01*
X129605160Y-95696104D02*
X129890875Y-95696104D01*
X129890875Y-95696104D02*
X130081351Y-95791342D01*
X130081351Y-95791342D02*
X130176589Y-95886580D01*
X130176589Y-95886580D02*
X130271827Y-96077057D01*
X130271827Y-96077057D02*
X130271827Y-96648485D01*
X130271827Y-96648485D02*
X130176589Y-96838961D01*
X130176589Y-96838961D02*
X130081351Y-96934200D01*
X130081351Y-96934200D02*
X129890875Y-97029438D01*
X129890875Y-97029438D02*
X129605160Y-97029438D01*
X131986113Y-96934200D02*
X131795637Y-97029438D01*
X131795637Y-97029438D02*
X131414684Y-97029438D01*
X131414684Y-97029438D02*
X131224208Y-96934200D01*
X131224208Y-96934200D02*
X131128970Y-96838961D01*
X131128970Y-96838961D02*
X131033732Y-96648485D01*
X131033732Y-96648485D02*
X131033732Y-96077057D01*
X131033732Y-96077057D02*
X131128970Y-95886580D01*
X131128970Y-95886580D02*
X131224208Y-95791342D01*
X131224208Y-95791342D02*
X131414684Y-95696104D01*
X131414684Y-95696104D02*
X131795637Y-95696104D01*
X131795637Y-95696104D02*
X131986113Y-95791342D01*
X132843256Y-97029438D02*
X132843256Y-95029438D01*
X133033732Y-96267533D02*
X133605161Y-97029438D01*
X133605161Y-95696104D02*
X132843256Y-96458009D01*
X135224209Y-96934200D02*
X135033733Y-97029438D01*
X135033733Y-97029438D02*
X134652780Y-97029438D01*
X134652780Y-97029438D02*
X134462304Y-96934200D01*
X134462304Y-96934200D02*
X134367066Y-96743723D01*
X134367066Y-96743723D02*
X134367066Y-95981819D01*
X134367066Y-95981819D02*
X134462304Y-95791342D01*
X134462304Y-95791342D02*
X134652780Y-95696104D01*
X134652780Y-95696104D02*
X135033733Y-95696104D01*
X135033733Y-95696104D02*
X135224209Y-95791342D01*
X135224209Y-95791342D02*
X135319447Y-95981819D01*
X135319447Y-95981819D02*
X135319447Y-96172295D01*
X135319447Y-96172295D02*
X134367066Y-96362771D01*
X136176590Y-97029438D02*
X136176590Y-95696104D01*
X136176590Y-96077057D02*
X136271828Y-95886580D01*
X136271828Y-95886580D02*
X136367066Y-95791342D01*
X136367066Y-95791342D02*
X136557542Y-95696104D01*
X136557542Y-95696104D02*
X136748019Y-95696104D01*
X138748019Y-95696104D02*
X139224209Y-97029438D01*
X139224209Y-97029438D02*
X139700400Y-95696104D01*
X140367067Y-95219914D02*
X140462305Y-95124676D01*
X140462305Y-95124676D02*
X140652781Y-95029438D01*
X140652781Y-95029438D02*
X141128972Y-95029438D01*
X141128972Y-95029438D02*
X141319448Y-95124676D01*
X141319448Y-95124676D02*
X141414686Y-95219914D01*
X141414686Y-95219914D02*
X141509924Y-95410390D01*
X141509924Y-95410390D02*
X141509924Y-95600866D01*
X141509924Y-95600866D02*
X141414686Y-95886580D01*
X141414686Y-95886580D02*
X140271829Y-97029438D01*
X140271829Y-97029438D02*
X141509924Y-97029438D01*
X142367067Y-96838961D02*
X142462305Y-96934200D01*
X142462305Y-96934200D02*
X142367067Y-97029438D01*
X142367067Y-97029438D02*
X142271829Y-96934200D01*
X142271829Y-96934200D02*
X142367067Y-96838961D01*
X142367067Y-96838961D02*
X142367067Y-97029438D01*
X143700400Y-95029438D02*
X143890877Y-95029438D01*
X143890877Y-95029438D02*
X144081353Y-95124676D01*
X144081353Y-95124676D02*
X144176591Y-95219914D01*
X144176591Y-95219914D02*
X144271829Y-95410390D01*
X144271829Y-95410390D02*
X144367067Y-95791342D01*
X144367067Y-95791342D02*
X144367067Y-96267533D01*
X144367067Y-96267533D02*
X144271829Y-96648485D01*
X144271829Y-96648485D02*
X144176591Y-96838961D01*
X144176591Y-96838961D02*
X144081353Y-96934200D01*
X144081353Y-96934200D02*
X143890877Y-97029438D01*
X143890877Y-97029438D02*
X143700400Y-97029438D01*
X143700400Y-97029438D02*
X143509924Y-96934200D01*
X143509924Y-96934200D02*
X143414686Y-96838961D01*
X143414686Y-96838961D02*
X143319448Y-96648485D01*
X143319448Y-96648485D02*
X143224210Y-96267533D01*
X143224210Y-96267533D02*
X143224210Y-95791342D01*
X143224210Y-95791342D02*
X143319448Y-95410390D01*
X143319448Y-95410390D02*
X143414686Y-95219914D01*
X143414686Y-95219914D02*
X143509924Y-95124676D01*
X143509924Y-95124676D02*
X143700400Y-95029438D01*
X83928833Y-66809580D02*
X83881214Y-66857200D01*
X83881214Y-66857200D02*
X83738357Y-66904819D01*
X83738357Y-66904819D02*
X83643119Y-66904819D01*
X83643119Y-66904819D02*
X83500262Y-66857200D01*
X83500262Y-66857200D02*
X83405024Y-66761961D01*
X83405024Y-66761961D02*
X83357405Y-66666723D01*
X83357405Y-66666723D02*
X83309786Y-66476247D01*
X83309786Y-66476247D02*
X83309786Y-66333390D01*
X83309786Y-66333390D02*
X83357405Y-66142914D01*
X83357405Y-66142914D02*
X83405024Y-66047676D01*
X83405024Y-66047676D02*
X83500262Y-65952438D01*
X83500262Y-65952438D02*
X83643119Y-65904819D01*
X83643119Y-65904819D02*
X83738357Y-65904819D01*
X83738357Y-65904819D02*
X83881214Y-65952438D01*
X83881214Y-65952438D02*
X83928833Y-66000057D01*
X84785976Y-66238152D02*
X84785976Y-66904819D01*
X84547881Y-65857200D02*
X84309786Y-66571485D01*
X84309786Y-66571485D02*
X84928833Y-66571485D01*
X70896667Y-63247200D02*
X71039524Y-63294819D01*
X71039524Y-63294819D02*
X71277619Y-63294819D01*
X71277619Y-63294819D02*
X71372857Y-63247200D01*
X71372857Y-63247200D02*
X71420476Y-63199580D01*
X71420476Y-63199580D02*
X71468095Y-63104342D01*
X71468095Y-63104342D02*
X71468095Y-63009104D01*
X71468095Y-63009104D02*
X71420476Y-62913866D01*
X71420476Y-62913866D02*
X71372857Y-62866247D01*
X71372857Y-62866247D02*
X71277619Y-62818628D01*
X71277619Y-62818628D02*
X71087143Y-62771009D01*
X71087143Y-62771009D02*
X70991905Y-62723390D01*
X70991905Y-62723390D02*
X70944286Y-62675771D01*
X70944286Y-62675771D02*
X70896667Y-62580533D01*
X70896667Y-62580533D02*
X70896667Y-62485295D01*
X70896667Y-62485295D02*
X70944286Y-62390057D01*
X70944286Y-62390057D02*
X70991905Y-62342438D01*
X70991905Y-62342438D02*
X71087143Y-62294819D01*
X71087143Y-62294819D02*
X71325238Y-62294819D01*
X71325238Y-62294819D02*
X71468095Y-62342438D01*
X71801429Y-62294819D02*
X72039524Y-63294819D01*
X72039524Y-63294819D02*
X72230000Y-62580533D01*
X72230000Y-62580533D02*
X72420476Y-63294819D01*
X72420476Y-63294819D02*
X72658572Y-62294819D01*
X73563333Y-63294819D02*
X72991905Y-63294819D01*
X73277619Y-63294819D02*
X73277619Y-62294819D01*
X73277619Y-62294819D02*
X73182381Y-62437676D01*
X73182381Y-62437676D02*
X73087143Y-62532914D01*
X73087143Y-62532914D02*
X72991905Y-62580533D01*
X92430767Y-95822200D02*
X92573624Y-95869819D01*
X92573624Y-95869819D02*
X92811719Y-95869819D01*
X92811719Y-95869819D02*
X92906957Y-95822200D01*
X92906957Y-95822200D02*
X92954576Y-95774580D01*
X92954576Y-95774580D02*
X93002195Y-95679342D01*
X93002195Y-95679342D02*
X93002195Y-95584104D01*
X93002195Y-95584104D02*
X92954576Y-95488866D01*
X92954576Y-95488866D02*
X92906957Y-95441247D01*
X92906957Y-95441247D02*
X92811719Y-95393628D01*
X92811719Y-95393628D02*
X92621243Y-95346009D01*
X92621243Y-95346009D02*
X92526005Y-95298390D01*
X92526005Y-95298390D02*
X92478386Y-95250771D01*
X92478386Y-95250771D02*
X92430767Y-95155533D01*
X92430767Y-95155533D02*
X92430767Y-95060295D01*
X92430767Y-95060295D02*
X92478386Y-94965057D01*
X92478386Y-94965057D02*
X92526005Y-94917438D01*
X92526005Y-94917438D02*
X92621243Y-94869819D01*
X92621243Y-94869819D02*
X92859338Y-94869819D01*
X92859338Y-94869819D02*
X93002195Y-94917438D01*
X93335529Y-94869819D02*
X93573624Y-95869819D01*
X93573624Y-95869819D02*
X93764100Y-95155533D01*
X93764100Y-95155533D02*
X93954576Y-95869819D01*
X93954576Y-95869819D02*
X94192672Y-94869819D01*
X94526005Y-94965057D02*
X94573624Y-94917438D01*
X94573624Y-94917438D02*
X94668862Y-94869819D01*
X94668862Y-94869819D02*
X94906957Y-94869819D01*
X94906957Y-94869819D02*
X95002195Y-94917438D01*
X95002195Y-94917438D02*
X95049814Y-94965057D01*
X95049814Y-94965057D02*
X95097433Y-95060295D01*
X95097433Y-95060295D02*
X95097433Y-95155533D01*
X95097433Y-95155533D02*
X95049814Y-95298390D01*
X95049814Y-95298390D02*
X94478386Y-95869819D01*
X94478386Y-95869819D02*
X95097433Y-95869819D01*
D11*
X86868095Y-40605419D02*
X86868095Y-41414942D01*
X86868095Y-41414942D02*
X86915714Y-41510180D01*
X86915714Y-41510180D02*
X86963333Y-41557800D01*
X86963333Y-41557800D02*
X87058571Y-41605419D01*
X87058571Y-41605419D02*
X87249047Y-41605419D01*
X87249047Y-41605419D02*
X87344285Y-41557800D01*
X87344285Y-41557800D02*
X87391904Y-41510180D01*
X87391904Y-41510180D02*
X87439523Y-41414942D01*
X87439523Y-41414942D02*
X87439523Y-40605419D01*
X88439523Y-41605419D02*
X87868095Y-41605419D01*
X88153809Y-41605419D02*
X88153809Y-40605419D01*
X88153809Y-40605419D02*
X88058571Y-40748276D01*
X88058571Y-40748276D02*
X87963333Y-40843514D01*
X87963333Y-40843514D02*
X87868095Y-40891133D01*
D10*
X93686666Y-63896819D02*
X93686666Y-64611104D01*
X93686666Y-64611104D02*
X93639047Y-64753961D01*
X93639047Y-64753961D02*
X93543809Y-64849200D01*
X93543809Y-64849200D02*
X93400952Y-64896819D01*
X93400952Y-64896819D02*
X93305714Y-64896819D01*
X94686666Y-64896819D02*
X94115238Y-64896819D01*
X94400952Y-64896819D02*
X94400952Y-63896819D01*
X94400952Y-63896819D02*
X94305714Y-64039676D01*
X94305714Y-64039676D02*
X94210476Y-64134914D01*
X94210476Y-64134914D02*
X94115238Y-64182533D01*
X129238095Y-67054819D02*
X129238095Y-67864342D01*
X129238095Y-67864342D02*
X129285714Y-67959580D01*
X129285714Y-67959580D02*
X129333333Y-68007200D01*
X129333333Y-68007200D02*
X129428571Y-68054819D01*
X129428571Y-68054819D02*
X129619047Y-68054819D01*
X129619047Y-68054819D02*
X129714285Y-68007200D01*
X129714285Y-68007200D02*
X129761904Y-67959580D01*
X129761904Y-67959580D02*
X129809523Y-67864342D01*
X129809523Y-67864342D02*
X129809523Y-67054819D01*
X130238095Y-67150057D02*
X130285714Y-67102438D01*
X130285714Y-67102438D02*
X130380952Y-67054819D01*
X130380952Y-67054819D02*
X130619047Y-67054819D01*
X130619047Y-67054819D02*
X130714285Y-67102438D01*
X130714285Y-67102438D02*
X130761904Y-67150057D01*
X130761904Y-67150057D02*
X130809523Y-67245295D01*
X130809523Y-67245295D02*
X130809523Y-67340533D01*
X130809523Y-67340533D02*
X130761904Y-67483390D01*
X130761904Y-67483390D02*
X130190476Y-68054819D01*
X130190476Y-68054819D02*
X130809523Y-68054819D01*
X120499333Y-67892819D02*
X120166000Y-67416628D01*
X119927905Y-67892819D02*
X119927905Y-66892819D01*
X119927905Y-66892819D02*
X120308857Y-66892819D01*
X120308857Y-66892819D02*
X120404095Y-66940438D01*
X120404095Y-66940438D02*
X120451714Y-66988057D01*
X120451714Y-66988057D02*
X120499333Y-67083295D01*
X120499333Y-67083295D02*
X120499333Y-67226152D01*
X120499333Y-67226152D02*
X120451714Y-67321390D01*
X120451714Y-67321390D02*
X120404095Y-67369009D01*
X120404095Y-67369009D02*
X120308857Y-67416628D01*
X120308857Y-67416628D02*
X119927905Y-67416628D01*
X120832667Y-66892819D02*
X121499333Y-66892819D01*
X121499333Y-66892819D02*
X121070762Y-67892819D01*
X135836819Y-64614066D02*
X135360628Y-64947399D01*
X135836819Y-65185494D02*
X134836819Y-65185494D01*
X134836819Y-65185494D02*
X134836819Y-64804542D01*
X134836819Y-64804542D02*
X134884438Y-64709304D01*
X134884438Y-64709304D02*
X134932057Y-64661685D01*
X134932057Y-64661685D02*
X135027295Y-64614066D01*
X135027295Y-64614066D02*
X135170152Y-64614066D01*
X135170152Y-64614066D02*
X135265390Y-64661685D01*
X135265390Y-64661685D02*
X135313009Y-64709304D01*
X135313009Y-64709304D02*
X135360628Y-64804542D01*
X135360628Y-64804542D02*
X135360628Y-65185494D01*
X134836819Y-63709304D02*
X134836819Y-64185494D01*
X134836819Y-64185494D02*
X135313009Y-64233113D01*
X135313009Y-64233113D02*
X135265390Y-64185494D01*
X135265390Y-64185494D02*
X135217771Y-64090256D01*
X135217771Y-64090256D02*
X135217771Y-63852161D01*
X135217771Y-63852161D02*
X135265390Y-63756923D01*
X135265390Y-63756923D02*
X135313009Y-63709304D01*
X135313009Y-63709304D02*
X135408247Y-63661685D01*
X135408247Y-63661685D02*
X135646342Y-63661685D01*
X135646342Y-63661685D02*
X135741580Y-63709304D01*
X135741580Y-63709304D02*
X135789200Y-63756923D01*
X135789200Y-63756923D02*
X135836819Y-63852161D01*
X135836819Y-63852161D02*
X135836819Y-64090256D01*
X135836819Y-64090256D02*
X135789200Y-64185494D01*
X135789200Y-64185494D02*
X135741580Y-64233113D01*
X100943580Y-41293166D02*
X100991200Y-41340785D01*
X100991200Y-41340785D02*
X101038819Y-41483642D01*
X101038819Y-41483642D02*
X101038819Y-41578880D01*
X101038819Y-41578880D02*
X100991200Y-41721737D01*
X100991200Y-41721737D02*
X100895961Y-41816975D01*
X100895961Y-41816975D02*
X100800723Y-41864594D01*
X100800723Y-41864594D02*
X100610247Y-41912213D01*
X100610247Y-41912213D02*
X100467390Y-41912213D01*
X100467390Y-41912213D02*
X100276914Y-41864594D01*
X100276914Y-41864594D02*
X100181676Y-41816975D01*
X100181676Y-41816975D02*
X100086438Y-41721737D01*
X100086438Y-41721737D02*
X100038819Y-41578880D01*
X100038819Y-41578880D02*
X100038819Y-41483642D01*
X100038819Y-41483642D02*
X100086438Y-41340785D01*
X100086438Y-41340785D02*
X100134057Y-41293166D01*
X100038819Y-40959832D02*
X100038819Y-40340785D01*
X100038819Y-40340785D02*
X100419771Y-40674118D01*
X100419771Y-40674118D02*
X100419771Y-40531261D01*
X100419771Y-40531261D02*
X100467390Y-40436023D01*
X100467390Y-40436023D02*
X100515009Y-40388404D01*
X100515009Y-40388404D02*
X100610247Y-40340785D01*
X100610247Y-40340785D02*
X100848342Y-40340785D01*
X100848342Y-40340785D02*
X100943580Y-40388404D01*
X100943580Y-40388404D02*
X100991200Y-40436023D01*
X100991200Y-40436023D02*
X101038819Y-40531261D01*
X101038819Y-40531261D02*
X101038819Y-40816975D01*
X101038819Y-40816975D02*
X100991200Y-40912213D01*
X100991200Y-40912213D02*
X100943580Y-40959832D01*
X99858009Y-84871714D02*
X99905628Y-84728857D01*
X99905628Y-84728857D02*
X99953247Y-84681238D01*
X99953247Y-84681238D02*
X100048485Y-84633619D01*
X100048485Y-84633619D02*
X100191342Y-84633619D01*
X100191342Y-84633619D02*
X100286580Y-84681238D01*
X100286580Y-84681238D02*
X100334200Y-84728857D01*
X100334200Y-84728857D02*
X100381819Y-84824095D01*
X100381819Y-84824095D02*
X100381819Y-85205047D01*
X100381819Y-85205047D02*
X99381819Y-85205047D01*
X99381819Y-85205047D02*
X99381819Y-84871714D01*
X99381819Y-84871714D02*
X99429438Y-84776476D01*
X99429438Y-84776476D02*
X99477057Y-84728857D01*
X99477057Y-84728857D02*
X99572295Y-84681238D01*
X99572295Y-84681238D02*
X99667533Y-84681238D01*
X99667533Y-84681238D02*
X99762771Y-84728857D01*
X99762771Y-84728857D02*
X99810390Y-84776476D01*
X99810390Y-84776476D02*
X99858009Y-84871714D01*
X99858009Y-84871714D02*
X99858009Y-85205047D01*
X99381819Y-84347904D02*
X99381819Y-83776476D01*
X100381819Y-84062190D02*
X99381819Y-84062190D01*
X100381819Y-82919333D02*
X100381819Y-83490761D01*
X100381819Y-83205047D02*
X99381819Y-83205047D01*
X99381819Y-83205047D02*
X99524676Y-83300285D01*
X99524676Y-83300285D02*
X99619914Y-83395523D01*
X99619914Y-83395523D02*
X99667533Y-83490761D01*
X120499333Y-72464819D02*
X120166000Y-71988628D01*
X119927905Y-72464819D02*
X119927905Y-71464819D01*
X119927905Y-71464819D02*
X120308857Y-71464819D01*
X120308857Y-71464819D02*
X120404095Y-71512438D01*
X120404095Y-71512438D02*
X120451714Y-71560057D01*
X120451714Y-71560057D02*
X120499333Y-71655295D01*
X120499333Y-71655295D02*
X120499333Y-71798152D01*
X120499333Y-71798152D02*
X120451714Y-71893390D01*
X120451714Y-71893390D02*
X120404095Y-71941009D01*
X120404095Y-71941009D02*
X120308857Y-71988628D01*
X120308857Y-71988628D02*
X119927905Y-71988628D01*
X121070762Y-71893390D02*
X120975524Y-71845771D01*
X120975524Y-71845771D02*
X120927905Y-71798152D01*
X120927905Y-71798152D02*
X120880286Y-71702914D01*
X120880286Y-71702914D02*
X120880286Y-71655295D01*
X120880286Y-71655295D02*
X120927905Y-71560057D01*
X120927905Y-71560057D02*
X120975524Y-71512438D01*
X120975524Y-71512438D02*
X121070762Y-71464819D01*
X121070762Y-71464819D02*
X121261238Y-71464819D01*
X121261238Y-71464819D02*
X121356476Y-71512438D01*
X121356476Y-71512438D02*
X121404095Y-71560057D01*
X121404095Y-71560057D02*
X121451714Y-71655295D01*
X121451714Y-71655295D02*
X121451714Y-71702914D01*
X121451714Y-71702914D02*
X121404095Y-71798152D01*
X121404095Y-71798152D02*
X121356476Y-71845771D01*
X121356476Y-71845771D02*
X121261238Y-71893390D01*
X121261238Y-71893390D02*
X121070762Y-71893390D01*
X121070762Y-71893390D02*
X120975524Y-71941009D01*
X120975524Y-71941009D02*
X120927905Y-71988628D01*
X120927905Y-71988628D02*
X120880286Y-72083866D01*
X120880286Y-72083866D02*
X120880286Y-72274342D01*
X120880286Y-72274342D02*
X120927905Y-72369580D01*
X120927905Y-72369580D02*
X120975524Y-72417200D01*
X120975524Y-72417200D02*
X121070762Y-72464819D01*
X121070762Y-72464819D02*
X121261238Y-72464819D01*
X121261238Y-72464819D02*
X121356476Y-72417200D01*
X121356476Y-72417200D02*
X121404095Y-72369580D01*
X121404095Y-72369580D02*
X121451714Y-72274342D01*
X121451714Y-72274342D02*
X121451714Y-72083866D01*
X121451714Y-72083866D02*
X121404095Y-71988628D01*
X121404095Y-71988628D02*
X121356476Y-71941009D01*
X121356476Y-71941009D02*
X121261238Y-71893390D01*
X126692819Y-64630066D02*
X126216628Y-64963399D01*
X126692819Y-65201494D02*
X125692819Y-65201494D01*
X125692819Y-65201494D02*
X125692819Y-64820542D01*
X125692819Y-64820542D02*
X125740438Y-64725304D01*
X125740438Y-64725304D02*
X125788057Y-64677685D01*
X125788057Y-64677685D02*
X125883295Y-64630066D01*
X125883295Y-64630066D02*
X126026152Y-64630066D01*
X126026152Y-64630066D02*
X126121390Y-64677685D01*
X126121390Y-64677685D02*
X126169009Y-64725304D01*
X126169009Y-64725304D02*
X126216628Y-64820542D01*
X126216628Y-64820542D02*
X126216628Y-65201494D01*
X125692819Y-64296732D02*
X125692819Y-63677685D01*
X125692819Y-63677685D02*
X126073771Y-64011018D01*
X126073771Y-64011018D02*
X126073771Y-63868161D01*
X126073771Y-63868161D02*
X126121390Y-63772923D01*
X126121390Y-63772923D02*
X126169009Y-63725304D01*
X126169009Y-63725304D02*
X126264247Y-63677685D01*
X126264247Y-63677685D02*
X126502342Y-63677685D01*
X126502342Y-63677685D02*
X126597580Y-63725304D01*
X126597580Y-63725304D02*
X126645200Y-63772923D01*
X126645200Y-63772923D02*
X126692819Y-63868161D01*
X126692819Y-63868161D02*
X126692819Y-64153875D01*
X126692819Y-64153875D02*
X126645200Y-64249113D01*
X126645200Y-64249113D02*
X126597580Y-64296732D01*
X72461333Y-82116819D02*
X72128000Y-81640628D01*
X71889905Y-82116819D02*
X71889905Y-81116819D01*
X71889905Y-81116819D02*
X72270857Y-81116819D01*
X72270857Y-81116819D02*
X72366095Y-81164438D01*
X72366095Y-81164438D02*
X72413714Y-81212057D01*
X72413714Y-81212057D02*
X72461333Y-81307295D01*
X72461333Y-81307295D02*
X72461333Y-81450152D01*
X72461333Y-81450152D02*
X72413714Y-81545390D01*
X72413714Y-81545390D02*
X72366095Y-81593009D01*
X72366095Y-81593009D02*
X72270857Y-81640628D01*
X72270857Y-81640628D02*
X71889905Y-81640628D01*
X73413714Y-82116819D02*
X72842286Y-82116819D01*
X73128000Y-82116819D02*
X73128000Y-81116819D01*
X73128000Y-81116819D02*
X73032762Y-81259676D01*
X73032762Y-81259676D02*
X72937524Y-81354914D01*
X72937524Y-81354914D02*
X72842286Y-81402533D01*
X120715833Y-80525580D02*
X120668214Y-80573200D01*
X120668214Y-80573200D02*
X120525357Y-80620819D01*
X120525357Y-80620819D02*
X120430119Y-80620819D01*
X120430119Y-80620819D02*
X120287262Y-80573200D01*
X120287262Y-80573200D02*
X120192024Y-80477961D01*
X120192024Y-80477961D02*
X120144405Y-80382723D01*
X120144405Y-80382723D02*
X120096786Y-80192247D01*
X120096786Y-80192247D02*
X120096786Y-80049390D01*
X120096786Y-80049390D02*
X120144405Y-79858914D01*
X120144405Y-79858914D02*
X120192024Y-79763676D01*
X120192024Y-79763676D02*
X120287262Y-79668438D01*
X120287262Y-79668438D02*
X120430119Y-79620819D01*
X120430119Y-79620819D02*
X120525357Y-79620819D01*
X120525357Y-79620819D02*
X120668214Y-79668438D01*
X120668214Y-79668438D02*
X120715833Y-79716057D01*
X121668214Y-80620819D02*
X121096786Y-80620819D01*
X121382500Y-80620819D02*
X121382500Y-79620819D01*
X121382500Y-79620819D02*
X121287262Y-79763676D01*
X121287262Y-79763676D02*
X121192024Y-79858914D01*
X121192024Y-79858914D02*
X121096786Y-79906533D01*
X131913333Y-58238819D02*
X131580000Y-57762628D01*
X131341905Y-58238819D02*
X131341905Y-57238819D01*
X131341905Y-57238819D02*
X131722857Y-57238819D01*
X131722857Y-57238819D02*
X131818095Y-57286438D01*
X131818095Y-57286438D02*
X131865714Y-57334057D01*
X131865714Y-57334057D02*
X131913333Y-57429295D01*
X131913333Y-57429295D02*
X131913333Y-57572152D01*
X131913333Y-57572152D02*
X131865714Y-57667390D01*
X131865714Y-57667390D02*
X131818095Y-57715009D01*
X131818095Y-57715009D02*
X131722857Y-57762628D01*
X131722857Y-57762628D02*
X131341905Y-57762628D01*
X132770476Y-57238819D02*
X132580000Y-57238819D01*
X132580000Y-57238819D02*
X132484762Y-57286438D01*
X132484762Y-57286438D02*
X132437143Y-57334057D01*
X132437143Y-57334057D02*
X132341905Y-57476914D01*
X132341905Y-57476914D02*
X132294286Y-57667390D01*
X132294286Y-57667390D02*
X132294286Y-58048342D01*
X132294286Y-58048342D02*
X132341905Y-58143580D01*
X132341905Y-58143580D02*
X132389524Y-58191200D01*
X132389524Y-58191200D02*
X132484762Y-58238819D01*
X132484762Y-58238819D02*
X132675238Y-58238819D01*
X132675238Y-58238819D02*
X132770476Y-58191200D01*
X132770476Y-58191200D02*
X132818095Y-58143580D01*
X132818095Y-58143580D02*
X132865714Y-58048342D01*
X132865714Y-58048342D02*
X132865714Y-57810247D01*
X132865714Y-57810247D02*
X132818095Y-57715009D01*
X132818095Y-57715009D02*
X132770476Y-57667390D01*
X132770476Y-57667390D02*
X132675238Y-57619771D01*
X132675238Y-57619771D02*
X132484762Y-57619771D01*
X132484762Y-57619771D02*
X132389524Y-57667390D01*
X132389524Y-57667390D02*
X132341905Y-57715009D01*
X132341905Y-57715009D02*
X132294286Y-57810247D01*
X73223333Y-47572819D02*
X72890000Y-47096628D01*
X72651905Y-47572819D02*
X72651905Y-46572819D01*
X72651905Y-46572819D02*
X73032857Y-46572819D01*
X73032857Y-46572819D02*
X73128095Y-46620438D01*
X73128095Y-46620438D02*
X73175714Y-46668057D01*
X73175714Y-46668057D02*
X73223333Y-46763295D01*
X73223333Y-46763295D02*
X73223333Y-46906152D01*
X73223333Y-46906152D02*
X73175714Y-47001390D01*
X73175714Y-47001390D02*
X73128095Y-47049009D01*
X73128095Y-47049009D02*
X73032857Y-47096628D01*
X73032857Y-47096628D02*
X72651905Y-47096628D01*
X73604286Y-46668057D02*
X73651905Y-46620438D01*
X73651905Y-46620438D02*
X73747143Y-46572819D01*
X73747143Y-46572819D02*
X73985238Y-46572819D01*
X73985238Y-46572819D02*
X74080476Y-46620438D01*
X74080476Y-46620438D02*
X74128095Y-46668057D01*
X74128095Y-46668057D02*
X74175714Y-46763295D01*
X74175714Y-46763295D02*
X74175714Y-46858533D01*
X74175714Y-46858533D02*
X74128095Y-47001390D01*
X74128095Y-47001390D02*
X73556667Y-47572819D01*
X73556667Y-47572819D02*
X74175714Y-47572819D01*
X131518819Y-64682666D02*
X131042628Y-65015999D01*
X131518819Y-65254094D02*
X130518819Y-65254094D01*
X130518819Y-65254094D02*
X130518819Y-64873142D01*
X130518819Y-64873142D02*
X130566438Y-64777904D01*
X130566438Y-64777904D02*
X130614057Y-64730285D01*
X130614057Y-64730285D02*
X130709295Y-64682666D01*
X130709295Y-64682666D02*
X130852152Y-64682666D01*
X130852152Y-64682666D02*
X130947390Y-64730285D01*
X130947390Y-64730285D02*
X130995009Y-64777904D01*
X130995009Y-64777904D02*
X131042628Y-64873142D01*
X131042628Y-64873142D02*
X131042628Y-65254094D01*
X130852152Y-63825523D02*
X131518819Y-63825523D01*
X130471200Y-64063618D02*
X131185485Y-64301713D01*
X131185485Y-64301713D02*
X131185485Y-63682666D01*
D11*
X129666666Y-47153419D02*
X129666666Y-47867704D01*
X129666666Y-47867704D02*
X129619047Y-48010561D01*
X129619047Y-48010561D02*
X129523809Y-48105800D01*
X129523809Y-48105800D02*
X129380952Y-48153419D01*
X129380952Y-48153419D02*
X129285714Y-48153419D01*
X130095238Y-47248657D02*
X130142857Y-47201038D01*
X130142857Y-47201038D02*
X130238095Y-47153419D01*
X130238095Y-47153419D02*
X130476190Y-47153419D01*
X130476190Y-47153419D02*
X130571428Y-47201038D01*
X130571428Y-47201038D02*
X130619047Y-47248657D01*
X130619047Y-47248657D02*
X130666666Y-47343895D01*
X130666666Y-47343895D02*
X130666666Y-47439133D01*
X130666666Y-47439133D02*
X130619047Y-47581990D01*
X130619047Y-47581990D02*
X130047619Y-48153419D01*
X130047619Y-48153419D02*
X130666666Y-48153419D01*
D10*
X66063905Y-52682819D02*
X66063905Y-51682819D01*
X66063905Y-51682819D02*
X66302000Y-51682819D01*
X66302000Y-51682819D02*
X66444857Y-51730438D01*
X66444857Y-51730438D02*
X66540095Y-51825676D01*
X66540095Y-51825676D02*
X66587714Y-51920914D01*
X66587714Y-51920914D02*
X66635333Y-52111390D01*
X66635333Y-52111390D02*
X66635333Y-52254247D01*
X66635333Y-52254247D02*
X66587714Y-52444723D01*
X66587714Y-52444723D02*
X66540095Y-52539961D01*
X66540095Y-52539961D02*
X66444857Y-52635200D01*
X66444857Y-52635200D02*
X66302000Y-52682819D01*
X66302000Y-52682819D02*
X66063905Y-52682819D01*
X67587714Y-52682819D02*
X67016286Y-52682819D01*
X67302000Y-52682819D02*
X67302000Y-51682819D01*
X67302000Y-51682819D02*
X67206762Y-51825676D01*
X67206762Y-51825676D02*
X67111524Y-51920914D01*
X67111524Y-51920914D02*
X67016286Y-51968533D01*
X105007580Y-41293166D02*
X105055200Y-41340785D01*
X105055200Y-41340785D02*
X105102819Y-41483642D01*
X105102819Y-41483642D02*
X105102819Y-41578880D01*
X105102819Y-41578880D02*
X105055200Y-41721737D01*
X105055200Y-41721737D02*
X104959961Y-41816975D01*
X104959961Y-41816975D02*
X104864723Y-41864594D01*
X104864723Y-41864594D02*
X104674247Y-41912213D01*
X104674247Y-41912213D02*
X104531390Y-41912213D01*
X104531390Y-41912213D02*
X104340914Y-41864594D01*
X104340914Y-41864594D02*
X104245676Y-41816975D01*
X104245676Y-41816975D02*
X104150438Y-41721737D01*
X104150438Y-41721737D02*
X104102819Y-41578880D01*
X104102819Y-41578880D02*
X104102819Y-41483642D01*
X104102819Y-41483642D02*
X104150438Y-41340785D01*
X104150438Y-41340785D02*
X104198057Y-41293166D01*
X104198057Y-40912213D02*
X104150438Y-40864594D01*
X104150438Y-40864594D02*
X104102819Y-40769356D01*
X104102819Y-40769356D02*
X104102819Y-40531261D01*
X104102819Y-40531261D02*
X104150438Y-40436023D01*
X104150438Y-40436023D02*
X104198057Y-40388404D01*
X104198057Y-40388404D02*
X104293295Y-40340785D01*
X104293295Y-40340785D02*
X104388533Y-40340785D01*
X104388533Y-40340785D02*
X104531390Y-40388404D01*
X104531390Y-40388404D02*
X105102819Y-40959832D01*
X105102819Y-40959832D02*
X105102819Y-40340785D01*
D12*
%TO.C,C4*%
X84356752Y-65505000D02*
X83834248Y-65505000D01*
X84356752Y-64035000D02*
X83834248Y-64035000D01*
%TO.C,SW1*%
X66250000Y-63850000D02*
X78550000Y-63850000D01*
X66250000Y-66570000D02*
X66250000Y-63850000D01*
X66250000Y-71570000D02*
X66250000Y-68430000D01*
X66250000Y-76150000D02*
X66250000Y-73430000D01*
X78550000Y-63850000D02*
X78550000Y-66570000D01*
X78550000Y-68430000D02*
X78550000Y-71570000D01*
X78550000Y-73430000D02*
X78550000Y-76150000D01*
X78550000Y-76150000D02*
X66250000Y-76150000D01*
X77079050Y-70040000D02*
G75*
G03*
X77079050Y-70040000I-4579050J0D01*
G01*
D13*
%TO.C,SW2*%
X89331800Y-98576593D02*
X89331800Y-99936200D01*
X89331800Y-99936200D02*
X98196400Y-99936200D01*
X92369350Y-94627600D02*
X90741354Y-94627600D01*
X94369351Y-94627600D02*
X92369350Y-94627600D01*
X96369352Y-94627600D02*
X94369351Y-94627600D01*
X96786847Y-94627600D02*
X96369352Y-94627600D01*
X98196400Y-99936200D02*
X98196400Y-98576593D01*
D11*
%TO.C,U1*%
X91186000Y-43942000D02*
X91186000Y-40132000D01*
X83566000Y-43942000D02*
X91186000Y-43942000D01*
X83566000Y-40132000D02*
X83566000Y-43942000D01*
D12*
%TO.C,J1*%
X88110000Y-69042000D02*
X88710000Y-69342000D01*
X88110000Y-69642000D02*
X88110000Y-69042000D01*
X88710000Y-69342000D02*
X88110000Y-69642000D01*
X88910000Y-65532000D02*
X88910000Y-74252000D01*
X88910000Y-74252000D02*
X99130000Y-74252000D01*
X99130000Y-65532000D02*
X88910000Y-65532000D01*
X99130000Y-74252000D02*
X99130000Y-65532000D01*
%TO.C,U2*%
X130000000Y-68440000D02*
X128200000Y-68440000D01*
X130000000Y-68440000D02*
X130800000Y-68440000D01*
X130000000Y-71560000D02*
X129200000Y-71560000D01*
X130000000Y-71560000D02*
X130800000Y-71560000D01*
%TO.C,R7*%
X120438936Y-69823000D02*
X120893064Y-69823000D01*
X120438936Y-68353000D02*
X120893064Y-68353000D01*
%TO.C,R5*%
X134647000Y-61642464D02*
X134647000Y-61188336D01*
X136117000Y-61642464D02*
X136117000Y-61188336D01*
%TO.C,C3*%
X99849000Y-44435752D02*
X99849000Y-43913248D01*
X101319000Y-44435752D02*
X101319000Y-43913248D01*
%TO.C,BT1*%
X89122000Y-87946000D02*
X90422000Y-87946000D01*
X94742000Y-87946000D02*
X96842000Y-87946000D01*
X96842000Y-87946000D02*
X96842000Y-85496000D01*
X96842000Y-82676000D02*
X98732000Y-82676000D01*
X89122000Y-80226000D02*
X89122000Y-87946000D01*
X90422000Y-80226000D02*
X89122000Y-80226000D01*
X94742000Y-80226000D02*
X96842000Y-80226000D01*
X96842000Y-80226000D02*
X96842000Y-82676000D01*
%TO.C,R8*%
X120438936Y-74395000D02*
X120893064Y-74395000D01*
X120438936Y-72925000D02*
X120893064Y-72925000D01*
%TO.C,R3*%
X126973000Y-61188336D02*
X126973000Y-61642464D01*
X125503000Y-61188336D02*
X125503000Y-61642464D01*
%TO.C,R1*%
X72400936Y-82577000D02*
X72855064Y-82577000D01*
X72400936Y-84047000D02*
X72855064Y-84047000D01*
%TO.C,C1*%
X121143752Y-77751000D02*
X120621248Y-77751000D01*
X121143752Y-79221000D02*
X120621248Y-79221000D01*
%TO.C,R6*%
X132307064Y-55399000D02*
X131852936Y-55399000D01*
X132307064Y-56869000D02*
X131852936Y-56869000D01*
%TO.C,R2*%
X73162936Y-48033000D02*
X73617064Y-48033000D01*
X73162936Y-49503000D02*
X73617064Y-49503000D01*
%TO.C,R4*%
X130329000Y-61642464D02*
X130329000Y-61188336D01*
X131799000Y-61642464D02*
X131799000Y-61188336D01*
%TO.C,D1*%
X68861999Y-47369251D02*
G75*
G03*
X64558759Y-47687276I-2059999J-1398749D01*
G01*
X68485329Y-47688001D02*
G75*
G03*
X65119288Y-47687040I-1683329J-1079999D01*
G01*
X65119288Y-49848960D02*
G75*
G03*
X68485329Y-49847999I1682712J1080960D01*
G01*
X64558759Y-49848724D02*
G75*
G03*
X68861999Y-50166749I2243241J1080724D01*
G01*
X68862000Y-47688000D02*
X68862000Y-47369000D01*
X68862000Y-50167000D02*
X68862000Y-49848000D01*
%TO.C,C2*%
X105383000Y-44435752D02*
X105383000Y-43913248D01*
X103913000Y-44435752D02*
X103913000Y-43913248D01*
%TD*%
M02*
