%TF.GenerationSoftware,KiCad,Pcbnew,7.0.9*%
%TF.CreationDate,2024-02-19T15:29:43-08:00*%
%TF.ProjectId,display_rasp,64697370-6c61-4795-9f72-6173702e6b69,rev?*%
%TF.SameCoordinates,Original*%
%TF.FileFunction,Copper,L1,Top*%
%TF.FilePolarity,Positive*%
%FSLAX46Y46*%
G04 Gerber Fmt 4.6, Leading zero omitted, Abs format (unit mm)*
G04 Created by KiCad (PCBNEW 7.0.9) date 2024-02-19 15:29:43*
%MOMM*%
%LPD*%
G01*
G04 APERTURE LIST*
G04 Aperture macros list*
%AMRoundRect*
0 Rectangle with rounded corners*
0 $1 Rounding radius*
0 $2 $3 $4 $5 $6 $7 $8 $9 X,Y pos of 4 corners*
0 Add a 4 corners polygon primitive as box body*
4,1,4,$2,$3,$4,$5,$6,$7,$8,$9,$2,$3,0*
0 Add four circle primitives for the rounded corners*
1,1,$1+$1,$2,$3*
1,1,$1+$1,$4,$5*
1,1,$1+$1,$6,$7*
1,1,$1+$1,$8,$9*
0 Add four rect primitives between the rounded corners*
20,1,$1+$1,$2,$3,$4,$5,0*
20,1,$1+$1,$4,$5,$6,$7,0*
20,1,$1+$1,$6,$7,$8,$9,0*
20,1,$1+$1,$8,$9,$2,$3,0*%
G04 Aperture macros list end*
%TA.AperFunction,SMDPad,CuDef*%
%ADD10RoundRect,0.250000X-0.450000X0.350000X-0.450000X-0.350000X0.450000X-0.350000X0.450000X0.350000X0*%
%TD*%
%TA.AperFunction,ComponentPad*%
%ADD11C,1.700000*%
%TD*%
%TA.AperFunction,ComponentPad*%
%ADD12O,3.048000X1.850000*%
%TD*%
%TA.AperFunction,ComponentPad*%
%ADD13R,1.800000X1.800000*%
%TD*%
%TA.AperFunction,ComponentPad*%
%ADD14C,1.800000*%
%TD*%
%TA.AperFunction,SMDPad,CuDef*%
%ADD15RoundRect,0.250000X-0.350000X-0.450000X0.350000X-0.450000X0.350000X0.450000X-0.350000X0.450000X0*%
%TD*%
%TA.AperFunction,ComponentPad*%
%ADD16R,2.030000X1.730000*%
%TD*%
%TA.AperFunction,ComponentPad*%
%ADD17O,2.030000X1.730000*%
%TD*%
%TA.AperFunction,Conductor*%
%ADD18C,0.500000*%
%TD*%
%TA.AperFunction,Conductor*%
%ADD19C,0.250000*%
%TD*%
G04 APERTURE END LIST*
D10*
%TO.P,R1,1*%
%TO.N,Net-(D1-K)*%
X151638000Y-120396000D03*
%TO.P,R1,2*%
%TO.N,GND*%
X151638000Y-122396000D03*
%TD*%
D11*
%TO.P,M1,1*%
%TO.N,/GPIO17*%
X150368000Y-93218000D03*
%TO.P,M1,2,-*%
%TO.N,/GPIO27*%
X150368000Y-100838000D03*
%TO.P,M1,3*%
%TO.N,/GPIO22*%
X127508000Y-100838000D03*
%TO.P,M1,4*%
%TO.N,/GPIO23*%
X127508000Y-93218000D03*
%TD*%
D12*
%TO.P,SW1,1,A*%
%TO.N,/BUTTON*%
X126184000Y-118110000D03*
X138684000Y-118110000D03*
%TO.P,SW1,2,B*%
%TO.N,GND*%
X126184000Y-123110000D03*
X138684000Y-123110000D03*
%TD*%
D13*
%TO.P,D1,1,K*%
%TO.N,Net-(D1-K)*%
X147574000Y-120396000D03*
D14*
%TO.P,D1,2,A*%
%TO.N,/LED*%
X145034000Y-120396000D03*
%TD*%
D15*
%TO.P,R2,1*%
%TO.N,/VCC*%
X117634000Y-121920000D03*
%TO.P,R2,2*%
%TO.N,/BUTTON*%
X119634000Y-121920000D03*
%TD*%
D16*
%TO.P,J1,1,Pin_1*%
%TO.N,/GPIO17*%
X117602000Y-92456000D03*
D17*
%TO.P,J1,2,Pin_2*%
%TO.N,/GPIO27*%
X117602000Y-94996000D03*
%TO.P,J1,3,Pin_3*%
%TO.N,/GPIO22*%
X117602000Y-97536000D03*
%TO.P,J1,4,Pin_4*%
%TO.N,/GPIO23*%
X117602000Y-100076000D03*
%TD*%
D16*
%TO.P,J2,1,Pin_1*%
%TO.N,/VCC*%
X117602000Y-108458000D03*
D17*
%TO.P,J2,2,Pin_2*%
%TO.N,/LED*%
X117602000Y-110998000D03*
%TO.P,J2,3,Pin_3*%
%TO.N,/BUTTON*%
X117602000Y-113538000D03*
%TO.P,J2,4,Pin_4*%
%TO.N,GND*%
X117602000Y-116078000D03*
%TD*%
D18*
%TO.N,Net-(D1-K)*%
X147574000Y-120396000D02*
X151638000Y-120396000D01*
%TO.N,/LED*%
X135636000Y-110998000D02*
X145034000Y-120396000D01*
X117602000Y-110998000D02*
X135636000Y-110998000D01*
%TO.N,/GPIO17*%
X147574000Y-90424000D02*
X150368000Y-93218000D01*
X122428000Y-87630000D02*
X134620000Y-87630000D01*
X137414000Y-90424000D02*
X147574000Y-90424000D01*
X134620000Y-87630000D02*
X137414000Y-90424000D01*
X117602000Y-92456000D02*
X122428000Y-87630000D01*
%TO.N,/GPIO27*%
X117602000Y-94996000D02*
X123698000Y-88900000D01*
X123698000Y-88900000D02*
X133858000Y-88900000D01*
X133858000Y-88900000D02*
X145796000Y-100838000D01*
X145796000Y-100838000D02*
X150368000Y-100838000D01*
%TO.N,/GPIO22*%
X117602000Y-97536000D02*
X115316000Y-99822000D01*
X115316000Y-99822000D02*
X115316000Y-101346000D01*
X115316000Y-101346000D02*
X117094000Y-103124000D01*
X117094000Y-103124000D02*
X125222000Y-103124000D01*
X125222000Y-103124000D02*
X127508000Y-100838000D01*
%TO.N,/GPIO23*%
X120650000Y-100076000D02*
X127508000Y-93218000D01*
X117602000Y-100076000D02*
X120650000Y-100076000D01*
%TO.N,/VCC*%
X115316000Y-108458000D02*
X114300000Y-109474000D01*
X114300000Y-118586000D02*
X117634000Y-121920000D01*
X114300000Y-109474000D02*
X114300000Y-118586000D01*
X117602000Y-108458000D02*
X115316000Y-108458000D01*
%TO.N,/BUTTON*%
X130302000Y-124460000D02*
X128016000Y-126746000D01*
X124460000Y-126746000D02*
X119634000Y-121920000D01*
X115824000Y-118110000D02*
X119634000Y-121920000D01*
X115824000Y-115316000D02*
X115824000Y-118110000D01*
X126184000Y-118110000D02*
X130302000Y-122228000D01*
X128016000Y-126746000D02*
X124460000Y-126746000D01*
D19*
X127762000Y-118110000D02*
X126184000Y-118110000D01*
D18*
X130302000Y-122228000D02*
X130302000Y-124460000D01*
X126184000Y-118110000D02*
X138684000Y-118110000D01*
X117602000Y-113538000D02*
X115824000Y-115316000D01*
%TO.N,GND*%
X150114000Y-125730000D02*
X151638000Y-124206000D01*
X117602000Y-116078000D02*
X139446000Y-116078000D01*
D19*
X117602000Y-116078000D02*
X119152000Y-116078000D01*
D18*
X123364000Y-123110000D02*
X126184000Y-123110000D01*
X140462000Y-125730000D02*
X150114000Y-125730000D01*
X138684000Y-123952000D02*
X140462000Y-125730000D01*
X117602000Y-116078000D02*
X117602000Y-117348000D01*
X138684000Y-123110000D02*
X141050000Y-123110000D01*
X117602000Y-117348000D02*
X123364000Y-123110000D01*
D19*
X138684000Y-123110000D02*
X138684000Y-123952000D01*
D18*
X141478000Y-118110000D02*
X141478000Y-122682000D01*
X139446000Y-116078000D02*
X141478000Y-118110000D01*
X141050000Y-123110000D02*
X141478000Y-122682000D01*
X151638000Y-124206000D02*
X151638000Y-122396000D01*
%TD*%
%TA.AperFunction,Conductor*%
%TO.N,GND*%
G36*
X156942539Y-80020185D02*
G01*
X156988294Y-80072989D01*
X156999500Y-80124500D01*
X156999500Y-129875500D01*
X156979815Y-129942539D01*
X156927011Y-129988294D01*
X156875500Y-129999500D01*
X111124500Y-129999500D01*
X111057461Y-129979815D01*
X111011706Y-129927011D01*
X111000500Y-129875500D01*
X111000500Y-125999999D01*
X113394551Y-125999999D01*
X113402275Y-126098142D01*
X113402466Y-126103008D01*
X113402466Y-126125734D01*
X113406019Y-126148167D01*
X113406592Y-126153002D01*
X113410603Y-126203959D01*
X113414317Y-126251148D01*
X113414317Y-126251151D01*
X113414318Y-126251153D01*
X113437296Y-126346867D01*
X113438246Y-126351642D01*
X113441801Y-126374090D01*
X113448824Y-126395705D01*
X113450146Y-126400390D01*
X113473127Y-126496114D01*
X113510797Y-126587057D01*
X113512482Y-126591623D01*
X113518170Y-126609126D01*
X113519507Y-126613240D01*
X113519508Y-126613243D01*
X113519509Y-126613244D01*
X113529821Y-126633484D01*
X113531858Y-126637904D01*
X113569532Y-126728857D01*
X113620973Y-126812803D01*
X113623351Y-126817048D01*
X113630514Y-126831104D01*
X113633666Y-126837290D01*
X113633667Y-126837292D01*
X113647017Y-126855667D01*
X113649722Y-126859714D01*
X113699021Y-126940163D01*
X113701164Y-126943659D01*
X113701171Y-126943667D01*
X113765094Y-127018511D01*
X113768107Y-127022332D01*
X113781469Y-127040724D01*
X113797547Y-127056802D01*
X113800832Y-127060355D01*
X113864776Y-127135224D01*
X113939639Y-127199163D01*
X113943202Y-127202457D01*
X113959276Y-127218531D01*
X113977311Y-127231634D01*
X113977665Y-127231891D01*
X113981471Y-127234891D01*
X114056341Y-127298836D01*
X114056343Y-127298837D01*
X114056344Y-127298838D01*
X114056345Y-127298839D01*
X114140277Y-127350272D01*
X114144325Y-127352977D01*
X114144335Y-127352984D01*
X114162710Y-127366334D01*
X114182961Y-127376652D01*
X114187179Y-127379014D01*
X114271141Y-127430466D01*
X114271143Y-127430466D01*
X114271145Y-127430468D01*
X114312908Y-127447766D01*
X114362101Y-127468142D01*
X114366515Y-127470178D01*
X114374608Y-127474301D01*
X114386760Y-127480493D01*
X114408380Y-127487517D01*
X114412923Y-127489194D01*
X114503889Y-127526873D01*
X114599627Y-127549857D01*
X114604289Y-127551172D01*
X114625910Y-127558198D01*
X114625911Y-127558198D01*
X114625914Y-127558199D01*
X114634646Y-127559581D01*
X114648367Y-127561754D01*
X114653107Y-127562696D01*
X114748852Y-127585683D01*
X114847024Y-127593409D01*
X114851795Y-127593974D01*
X114874271Y-127597534D01*
X114874275Y-127597534D01*
X114896992Y-127597534D01*
X114901858Y-127597725D01*
X115000000Y-127605449D01*
X115098142Y-127597725D01*
X115103008Y-127597534D01*
X115125725Y-127597534D01*
X115125729Y-127597534D01*
X115148204Y-127593974D01*
X115152975Y-127593409D01*
X115251148Y-127585683D01*
X115346897Y-127562695D01*
X115351627Y-127561755D01*
X115374090Y-127558198D01*
X115395737Y-127551164D01*
X115400351Y-127549862D01*
X115496111Y-127526873D01*
X115587090Y-127489188D01*
X115591599Y-127487524D01*
X115613240Y-127480493D01*
X115633508Y-127470165D01*
X115637863Y-127468157D01*
X115728859Y-127430466D01*
X115812833Y-127379006D01*
X115817018Y-127376662D01*
X115837290Y-127366334D01*
X115855684Y-127352969D01*
X115859707Y-127350281D01*
X115943659Y-127298836D01*
X116018547Y-127234875D01*
X116022314Y-127231906D01*
X116040724Y-127218531D01*
X116056819Y-127202435D01*
X116060347Y-127199174D01*
X116135224Y-127135224D01*
X116199174Y-127060347D01*
X116202435Y-127056819D01*
X116218531Y-127040724D01*
X116231906Y-127022314D01*
X116234875Y-127018547D01*
X116298836Y-126943659D01*
X116350281Y-126859707D01*
X116352969Y-126855684D01*
X116366334Y-126837290D01*
X116376662Y-126817018D01*
X116379006Y-126812833D01*
X116430466Y-126728859D01*
X116468157Y-126637863D01*
X116470165Y-126633508D01*
X116480493Y-126613240D01*
X116487524Y-126591599D01*
X116489188Y-126587090D01*
X116526873Y-126496111D01*
X116549862Y-126400351D01*
X116551164Y-126395737D01*
X116558198Y-126374090D01*
X116561755Y-126351627D01*
X116562695Y-126346897D01*
X116585683Y-126251148D01*
X116593409Y-126152978D01*
X116593974Y-126148201D01*
X116597534Y-126125729D01*
X116598155Y-126094043D01*
X116598334Y-126090401D01*
X116605449Y-126000000D01*
X116598333Y-125909593D01*
X116598155Y-125905946D01*
X116597979Y-125896990D01*
X116597534Y-125874271D01*
X116593974Y-125851798D01*
X116593409Y-125847021D01*
X116585683Y-125748852D01*
X116562696Y-125653107D01*
X116561753Y-125648357D01*
X116558198Y-125625913D01*
X116558198Y-125625911D01*
X116558195Y-125625903D01*
X116551172Y-125604289D01*
X116549857Y-125599627D01*
X116526873Y-125503889D01*
X116489194Y-125412923D01*
X116487517Y-125408380D01*
X116480493Y-125386760D01*
X116470178Y-125366515D01*
X116468139Y-125362093D01*
X116430468Y-125271145D01*
X116430466Y-125271141D01*
X116379014Y-125187179D01*
X116376649Y-125182955D01*
X116366337Y-125162716D01*
X116366334Y-125162710D01*
X116358039Y-125151293D01*
X116352977Y-125144325D01*
X116350272Y-125140277D01*
X116298839Y-125056345D01*
X116298838Y-125056344D01*
X116298837Y-125056343D01*
X116298836Y-125056341D01*
X116234891Y-124981471D01*
X116231891Y-124977665D01*
X116218531Y-124959276D01*
X116202453Y-124943198D01*
X116199163Y-124939639D01*
X116135224Y-124864776D01*
X116060355Y-124800832D01*
X116056799Y-124797544D01*
X116040724Y-124781469D01*
X116022332Y-124768107D01*
X116018511Y-124765094D01*
X115955929Y-124711644D01*
X115943659Y-124701164D01*
X115943654Y-124701161D01*
X115943653Y-124701160D01*
X115859714Y-124649722D01*
X115855667Y-124647017D01*
X115837292Y-124633667D01*
X115837290Y-124633666D01*
X115831104Y-124630514D01*
X115817048Y-124623351D01*
X115812803Y-124620973D01*
X115728857Y-124569532D01*
X115637904Y-124531858D01*
X115633484Y-124529821D01*
X115613244Y-124519509D01*
X115613243Y-124519508D01*
X115613240Y-124519507D01*
X115609126Y-124518170D01*
X115591623Y-124512482D01*
X115587057Y-124510797D01*
X115496114Y-124473127D01*
X115400390Y-124450146D01*
X115395705Y-124448824D01*
X115374090Y-124441801D01*
X115351642Y-124438246D01*
X115346867Y-124437296D01*
X115251152Y-124414318D01*
X115251153Y-124414318D01*
X115251151Y-124414317D01*
X115251148Y-124414317D01*
X115203959Y-124410603D01*
X115153002Y-124406592D01*
X115148167Y-124406019D01*
X115125734Y-124402466D01*
X115125729Y-124402466D01*
X115103008Y-124402466D01*
X115098142Y-124402275D01*
X115000000Y-124394551D01*
X114901858Y-124402275D01*
X114896992Y-124402466D01*
X114874271Y-124402466D01*
X114851833Y-124406019D01*
X114846998Y-124406592D01*
X114748851Y-124414317D01*
X114748844Y-124414318D01*
X114653132Y-124437296D01*
X114648357Y-124438246D01*
X114625913Y-124441801D01*
X114625903Y-124441803D01*
X114604299Y-124448823D01*
X114599612Y-124450145D01*
X114503891Y-124473125D01*
X114412938Y-124510799D01*
X114408373Y-124512483D01*
X114386757Y-124519507D01*
X114366515Y-124529820D01*
X114362098Y-124531856D01*
X114271141Y-124569534D01*
X114187201Y-124620970D01*
X114182958Y-124623347D01*
X114162716Y-124633662D01*
X114162708Y-124633667D01*
X114144330Y-124647018D01*
X114140286Y-124649720D01*
X114056339Y-124701165D01*
X113981482Y-124765098D01*
X113977660Y-124768111D01*
X113959276Y-124781469D01*
X113943198Y-124797544D01*
X113939626Y-124800846D01*
X113864775Y-124864775D01*
X113800846Y-124939626D01*
X113797544Y-124943198D01*
X113781469Y-124959276D01*
X113768111Y-124977660D01*
X113765098Y-124981482D01*
X113701165Y-125056339D01*
X113649720Y-125140286D01*
X113647018Y-125144330D01*
X113633667Y-125162708D01*
X113633662Y-125162716D01*
X113623347Y-125182958D01*
X113620970Y-125187201D01*
X113569534Y-125271141D01*
X113531856Y-125362098D01*
X113529820Y-125366515D01*
X113519507Y-125386757D01*
X113512483Y-125408373D01*
X113510799Y-125412938D01*
X113473125Y-125503891D01*
X113450145Y-125599612D01*
X113448823Y-125604299D01*
X113441803Y-125625903D01*
X113441801Y-125625913D01*
X113438246Y-125648357D01*
X113437296Y-125653132D01*
X113414318Y-125748844D01*
X113414317Y-125748851D01*
X113406592Y-125846998D01*
X113406019Y-125851833D01*
X113402466Y-125874270D01*
X113402466Y-125896990D01*
X113402275Y-125901856D01*
X113394551Y-125999999D01*
X111000500Y-125999999D01*
X111000500Y-118564025D01*
X113544710Y-118564025D01*
X113549264Y-118616064D01*
X113549500Y-118621470D01*
X113549500Y-118629709D01*
X113551103Y-118643429D01*
X113553306Y-118662274D01*
X113560000Y-118738791D01*
X113561461Y-118745867D01*
X113561403Y-118745878D01*
X113563034Y-118753237D01*
X113563092Y-118753224D01*
X113564757Y-118760250D01*
X113591025Y-118832424D01*
X113615185Y-118905331D01*
X113618236Y-118911874D01*
X113618182Y-118911898D01*
X113621470Y-118918688D01*
X113621521Y-118918663D01*
X113624761Y-118925113D01*
X113624762Y-118925114D01*
X113624763Y-118925117D01*
X113648175Y-118960713D01*
X113666965Y-118989283D01*
X113707287Y-119054655D01*
X113711766Y-119060319D01*
X113711719Y-119060356D01*
X113716482Y-119066202D01*
X113716528Y-119066164D01*
X113721173Y-119071700D01*
X113777017Y-119124385D01*
X116497181Y-121844549D01*
X116530666Y-121905872D01*
X116533500Y-121932230D01*
X116533500Y-122420001D01*
X116533501Y-122420019D01*
X116544000Y-122522796D01*
X116544001Y-122522799D01*
X116599185Y-122689331D01*
X116599187Y-122689336D01*
X116600347Y-122691217D01*
X116691288Y-122838656D01*
X116815344Y-122962712D01*
X116964666Y-123054814D01*
X117131203Y-123109999D01*
X117233991Y-123120500D01*
X118034008Y-123120499D01*
X118034016Y-123120498D01*
X118034019Y-123120498D01*
X118090302Y-123114748D01*
X118136797Y-123109999D01*
X118303334Y-123054814D01*
X118452656Y-122962712D01*
X118546319Y-122869049D01*
X118607642Y-122835564D01*
X118677334Y-122840548D01*
X118721681Y-122869049D01*
X118815344Y-122962712D01*
X118964666Y-123054814D01*
X119131203Y-123109999D01*
X119233991Y-123120500D01*
X119721769Y-123120499D01*
X119788808Y-123140183D01*
X119809450Y-123156818D01*
X123884267Y-127231634D01*
X123896048Y-127245266D01*
X123910390Y-127264530D01*
X123950420Y-127298119D01*
X123954392Y-127301759D01*
X123960224Y-127307591D01*
X123960227Y-127307594D01*
X123985947Y-127327931D01*
X124044788Y-127377304D01*
X124050818Y-127381270D01*
X124050785Y-127381319D01*
X124057143Y-127385369D01*
X124057175Y-127385319D01*
X124063320Y-127389109D01*
X124063323Y-127389111D01*
X124132936Y-127421572D01*
X124201567Y-127456040D01*
X124201572Y-127456041D01*
X124208361Y-127458513D01*
X124208340Y-127458570D01*
X124215455Y-127461043D01*
X124215475Y-127460986D01*
X124222330Y-127463258D01*
X124297558Y-127478790D01*
X124372279Y-127496500D01*
X124372289Y-127496500D01*
X124379452Y-127497338D01*
X124379444Y-127497397D01*
X124386945Y-127498164D01*
X124386951Y-127498105D01*
X124394140Y-127498734D01*
X124394144Y-127498733D01*
X124394145Y-127498734D01*
X124470918Y-127496500D01*
X127952295Y-127496500D01*
X127970265Y-127497809D01*
X127994023Y-127501289D01*
X128046068Y-127496735D01*
X128051470Y-127496500D01*
X128059704Y-127496500D01*
X128059709Y-127496500D01*
X128071327Y-127495141D01*
X128092276Y-127492693D01*
X128105028Y-127491577D01*
X128168797Y-127485999D01*
X128168805Y-127485996D01*
X128175866Y-127484539D01*
X128175878Y-127484598D01*
X128183243Y-127482965D01*
X128183229Y-127482906D01*
X128190246Y-127481241D01*
X128190255Y-127481241D01*
X128262423Y-127454974D01*
X128335334Y-127430814D01*
X128335343Y-127430807D01*
X128341882Y-127427760D01*
X128341908Y-127427816D01*
X128348690Y-127424532D01*
X128348663Y-127424478D01*
X128355106Y-127421240D01*
X128355117Y-127421237D01*
X128419283Y-127379034D01*
X128484656Y-127338712D01*
X128484662Y-127338705D01*
X128490325Y-127334229D01*
X128490362Y-127334277D01*
X128496204Y-127329518D01*
X128496164Y-127329471D01*
X128501686Y-127324836D01*
X128501696Y-127324830D01*
X128526904Y-127298111D01*
X128554386Y-127268982D01*
X129823368Y-125999999D01*
X151394551Y-125999999D01*
X151402275Y-126098142D01*
X151402466Y-126103008D01*
X151402466Y-126125734D01*
X151406019Y-126148167D01*
X151406592Y-126153002D01*
X151410603Y-126203959D01*
X151414317Y-126251148D01*
X151414317Y-126251151D01*
X151414318Y-126251153D01*
X151437296Y-126346867D01*
X151438246Y-126351642D01*
X151441801Y-126374090D01*
X151448824Y-126395705D01*
X151450146Y-126400390D01*
X151473127Y-126496114D01*
X151510797Y-126587057D01*
X151512482Y-126591623D01*
X151518170Y-126609126D01*
X151519507Y-126613240D01*
X151519508Y-126613243D01*
X151519509Y-126613244D01*
X151529821Y-126633484D01*
X151531858Y-126637904D01*
X151569532Y-126728857D01*
X151620973Y-126812803D01*
X151623351Y-126817048D01*
X151630514Y-126831104D01*
X151633666Y-126837290D01*
X151633667Y-126837292D01*
X151647017Y-126855667D01*
X151649722Y-126859714D01*
X151699021Y-126940163D01*
X151701164Y-126943659D01*
X151701171Y-126943667D01*
X151765094Y-127018511D01*
X151768107Y-127022332D01*
X151781469Y-127040724D01*
X151797547Y-127056802D01*
X151800832Y-127060355D01*
X151864776Y-127135224D01*
X151939639Y-127199163D01*
X151943202Y-127202457D01*
X151959276Y-127218531D01*
X151977311Y-127231634D01*
X151977665Y-127231891D01*
X151981471Y-127234891D01*
X152056341Y-127298836D01*
X152056343Y-127298837D01*
X152056344Y-127298838D01*
X152056345Y-127298839D01*
X152140277Y-127350272D01*
X152144325Y-127352977D01*
X152144335Y-127352984D01*
X152162710Y-127366334D01*
X152182961Y-127376652D01*
X152187179Y-127379014D01*
X152271141Y-127430466D01*
X152271143Y-127430466D01*
X152271145Y-127430468D01*
X152312908Y-127447766D01*
X152362101Y-127468142D01*
X152366515Y-127470178D01*
X152374608Y-127474301D01*
X152386760Y-127480493D01*
X152408380Y-127487517D01*
X152412923Y-127489194D01*
X152503889Y-127526873D01*
X152599627Y-127549857D01*
X152604289Y-127551172D01*
X152625910Y-127558198D01*
X152625911Y-127558198D01*
X152625914Y-127558199D01*
X152634646Y-127559581D01*
X152648367Y-127561754D01*
X152653107Y-127562696D01*
X152748852Y-127585683D01*
X152847024Y-127593409D01*
X152851795Y-127593974D01*
X152874271Y-127597534D01*
X152874275Y-127597534D01*
X152896992Y-127597534D01*
X152901858Y-127597725D01*
X153000000Y-127605449D01*
X153098142Y-127597725D01*
X153103008Y-127597534D01*
X153125725Y-127597534D01*
X153125729Y-127597534D01*
X153148204Y-127593974D01*
X153152975Y-127593409D01*
X153251148Y-127585683D01*
X153346897Y-127562695D01*
X153351627Y-127561755D01*
X153374090Y-127558198D01*
X153395737Y-127551164D01*
X153400351Y-127549862D01*
X153496111Y-127526873D01*
X153587090Y-127489188D01*
X153591599Y-127487524D01*
X153613240Y-127480493D01*
X153633508Y-127470165D01*
X153637863Y-127468157D01*
X153728859Y-127430466D01*
X153812833Y-127379006D01*
X153817018Y-127376662D01*
X153837290Y-127366334D01*
X153855684Y-127352969D01*
X153859707Y-127350281D01*
X153943659Y-127298836D01*
X154018547Y-127234875D01*
X154022314Y-127231906D01*
X154040724Y-127218531D01*
X154056819Y-127202435D01*
X154060347Y-127199174D01*
X154135224Y-127135224D01*
X154199174Y-127060347D01*
X154202435Y-127056819D01*
X154218531Y-127040724D01*
X154231906Y-127022314D01*
X154234875Y-127018547D01*
X154298836Y-126943659D01*
X154350281Y-126859707D01*
X154352969Y-126855684D01*
X154366334Y-126837290D01*
X154376662Y-126817018D01*
X154379006Y-126812833D01*
X154430466Y-126728859D01*
X154468157Y-126637863D01*
X154470165Y-126633508D01*
X154480493Y-126613240D01*
X154487524Y-126591599D01*
X154489188Y-126587090D01*
X154526873Y-126496111D01*
X154549862Y-126400351D01*
X154551164Y-126395737D01*
X154558198Y-126374090D01*
X154561755Y-126351627D01*
X154562695Y-126346897D01*
X154585683Y-126251148D01*
X154593409Y-126152978D01*
X154593974Y-126148201D01*
X154597534Y-126125729D01*
X154598155Y-126094043D01*
X154598334Y-126090401D01*
X154605449Y-126000000D01*
X154598333Y-125909593D01*
X154598155Y-125905946D01*
X154597979Y-125896990D01*
X154597534Y-125874271D01*
X154593974Y-125851798D01*
X154593409Y-125847021D01*
X154585683Y-125748852D01*
X154562696Y-125653107D01*
X154561753Y-125648357D01*
X154558198Y-125625913D01*
X154558198Y-125625911D01*
X154558195Y-125625903D01*
X154551172Y-125604289D01*
X154549857Y-125599627D01*
X154526873Y-125503889D01*
X154489194Y-125412923D01*
X154487517Y-125408380D01*
X154480493Y-125386760D01*
X154470178Y-125366515D01*
X154468139Y-125362093D01*
X154430468Y-125271145D01*
X154430466Y-125271141D01*
X154379014Y-125187179D01*
X154376649Y-125182955D01*
X154366337Y-125162716D01*
X154366334Y-125162710D01*
X154358039Y-125151293D01*
X154352977Y-125144325D01*
X154350272Y-125140277D01*
X154298839Y-125056345D01*
X154298838Y-125056344D01*
X154298837Y-125056343D01*
X154298836Y-125056341D01*
X154234891Y-124981471D01*
X154231891Y-124977665D01*
X154218531Y-124959276D01*
X154202453Y-124943198D01*
X154199163Y-124939639D01*
X154135224Y-124864776D01*
X154060355Y-124800832D01*
X154056799Y-124797544D01*
X154040724Y-124781469D01*
X154022332Y-124768107D01*
X154018511Y-124765094D01*
X153955929Y-124711644D01*
X153943659Y-124701164D01*
X153943654Y-124701161D01*
X153943653Y-124701160D01*
X153859714Y-124649722D01*
X153855667Y-124647017D01*
X153837292Y-124633667D01*
X153837290Y-124633666D01*
X153831104Y-124630514D01*
X153817048Y-124623351D01*
X153812803Y-124620973D01*
X153728857Y-124569532D01*
X153637904Y-124531858D01*
X153633484Y-124529821D01*
X153613244Y-124519509D01*
X153613243Y-124519508D01*
X153613240Y-124519507D01*
X153609126Y-124518170D01*
X153591623Y-124512482D01*
X153587057Y-124510797D01*
X153496114Y-124473127D01*
X153400390Y-124450146D01*
X153395705Y-124448824D01*
X153374090Y-124441801D01*
X153351642Y-124438246D01*
X153346867Y-124437296D01*
X153251152Y-124414318D01*
X153251153Y-124414318D01*
X153251151Y-124414317D01*
X153251148Y-124414317D01*
X153203959Y-124410603D01*
X153153002Y-124406592D01*
X153148167Y-124406019D01*
X153125734Y-124402466D01*
X153125729Y-124402466D01*
X153103008Y-124402466D01*
X153098142Y-124402275D01*
X153000000Y-124394551D01*
X152901858Y-124402275D01*
X152896992Y-124402466D01*
X152874271Y-124402466D01*
X152851833Y-124406019D01*
X152846998Y-124406592D01*
X152748851Y-124414317D01*
X152748844Y-124414318D01*
X152653132Y-124437296D01*
X152648357Y-124438246D01*
X152625913Y-124441801D01*
X152625903Y-124441803D01*
X152604299Y-124448823D01*
X152599612Y-124450145D01*
X152503891Y-124473125D01*
X152412938Y-124510799D01*
X152408373Y-124512483D01*
X152386757Y-124519507D01*
X152366515Y-124529820D01*
X152362098Y-124531856D01*
X152271141Y-124569534D01*
X152187201Y-124620970D01*
X152182958Y-124623347D01*
X152162716Y-124633662D01*
X152162708Y-124633667D01*
X152144330Y-124647018D01*
X152140286Y-124649720D01*
X152056339Y-124701165D01*
X151981482Y-124765098D01*
X151977660Y-124768111D01*
X151959276Y-124781469D01*
X151943198Y-124797544D01*
X151939626Y-124800846D01*
X151864775Y-124864775D01*
X151800846Y-124939626D01*
X151797544Y-124943198D01*
X151781469Y-124959276D01*
X151768111Y-124977660D01*
X151765098Y-124981482D01*
X151701165Y-125056339D01*
X151649720Y-125140286D01*
X151647018Y-125144330D01*
X151633667Y-125162708D01*
X151633662Y-125162716D01*
X151623347Y-125182958D01*
X151620970Y-125187201D01*
X151569534Y-125271141D01*
X151531856Y-125362098D01*
X151529820Y-125366515D01*
X151519507Y-125386757D01*
X151512483Y-125408373D01*
X151510799Y-125412938D01*
X151473125Y-125503891D01*
X151450145Y-125599612D01*
X151448823Y-125604299D01*
X151441803Y-125625903D01*
X151441801Y-125625913D01*
X151438246Y-125648357D01*
X151437296Y-125653132D01*
X151414318Y-125748844D01*
X151414317Y-125748851D01*
X151406592Y-125846998D01*
X151406019Y-125851833D01*
X151402466Y-125874270D01*
X151402466Y-125896990D01*
X151402275Y-125901856D01*
X151394551Y-125999999D01*
X129823368Y-125999999D01*
X130414993Y-125408373D01*
X130787638Y-125035727D01*
X130801267Y-125023950D01*
X130820530Y-125009610D01*
X130820532Y-125009606D01*
X130820534Y-125009606D01*
X130847334Y-124977665D01*
X130854113Y-124969585D01*
X130857767Y-124965599D01*
X130863589Y-124959778D01*
X130883928Y-124934054D01*
X130889162Y-124927815D01*
X130933302Y-124875214D01*
X130933304Y-124875209D01*
X130937272Y-124869179D01*
X130937323Y-124869212D01*
X130941369Y-124862860D01*
X130941317Y-124862828D01*
X130945109Y-124856679D01*
X130945111Y-124856677D01*
X130977569Y-124787069D01*
X131012040Y-124718433D01*
X131012043Y-124718417D01*
X131014510Y-124711644D01*
X131014568Y-124711665D01*
X131017043Y-124704546D01*
X131016985Y-124704527D01*
X131019256Y-124697672D01*
X131032472Y-124633667D01*
X131034784Y-124622467D01*
X131052500Y-124547721D01*
X131052500Y-124547720D01*
X131053339Y-124540548D01*
X131053397Y-124540554D01*
X131054164Y-124533056D01*
X131054104Y-124533051D01*
X131054733Y-124525860D01*
X131052500Y-124449103D01*
X131052500Y-122859999D01*
X136680377Y-122859999D01*
X136680378Y-122860000D01*
X138083272Y-122860000D01*
X138060900Y-122907543D01*
X138030127Y-123068862D01*
X138040439Y-123232766D01*
X138081780Y-123360000D01*
X136681161Y-123360000D01*
X136717536Y-123528782D01*
X136717537Y-123528785D01*
X136807978Y-123753856D01*
X136935161Y-123960415D01*
X137095422Y-124142507D01*
X137095426Y-124142511D01*
X137284144Y-124294890D01*
X137284150Y-124294894D01*
X137495917Y-124413194D01*
X137724629Y-124494003D01*
X137724637Y-124494005D01*
X137963706Y-124534999D01*
X137963715Y-124535000D01*
X138434000Y-124535000D01*
X138434000Y-123714310D01*
X138442817Y-123719158D01*
X138601886Y-123760000D01*
X138724894Y-123760000D01*
X138846933Y-123744583D01*
X138934000Y-123710110D01*
X138934000Y-124535000D01*
X139343539Y-124535000D01*
X139524692Y-124519582D01*
X139759440Y-124458458D01*
X139980472Y-124358546D01*
X139980480Y-124358541D01*
X140181450Y-124222708D01*
X140181453Y-124222706D01*
X140356575Y-124054864D01*
X140356576Y-124054863D01*
X140500813Y-123859843D01*
X140610021Y-123643242D01*
X140681053Y-123411299D01*
X140687622Y-123360000D01*
X139284728Y-123360000D01*
X139307100Y-123312457D01*
X139337873Y-123151138D01*
X139327561Y-122987234D01*
X139286220Y-122860000D01*
X140686839Y-122860000D01*
X140650463Y-122691217D01*
X140650462Y-122691214D01*
X140632294Y-122646000D01*
X150438001Y-122646000D01*
X150438001Y-122795986D01*
X150448494Y-122898697D01*
X150503641Y-123065119D01*
X150503643Y-123065124D01*
X150595684Y-123214345D01*
X150719654Y-123338315D01*
X150868875Y-123430356D01*
X150868880Y-123430358D01*
X151035302Y-123485505D01*
X151035309Y-123485506D01*
X151138019Y-123495999D01*
X151387999Y-123495999D01*
X151388000Y-123495998D01*
X151388000Y-122646000D01*
X151888000Y-122646000D01*
X151888000Y-123495999D01*
X152137972Y-123495999D01*
X152137986Y-123495998D01*
X152240697Y-123485505D01*
X152407119Y-123430358D01*
X152407124Y-123430356D01*
X152556345Y-123338315D01*
X152680315Y-123214345D01*
X152772356Y-123065124D01*
X152772358Y-123065119D01*
X152827505Y-122898697D01*
X152827506Y-122898690D01*
X152837999Y-122795986D01*
X152838000Y-122795973D01*
X152838000Y-122646000D01*
X151888000Y-122646000D01*
X151388000Y-122646000D01*
X150438001Y-122646000D01*
X140632294Y-122646000D01*
X140560021Y-122466143D01*
X140432838Y-122259584D01*
X140272577Y-122077492D01*
X140272573Y-122077488D01*
X140083855Y-121925109D01*
X140083849Y-121925105D01*
X139872082Y-121806805D01*
X139643370Y-121725996D01*
X139643362Y-121725994D01*
X139404293Y-121685000D01*
X138934000Y-121685000D01*
X138934000Y-122505689D01*
X138925183Y-122500842D01*
X138766114Y-122460000D01*
X138643106Y-122460000D01*
X138521067Y-122475417D01*
X138434000Y-122509889D01*
X138434000Y-121685000D01*
X138024461Y-121685000D01*
X137843307Y-121700417D01*
X137608559Y-121761541D01*
X137387527Y-121861453D01*
X137387519Y-121861458D01*
X137186549Y-121997291D01*
X137186546Y-121997293D01*
X137011424Y-122165135D01*
X137011423Y-122165136D01*
X136867186Y-122360156D01*
X136757978Y-122576757D01*
X136686946Y-122808700D01*
X136680377Y-122859999D01*
X131052500Y-122859999D01*
X131052500Y-122291705D01*
X131053809Y-122273735D01*
X131057289Y-122249974D01*
X131052736Y-122197939D01*
X131052500Y-122192532D01*
X131052500Y-122184297D01*
X131052500Y-122184291D01*
X131048691Y-122151707D01*
X131041998Y-122075202D01*
X131041996Y-122075197D01*
X131040538Y-122068133D01*
X131040597Y-122068120D01*
X131038967Y-122060764D01*
X131038908Y-122060779D01*
X131037242Y-122053753D01*
X131037241Y-122053745D01*
X131010973Y-121981573D01*
X131003537Y-121959131D01*
X130986815Y-121908666D01*
X130983763Y-121902121D01*
X130983817Y-121902095D01*
X130980533Y-121895312D01*
X130980480Y-121895340D01*
X130977238Y-121888885D01*
X130959199Y-121861458D01*
X130935029Y-121824709D01*
X130894711Y-121759344D01*
X130894710Y-121759343D01*
X130894709Y-121759341D01*
X130890233Y-121753681D01*
X130890280Y-121753643D01*
X130885519Y-121747799D01*
X130885474Y-121747838D01*
X130880834Y-121742308D01*
X130878168Y-121739793D01*
X130863545Y-121725996D01*
X130824964Y-121689596D01*
X128207549Y-119072181D01*
X128174064Y-119010858D01*
X128179048Y-118941166D01*
X128220920Y-118885233D01*
X128286384Y-118860816D01*
X128295230Y-118860500D01*
X136803783Y-118860500D01*
X136870822Y-118880185D01*
X136909372Y-118919485D01*
X136934757Y-118960713D01*
X136934758Y-118960715D01*
X137095075Y-119142869D01*
X137095079Y-119142873D01*
X137283870Y-119295311D01*
X137495709Y-119413652D01*
X137495712Y-119413653D01*
X137724507Y-119494491D01*
X137724513Y-119494492D01*
X137963662Y-119535499D01*
X137963670Y-119535499D01*
X137963672Y-119535500D01*
X137963673Y-119535500D01*
X139343559Y-119535500D01*
X139524775Y-119520076D01*
X139524775Y-119520075D01*
X139524782Y-119520075D01*
X139759608Y-119458931D01*
X139759611Y-119458930D01*
X139980713Y-119358986D01*
X139980716Y-119358983D01*
X139980723Y-119358981D01*
X140181765Y-119223100D01*
X140356952Y-119055197D01*
X140501244Y-118860102D01*
X140610488Y-118643429D01*
X140681543Y-118411409D01*
X140712365Y-118170719D01*
X140711642Y-118153709D01*
X140702066Y-117928284D01*
X140702066Y-117928280D01*
X140676271Y-117808591D01*
X140650944Y-117691072D01*
X140560468Y-117465914D01*
X140433242Y-117259286D01*
X140272925Y-117077131D01*
X140272924Y-117077130D01*
X140272920Y-117077126D01*
X140084129Y-116924688D01*
X139872290Y-116806347D01*
X139643500Y-116725511D01*
X139643486Y-116725507D01*
X139404337Y-116684500D01*
X139404328Y-116684500D01*
X138024446Y-116684500D01*
X138024441Y-116684500D01*
X137843224Y-116699923D01*
X137843222Y-116699924D01*
X137608391Y-116761068D01*
X137608388Y-116761069D01*
X137387286Y-116861013D01*
X137387274Y-116861020D01*
X137186234Y-116996900D01*
X137186232Y-116996902D01*
X137011047Y-117164803D01*
X137011046Y-117164804D01*
X136904226Y-117309235D01*
X136848536Y-117351429D01*
X136804531Y-117359500D01*
X128064217Y-117359500D01*
X127997178Y-117339815D01*
X127958628Y-117300515D01*
X127933242Y-117259286D01*
X127933241Y-117259284D01*
X127772924Y-117077130D01*
X127772920Y-117077126D01*
X127584129Y-116924688D01*
X127372290Y-116806347D01*
X127143500Y-116725511D01*
X127143486Y-116725507D01*
X126904337Y-116684500D01*
X126904328Y-116684500D01*
X125524446Y-116684500D01*
X125524441Y-116684500D01*
X125343224Y-116699923D01*
X125343222Y-116699924D01*
X125108391Y-116761068D01*
X125108388Y-116761069D01*
X124887286Y-116861013D01*
X124887274Y-116861020D01*
X124686234Y-116996900D01*
X124686232Y-116996902D01*
X124511047Y-117164803D01*
X124511046Y-117164804D01*
X124366758Y-117359893D01*
X124257515Y-117576565D01*
X124257512Y-117576571D01*
X124186456Y-117808594D01*
X124155635Y-118049281D01*
X124165933Y-118291715D01*
X124165933Y-118291719D01*
X124217056Y-118528929D01*
X124217057Y-118528932D01*
X124307530Y-118754082D01*
X124307532Y-118754086D01*
X124355766Y-118832423D01*
X124434757Y-118960713D01*
X124595075Y-119142869D01*
X124595079Y-119142873D01*
X124783870Y-119295311D01*
X124995709Y-119413652D01*
X124995712Y-119413653D01*
X125224507Y-119494491D01*
X125224513Y-119494492D01*
X125463662Y-119535499D01*
X125463670Y-119535499D01*
X125463672Y-119535500D01*
X126496770Y-119535500D01*
X126563809Y-119555185D01*
X126584451Y-119571819D01*
X129515181Y-122502548D01*
X129548666Y-122563871D01*
X129551500Y-122590229D01*
X129551500Y-124097770D01*
X129531815Y-124164809D01*
X129515181Y-124185451D01*
X127741451Y-125959181D01*
X127680128Y-125992666D01*
X127653770Y-125995500D01*
X124822229Y-125995500D01*
X124755190Y-125975815D01*
X124734548Y-125959181D01*
X121635367Y-122859999D01*
X124180377Y-122859999D01*
X124180378Y-122860000D01*
X125583272Y-122860000D01*
X125560900Y-122907543D01*
X125530127Y-123068862D01*
X125540439Y-123232766D01*
X125581780Y-123360000D01*
X124181161Y-123360000D01*
X124217536Y-123528782D01*
X124217537Y-123528785D01*
X124307978Y-123753856D01*
X124435161Y-123960415D01*
X124595422Y-124142507D01*
X124595426Y-124142511D01*
X124784144Y-124294890D01*
X124784150Y-124294894D01*
X124995917Y-124413194D01*
X125224629Y-124494003D01*
X125224637Y-124494005D01*
X125463706Y-124534999D01*
X125463715Y-124535000D01*
X125934000Y-124535000D01*
X125934000Y-123714310D01*
X125942817Y-123719158D01*
X126101886Y-123760000D01*
X126224894Y-123760000D01*
X126346933Y-123744583D01*
X126434000Y-123710110D01*
X126434000Y-124535000D01*
X126843539Y-124535000D01*
X127024692Y-124519582D01*
X127259440Y-124458458D01*
X127480472Y-124358546D01*
X127480480Y-124358541D01*
X127681450Y-124222708D01*
X127681453Y-124222706D01*
X127856575Y-124054864D01*
X127856576Y-124054863D01*
X128000813Y-123859843D01*
X128110021Y-123643242D01*
X128181053Y-123411299D01*
X128187622Y-123360000D01*
X126784728Y-123360000D01*
X126807100Y-123312457D01*
X126837873Y-123151138D01*
X126827561Y-122987234D01*
X126786220Y-122860000D01*
X128186839Y-122860000D01*
X128150463Y-122691217D01*
X128150462Y-122691214D01*
X128060021Y-122466143D01*
X127932838Y-122259584D01*
X127772577Y-122077492D01*
X127772573Y-122077488D01*
X127583855Y-121925109D01*
X127583849Y-121925105D01*
X127372082Y-121806805D01*
X127143370Y-121725996D01*
X127143362Y-121725994D01*
X126904293Y-121685000D01*
X126434000Y-121685000D01*
X126434000Y-122505689D01*
X126425183Y-122500842D01*
X126266114Y-122460000D01*
X126143106Y-122460000D01*
X126021067Y-122475417D01*
X125934000Y-122509889D01*
X125934000Y-121685000D01*
X125524461Y-121685000D01*
X125343307Y-121700417D01*
X125108559Y-121761541D01*
X124887527Y-121861453D01*
X124887519Y-121861458D01*
X124686549Y-121997291D01*
X124686546Y-121997293D01*
X124511424Y-122165135D01*
X124511423Y-122165136D01*
X124367186Y-122360156D01*
X124257978Y-122576757D01*
X124186946Y-122808700D01*
X124180377Y-122859999D01*
X121635367Y-122859999D01*
X120770818Y-121995450D01*
X120737333Y-121934127D01*
X120734499Y-121907769D01*
X120734499Y-121419998D01*
X120734498Y-121419981D01*
X120723999Y-121317203D01*
X120723998Y-121317200D01*
X120690018Y-121214656D01*
X120668814Y-121150666D01*
X120576712Y-121001344D01*
X120452656Y-120877288D01*
X120359888Y-120820069D01*
X120303336Y-120785187D01*
X120303331Y-120785185D01*
X120301862Y-120784698D01*
X120136797Y-120730001D01*
X120136795Y-120730000D01*
X120034016Y-120719500D01*
X120034009Y-120719500D01*
X119546229Y-120719500D01*
X119479190Y-120699815D01*
X119458548Y-120683181D01*
X116610819Y-117835451D01*
X116577334Y-117774128D01*
X116574500Y-117747770D01*
X116574500Y-117362654D01*
X116594185Y-117295615D01*
X116646989Y-117249860D01*
X116716147Y-117239916D01*
X116758975Y-117254401D01*
X116887717Y-117326322D01*
X117106798Y-117403728D01*
X117106810Y-117403731D01*
X117335812Y-117442999D01*
X117335821Y-117443000D01*
X117352000Y-117443000D01*
X117352000Y-116524494D01*
X117456839Y-116572373D01*
X117565527Y-116588000D01*
X117638473Y-116588000D01*
X117747161Y-116572373D01*
X117852000Y-116524494D01*
X117852000Y-117439423D01*
X117983515Y-117428231D01*
X118208379Y-117369681D01*
X118420104Y-117273976D01*
X118420112Y-117273971D01*
X118612621Y-117143857D01*
X118612624Y-117143855D01*
X118780372Y-116983080D01*
X118780373Y-116983079D01*
X118918537Y-116796271D01*
X119023144Y-116588794D01*
X119023147Y-116588788D01*
X119091187Y-116366612D01*
X119096132Y-116328000D01*
X118047572Y-116328000D01*
X118070682Y-116292040D01*
X118112000Y-116151327D01*
X118112000Y-116004673D01*
X118070682Y-115863960D01*
X118047572Y-115828000D01*
X119094461Y-115828000D01*
X119094460Y-115827999D01*
X119061885Y-115676850D01*
X119061885Y-115676849D01*
X118975251Y-115461253D01*
X118853422Y-115263389D01*
X118699914Y-115088971D01*
X118699912Y-115088969D01*
X118519129Y-114942996D01*
X118519125Y-114942993D01*
X118471905Y-114916614D01*
X118422979Y-114866734D01*
X118408787Y-114798321D01*
X118433835Y-114733096D01*
X118462940Y-114705628D01*
X118612936Y-114604249D01*
X118780749Y-114443413D01*
X118918967Y-114256530D01*
X119023613Y-114048976D01*
X119091678Y-113826723D01*
X119121202Y-113596163D01*
X119111337Y-113363930D01*
X119062366Y-113136705D01*
X118975699Y-112921024D01*
X118853827Y-112723093D01*
X118700259Y-112548605D01*
X118700256Y-112548602D01*
X118700253Y-112548599D01*
X118519416Y-112402584D01*
X118519410Y-112402580D01*
X118472370Y-112376302D01*
X118423444Y-112326422D01*
X118409251Y-112258009D01*
X118434298Y-112192784D01*
X118463407Y-112165313D01*
X118510594Y-112133420D01*
X118612936Y-112064249D01*
X118780749Y-111903413D01*
X118858147Y-111798762D01*
X118913836Y-111756571D01*
X118957841Y-111748500D01*
X135273770Y-111748500D01*
X135340809Y-111768185D01*
X135361451Y-111784819D01*
X143616930Y-120040298D01*
X143650415Y-120101621D01*
X143649456Y-120158415D01*
X143647865Y-120164697D01*
X143628700Y-120395993D01*
X143628700Y-120396006D01*
X143647864Y-120627297D01*
X143647866Y-120627308D01*
X143704842Y-120852300D01*
X143798075Y-121064848D01*
X143925016Y-121259147D01*
X143925019Y-121259151D01*
X143925021Y-121259153D01*
X144082216Y-121429913D01*
X144082219Y-121429915D01*
X144082222Y-121429918D01*
X144265365Y-121572464D01*
X144265371Y-121572468D01*
X144265374Y-121572470D01*
X144469497Y-121682936D01*
X144583487Y-121722068D01*
X144689015Y-121758297D01*
X144689017Y-121758297D01*
X144689019Y-121758298D01*
X144917951Y-121796500D01*
X144917952Y-121796500D01*
X145150048Y-121796500D01*
X145150049Y-121796500D01*
X145378981Y-121758298D01*
X145598503Y-121682936D01*
X145802626Y-121572470D01*
X145985784Y-121429913D01*
X145994130Y-121420846D01*
X146054010Y-121384854D01*
X146123849Y-121386949D01*
X146181468Y-121426469D01*
X146201544Y-121461491D01*
X146230203Y-121538330D01*
X146230206Y-121538335D01*
X146316452Y-121653544D01*
X146316455Y-121653547D01*
X146431664Y-121739793D01*
X146431671Y-121739797D01*
X146566517Y-121790091D01*
X146566516Y-121790091D01*
X146573444Y-121790835D01*
X146626127Y-121796500D01*
X148521872Y-121796499D01*
X148581483Y-121790091D01*
X148716331Y-121739796D01*
X148831546Y-121653546D01*
X148917796Y-121538331D01*
X148968091Y-121403483D01*
X148974500Y-121343873D01*
X148974500Y-121270500D01*
X148994185Y-121203461D01*
X149046989Y-121157706D01*
X149098500Y-121146500D01*
X150484042Y-121146500D01*
X150551081Y-121166185D01*
X150589580Y-121205402D01*
X150595287Y-121214655D01*
X150689304Y-121308672D01*
X150722789Y-121369995D01*
X150717805Y-121439687D01*
X150689305Y-121484034D01*
X150595682Y-121577657D01*
X150503643Y-121726875D01*
X150503641Y-121726880D01*
X150448494Y-121893302D01*
X150448493Y-121893309D01*
X150438000Y-121996013D01*
X150438000Y-122146000D01*
X152837999Y-122146000D01*
X152837999Y-121996028D01*
X152837998Y-121996013D01*
X152827505Y-121893302D01*
X152772358Y-121726880D01*
X152772356Y-121726875D01*
X152680315Y-121577654D01*
X152586695Y-121484034D01*
X152553210Y-121422711D01*
X152558194Y-121353019D01*
X152586691Y-121308676D01*
X152680712Y-121214656D01*
X152772814Y-121065334D01*
X152827999Y-120898797D01*
X152838500Y-120796009D01*
X152838499Y-119995992D01*
X152827999Y-119893203D01*
X152772814Y-119726666D01*
X152680712Y-119577344D01*
X152556656Y-119453288D01*
X152407334Y-119361186D01*
X152240797Y-119306001D01*
X152240795Y-119306000D01*
X152138010Y-119295500D01*
X151137998Y-119295500D01*
X151137980Y-119295501D01*
X151035203Y-119306000D01*
X151035200Y-119306001D01*
X150868668Y-119361185D01*
X150868663Y-119361187D01*
X150719342Y-119453289D01*
X150595287Y-119577344D01*
X150589580Y-119586598D01*
X150537632Y-119633322D01*
X150484042Y-119645500D01*
X149098499Y-119645500D01*
X149031460Y-119625815D01*
X148985705Y-119573011D01*
X148974499Y-119521500D01*
X148974499Y-119448129D01*
X148974498Y-119448123D01*
X148970492Y-119410858D01*
X148968091Y-119388517D01*
X148958233Y-119362087D01*
X148917797Y-119253671D01*
X148917793Y-119253664D01*
X148831547Y-119138455D01*
X148831544Y-119138452D01*
X148716335Y-119052206D01*
X148716328Y-119052202D01*
X148581482Y-119001908D01*
X148581483Y-119001908D01*
X148521883Y-118995501D01*
X148521881Y-118995500D01*
X148521873Y-118995500D01*
X148521864Y-118995500D01*
X146626129Y-118995500D01*
X146626123Y-118995501D01*
X146566516Y-119001908D01*
X146431671Y-119052202D01*
X146431664Y-119052206D01*
X146316455Y-119138452D01*
X146316452Y-119138455D01*
X146230206Y-119253664D01*
X146230203Y-119253670D01*
X146201544Y-119330508D01*
X146159672Y-119386441D01*
X146094208Y-119410858D01*
X146025935Y-119396006D01*
X145994135Y-119371158D01*
X145985784Y-119362087D01*
X145985778Y-119362082D01*
X145985777Y-119362081D01*
X145802634Y-119219535D01*
X145802628Y-119219531D01*
X145598504Y-119109064D01*
X145598495Y-119109061D01*
X145378984Y-119033702D01*
X145188450Y-119001908D01*
X145150049Y-118995500D01*
X144917951Y-118995500D01*
X144789726Y-119016896D01*
X144720361Y-119008514D01*
X144681636Y-118982268D01*
X136211729Y-110512361D01*
X136199949Y-110498730D01*
X136191232Y-110487022D01*
X136185612Y-110479472D01*
X136185610Y-110479470D01*
X136145587Y-110445886D01*
X136141612Y-110442244D01*
X136138690Y-110439322D01*
X136135780Y-110436411D01*
X136110040Y-110416059D01*
X136051209Y-110366694D01*
X136045180Y-110362729D01*
X136045212Y-110362680D01*
X136038853Y-110358628D01*
X136038822Y-110358679D01*
X136032680Y-110354891D01*
X136032678Y-110354890D01*
X136032677Y-110354889D01*
X135993474Y-110336608D01*
X135963058Y-110322424D01*
X135928894Y-110305267D01*
X135894433Y-110287960D01*
X135894431Y-110287959D01*
X135894430Y-110287959D01*
X135887645Y-110285489D01*
X135887665Y-110285433D01*
X135880549Y-110282959D01*
X135880531Y-110283015D01*
X135873671Y-110280742D01*
X135845841Y-110274996D01*
X135798434Y-110265207D01*
X135749472Y-110253603D01*
X135723719Y-110247499D01*
X135716547Y-110246661D01*
X135716553Y-110246601D01*
X135709055Y-110245835D01*
X135709050Y-110245895D01*
X135701860Y-110245265D01*
X135625083Y-110247500D01*
X118962754Y-110247500D01*
X118895715Y-110227815D01*
X118857163Y-110188511D01*
X118853830Y-110183098D01*
X118853827Y-110183093D01*
X118700259Y-110008605D01*
X118700257Y-110008603D01*
X118698318Y-110006400D01*
X118668803Y-109943070D01*
X118678212Y-109873837D01*
X118723558Y-109820681D01*
X118748069Y-109808294D01*
X118859326Y-109766798D01*
X118859326Y-109766797D01*
X118859331Y-109766796D01*
X118974546Y-109680546D01*
X119060796Y-109565331D01*
X119111091Y-109430483D01*
X119117500Y-109370873D01*
X119117499Y-107545128D01*
X119111091Y-107485517D01*
X119090068Y-107429152D01*
X119060797Y-107350671D01*
X119060793Y-107350664D01*
X118974547Y-107235455D01*
X118974544Y-107235452D01*
X118859335Y-107149206D01*
X118859328Y-107149202D01*
X118724482Y-107098908D01*
X118724483Y-107098908D01*
X118664883Y-107092501D01*
X118664881Y-107092500D01*
X118664873Y-107092500D01*
X118664864Y-107092500D01*
X116539129Y-107092500D01*
X116539123Y-107092501D01*
X116479516Y-107098908D01*
X116344671Y-107149202D01*
X116344664Y-107149206D01*
X116229455Y-107235452D01*
X116229452Y-107235455D01*
X116143206Y-107350664D01*
X116143202Y-107350671D01*
X116092908Y-107485517D01*
X116086501Y-107545116D01*
X116086501Y-107545123D01*
X116086500Y-107545135D01*
X116086500Y-107583500D01*
X116066815Y-107650539D01*
X116014011Y-107696294D01*
X115962500Y-107707500D01*
X115379705Y-107707500D01*
X115361735Y-107706191D01*
X115337972Y-107702710D01*
X115292533Y-107706686D01*
X115285931Y-107707264D01*
X115280530Y-107707500D01*
X115272289Y-107707500D01*
X115250579Y-107710037D01*
X115239724Y-107711306D01*
X115224419Y-107712645D01*
X115163199Y-107718001D01*
X115156132Y-107719460D01*
X115156120Y-107719404D01*
X115148763Y-107721035D01*
X115148777Y-107721092D01*
X115141743Y-107722759D01*
X115069575Y-107749025D01*
X114996665Y-107773185D01*
X114990126Y-107776235D01*
X114990101Y-107776183D01*
X114983308Y-107779471D01*
X114983334Y-107779522D01*
X114976884Y-107782761D01*
X114912716Y-107824964D01*
X114847347Y-107865285D01*
X114841677Y-107869769D01*
X114841641Y-107869723D01*
X114835798Y-107874484D01*
X114835835Y-107874528D01*
X114830310Y-107879164D01*
X114777614Y-107935017D01*
X113814358Y-108898272D01*
X113800729Y-108910051D01*
X113781468Y-108924390D01*
X113747898Y-108964397D01*
X113744253Y-108968376D01*
X113738409Y-108974222D01*
X113718059Y-108999959D01*
X113668695Y-109058789D01*
X113664729Y-109064819D01*
X113664682Y-109064788D01*
X113660630Y-109071147D01*
X113660679Y-109071177D01*
X113656889Y-109077321D01*
X113624424Y-109146941D01*
X113589960Y-109215566D01*
X113587488Y-109222357D01*
X113587432Y-109222336D01*
X113584960Y-109229450D01*
X113585015Y-109229469D01*
X113582742Y-109236327D01*
X113580989Y-109244819D01*
X113567207Y-109311565D01*
X113554001Y-109367284D01*
X113549498Y-109386286D01*
X113548661Y-109393454D01*
X113548601Y-109393447D01*
X113547835Y-109400945D01*
X113547895Y-109400951D01*
X113547265Y-109408140D01*
X113549500Y-109484916D01*
X113549500Y-118522294D01*
X113548191Y-118540263D01*
X113544710Y-118564025D01*
X111000500Y-118564025D01*
X111000500Y-106028006D01*
X128532700Y-106028006D01*
X128551864Y-106259297D01*
X128551866Y-106259308D01*
X128608842Y-106484300D01*
X128702075Y-106696848D01*
X128829016Y-106891147D01*
X128829018Y-106891149D01*
X128829021Y-106891153D01*
X128986216Y-107061913D01*
X128986219Y-107061915D01*
X128986222Y-107061918D01*
X129169365Y-107204464D01*
X129169371Y-107204468D01*
X129169374Y-107204470D01*
X129373497Y-107314936D01*
X129410334Y-107327582D01*
X129413282Y-107328680D01*
X129415055Y-107329392D01*
X129415057Y-107329393D01*
X129420167Y-107330958D01*
X129490377Y-107355061D01*
X129593018Y-107390298D01*
X129602852Y-107391938D01*
X129634942Y-107397293D01*
X129641174Y-107398762D01*
X129642509Y-107399050D01*
X129642516Y-107399052D01*
X129655247Y-107400682D01*
X129821951Y-107428500D01*
X129821952Y-107428500D01*
X129868525Y-107428500D01*
X129876407Y-107429003D01*
X129877580Y-107429152D01*
X129878475Y-107429267D01*
X129896531Y-107428500D01*
X130054044Y-107428500D01*
X130054049Y-107428500D01*
X130104077Y-107420151D01*
X130111655Y-107419362D01*
X130114530Y-107419239D01*
X130116146Y-107419171D01*
X130136015Y-107414888D01*
X130138766Y-107414363D01*
X130282981Y-107390298D01*
X130334950Y-107372456D01*
X130341991Y-107370497D01*
X130348693Y-107369053D01*
X130369712Y-107360606D01*
X130372611Y-107359527D01*
X130502503Y-107314936D01*
X130554579Y-107286753D01*
X130560969Y-107283754D01*
X130562857Y-107282995D01*
X130569425Y-107280356D01*
X130589927Y-107267732D01*
X130592874Y-107266029D01*
X130663947Y-107227566D01*
X130706616Y-107204476D01*
X130706619Y-107204473D01*
X130706626Y-107204470D01*
X130756795Y-107165421D01*
X130762365Y-107161558D01*
X130771985Y-107155635D01*
X130771986Y-107155633D01*
X130771991Y-107155631D01*
X130790639Y-107139218D01*
X130793440Y-107136899D01*
X130889784Y-107061913D01*
X130935855Y-107011865D01*
X130940487Y-107007336D01*
X130950566Y-106998466D01*
X130966281Y-106979002D01*
X130968838Y-106976036D01*
X131046979Y-106891153D01*
X131086679Y-106830387D01*
X131090328Y-106825371D01*
X131100010Y-106813382D01*
X131112083Y-106791769D01*
X131114259Y-106788172D01*
X131173924Y-106696849D01*
X131204957Y-106626098D01*
X131207594Y-106620796D01*
X131216026Y-106605704D01*
X131224057Y-106582971D01*
X131225732Y-106578738D01*
X131267157Y-106484300D01*
X131287305Y-106404736D01*
X131288935Y-106399350D01*
X131295275Y-106381407D01*
X131299193Y-106358556D01*
X131300187Y-106353868D01*
X131324134Y-106259305D01*
X131331320Y-106172570D01*
X131331996Y-106167245D01*
X131335478Y-106146943D01*
X131336137Y-106115827D01*
X131336331Y-106112096D01*
X131343300Y-106028000D01*
X131343299Y-106027993D01*
X131341770Y-106009541D01*
X131336331Y-105943906D01*
X131336137Y-105940169D01*
X131335478Y-105909057D01*
X131331994Y-105888740D01*
X131331319Y-105883413D01*
X131324134Y-105796695D01*
X131300191Y-105702149D01*
X131299190Y-105697429D01*
X131295275Y-105674593D01*
X131288936Y-105656653D01*
X131287302Y-105651251D01*
X131267157Y-105571700D01*
X131225731Y-105477259D01*
X131224051Y-105473009D01*
X131224026Y-105472939D01*
X131216026Y-105450296D01*
X131207599Y-105435211D01*
X131204951Y-105429884D01*
X131173923Y-105359149D01*
X131152777Y-105326783D01*
X131114278Y-105267857D01*
X131112073Y-105264212D01*
X131105750Y-105252893D01*
X131100012Y-105242620D01*
X131100008Y-105242615D01*
X131090335Y-105230636D01*
X131086673Y-105225604D01*
X131046979Y-105164847D01*
X130968873Y-105080001D01*
X130966256Y-105076966D01*
X130950564Y-105057532D01*
X130947349Y-105054703D01*
X130940497Y-105048672D01*
X130935846Y-105044124D01*
X130889784Y-104994087D01*
X130793471Y-104919123D01*
X130790601Y-104916748D01*
X130771992Y-104900370D01*
X130771991Y-104900369D01*
X130762359Y-104894438D01*
X130756787Y-104890572D01*
X130706626Y-104851530D01*
X130695680Y-104845606D01*
X130592895Y-104789981D01*
X130589896Y-104788248D01*
X130569425Y-104775644D01*
X130560960Y-104772242D01*
X130554566Y-104769239D01*
X130502504Y-104741064D01*
X130502499Y-104741062D01*
X130372660Y-104696488D01*
X130369679Y-104695378D01*
X130348697Y-104686948D01*
X130348685Y-104686945D01*
X130341998Y-104685503D01*
X130334932Y-104683536D01*
X130282981Y-104665701D01*
X130138819Y-104641645D01*
X130135964Y-104641099D01*
X130116142Y-104636828D01*
X130111650Y-104636637D01*
X130104074Y-104635847D01*
X130054050Y-104627500D01*
X130054049Y-104627500D01*
X129896531Y-104627500D01*
X129878472Y-104626732D01*
X129876407Y-104626997D01*
X129868525Y-104627500D01*
X129821951Y-104627500D01*
X129740457Y-104641099D01*
X129655270Y-104655314D01*
X129644681Y-104656670D01*
X129642507Y-104656949D01*
X129641234Y-104657223D01*
X129634913Y-104658710D01*
X129593012Y-104665703D01*
X129420174Y-104725039D01*
X129415057Y-104726607D01*
X129415044Y-104726611D01*
X129413278Y-104727320D01*
X129410320Y-104728421D01*
X129373504Y-104741061D01*
X129373495Y-104741065D01*
X129169376Y-104851528D01*
X129169365Y-104851535D01*
X128986222Y-104994081D01*
X128986219Y-104994084D01*
X128829016Y-105164852D01*
X128702075Y-105359151D01*
X128608842Y-105571699D01*
X128551866Y-105796691D01*
X128551864Y-105796702D01*
X128532700Y-106027993D01*
X128532700Y-106028006D01*
X111000500Y-106028006D01*
X111000500Y-101324025D01*
X114560710Y-101324025D01*
X114565264Y-101376064D01*
X114565500Y-101381470D01*
X114565500Y-101389709D01*
X114569306Y-101422274D01*
X114576000Y-101498791D01*
X114577461Y-101505867D01*
X114577403Y-101505878D01*
X114579034Y-101513237D01*
X114579092Y-101513224D01*
X114580757Y-101520250D01*
X114607025Y-101592424D01*
X114631185Y-101665331D01*
X114634236Y-101671874D01*
X114634182Y-101671898D01*
X114637470Y-101678688D01*
X114637521Y-101678663D01*
X114640761Y-101685113D01*
X114640762Y-101685114D01*
X114640763Y-101685117D01*
X114682965Y-101749283D01*
X114723287Y-101814655D01*
X114727766Y-101820319D01*
X114727719Y-101820356D01*
X114732482Y-101826202D01*
X114732528Y-101826164D01*
X114737173Y-101831700D01*
X114793017Y-101884385D01*
X116518270Y-103609638D01*
X116530051Y-103623270D01*
X116544388Y-103642528D01*
X116544389Y-103642529D01*
X116544390Y-103642530D01*
X116549696Y-103646982D01*
X116584409Y-103676111D01*
X116588397Y-103679766D01*
X116594216Y-103685585D01*
X116594220Y-103685588D01*
X116594223Y-103685591D01*
X116619959Y-103705940D01*
X116678786Y-103755302D01*
X116678787Y-103755302D01*
X116678789Y-103755304D01*
X116684818Y-103759270D01*
X116684785Y-103759319D01*
X116691147Y-103763372D01*
X116691179Y-103763321D01*
X116697319Y-103767108D01*
X116697323Y-103767111D01*
X116732132Y-103783343D01*
X116766941Y-103799575D01*
X116785336Y-103808813D01*
X116835567Y-103834040D01*
X116835569Y-103834040D01*
X116842357Y-103836511D01*
X116842336Y-103836567D01*
X116849455Y-103839042D01*
X116849474Y-103838986D01*
X116856329Y-103841258D01*
X116931562Y-103856791D01*
X117006279Y-103874500D01*
X117006289Y-103874500D01*
X117013452Y-103875338D01*
X117013444Y-103875397D01*
X117020945Y-103876164D01*
X117020951Y-103876105D01*
X117028140Y-103876734D01*
X117028144Y-103876733D01*
X117028145Y-103876734D01*
X117104918Y-103874500D01*
X125158295Y-103874500D01*
X125176265Y-103875809D01*
X125200023Y-103879289D01*
X125252068Y-103874735D01*
X125257470Y-103874500D01*
X125265704Y-103874500D01*
X125265709Y-103874500D01*
X125277327Y-103873141D01*
X125298276Y-103870693D01*
X125311028Y-103869577D01*
X125374797Y-103863999D01*
X125374805Y-103863996D01*
X125381866Y-103862539D01*
X125381878Y-103862598D01*
X125389243Y-103860965D01*
X125389229Y-103860906D01*
X125396246Y-103859241D01*
X125396255Y-103859241D01*
X125468423Y-103832974D01*
X125541334Y-103808814D01*
X125541343Y-103808807D01*
X125547882Y-103805760D01*
X125547908Y-103805816D01*
X125554690Y-103802532D01*
X125554663Y-103802478D01*
X125561106Y-103799240D01*
X125561117Y-103799237D01*
X125625283Y-103757034D01*
X125690656Y-103716712D01*
X125690662Y-103716705D01*
X125696325Y-103712229D01*
X125696362Y-103712277D01*
X125702204Y-103707518D01*
X125702164Y-103707471D01*
X125707686Y-103702836D01*
X125707696Y-103702830D01*
X125732904Y-103676111D01*
X125760386Y-103646982D01*
X126467491Y-102939875D01*
X127196498Y-102210867D01*
X127257819Y-102177384D01*
X127294983Y-102175022D01*
X127437861Y-102187522D01*
X127507999Y-102193659D01*
X127508000Y-102193659D01*
X127508001Y-102193659D01*
X127547234Y-102190226D01*
X127743408Y-102173063D01*
X127971663Y-102111903D01*
X128185830Y-102012035D01*
X128379401Y-101876495D01*
X128546495Y-101709401D01*
X128682035Y-101515830D01*
X128781903Y-101301663D01*
X128843063Y-101073408D01*
X128863659Y-100838000D01*
X128843063Y-100602592D01*
X128781903Y-100374337D01*
X128682035Y-100160171D01*
X128631151Y-100087500D01*
X128546494Y-99966597D01*
X128379402Y-99799506D01*
X128379395Y-99799501D01*
X128185834Y-99663967D01*
X128185830Y-99663965D01*
X128176394Y-99659565D01*
X127971663Y-99564097D01*
X127971659Y-99564096D01*
X127971655Y-99564094D01*
X127743413Y-99502938D01*
X127743403Y-99502936D01*
X127508001Y-99482341D01*
X127507999Y-99482341D01*
X127272596Y-99502936D01*
X127272586Y-99502938D01*
X127044344Y-99564094D01*
X127044335Y-99564098D01*
X126830171Y-99663964D01*
X126830169Y-99663965D01*
X126636597Y-99799505D01*
X126469505Y-99966597D01*
X126333965Y-100160169D01*
X126333964Y-100160171D01*
X126234098Y-100374335D01*
X126234094Y-100374344D01*
X126172938Y-100602586D01*
X126172936Y-100602596D01*
X126152341Y-100837999D01*
X126152341Y-100838001D01*
X126170977Y-101051012D01*
X126157210Y-101119512D01*
X126135130Y-101149500D01*
X124947451Y-102337181D01*
X124886128Y-102370666D01*
X124859770Y-102373500D01*
X117456229Y-102373500D01*
X117389190Y-102353815D01*
X117368548Y-102337181D01*
X116102819Y-101071451D01*
X116069334Y-101010128D01*
X116066500Y-100983770D01*
X116066500Y-100868085D01*
X116086185Y-100801046D01*
X116138989Y-100755291D01*
X116208147Y-100745347D01*
X116271703Y-100774372D01*
X116296089Y-100803069D01*
X116302182Y-100812965D01*
X116350170Y-100890903D01*
X116350171Y-100890905D01*
X116350173Y-100890907D01*
X116503741Y-101065395D01*
X116503743Y-101065396D01*
X116503746Y-101065400D01*
X116684583Y-101211415D01*
X116684589Y-101211420D01*
X116887511Y-101324779D01*
X116887515Y-101324781D01*
X117106680Y-101402217D01*
X117106686Y-101402218D01*
X117335769Y-101441499D01*
X117335777Y-101441499D01*
X117335779Y-101441500D01*
X117335780Y-101441500D01*
X117810013Y-101441500D01*
X117983600Y-101426726D01*
X117983603Y-101426725D01*
X117983605Y-101426725D01*
X118208547Y-101368154D01*
X118208548Y-101368153D01*
X118208550Y-101368153D01*
X118420345Y-101272416D01*
X118420348Y-101272413D01*
X118420355Y-101272411D01*
X118612936Y-101142249D01*
X118780749Y-100981413D01*
X118858147Y-100876762D01*
X118913836Y-100834571D01*
X118957841Y-100826500D01*
X120586295Y-100826500D01*
X120604265Y-100827809D01*
X120628023Y-100831289D01*
X120680068Y-100826735D01*
X120685470Y-100826500D01*
X120693704Y-100826500D01*
X120693709Y-100826500D01*
X120705327Y-100825141D01*
X120726276Y-100822693D01*
X120739028Y-100821577D01*
X120802797Y-100815999D01*
X120802805Y-100815996D01*
X120809866Y-100814539D01*
X120809878Y-100814598D01*
X120817243Y-100812965D01*
X120817229Y-100812906D01*
X120824246Y-100811241D01*
X120824255Y-100811241D01*
X120896423Y-100784974D01*
X120969334Y-100760814D01*
X120969343Y-100760807D01*
X120975882Y-100757760D01*
X120975908Y-100757816D01*
X120982690Y-100754532D01*
X120982663Y-100754478D01*
X120989106Y-100751240D01*
X120989117Y-100751237D01*
X121053283Y-100709034D01*
X121118656Y-100668712D01*
X121118662Y-100668705D01*
X121124325Y-100664229D01*
X121124362Y-100664277D01*
X121130204Y-100659518D01*
X121130164Y-100659471D01*
X121135691Y-100654832D01*
X121135696Y-100654830D01*
X121188386Y-100598981D01*
X124381043Y-97406323D01*
X124442364Y-97372840D01*
X124512056Y-97377824D01*
X124567989Y-97419696D01*
X124578080Y-97435553D01*
X124643862Y-97558623D01*
X124643864Y-97558626D01*
X124762642Y-97703357D01*
X124907373Y-97822135D01*
X124907376Y-97822137D01*
X124989937Y-97866266D01*
X125072499Y-97910396D01*
X125072501Y-97910396D01*
X125072506Y-97910399D01*
X125092363Y-97916421D01*
X125101901Y-97919315D01*
X125105438Y-97920505D01*
X125107200Y-97921157D01*
X125107209Y-97921162D01*
X125112520Y-97922536D01*
X125251669Y-97964747D01*
X125280607Y-97967597D01*
X125287502Y-97968823D01*
X125287550Y-97968512D01*
X125293760Y-97969462D01*
X125293773Y-97969466D01*
X125304288Y-97969999D01*
X125307193Y-97970215D01*
X125438000Y-97983099D01*
X125471151Y-97979833D01*
X125479965Y-97979624D01*
X125479961Y-97979545D01*
X125486230Y-97979226D01*
X125486241Y-97979227D01*
X125500700Y-97977011D01*
X125503969Y-97976601D01*
X125624331Y-97964747D01*
X125660324Y-97953828D01*
X125674886Y-97950523D01*
X125676726Y-97950046D01*
X125676734Y-97950045D01*
X125692831Y-97944082D01*
X125696324Y-97942907D01*
X125803501Y-97910396D01*
X125844266Y-97888606D01*
X125851935Y-97885156D01*
X125857453Y-97883113D01*
X125873238Y-97873274D01*
X125876753Y-97871241D01*
X125968625Y-97822136D01*
X126007647Y-97790110D01*
X126014176Y-97785426D01*
X126021000Y-97781174D01*
X126034958Y-97767905D01*
X126038275Y-97764975D01*
X126113357Y-97703357D01*
X126148174Y-97660932D01*
X126153352Y-97655362D01*
X126160679Y-97648399D01*
X126171673Y-97632602D01*
X126174614Y-97628714D01*
X126232136Y-97558625D01*
X126260123Y-97506262D01*
X126263900Y-97500096D01*
X126270771Y-97490226D01*
X126278185Y-97472947D01*
X126280452Y-97468230D01*
X126320396Y-97393501D01*
X126338979Y-97332240D01*
X126341327Y-97325808D01*
X126346769Y-97313128D01*
X126350382Y-97295546D01*
X126351777Y-97290051D01*
X126374747Y-97214331D01*
X126381493Y-97145835D01*
X126382459Y-97139460D01*
X126385563Y-97124358D01*
X126386181Y-97099904D01*
X126386459Y-97095414D01*
X126393099Y-97028000D01*
X126386458Y-96960579D01*
X126386181Y-96956093D01*
X126385563Y-96931642D01*
X126382458Y-96916537D01*
X126381493Y-96910166D01*
X126374747Y-96841669D01*
X126351781Y-96765960D01*
X126350380Y-96760440D01*
X126348808Y-96752797D01*
X126346769Y-96742872D01*
X126341329Y-96730195D01*
X126338973Y-96723739D01*
X126320395Y-96662497D01*
X126280474Y-96587810D01*
X126278176Y-96583030D01*
X126270772Y-96565777D01*
X126270772Y-96565776D01*
X126263906Y-96555911D01*
X126260112Y-96549715D01*
X126258450Y-96546605D01*
X126232136Y-96497375D01*
X126219238Y-96481659D01*
X126174623Y-96427294D01*
X126171661Y-96423379D01*
X126160678Y-96407600D01*
X126160676Y-96407598D01*
X126153369Y-96400652D01*
X126148161Y-96395052D01*
X126113357Y-96352643D01*
X126038289Y-96291036D01*
X126034921Y-96288059D01*
X126021000Y-96274826D01*
X126020997Y-96274824D01*
X126014178Y-96270573D01*
X126007638Y-96265881D01*
X125968626Y-96233865D01*
X125968627Y-96233865D01*
X125968625Y-96233864D01*
X125919447Y-96207578D01*
X125876786Y-96184775D01*
X125873217Y-96182712D01*
X125857452Y-96172886D01*
X125851815Y-96170121D01*
X125852878Y-96167953D01*
X125805496Y-96132638D01*
X125780942Y-96067225D01*
X125795650Y-95998921D01*
X125816920Y-95970446D01*
X127196498Y-94590867D01*
X127257819Y-94557384D01*
X127294983Y-94555022D01*
X127437861Y-94567522D01*
X127507999Y-94573659D01*
X127508000Y-94573659D01*
X127508001Y-94573659D01*
X127547234Y-94570226D01*
X127743408Y-94553063D01*
X127971663Y-94491903D01*
X128185830Y-94392035D01*
X128379401Y-94256495D01*
X128546495Y-94089401D01*
X128682035Y-93895830D01*
X128781903Y-93681663D01*
X128843063Y-93453408D01*
X128863659Y-93218000D01*
X128843063Y-92982592D01*
X128781903Y-92754337D01*
X128682035Y-92540171D01*
X128546495Y-92346599D01*
X128546494Y-92346597D01*
X128379402Y-92179506D01*
X128379395Y-92179501D01*
X128185834Y-92043967D01*
X128185830Y-92043965D01*
X128185828Y-92043964D01*
X127971663Y-91944097D01*
X127971659Y-91944096D01*
X127971655Y-91944094D01*
X127743413Y-91882938D01*
X127743403Y-91882936D01*
X127508001Y-91862341D01*
X127507999Y-91862341D01*
X127272596Y-91882936D01*
X127272586Y-91882938D01*
X127044344Y-91944094D01*
X127044335Y-91944098D01*
X126830171Y-92043964D01*
X126830169Y-92043965D01*
X126636597Y-92179505D01*
X126469505Y-92346597D01*
X126333965Y-92540169D01*
X126333964Y-92540171D01*
X126234098Y-92754335D01*
X126234094Y-92754344D01*
X126172938Y-92982586D01*
X126172936Y-92982596D01*
X126152341Y-93217999D01*
X126152341Y-93218001D01*
X126170977Y-93431013D01*
X126157210Y-93499513D01*
X126135130Y-93529501D01*
X120375451Y-99289181D01*
X120314128Y-99322666D01*
X120287770Y-99325500D01*
X118962754Y-99325500D01*
X118895715Y-99305815D01*
X118857163Y-99266511D01*
X118853830Y-99261098D01*
X118853828Y-99261095D01*
X118853827Y-99261093D01*
X118700259Y-99086605D01*
X118700256Y-99086602D01*
X118700253Y-99086599D01*
X118519416Y-98940584D01*
X118519410Y-98940580D01*
X118472370Y-98914302D01*
X118423444Y-98864422D01*
X118409251Y-98796009D01*
X118434298Y-98730784D01*
X118463407Y-98703313D01*
X118486677Y-98687584D01*
X118612936Y-98602249D01*
X118780749Y-98441413D01*
X118918967Y-98254530D01*
X119023613Y-98046976D01*
X119091678Y-97824723D01*
X119121202Y-97594163D01*
X119119692Y-97558626D01*
X119111337Y-97361933D01*
X119111337Y-97361932D01*
X119111337Y-97361930D01*
X119062366Y-97134705D01*
X118975699Y-96919024D01*
X118853827Y-96721093D01*
X118700259Y-96546605D01*
X118700256Y-96546602D01*
X118700253Y-96546599D01*
X118519416Y-96400584D01*
X118519410Y-96400580D01*
X118472370Y-96374302D01*
X118423444Y-96324422D01*
X118409251Y-96256009D01*
X118434298Y-96190784D01*
X118463407Y-96163313D01*
X118510594Y-96131420D01*
X118612936Y-96062249D01*
X118780749Y-95901413D01*
X118918967Y-95714530D01*
X119023613Y-95506976D01*
X119091678Y-95284723D01*
X119121202Y-95054163D01*
X119111337Y-94821930D01*
X119077005Y-94662630D01*
X119082124Y-94592949D01*
X119110539Y-94548827D01*
X123972549Y-89686819D01*
X124033872Y-89653334D01*
X124060230Y-89650500D01*
X133495770Y-89650500D01*
X133562809Y-89670185D01*
X133583451Y-89686819D01*
X145220267Y-101323634D01*
X145232048Y-101337266D01*
X145246390Y-101356530D01*
X145286420Y-101390119D01*
X145290392Y-101393759D01*
X145296224Y-101399591D01*
X145296227Y-101399594D01*
X145321947Y-101419931D01*
X145380788Y-101469304D01*
X145386818Y-101473270D01*
X145386785Y-101473319D01*
X145393143Y-101477369D01*
X145393175Y-101477319D01*
X145399320Y-101481109D01*
X145399323Y-101481111D01*
X145468936Y-101513572D01*
X145537567Y-101548040D01*
X145537572Y-101548041D01*
X145544361Y-101550513D01*
X145544340Y-101550570D01*
X145551455Y-101553043D01*
X145551475Y-101552986D01*
X145558330Y-101555258D01*
X145633558Y-101570790D01*
X145708279Y-101588500D01*
X145708289Y-101588500D01*
X145715452Y-101589338D01*
X145715444Y-101589397D01*
X145722945Y-101590164D01*
X145722951Y-101590105D01*
X145730140Y-101590734D01*
X145730144Y-101590733D01*
X145730145Y-101590734D01*
X145806918Y-101588500D01*
X149180299Y-101588500D01*
X149247338Y-101608185D01*
X149281873Y-101641376D01*
X149329505Y-101709401D01*
X149496599Y-101876495D01*
X149593384Y-101944265D01*
X149690165Y-102012032D01*
X149690167Y-102012033D01*
X149690170Y-102012035D01*
X149904337Y-102111903D01*
X150132592Y-102173063D01*
X150320918Y-102189539D01*
X150367999Y-102193659D01*
X150368000Y-102193659D01*
X150368001Y-102193659D01*
X150407234Y-102190226D01*
X150603408Y-102173063D01*
X150831663Y-102111903D01*
X151045830Y-102012035D01*
X151239401Y-101876495D01*
X151406495Y-101709401D01*
X151542035Y-101515830D01*
X151641903Y-101301663D01*
X151703063Y-101073408D01*
X151723659Y-100838000D01*
X151703063Y-100602592D01*
X151641903Y-100374337D01*
X151542035Y-100160171D01*
X151491151Y-100087500D01*
X151406494Y-99966597D01*
X151239402Y-99799506D01*
X151239395Y-99799501D01*
X151045834Y-99663967D01*
X151045830Y-99663965D01*
X151036394Y-99659565D01*
X150831663Y-99564097D01*
X150831659Y-99564096D01*
X150831655Y-99564094D01*
X150603413Y-99502938D01*
X150603403Y-99502936D01*
X150368001Y-99482341D01*
X150367999Y-99482341D01*
X150132596Y-99502936D01*
X150132586Y-99502938D01*
X149904344Y-99564094D01*
X149904335Y-99564098D01*
X149690171Y-99663964D01*
X149690169Y-99663965D01*
X149496597Y-99799505D01*
X149329506Y-99966596D01*
X149281874Y-100034623D01*
X149227297Y-100078248D01*
X149180299Y-100087500D01*
X146158229Y-100087500D01*
X146091190Y-100067815D01*
X146070548Y-100051181D01*
X143047367Y-97028000D01*
X151482901Y-97028000D01*
X151501252Y-97214331D01*
X151501253Y-97214333D01*
X151555604Y-97393502D01*
X151643862Y-97558623D01*
X151643864Y-97558626D01*
X151762642Y-97703357D01*
X151907373Y-97822135D01*
X151907376Y-97822137D01*
X151989937Y-97866266D01*
X152072499Y-97910396D01*
X152072501Y-97910396D01*
X152072506Y-97910399D01*
X152092363Y-97916421D01*
X152101901Y-97919315D01*
X152105438Y-97920505D01*
X152107200Y-97921157D01*
X152107209Y-97921162D01*
X152112520Y-97922536D01*
X152251669Y-97964747D01*
X152280607Y-97967597D01*
X152287502Y-97968823D01*
X152287550Y-97968512D01*
X152293760Y-97969462D01*
X152293773Y-97969466D01*
X152304288Y-97969999D01*
X152307193Y-97970215D01*
X152438000Y-97983099D01*
X152471151Y-97979833D01*
X152479965Y-97979624D01*
X152479961Y-97979545D01*
X152486230Y-97979226D01*
X152486241Y-97979227D01*
X152500700Y-97977011D01*
X152503969Y-97976601D01*
X152624331Y-97964747D01*
X152660324Y-97953828D01*
X152674886Y-97950523D01*
X152676726Y-97950046D01*
X152676734Y-97950045D01*
X152692831Y-97944082D01*
X152696324Y-97942907D01*
X152803501Y-97910396D01*
X152844266Y-97888606D01*
X152851935Y-97885156D01*
X152857453Y-97883113D01*
X152873238Y-97873274D01*
X152876753Y-97871241D01*
X152968625Y-97822136D01*
X153007647Y-97790110D01*
X153014176Y-97785426D01*
X153021000Y-97781174D01*
X153034958Y-97767905D01*
X153038275Y-97764975D01*
X153113357Y-97703357D01*
X153148174Y-97660932D01*
X153153352Y-97655362D01*
X153160679Y-97648399D01*
X153171673Y-97632602D01*
X153174614Y-97628714D01*
X153232136Y-97558625D01*
X153260123Y-97506262D01*
X153263900Y-97500096D01*
X153270771Y-97490226D01*
X153278185Y-97472947D01*
X153280452Y-97468230D01*
X153320396Y-97393501D01*
X153338979Y-97332240D01*
X153341327Y-97325808D01*
X153346769Y-97313128D01*
X153350382Y-97295546D01*
X153351777Y-97290051D01*
X153374747Y-97214331D01*
X153381493Y-97145835D01*
X153382459Y-97139460D01*
X153385563Y-97124358D01*
X153386181Y-97099904D01*
X153386459Y-97095414D01*
X153393099Y-97028000D01*
X153386458Y-96960579D01*
X153386181Y-96956093D01*
X153385563Y-96931642D01*
X153382458Y-96916537D01*
X153381493Y-96910166D01*
X153374747Y-96841669D01*
X153351781Y-96765960D01*
X153350380Y-96760440D01*
X153348808Y-96752797D01*
X153346769Y-96742872D01*
X153341329Y-96730195D01*
X153338973Y-96723739D01*
X153320395Y-96662497D01*
X153280474Y-96587810D01*
X153278176Y-96583030D01*
X153270772Y-96565777D01*
X153270772Y-96565776D01*
X153263906Y-96555911D01*
X153260112Y-96549715D01*
X153258450Y-96546605D01*
X153232136Y-96497375D01*
X153219238Y-96481659D01*
X153174623Y-96427294D01*
X153171661Y-96423379D01*
X153160678Y-96407600D01*
X153160676Y-96407598D01*
X153153369Y-96400652D01*
X153148161Y-96395052D01*
X153113357Y-96352643D01*
X153038289Y-96291036D01*
X153034921Y-96288059D01*
X153021000Y-96274826D01*
X153020997Y-96274824D01*
X153014178Y-96270573D01*
X153007638Y-96265881D01*
X152968626Y-96233865D01*
X152968627Y-96233865D01*
X152968625Y-96233864D01*
X152919447Y-96207578D01*
X152876786Y-96184775D01*
X152873217Y-96182712D01*
X152857452Y-96172886D01*
X152857453Y-96172886D01*
X152851943Y-96170845D01*
X152844250Y-96167383D01*
X152813177Y-96150776D01*
X152803501Y-96145604D01*
X152803498Y-96145603D01*
X152696343Y-96113097D01*
X152692809Y-96111908D01*
X152676737Y-96105955D01*
X152674905Y-96105481D01*
X152660317Y-96102168D01*
X152624334Y-96091253D01*
X152624331Y-96091252D01*
X152503978Y-96079398D01*
X152500669Y-96078982D01*
X152486247Y-96076773D01*
X152479968Y-96076455D01*
X152479971Y-96076376D01*
X152471158Y-96076165D01*
X152438005Y-96072901D01*
X152437999Y-96072901D01*
X152307203Y-96085782D01*
X152304270Y-96086001D01*
X152293777Y-96086533D01*
X152287564Y-96087485D01*
X152287518Y-96087184D01*
X152280626Y-96088400D01*
X152251670Y-96091252D01*
X152179659Y-96113097D01*
X152119251Y-96131422D01*
X152112539Y-96133458D01*
X152107194Y-96134842D01*
X152105400Y-96135506D01*
X152101888Y-96136687D01*
X152072502Y-96145602D01*
X152072495Y-96145605D01*
X151907376Y-96233862D01*
X151907373Y-96233864D01*
X151762642Y-96352642D01*
X151643864Y-96497373D01*
X151643862Y-96497376D01*
X151555604Y-96662497D01*
X151501253Y-96841666D01*
X151501252Y-96841668D01*
X151482901Y-97028000D01*
X143047367Y-97028000D01*
X137405549Y-91386181D01*
X137372064Y-91324858D01*
X137377048Y-91255166D01*
X137418920Y-91199233D01*
X137484384Y-91174816D01*
X137493230Y-91174500D01*
X147211770Y-91174500D01*
X147278809Y-91194185D01*
X147299451Y-91210819D01*
X148995130Y-92906497D01*
X149028615Y-92967820D01*
X149030977Y-93004985D01*
X149012341Y-93217997D01*
X149012341Y-93218000D01*
X149032936Y-93453403D01*
X149032938Y-93453413D01*
X149094094Y-93681655D01*
X149094096Y-93681659D01*
X149094097Y-93681663D01*
X149132863Y-93764796D01*
X149193965Y-93895830D01*
X149193967Y-93895834D01*
X149255521Y-93983741D01*
X149329505Y-94089401D01*
X149496599Y-94256495D01*
X149526556Y-94277471D01*
X149690165Y-94392032D01*
X149690167Y-94392033D01*
X149690170Y-94392035D01*
X149904337Y-94491903D01*
X150132592Y-94553063D01*
X150320918Y-94569539D01*
X150367999Y-94573659D01*
X150368000Y-94573659D01*
X150368001Y-94573659D01*
X150407234Y-94570226D01*
X150603408Y-94553063D01*
X150831663Y-94491903D01*
X151045830Y-94392035D01*
X151239401Y-94256495D01*
X151406495Y-94089401D01*
X151542035Y-93895830D01*
X151641903Y-93681663D01*
X151703063Y-93453408D01*
X151723659Y-93218000D01*
X151703063Y-92982592D01*
X151641903Y-92754337D01*
X151542035Y-92540171D01*
X151406495Y-92346599D01*
X151406494Y-92346597D01*
X151239402Y-92179506D01*
X151239395Y-92179501D01*
X151045834Y-92043967D01*
X151045830Y-92043965D01*
X151045828Y-92043964D01*
X150831663Y-91944097D01*
X150831659Y-91944096D01*
X150831655Y-91944094D01*
X150603413Y-91882938D01*
X150603403Y-91882936D01*
X150368001Y-91862341D01*
X150367998Y-91862341D01*
X150154985Y-91880977D01*
X150086485Y-91867210D01*
X150056497Y-91845130D01*
X148149729Y-89938361D01*
X148137949Y-89924730D01*
X148130482Y-89914701D01*
X148123612Y-89905472D01*
X148123610Y-89905470D01*
X148083587Y-89871886D01*
X148079612Y-89868244D01*
X148076690Y-89865322D01*
X148073780Y-89862411D01*
X148048040Y-89842059D01*
X147989209Y-89792694D01*
X147983180Y-89788729D01*
X147983212Y-89788680D01*
X147976853Y-89784628D01*
X147976822Y-89784679D01*
X147970680Y-89780891D01*
X147970678Y-89780890D01*
X147970677Y-89780889D01*
X147931474Y-89762608D01*
X147901058Y-89748424D01*
X147866894Y-89731267D01*
X147832433Y-89713960D01*
X147832431Y-89713959D01*
X147832430Y-89713959D01*
X147825645Y-89711489D01*
X147825665Y-89711433D01*
X147818549Y-89708959D01*
X147818531Y-89709015D01*
X147811671Y-89706742D01*
X147783841Y-89700996D01*
X147736434Y-89691207D01*
X147687472Y-89679603D01*
X147661719Y-89673499D01*
X147654547Y-89672661D01*
X147654553Y-89672601D01*
X147647055Y-89671835D01*
X147647050Y-89671895D01*
X147639860Y-89671265D01*
X147563083Y-89673500D01*
X137776229Y-89673500D01*
X137709190Y-89653815D01*
X137688548Y-89637181D01*
X136451552Y-88400185D01*
X135195729Y-87144361D01*
X135183949Y-87130730D01*
X135176482Y-87120701D01*
X135169612Y-87111472D01*
X135169610Y-87111470D01*
X135129587Y-87077886D01*
X135125612Y-87074244D01*
X135122690Y-87071322D01*
X135119780Y-87068411D01*
X135094040Y-87048059D01*
X135070135Y-87028000D01*
X136932390Y-87028000D01*
X136939745Y-87130844D01*
X136940390Y-87139853D01*
X136940548Y-87144277D01*
X136940548Y-87170860D01*
X136944331Y-87197172D01*
X136944804Y-87201574D01*
X136952804Y-87313428D01*
X136952805Y-87313435D01*
X136976638Y-87422996D01*
X136977424Y-87427350D01*
X136981210Y-87453675D01*
X136988700Y-87479187D01*
X136989794Y-87483474D01*
X137013630Y-87593046D01*
X137013631Y-87593047D01*
X137052819Y-87698117D01*
X137054216Y-87702315D01*
X137061706Y-87727819D01*
X137061707Y-87727823D01*
X137072747Y-87751996D01*
X137074440Y-87756084D01*
X137113632Y-87861159D01*
X137113635Y-87861166D01*
X137167375Y-87959582D01*
X137169356Y-87963540D01*
X137180398Y-87987719D01*
X137180401Y-87987724D01*
X137194769Y-88010081D01*
X137197027Y-88013887D01*
X137250773Y-88112314D01*
X137250776Y-88112318D01*
X137317976Y-88202087D01*
X137320500Y-88205722D01*
X137329577Y-88219846D01*
X137334873Y-88228086D01*
X137334875Y-88228088D01*
X137334882Y-88228097D01*
X137352284Y-88248180D01*
X137355055Y-88251618D01*
X137422261Y-88341395D01*
X137422264Y-88341398D01*
X137501545Y-88420679D01*
X137504562Y-88423919D01*
X137521973Y-88444013D01*
X137521976Y-88444016D01*
X137521980Y-88444020D01*
X137542084Y-88461440D01*
X137545307Y-88464441D01*
X137624605Y-88543739D01*
X137714395Y-88610954D01*
X137717803Y-88613701D01*
X137737914Y-88631127D01*
X137737916Y-88631128D01*
X137737920Y-88631132D01*
X137760277Y-88645499D01*
X137763914Y-88648024D01*
X137853682Y-88715224D01*
X137853690Y-88715229D01*
X137952109Y-88768970D01*
X137955916Y-88771229D01*
X137978278Y-88785600D01*
X137978283Y-88785602D01*
X137978286Y-88785604D01*
X137985992Y-88789122D01*
X138002472Y-88796649D01*
X138006410Y-88798620D01*
X138104839Y-88852367D01*
X138209914Y-88891558D01*
X138214002Y-88893252D01*
X138238179Y-88904293D01*
X138263691Y-88911784D01*
X138267872Y-88913175D01*
X138372954Y-88952369D01*
X138482548Y-88976209D01*
X138486813Y-88977299D01*
X138494581Y-88979579D01*
X138512326Y-88984790D01*
X138538684Y-88988579D01*
X138542956Y-88989350D01*
X138652572Y-89013196D01*
X138764453Y-89021197D01*
X138768816Y-89021667D01*
X138795137Y-89025451D01*
X138795138Y-89025452D01*
X138821721Y-89025452D01*
X138826143Y-89025609D01*
X138875344Y-89029128D01*
X138937999Y-89033610D01*
X138938000Y-89033610D01*
X138938001Y-89033610D01*
X139000655Y-89029128D01*
X139049856Y-89025609D01*
X139054279Y-89025452D01*
X139080861Y-89025452D01*
X139107231Y-89021660D01*
X139111512Y-89021200D01*
X139223428Y-89013196D01*
X139333038Y-88989351D01*
X139337342Y-88988575D01*
X139363674Y-88984790D01*
X139363676Y-88984789D01*
X139363678Y-88984789D01*
X139368822Y-88983278D01*
X139389205Y-88977293D01*
X139393438Y-88976212D01*
X139503046Y-88952369D01*
X139608144Y-88913169D01*
X139612299Y-88911786D01*
X139637821Y-88904293D01*
X139662040Y-88893232D01*
X139666046Y-88891572D01*
X139771161Y-88852367D01*
X139771167Y-88852363D01*
X139771171Y-88852362D01*
X139803333Y-88834799D01*
X139869601Y-88798614D01*
X139873515Y-88796654D01*
X139897722Y-88785600D01*
X139920111Y-88771211D01*
X139923878Y-88768976D01*
X140022315Y-88715226D01*
X140112113Y-88648004D01*
X140115710Y-88645506D01*
X140138086Y-88631127D01*
X140158196Y-88613701D01*
X140161597Y-88610960D01*
X140251395Y-88543739D01*
X140330719Y-88464414D01*
X140333908Y-88461446D01*
X140354020Y-88444020D01*
X140371446Y-88423908D01*
X140374414Y-88420719D01*
X140453739Y-88341395D01*
X140520960Y-88251597D01*
X140523701Y-88248196D01*
X140541127Y-88228086D01*
X140555506Y-88205710D01*
X140558004Y-88202113D01*
X140625226Y-88112315D01*
X140678976Y-88013878D01*
X140681211Y-88010111D01*
X140695600Y-87987722D01*
X140706654Y-87963515D01*
X140708614Y-87959601D01*
X140762367Y-87861161D01*
X140801572Y-87756046D01*
X140803232Y-87752040D01*
X140814293Y-87727821D01*
X140821786Y-87702299D01*
X140823169Y-87698144D01*
X140862369Y-87593046D01*
X140886212Y-87483438D01*
X140887293Y-87479205D01*
X140894790Y-87453674D01*
X140898575Y-87427342D01*
X140899351Y-87423038D01*
X140923196Y-87313428D01*
X140931198Y-87201540D01*
X140931666Y-87197192D01*
X140935452Y-87170861D01*
X140936107Y-87134109D01*
X140936250Y-87130901D01*
X140943610Y-87028000D01*
X140936250Y-86925102D01*
X140936107Y-86921889D01*
X140935452Y-86885139D01*
X140931663Y-86858789D01*
X140931197Y-86854450D01*
X140923196Y-86742572D01*
X140899350Y-86632956D01*
X140898579Y-86628684D01*
X140894790Y-86602326D01*
X140887299Y-86576813D01*
X140886205Y-86572528D01*
X140862369Y-86462954D01*
X140823175Y-86357872D01*
X140821783Y-86353687D01*
X140814293Y-86328179D01*
X140803252Y-86304002D01*
X140801558Y-86299914D01*
X140801553Y-86299900D01*
X140762367Y-86194839D01*
X140708620Y-86096410D01*
X140706646Y-86092466D01*
X140695600Y-86068278D01*
X140681224Y-86045908D01*
X140678970Y-86042109D01*
X140625229Y-85943690D01*
X140625224Y-85943682D01*
X140558024Y-85853914D01*
X140555499Y-85850277D01*
X140541132Y-85827920D01*
X140541128Y-85827916D01*
X140541127Y-85827914D01*
X140523701Y-85807803D01*
X140520954Y-85804395D01*
X140453739Y-85714605D01*
X140374443Y-85635309D01*
X140371440Y-85632084D01*
X140354020Y-85611980D01*
X140354016Y-85611976D01*
X140354013Y-85611973D01*
X140333919Y-85594562D01*
X140330679Y-85591545D01*
X140251398Y-85512264D01*
X140251395Y-85512261D01*
X140161619Y-85445055D01*
X140158180Y-85442284D01*
X140138097Y-85424882D01*
X140138091Y-85424877D01*
X140138086Y-85424873D01*
X140129846Y-85419577D01*
X140115722Y-85410500D01*
X140112087Y-85407976D01*
X140022318Y-85340776D01*
X140022314Y-85340773D01*
X139923887Y-85287027D01*
X139920081Y-85284769D01*
X139897724Y-85270401D01*
X139897719Y-85270398D01*
X139873540Y-85259356D01*
X139869582Y-85257375D01*
X139771166Y-85203635D01*
X139771159Y-85203632D01*
X139666084Y-85164440D01*
X139661996Y-85162747D01*
X139637823Y-85151707D01*
X139637819Y-85151706D01*
X139612315Y-85144216D01*
X139608117Y-85142819D01*
X139503047Y-85103631D01*
X139503046Y-85103630D01*
X139393474Y-85079794D01*
X139389187Y-85078700D01*
X139363675Y-85071210D01*
X139337350Y-85067424D01*
X139332996Y-85066638D01*
X139223435Y-85042805D01*
X139223428Y-85042804D01*
X139111574Y-85034804D01*
X139107174Y-85034331D01*
X139080861Y-85030548D01*
X139080860Y-85030548D01*
X139054279Y-85030548D01*
X139049856Y-85030390D01*
X139000655Y-85026871D01*
X138938001Y-85022390D01*
X138937999Y-85022390D01*
X138875344Y-85026871D01*
X138826143Y-85030390D01*
X138821721Y-85030548D01*
X138795135Y-85030548D01*
X138768824Y-85034331D01*
X138764424Y-85034804D01*
X138652571Y-85042804D01*
X138652564Y-85042805D01*
X138542995Y-85066641D01*
X138538644Y-85067425D01*
X138534162Y-85068070D01*
X138512333Y-85071208D01*
X138512323Y-85071211D01*
X138486813Y-85078699D01*
X138482528Y-85079793D01*
X138372950Y-85103631D01*
X138372947Y-85103632D01*
X138267884Y-85142818D01*
X138263687Y-85144215D01*
X138238181Y-85151705D01*
X138213988Y-85162753D01*
X138209900Y-85164446D01*
X138104845Y-85203630D01*
X138104831Y-85203636D01*
X138006420Y-85257372D01*
X138002466Y-85259351D01*
X137978278Y-85270399D01*
X137955908Y-85284775D01*
X137952104Y-85287032D01*
X137853688Y-85340771D01*
X137763903Y-85407981D01*
X137760271Y-85410503D01*
X137737913Y-85424872D01*
X137717821Y-85442282D01*
X137714376Y-85445058D01*
X137624619Y-85512249D01*
X137624604Y-85512261D01*
X137545309Y-85591555D01*
X137542071Y-85594569D01*
X137521979Y-85611979D01*
X137504569Y-85632071D01*
X137501555Y-85635309D01*
X137422261Y-85714604D01*
X137422249Y-85714619D01*
X137355058Y-85804376D01*
X137352282Y-85807821D01*
X137334872Y-85827913D01*
X137320503Y-85850271D01*
X137317981Y-85853903D01*
X137250771Y-85943688D01*
X137197032Y-86042104D01*
X137194775Y-86045908D01*
X137180399Y-86068278D01*
X137169351Y-86092466D01*
X137167372Y-86096420D01*
X137113636Y-86194831D01*
X137113630Y-86194845D01*
X137074446Y-86299900D01*
X137072753Y-86303988D01*
X137061705Y-86328181D01*
X137054215Y-86353687D01*
X137052818Y-86357884D01*
X137013632Y-86462947D01*
X137013631Y-86462950D01*
X136989793Y-86572528D01*
X136988699Y-86576813D01*
X136981211Y-86602323D01*
X136981208Y-86602333D01*
X136977427Y-86628639D01*
X136976641Y-86632995D01*
X136952805Y-86742564D01*
X136952804Y-86742571D01*
X136944804Y-86854424D01*
X136944331Y-86858824D01*
X136940548Y-86885135D01*
X136940548Y-86911721D01*
X136940390Y-86916145D01*
X136934770Y-86994729D01*
X136932390Y-87028000D01*
X135070135Y-87028000D01*
X135035209Y-86998694D01*
X135029180Y-86994729D01*
X135029212Y-86994680D01*
X135022853Y-86990628D01*
X135022822Y-86990679D01*
X135016680Y-86986891D01*
X135016678Y-86986890D01*
X135016677Y-86986889D01*
X134977474Y-86968608D01*
X134947058Y-86954424D01*
X134912894Y-86937267D01*
X134878433Y-86919960D01*
X134878431Y-86919959D01*
X134878430Y-86919959D01*
X134871645Y-86917489D01*
X134871665Y-86917433D01*
X134864549Y-86914959D01*
X134864531Y-86915015D01*
X134857671Y-86912742D01*
X134829841Y-86906996D01*
X134782434Y-86897207D01*
X134731514Y-86885139D01*
X134707719Y-86879499D01*
X134700547Y-86878661D01*
X134700553Y-86878601D01*
X134693055Y-86877835D01*
X134693050Y-86877895D01*
X134685860Y-86877265D01*
X134609083Y-86879500D01*
X122491705Y-86879500D01*
X122473735Y-86878191D01*
X122449972Y-86874710D01*
X122405512Y-86878601D01*
X122397931Y-86879264D01*
X122392530Y-86879500D01*
X122384289Y-86879500D01*
X122362579Y-86882037D01*
X122351724Y-86883306D01*
X122336419Y-86884645D01*
X122275199Y-86890001D01*
X122268132Y-86891460D01*
X122268120Y-86891404D01*
X122260763Y-86893035D01*
X122260777Y-86893092D01*
X122253743Y-86894759D01*
X122181575Y-86921025D01*
X122108675Y-86945181D01*
X122102126Y-86948236D01*
X122102101Y-86948183D01*
X122095308Y-86951471D01*
X122095334Y-86951523D01*
X122088880Y-86954764D01*
X122024708Y-86996971D01*
X121959347Y-87037285D01*
X121953683Y-87041765D01*
X121953647Y-87041719D01*
X121947798Y-87046484D01*
X121947835Y-87046528D01*
X121942310Y-87051164D01*
X121889597Y-87107035D01*
X117942449Y-91054181D01*
X117881126Y-91087666D01*
X117854768Y-91090500D01*
X116539129Y-91090500D01*
X116539123Y-91090501D01*
X116479516Y-91096908D01*
X116344671Y-91147202D01*
X116344664Y-91147206D01*
X116229455Y-91233452D01*
X116229452Y-91233455D01*
X116143206Y-91348664D01*
X116143202Y-91348671D01*
X116092908Y-91483517D01*
X116086501Y-91543116D01*
X116086500Y-91543135D01*
X116086500Y-93368870D01*
X116086501Y-93368876D01*
X116092908Y-93428483D01*
X116143202Y-93563328D01*
X116143206Y-93563335D01*
X116229452Y-93678544D01*
X116229455Y-93678547D01*
X116344664Y-93764793D01*
X116344671Y-93764797D01*
X116460861Y-93808133D01*
X116516795Y-93850004D01*
X116541212Y-93915468D01*
X116526361Y-93983741D01*
X116503329Y-94013837D01*
X116423251Y-94090586D01*
X116285035Y-94277467D01*
X116285032Y-94277471D01*
X116180387Y-94485022D01*
X116112321Y-94707278D01*
X116082798Y-94937837D01*
X116092662Y-95170066D01*
X116092662Y-95170067D01*
X116141634Y-95397296D01*
X116228299Y-95612972D01*
X116350170Y-95810903D01*
X116350171Y-95810905D01*
X116350173Y-95810907D01*
X116503741Y-95985395D01*
X116503743Y-95985396D01*
X116503746Y-95985400D01*
X116684583Y-96131415D01*
X116684593Y-96131422D01*
X116731630Y-96157699D01*
X116780556Y-96207578D01*
X116794748Y-96275992D01*
X116769700Y-96341217D01*
X116740592Y-96368687D01*
X116591065Y-96469749D01*
X116423251Y-96630586D01*
X116285035Y-96817467D01*
X116285032Y-96817471D01*
X116180387Y-97025022D01*
X116112321Y-97247278D01*
X116082798Y-97477837D01*
X116092662Y-97710066D01*
X116092663Y-97710073D01*
X116126993Y-97869369D01*
X116121874Y-97939050D01*
X116093457Y-97983173D01*
X114830358Y-99246272D01*
X114816729Y-99258051D01*
X114797468Y-99272390D01*
X114763898Y-99312397D01*
X114760253Y-99316376D01*
X114754409Y-99322222D01*
X114734059Y-99347959D01*
X114684695Y-99406789D01*
X114680729Y-99412819D01*
X114680682Y-99412788D01*
X114676630Y-99419147D01*
X114676679Y-99419177D01*
X114672889Y-99425321D01*
X114640424Y-99494941D01*
X114605960Y-99563566D01*
X114603488Y-99570357D01*
X114603432Y-99570336D01*
X114600960Y-99577450D01*
X114601015Y-99577469D01*
X114598742Y-99584327D01*
X114590975Y-99621946D01*
X114583207Y-99659565D01*
X114570001Y-99715284D01*
X114565498Y-99734286D01*
X114564661Y-99741454D01*
X114564601Y-99741447D01*
X114563835Y-99748945D01*
X114563895Y-99748951D01*
X114563265Y-99756140D01*
X114565500Y-99832916D01*
X114565500Y-101282294D01*
X114564191Y-101300263D01*
X114560710Y-101324025D01*
X111000500Y-101324025D01*
X111000500Y-83999999D01*
X113394551Y-83999999D01*
X113402275Y-84098142D01*
X113402466Y-84103008D01*
X113402466Y-84125734D01*
X113406019Y-84148167D01*
X113406592Y-84153002D01*
X113410603Y-84203959D01*
X113414317Y-84251148D01*
X113414317Y-84251151D01*
X113414318Y-84251153D01*
X113437296Y-84346867D01*
X113438246Y-84351642D01*
X113441801Y-84374090D01*
X113448824Y-84395705D01*
X113450146Y-84400390D01*
X113473127Y-84496114D01*
X113510797Y-84587057D01*
X113512482Y-84591623D01*
X113518170Y-84609126D01*
X113519507Y-84613240D01*
X113519508Y-84613243D01*
X113519509Y-84613244D01*
X113529821Y-84633484D01*
X113531858Y-84637904D01*
X113569532Y-84728857D01*
X113620973Y-84812803D01*
X113623351Y-84817048D01*
X113630514Y-84831104D01*
X113633666Y-84837290D01*
X113633667Y-84837292D01*
X113647017Y-84855667D01*
X113649722Y-84859714D01*
X113699021Y-84940163D01*
X113701164Y-84943659D01*
X113701171Y-84943667D01*
X113765094Y-85018511D01*
X113768107Y-85022332D01*
X113781469Y-85040724D01*
X113797547Y-85056802D01*
X113800832Y-85060355D01*
X113864776Y-85135224D01*
X113939639Y-85199163D01*
X113943202Y-85202457D01*
X113959276Y-85218531D01*
X113977654Y-85231883D01*
X113977665Y-85231891D01*
X113981471Y-85234891D01*
X114056341Y-85298836D01*
X114056343Y-85298837D01*
X114056344Y-85298838D01*
X114056345Y-85298839D01*
X114117889Y-85336553D01*
X114124772Y-85340771D01*
X114140277Y-85350272D01*
X114144325Y-85352977D01*
X114144335Y-85352984D01*
X114162710Y-85366334D01*
X114182961Y-85376652D01*
X114187179Y-85379014D01*
X114271141Y-85430466D01*
X114271143Y-85430466D01*
X114271145Y-85430468D01*
X114299667Y-85442282D01*
X114362101Y-85468142D01*
X114366515Y-85470178D01*
X114374608Y-85474301D01*
X114386760Y-85480493D01*
X114408380Y-85487517D01*
X114412923Y-85489194D01*
X114503889Y-85526873D01*
X114599627Y-85549857D01*
X114604289Y-85551172D01*
X114625910Y-85558198D01*
X114625911Y-85558198D01*
X114625914Y-85558199D01*
X114634646Y-85559581D01*
X114648367Y-85561754D01*
X114653107Y-85562696D01*
X114748852Y-85585683D01*
X114847024Y-85593409D01*
X114851795Y-85593974D01*
X114874271Y-85597534D01*
X114874275Y-85597534D01*
X114896992Y-85597534D01*
X114901858Y-85597725D01*
X115000000Y-85605449D01*
X115098142Y-85597725D01*
X115103008Y-85597534D01*
X115125725Y-85597534D01*
X115125729Y-85597534D01*
X115148204Y-85593974D01*
X115152975Y-85593409D01*
X115251148Y-85585683D01*
X115346897Y-85562695D01*
X115351627Y-85561755D01*
X115374090Y-85558198D01*
X115395737Y-85551164D01*
X115400351Y-85549862D01*
X115496111Y-85526873D01*
X115587090Y-85489188D01*
X115591599Y-85487524D01*
X115613240Y-85480493D01*
X115633508Y-85470165D01*
X115637863Y-85468157D01*
X115728859Y-85430466D01*
X115812833Y-85379006D01*
X115817018Y-85376662D01*
X115837290Y-85366334D01*
X115855684Y-85352969D01*
X115859707Y-85350281D01*
X115943659Y-85298836D01*
X116018547Y-85234875D01*
X116022314Y-85231906D01*
X116040724Y-85218531D01*
X116056819Y-85202435D01*
X116060347Y-85199174D01*
X116135224Y-85135224D01*
X116199174Y-85060347D01*
X116202435Y-85056819D01*
X116218531Y-85040724D01*
X116231906Y-85022314D01*
X116234875Y-85018547D01*
X116298836Y-84943659D01*
X116350281Y-84859707D01*
X116352969Y-84855684D01*
X116366334Y-84837290D01*
X116376662Y-84817018D01*
X116379006Y-84812833D01*
X116430466Y-84728859D01*
X116468157Y-84637863D01*
X116470165Y-84633508D01*
X116480493Y-84613240D01*
X116487524Y-84591599D01*
X116489188Y-84587090D01*
X116526873Y-84496111D01*
X116549862Y-84400351D01*
X116551164Y-84395737D01*
X116558198Y-84374090D01*
X116561755Y-84351627D01*
X116562695Y-84346897D01*
X116585683Y-84251148D01*
X116593409Y-84152978D01*
X116593974Y-84148201D01*
X116597534Y-84125729D01*
X116598155Y-84094043D01*
X116598334Y-84090401D01*
X116605449Y-84000000D01*
X116605449Y-83999999D01*
X151394551Y-83999999D01*
X151402275Y-84098142D01*
X151402466Y-84103008D01*
X151402466Y-84125734D01*
X151406019Y-84148167D01*
X151406592Y-84153002D01*
X151410603Y-84203959D01*
X151414317Y-84251148D01*
X151414317Y-84251151D01*
X151414318Y-84251153D01*
X151437296Y-84346867D01*
X151438246Y-84351642D01*
X151441801Y-84374090D01*
X151448824Y-84395705D01*
X151450146Y-84400390D01*
X151473127Y-84496114D01*
X151510797Y-84587057D01*
X151512482Y-84591623D01*
X151518170Y-84609126D01*
X151519507Y-84613240D01*
X151519508Y-84613243D01*
X151519509Y-84613244D01*
X151529821Y-84633484D01*
X151531858Y-84637904D01*
X151569532Y-84728857D01*
X151620973Y-84812803D01*
X151623351Y-84817048D01*
X151630514Y-84831104D01*
X151633666Y-84837290D01*
X151633667Y-84837292D01*
X151647017Y-84855667D01*
X151649722Y-84859714D01*
X151699021Y-84940163D01*
X151701164Y-84943659D01*
X151701171Y-84943667D01*
X151765094Y-85018511D01*
X151768107Y-85022332D01*
X151781469Y-85040724D01*
X151797547Y-85056802D01*
X151800832Y-85060355D01*
X151864776Y-85135224D01*
X151939639Y-85199163D01*
X151943202Y-85202457D01*
X151959276Y-85218531D01*
X151977654Y-85231883D01*
X151977665Y-85231891D01*
X151981471Y-85234891D01*
X152056341Y-85298836D01*
X152056343Y-85298837D01*
X152056344Y-85298838D01*
X152056345Y-85298839D01*
X152117889Y-85336553D01*
X152124772Y-85340771D01*
X152140277Y-85350272D01*
X152144325Y-85352977D01*
X152144335Y-85352984D01*
X152162710Y-85366334D01*
X152182961Y-85376652D01*
X152187179Y-85379014D01*
X152271141Y-85430466D01*
X152271143Y-85430466D01*
X152271145Y-85430468D01*
X152299667Y-85442282D01*
X152362101Y-85468142D01*
X152366515Y-85470178D01*
X152374608Y-85474301D01*
X152386760Y-85480493D01*
X152408380Y-85487517D01*
X152412923Y-85489194D01*
X152503889Y-85526873D01*
X152599627Y-85549857D01*
X152604289Y-85551172D01*
X152625910Y-85558198D01*
X152625911Y-85558198D01*
X152625914Y-85558199D01*
X152634646Y-85559581D01*
X152648367Y-85561754D01*
X152653107Y-85562696D01*
X152748852Y-85585683D01*
X152847024Y-85593409D01*
X152851795Y-85593974D01*
X152874271Y-85597534D01*
X152874275Y-85597534D01*
X152896992Y-85597534D01*
X152901858Y-85597725D01*
X153000000Y-85605449D01*
X153098142Y-85597725D01*
X153103008Y-85597534D01*
X153125725Y-85597534D01*
X153125729Y-85597534D01*
X153148204Y-85593974D01*
X153152975Y-85593409D01*
X153251148Y-85585683D01*
X153346897Y-85562695D01*
X153351627Y-85561755D01*
X153374090Y-85558198D01*
X153395737Y-85551164D01*
X153400351Y-85549862D01*
X153496111Y-85526873D01*
X153587090Y-85489188D01*
X153591599Y-85487524D01*
X153613240Y-85480493D01*
X153633508Y-85470165D01*
X153637863Y-85468157D01*
X153728859Y-85430466D01*
X153812833Y-85379006D01*
X153817018Y-85376662D01*
X153837290Y-85366334D01*
X153855684Y-85352969D01*
X153859707Y-85350281D01*
X153943659Y-85298836D01*
X154018547Y-85234875D01*
X154022314Y-85231906D01*
X154040724Y-85218531D01*
X154056819Y-85202435D01*
X154060347Y-85199174D01*
X154135224Y-85135224D01*
X154199174Y-85060347D01*
X154202435Y-85056819D01*
X154218531Y-85040724D01*
X154231906Y-85022314D01*
X154234875Y-85018547D01*
X154298836Y-84943659D01*
X154350281Y-84859707D01*
X154352969Y-84855684D01*
X154366334Y-84837290D01*
X154376662Y-84817018D01*
X154379006Y-84812833D01*
X154430466Y-84728859D01*
X154468157Y-84637863D01*
X154470165Y-84633508D01*
X154480493Y-84613240D01*
X154487524Y-84591599D01*
X154489188Y-84587090D01*
X154526873Y-84496111D01*
X154549862Y-84400351D01*
X154551164Y-84395737D01*
X154558198Y-84374090D01*
X154561755Y-84351627D01*
X154562695Y-84346897D01*
X154585683Y-84251148D01*
X154593409Y-84152978D01*
X154593974Y-84148201D01*
X154597534Y-84125729D01*
X154598155Y-84094043D01*
X154598334Y-84090401D01*
X154605449Y-84000000D01*
X154598333Y-83909593D01*
X154598155Y-83905946D01*
X154597979Y-83896990D01*
X154597534Y-83874271D01*
X154593974Y-83851798D01*
X154593409Y-83847021D01*
X154585683Y-83748852D01*
X154562696Y-83653107D01*
X154561753Y-83648357D01*
X154558198Y-83625913D01*
X154558198Y-83625911D01*
X154558195Y-83625903D01*
X154551172Y-83604289D01*
X154549857Y-83599627D01*
X154526873Y-83503889D01*
X154489194Y-83412923D01*
X154487517Y-83408380D01*
X154480493Y-83386760D01*
X154470178Y-83366515D01*
X154468139Y-83362093D01*
X154430468Y-83271145D01*
X154430466Y-83271141D01*
X154379014Y-83187179D01*
X154376649Y-83182955D01*
X154366337Y-83162716D01*
X154366334Y-83162710D01*
X154358039Y-83151293D01*
X154352977Y-83144325D01*
X154350272Y-83140277D01*
X154298839Y-83056345D01*
X154298838Y-83056344D01*
X154298837Y-83056343D01*
X154298836Y-83056341D01*
X154234891Y-82981471D01*
X154231891Y-82977665D01*
X154218531Y-82959276D01*
X154202453Y-82943198D01*
X154199163Y-82939639D01*
X154135224Y-82864776D01*
X154060355Y-82800832D01*
X154056799Y-82797544D01*
X154040724Y-82781469D01*
X154022332Y-82768107D01*
X154018511Y-82765094D01*
X153943667Y-82701171D01*
X153943659Y-82701164D01*
X153943654Y-82701161D01*
X153943653Y-82701160D01*
X153859714Y-82649722D01*
X153855667Y-82647017D01*
X153837292Y-82633667D01*
X153837290Y-82633666D01*
X153831104Y-82630514D01*
X153817048Y-82623351D01*
X153812803Y-82620973D01*
X153728857Y-82569532D01*
X153637904Y-82531858D01*
X153633484Y-82529821D01*
X153613244Y-82519509D01*
X153613243Y-82519508D01*
X153613240Y-82519507D01*
X153609126Y-82518170D01*
X153591623Y-82512482D01*
X153587057Y-82510797D01*
X153496114Y-82473127D01*
X153400390Y-82450146D01*
X153395705Y-82448824D01*
X153374090Y-82441801D01*
X153351642Y-82438246D01*
X153346867Y-82437296D01*
X153251152Y-82414318D01*
X153251153Y-82414318D01*
X153251151Y-82414317D01*
X153251148Y-82414317D01*
X153203959Y-82410603D01*
X153153002Y-82406592D01*
X153148167Y-82406019D01*
X153125734Y-82402466D01*
X153125729Y-82402466D01*
X153103008Y-82402466D01*
X153098142Y-82402275D01*
X153000000Y-82394551D01*
X152901858Y-82402275D01*
X152896992Y-82402466D01*
X152874271Y-82402466D01*
X152851833Y-82406019D01*
X152846998Y-82406592D01*
X152748851Y-82414317D01*
X152748844Y-82414318D01*
X152653132Y-82437296D01*
X152648357Y-82438246D01*
X152625913Y-82441801D01*
X152625903Y-82441803D01*
X152604299Y-82448823D01*
X152599612Y-82450145D01*
X152503891Y-82473125D01*
X152412938Y-82510799D01*
X152408373Y-82512483D01*
X152386757Y-82519507D01*
X152366515Y-82529820D01*
X152362098Y-82531856D01*
X152271141Y-82569534D01*
X152187201Y-82620970D01*
X152182958Y-82623347D01*
X152162716Y-82633662D01*
X152162708Y-82633667D01*
X152144330Y-82647018D01*
X152140286Y-82649720D01*
X152056339Y-82701165D01*
X151981482Y-82765098D01*
X151977660Y-82768111D01*
X151959276Y-82781469D01*
X151943198Y-82797544D01*
X151939626Y-82800846D01*
X151864775Y-82864775D01*
X151800846Y-82939626D01*
X151797544Y-82943198D01*
X151781469Y-82959276D01*
X151768111Y-82977660D01*
X151765098Y-82981482D01*
X151701165Y-83056339D01*
X151649720Y-83140286D01*
X151647018Y-83144330D01*
X151633667Y-83162708D01*
X151633662Y-83162716D01*
X151623347Y-83182958D01*
X151620970Y-83187201D01*
X151569534Y-83271141D01*
X151531856Y-83362098D01*
X151529820Y-83366515D01*
X151519507Y-83386757D01*
X151512483Y-83408373D01*
X151510799Y-83412938D01*
X151473125Y-83503891D01*
X151450145Y-83599612D01*
X151448823Y-83604299D01*
X151441803Y-83625903D01*
X151441801Y-83625913D01*
X151438246Y-83648357D01*
X151437296Y-83653132D01*
X151414318Y-83748844D01*
X151414317Y-83748851D01*
X151406592Y-83846998D01*
X151406019Y-83851833D01*
X151402466Y-83874270D01*
X151402466Y-83896990D01*
X151402275Y-83901856D01*
X151394551Y-83999999D01*
X116605449Y-83999999D01*
X116598333Y-83909593D01*
X116598155Y-83905946D01*
X116597979Y-83896990D01*
X116597534Y-83874271D01*
X116593974Y-83851798D01*
X116593409Y-83847021D01*
X116585683Y-83748852D01*
X116562696Y-83653107D01*
X116561753Y-83648357D01*
X116558198Y-83625913D01*
X116558198Y-83625911D01*
X116558195Y-83625903D01*
X116551172Y-83604289D01*
X116549857Y-83599627D01*
X116526873Y-83503889D01*
X116489194Y-83412923D01*
X116487517Y-83408380D01*
X116480493Y-83386760D01*
X116470178Y-83366515D01*
X116468139Y-83362093D01*
X116430468Y-83271145D01*
X116430466Y-83271141D01*
X116379014Y-83187179D01*
X116376649Y-83182955D01*
X116366337Y-83162716D01*
X116366334Y-83162710D01*
X116358039Y-83151293D01*
X116352977Y-83144325D01*
X116350272Y-83140277D01*
X116298839Y-83056345D01*
X116298838Y-83056344D01*
X116298837Y-83056343D01*
X116298836Y-83056341D01*
X116234891Y-82981471D01*
X116231891Y-82977665D01*
X116218531Y-82959276D01*
X116202453Y-82943198D01*
X116199163Y-82939639D01*
X116135224Y-82864776D01*
X116060355Y-82800832D01*
X116056799Y-82797544D01*
X116040724Y-82781469D01*
X116022332Y-82768107D01*
X116018511Y-82765094D01*
X115943667Y-82701171D01*
X115943659Y-82701164D01*
X115943654Y-82701161D01*
X115943653Y-82701160D01*
X115859714Y-82649722D01*
X115855667Y-82647017D01*
X115837292Y-82633667D01*
X115837290Y-82633666D01*
X115831104Y-82630514D01*
X115817048Y-82623351D01*
X115812803Y-82620973D01*
X115728857Y-82569532D01*
X115637904Y-82531858D01*
X115633484Y-82529821D01*
X115613244Y-82519509D01*
X115613243Y-82519508D01*
X115613240Y-82519507D01*
X115609126Y-82518170D01*
X115591623Y-82512482D01*
X115587057Y-82510797D01*
X115496114Y-82473127D01*
X115400390Y-82450146D01*
X115395705Y-82448824D01*
X115374090Y-82441801D01*
X115351642Y-82438246D01*
X115346867Y-82437296D01*
X115251152Y-82414318D01*
X115251153Y-82414318D01*
X115251151Y-82414317D01*
X115251148Y-82414317D01*
X115203959Y-82410603D01*
X115153002Y-82406592D01*
X115148167Y-82406019D01*
X115125734Y-82402466D01*
X115125729Y-82402466D01*
X115103008Y-82402466D01*
X115098142Y-82402275D01*
X115000000Y-82394551D01*
X114901858Y-82402275D01*
X114896992Y-82402466D01*
X114874271Y-82402466D01*
X114851833Y-82406019D01*
X114846998Y-82406592D01*
X114748851Y-82414317D01*
X114748844Y-82414318D01*
X114653132Y-82437296D01*
X114648357Y-82438246D01*
X114625913Y-82441801D01*
X114625903Y-82441803D01*
X114604299Y-82448823D01*
X114599612Y-82450145D01*
X114503891Y-82473125D01*
X114412938Y-82510799D01*
X114408373Y-82512483D01*
X114386757Y-82519507D01*
X114366515Y-82529820D01*
X114362098Y-82531856D01*
X114271141Y-82569534D01*
X114187201Y-82620970D01*
X114182958Y-82623347D01*
X114162716Y-82633662D01*
X114162708Y-82633667D01*
X114144330Y-82647018D01*
X114140286Y-82649720D01*
X114056339Y-82701165D01*
X113981482Y-82765098D01*
X113977660Y-82768111D01*
X113959276Y-82781469D01*
X113943198Y-82797544D01*
X113939626Y-82800846D01*
X113864775Y-82864775D01*
X113800846Y-82939626D01*
X113797544Y-82943198D01*
X113781469Y-82959276D01*
X113768111Y-82977660D01*
X113765098Y-82981482D01*
X113701165Y-83056339D01*
X113649720Y-83140286D01*
X113647018Y-83144330D01*
X113633667Y-83162708D01*
X113633662Y-83162716D01*
X113623347Y-83182958D01*
X113620970Y-83187201D01*
X113569534Y-83271141D01*
X113531856Y-83362098D01*
X113529820Y-83366515D01*
X113519507Y-83386757D01*
X113512483Y-83408373D01*
X113510799Y-83412938D01*
X113473125Y-83503891D01*
X113450145Y-83599612D01*
X113448823Y-83604299D01*
X113441803Y-83625903D01*
X113441801Y-83625913D01*
X113438246Y-83648357D01*
X113437296Y-83653132D01*
X113414318Y-83748844D01*
X113414317Y-83748851D01*
X113406592Y-83846998D01*
X113406019Y-83851833D01*
X113402466Y-83874270D01*
X113402466Y-83896990D01*
X113402275Y-83901856D01*
X113394551Y-83999999D01*
X111000500Y-83999999D01*
X111000500Y-80124500D01*
X111020185Y-80057461D01*
X111072989Y-80011706D01*
X111124500Y-80000500D01*
X156875500Y-80000500D01*
X156942539Y-80020185D01*
G37*
%TD.AperFunction*%
%TD*%
M02*
