%TF.GenerationSoftware,KiCad,Pcbnew,7.0.9*%
%TF.CreationDate,2024-02-19T15:29:43-08:00*%
%TF.ProjectId,display_rasp,64697370-6c61-4795-9f72-6173702e6b69,rev?*%
%TF.SameCoordinates,Original*%
%TF.FileFunction,Legend,Top*%
%TF.FilePolarity,Positive*%
%FSLAX46Y46*%
G04 Gerber Fmt 4.6, Leading zero omitted, Abs format (unit mm)*
G04 Created by KiCad (PCBNEW 7.0.9) date 2024-02-19 15:29:43*
%MOMM*%
%LPD*%
G01*
G04 APERTURE LIST*
%ADD10C,0.150000*%
%ADD11C,0.100000*%
%ADD12C,0.120000*%
G04 APERTURE END LIST*
D10*
X153742819Y-121562666D02*
X153266628Y-121895999D01*
X153742819Y-122134094D02*
X152742819Y-122134094D01*
X152742819Y-122134094D02*
X152742819Y-121753142D01*
X152742819Y-121753142D02*
X152790438Y-121657904D01*
X152790438Y-121657904D02*
X152838057Y-121610285D01*
X152838057Y-121610285D02*
X152933295Y-121562666D01*
X152933295Y-121562666D02*
X153076152Y-121562666D01*
X153076152Y-121562666D02*
X153171390Y-121610285D01*
X153171390Y-121610285D02*
X153219009Y-121657904D01*
X153219009Y-121657904D02*
X153266628Y-121753142D01*
X153266628Y-121753142D02*
X153266628Y-122134094D01*
X153742819Y-120610285D02*
X153742819Y-121181713D01*
X153742819Y-120895999D02*
X152742819Y-120895999D01*
X152742819Y-120895999D02*
X152885676Y-120991237D01*
X152885676Y-120991237D02*
X152980914Y-121086475D01*
X152980914Y-121086475D02*
X153028533Y-121181713D01*
D11*
X138382476Y-84023419D02*
X138382476Y-83023419D01*
X138382476Y-83023419D02*
X138715809Y-83737704D01*
X138715809Y-83737704D02*
X139049142Y-83023419D01*
X139049142Y-83023419D02*
X139049142Y-84023419D01*
X140049142Y-84023419D02*
X139477714Y-84023419D01*
X139763428Y-84023419D02*
X139763428Y-83023419D01*
X139763428Y-83023419D02*
X139668190Y-83166276D01*
X139668190Y-83166276D02*
X139572952Y-83261514D01*
X139572952Y-83261514D02*
X139477714Y-83309133D01*
D10*
X130930667Y-113857200D02*
X131073524Y-113904819D01*
X131073524Y-113904819D02*
X131311619Y-113904819D01*
X131311619Y-113904819D02*
X131406857Y-113857200D01*
X131406857Y-113857200D02*
X131454476Y-113809580D01*
X131454476Y-113809580D02*
X131502095Y-113714342D01*
X131502095Y-113714342D02*
X131502095Y-113619104D01*
X131502095Y-113619104D02*
X131454476Y-113523866D01*
X131454476Y-113523866D02*
X131406857Y-113476247D01*
X131406857Y-113476247D02*
X131311619Y-113428628D01*
X131311619Y-113428628D02*
X131121143Y-113381009D01*
X131121143Y-113381009D02*
X131025905Y-113333390D01*
X131025905Y-113333390D02*
X130978286Y-113285771D01*
X130978286Y-113285771D02*
X130930667Y-113190533D01*
X130930667Y-113190533D02*
X130930667Y-113095295D01*
X130930667Y-113095295D02*
X130978286Y-113000057D01*
X130978286Y-113000057D02*
X131025905Y-112952438D01*
X131025905Y-112952438D02*
X131121143Y-112904819D01*
X131121143Y-112904819D02*
X131359238Y-112904819D01*
X131359238Y-112904819D02*
X131502095Y-112952438D01*
X131835429Y-112904819D02*
X132073524Y-113904819D01*
X132073524Y-113904819D02*
X132264000Y-113190533D01*
X132264000Y-113190533D02*
X132454476Y-113904819D01*
X132454476Y-113904819D02*
X132692572Y-112904819D01*
X133597333Y-113904819D02*
X133025905Y-113904819D01*
X133311619Y-113904819D02*
X133311619Y-112904819D01*
X133311619Y-112904819D02*
X133216381Y-113047676D01*
X133216381Y-113047676D02*
X133121143Y-113142914D01*
X133121143Y-113142914D02*
X133025905Y-113190533D01*
X145565905Y-124810819D02*
X145565905Y-123810819D01*
X145565905Y-123810819D02*
X145804000Y-123810819D01*
X145804000Y-123810819D02*
X145946857Y-123858438D01*
X145946857Y-123858438D02*
X146042095Y-123953676D01*
X146042095Y-123953676D02*
X146089714Y-124048914D01*
X146089714Y-124048914D02*
X146137333Y-124239390D01*
X146137333Y-124239390D02*
X146137333Y-124382247D01*
X146137333Y-124382247D02*
X146089714Y-124572723D01*
X146089714Y-124572723D02*
X146042095Y-124667961D01*
X146042095Y-124667961D02*
X145946857Y-124763200D01*
X145946857Y-124763200D02*
X145804000Y-124810819D01*
X145804000Y-124810819D02*
X145565905Y-124810819D01*
X147089714Y-124810819D02*
X146518286Y-124810819D01*
X146804000Y-124810819D02*
X146804000Y-123810819D01*
X146804000Y-123810819D02*
X146708762Y-123953676D01*
X146708762Y-123953676D02*
X146613524Y-124048914D01*
X146613524Y-124048914D02*
X146518286Y-124096533D01*
X118467333Y-120724819D02*
X118134000Y-120248628D01*
X117895905Y-120724819D02*
X117895905Y-119724819D01*
X117895905Y-119724819D02*
X118276857Y-119724819D01*
X118276857Y-119724819D02*
X118372095Y-119772438D01*
X118372095Y-119772438D02*
X118419714Y-119820057D01*
X118419714Y-119820057D02*
X118467333Y-119915295D01*
X118467333Y-119915295D02*
X118467333Y-120058152D01*
X118467333Y-120058152D02*
X118419714Y-120153390D01*
X118419714Y-120153390D02*
X118372095Y-120201009D01*
X118372095Y-120201009D02*
X118276857Y-120248628D01*
X118276857Y-120248628D02*
X117895905Y-120248628D01*
X118848286Y-119820057D02*
X118895905Y-119772438D01*
X118895905Y-119772438D02*
X118991143Y-119724819D01*
X118991143Y-119724819D02*
X119229238Y-119724819D01*
X119229238Y-119724819D02*
X119324476Y-119772438D01*
X119324476Y-119772438D02*
X119372095Y-119820057D01*
X119372095Y-119820057D02*
X119419714Y-119915295D01*
X119419714Y-119915295D02*
X119419714Y-120010533D01*
X119419714Y-120010533D02*
X119372095Y-120153390D01*
X119372095Y-120153390D02*
X118800667Y-120724819D01*
X118800667Y-120724819D02*
X119419714Y-120724819D01*
D12*
%TO.C,R1*%
X152373000Y-121168936D02*
X152373000Y-121623064D01*
X150903000Y-121168936D02*
X150903000Y-121623064D01*
%TO.C,SW1*%
X126284000Y-114460000D02*
X138584000Y-114460000D01*
X126284000Y-117180000D02*
X126284000Y-114460000D01*
X126284000Y-122180000D02*
X126284000Y-119040000D01*
X126284000Y-126760000D02*
X126284000Y-124040000D01*
X138584000Y-114460000D02*
X138584000Y-117180000D01*
X138584000Y-119040000D02*
X138584000Y-122180000D01*
X138584000Y-124040000D02*
X138584000Y-126760000D01*
X138584000Y-126760000D02*
X126284000Y-126760000D01*
X137113050Y-120650000D02*
G75*
G03*
X137113050Y-120650000I-4579050J0D01*
G01*
%TO.C,D1*%
X148864000Y-121941000D02*
X148864000Y-118851000D01*
X143314001Y-120395538D02*
G75*
G03*
X148863999Y-121940830I2989999J-462D01*
G01*
X148864000Y-118851170D02*
G75*
G03*
X143314000Y-120396462I-2560000J-1544830D01*
G01*
X148804000Y-120396000D02*
G75*
G03*
X148804000Y-120396000I-2500000J0D01*
G01*
%TO.C,R2*%
X118406936Y-121185000D02*
X118861064Y-121185000D01*
X118406936Y-122655000D02*
X118861064Y-122655000D01*
%TD*%
M02*
