%TF.GenerationSoftware,KiCad,Pcbnew,7.0.9*%
%TF.CreationDate,2024-01-21T16:04:35-08:00*%
%TF.ProjectId,Sensing Device,53656e73-696e-4672-9044-65766963652e,rev?*%
%TF.SameCoordinates,Original*%
%TF.FileFunction,Copper,L2,Bot*%
%TF.FilePolarity,Positive*%
%FSLAX46Y46*%
G04 Gerber Fmt 4.6, Leading zero omitted, Abs format (unit mm)*
G04 Created by KiCad (PCBNEW 7.0.9) date 2024-01-21 16:04:35*
%MOMM*%
%LPD*%
G01*
G04 APERTURE LIST*
G04 Aperture macros list*
%AMRoundRect*
0 Rectangle with rounded corners*
0 $1 Rounding radius*
0 $2 $3 $4 $5 $6 $7 $8 $9 X,Y pos of 4 corners*
0 Add a 4 corners polygon primitive as box body*
4,1,4,$2,$3,$4,$5,$6,$7,$8,$9,$2,$3,0*
0 Add four circle primitives for the rounded corners*
1,1,$1+$1,$2,$3*
1,1,$1+$1,$4,$5*
1,1,$1+$1,$6,$7*
1,1,$1+$1,$8,$9*
0 Add four rect primitives between the rounded corners*
20,1,$1+$1,$2,$3,$4,$5,0*
20,1,$1+$1,$4,$5,$6,$7,0*
20,1,$1+$1,$6,$7,$8,$9,0*
20,1,$1+$1,$8,$9,$2,$3,0*%
G04 Aperture macros list end*
%TA.AperFunction,ComponentPad*%
%ADD10O,3.556000X1.778000*%
%TD*%
%TA.AperFunction,ComponentPad*%
%ADD11RoundRect,0.250001X-1.099999X-1.099999X1.099999X-1.099999X1.099999X1.099999X-1.099999X1.099999X0*%
%TD*%
%TA.AperFunction,ComponentPad*%
%ADD12C,2.700000*%
%TD*%
%TA.AperFunction,ComponentPad*%
%ADD13O,3.048000X1.850000*%
%TD*%
%TA.AperFunction,ComponentPad*%
%ADD14C,1.320800*%
%TD*%
%TA.AperFunction,ComponentPad*%
%ADD15C,2.006600*%
%TD*%
%TA.AperFunction,ComponentPad*%
%ADD16C,5.000000*%
%TD*%
%TA.AperFunction,ComponentPad*%
%ADD17R,1.800000X1.800000*%
%TD*%
%TA.AperFunction,ComponentPad*%
%ADD18C,1.800000*%
%TD*%
%TA.AperFunction,ViaPad*%
%ADD19C,1.778000*%
%TD*%
%TA.AperFunction,Conductor*%
%ADD20C,0.500000*%
%TD*%
%TA.AperFunction,Conductor*%
%ADD21C,0.254000*%
%TD*%
G04 APERTURE END LIST*
D10*
%TO.P,U1,1,GPIO1_A0_D0*%
%TO.N,/Button*%
X78994000Y-42672000D03*
%TO.P,U1,2,GPIO2_A1_D1*%
%TO.N,unconnected-(U1-GPIO2_A1_D1-Pad2)*%
X78994000Y-45212000D03*
%TO.P,U1,3,GPIO3_A2_D2*%
%TO.N,unconnected-(U1-GPIO3_A2_D2-Pad3)*%
X78994000Y-47752000D03*
%TO.P,U1,4,GPIO4_A3_D3*%
%TO.N,unconnected-(U1-GPIO4_A3_D3-Pad4)*%
X78994000Y-50292000D03*
%TO.P,U1,5,GPIO4_A3_D3_SDA*%
%TO.N,/SDA_XIAO*%
X78994000Y-52832000D03*
%TO.P,U1,6,GPIO6_A5_D5_SCL*%
%TO.N,/SCL_XIAO*%
X78994000Y-55372000D03*
%TO.P,U1,7,GPIO43_TX_D6*%
%TO.N,unconnected-(U1-GPIO43_TX_D6-Pad7)*%
X78994000Y-57912000D03*
%TO.P,U1,8,5V*%
%TO.N,unconnected-(U1-5V-Pad8)*%
X95758000Y-42672000D03*
%TO.P,U1,9,GND*%
%TO.N,GND*%
X95758000Y-45212000D03*
%TO.P,U1,10,3V3*%
%TO.N,/3V3*%
X95758000Y-47752000D03*
%TO.P,U1,11,GPIO9_A10_D10_COPI*%
%TO.N,unconnected-(U1-GPIO9_A10_D10_COPI-Pad11)*%
X95758000Y-50292000D03*
%TO.P,U1,12,GPIO8_A9_D9_CIPO*%
%TO.N,unconnected-(U1-GPIO8_A9_D9_CIPO-Pad12)*%
X95758000Y-52832000D03*
%TO.P,U1,13,GPIO7_A8_D8_SCK*%
%TO.N,/Id*%
X95758000Y-55372000D03*
%TO.P,U1,14,GPIO44_D7_RX*%
%TO.N,unconnected-(U1-GPIO44_D7_RX-Pad14)*%
X95758000Y-57912000D03*
%TD*%
D11*
%TO.P,J1,1,Pin_1*%
%TO.N,VCC*%
X91520000Y-69342000D03*
D12*
%TO.P,J1,2,Pin_2*%
%TO.N,GND*%
X96520000Y-69342000D03*
%TD*%
D13*
%TO.P,SW1,1,A*%
%TO.N,GND*%
X66150000Y-67500000D03*
X78650000Y-67500000D03*
%TO.P,SW1,2,B*%
%TO.N,/Button*%
X66150000Y-72500000D03*
X78650000Y-72500000D03*
%TD*%
D14*
%TO.P,SW2,1,A*%
%TO.N,VCC*%
X91764099Y-97282000D03*
%TO.P,SW2,2,B*%
%TO.N,Net-(BT1-+)*%
X93764100Y-97282000D03*
%TO.P,SW2,3,C*%
%TO.N,unconnected-(SW2-C-Pad3)*%
X95764101Y-97282000D03*
D15*
%TO.P,SW2,4*%
%TO.N,N/C*%
X89662000Y-97282000D03*
%TO.P,SW2,5*%
X97866200Y-97282000D03*
%TD*%
D16*
%TO.P,J2,4*%
%TO.N,N/C*%
X150000000Y-90000000D03*
%TO.P,J2,3*%
X110000000Y-90000000D03*
%TO.P,J2,2,Pin_2*%
%TO.N,GND*%
X150000000Y-50000000D03*
%TO.P,J2,1,Pin_1*%
%TO.N,/Id*%
X110000000Y-50000000D03*
%TD*%
D17*
%TO.P,D1,1,K*%
%TO.N,Net-(D1-K)*%
X68072000Y-48768000D03*
D18*
%TO.P,D1,2,A*%
%TO.N,VCC*%
X65532000Y-48768000D03*
%TD*%
D19*
%TO.N,VCC*%
X114300000Y-45466000D03*
%TO.N,Net-(C1-Pad1)*%
X133096000Y-51562000D03*
X115062000Y-75946000D03*
%TD*%
D20*
%TO.N,GND*%
X78650000Y-67500000D02*
X78662000Y-67488000D01*
X78662000Y-67488000D02*
X94666000Y-67488000D01*
X94666000Y-67488000D02*
X96520000Y-69342000D01*
%TO.N,VCC*%
X107776000Y-72818000D02*
X94996000Y-72818000D01*
X91520000Y-69342000D02*
X94996000Y-72818000D01*
X114300000Y-66294000D02*
X107776000Y-72818000D01*
X114300000Y-45466000D02*
X114300000Y-66294000D01*
D21*
%TO.N,Net-(C1-Pad1)*%
X115062000Y-68072000D02*
X131572000Y-51562000D01*
X131572000Y-51562000D02*
X133096000Y-51562000D01*
X115062000Y-75946000D02*
X115062000Y-68072000D01*
%TO.N,/Button*%
X76200000Y-43434000D02*
X78994000Y-43434000D01*
X76200000Y-70050000D02*
X76200000Y-43434000D01*
X78994000Y-43434000D02*
X79756000Y-42672000D01*
X78650000Y-72500000D02*
X76200000Y-70050000D01*
%TD*%
%TA.AperFunction,Conductor*%
%TO.N,GND*%
G36*
X159942539Y-40020185D02*
G01*
X159988294Y-40072989D01*
X159999500Y-40124500D01*
X159999500Y-99875500D01*
X159979815Y-99942539D01*
X159927011Y-99988294D01*
X159875500Y-99999500D01*
X60124500Y-99999500D01*
X60057461Y-99979815D01*
X60011706Y-99927011D01*
X60000500Y-99875500D01*
X60000500Y-97282000D01*
X88153550Y-97282000D01*
X88172122Y-97517977D01*
X88227378Y-97748136D01*
X88317960Y-97966822D01*
X88441634Y-98168640D01*
X88441635Y-98168641D01*
X88441636Y-98168643D01*
X88441638Y-98168645D01*
X88595365Y-98348635D01*
X88775355Y-98502362D01*
X88775357Y-98502363D01*
X88775358Y-98502364D01*
X88775359Y-98502365D01*
X88977177Y-98626039D01*
X89195863Y-98716621D01*
X89426026Y-98771878D01*
X89662000Y-98790450D01*
X89897974Y-98771878D01*
X90128137Y-98716621D01*
X90346822Y-98626039D01*
X90548645Y-98502362D01*
X90728635Y-98348635D01*
X90856601Y-98198806D01*
X90915106Y-98160615D01*
X90984974Y-98160116D01*
X91034428Y-98187704D01*
X91061504Y-98212387D01*
X91244425Y-98325647D01*
X91445043Y-98403367D01*
X91656526Y-98442900D01*
X91656528Y-98442900D01*
X91871670Y-98442900D01*
X91871672Y-98442900D01*
X92083155Y-98403367D01*
X92283773Y-98325647D01*
X92466694Y-98212387D01*
X92625690Y-98067444D01*
X92665147Y-98015193D01*
X92721253Y-97973560D01*
X92790965Y-97968867D01*
X92852147Y-98002609D01*
X92863050Y-98015192D01*
X92863053Y-98015196D01*
X92902511Y-98067446D01*
X92902514Y-98067449D01*
X93061502Y-98212385D01*
X93061504Y-98212386D01*
X93061505Y-98212387D01*
X93244426Y-98325647D01*
X93445044Y-98403367D01*
X93656527Y-98442900D01*
X93656529Y-98442900D01*
X93871671Y-98442900D01*
X93871673Y-98442900D01*
X94083156Y-98403367D01*
X94283774Y-98325647D01*
X94466695Y-98212387D01*
X94625691Y-98067444D01*
X94665148Y-98015193D01*
X94721254Y-97973560D01*
X94790966Y-97968867D01*
X94852148Y-98002609D01*
X94863051Y-98015192D01*
X94863054Y-98015196D01*
X94902512Y-98067446D01*
X94902515Y-98067449D01*
X95061503Y-98212385D01*
X95061505Y-98212386D01*
X95061506Y-98212387D01*
X95244427Y-98325647D01*
X95445045Y-98403367D01*
X95656528Y-98442900D01*
X95656530Y-98442900D01*
X95871672Y-98442900D01*
X95871674Y-98442900D01*
X96083157Y-98403367D01*
X96283775Y-98325647D01*
X96466696Y-98212387D01*
X96493771Y-98187704D01*
X96556573Y-98157086D01*
X96625960Y-98165282D01*
X96671599Y-98198807D01*
X96799565Y-98348635D01*
X96979555Y-98502362D01*
X96979557Y-98502363D01*
X96979558Y-98502364D01*
X96979559Y-98502365D01*
X97181377Y-98626039D01*
X97400063Y-98716621D01*
X97630226Y-98771878D01*
X97866200Y-98790450D01*
X98102174Y-98771878D01*
X98332337Y-98716621D01*
X98551022Y-98626039D01*
X98752845Y-98502362D01*
X98932835Y-98348635D01*
X99086562Y-98168645D01*
X99210239Y-97966822D01*
X99300821Y-97748137D01*
X99356078Y-97517974D01*
X99374650Y-97282000D01*
X99356078Y-97046026D01*
X99300821Y-96815863D01*
X99210239Y-96597178D01*
X99210239Y-96597177D01*
X99086565Y-96395359D01*
X99086564Y-96395358D01*
X99086563Y-96395357D01*
X99086562Y-96395355D01*
X98932835Y-96215365D01*
X98752845Y-96061638D01*
X98752843Y-96061636D01*
X98752841Y-96061635D01*
X98752840Y-96061634D01*
X98551022Y-95937960D01*
X98332336Y-95847378D01*
X98102177Y-95792122D01*
X97866200Y-95773550D01*
X97630222Y-95792122D01*
X97400063Y-95847378D01*
X97181377Y-95937960D01*
X96979559Y-96061634D01*
X96979558Y-96061635D01*
X96799565Y-96215365D01*
X96671600Y-96365191D01*
X96613093Y-96403384D01*
X96543225Y-96403882D01*
X96493773Y-96376297D01*
X96466696Y-96351613D01*
X96283775Y-96238353D01*
X96083157Y-96160633D01*
X95871674Y-96121100D01*
X95656528Y-96121100D01*
X95445045Y-96160633D01*
X95318176Y-96209782D01*
X95244429Y-96238352D01*
X95244428Y-96238352D01*
X95061503Y-96351614D01*
X94902515Y-96496550D01*
X94902510Y-96496555D01*
X94863053Y-96548805D01*
X94806944Y-96590440D01*
X94737232Y-96595131D01*
X94676050Y-96561388D01*
X94665147Y-96548805D01*
X94625691Y-96496556D01*
X94625688Y-96496553D01*
X94625685Y-96496550D01*
X94466697Y-96351614D01*
X94426911Y-96326979D01*
X94283774Y-96238353D01*
X94083156Y-96160633D01*
X93871673Y-96121100D01*
X93656527Y-96121100D01*
X93445044Y-96160633D01*
X93318175Y-96209782D01*
X93244428Y-96238352D01*
X93244427Y-96238352D01*
X93061502Y-96351614D01*
X92902514Y-96496550D01*
X92902509Y-96496555D01*
X92863052Y-96548805D01*
X92806943Y-96590440D01*
X92737231Y-96595131D01*
X92676049Y-96561388D01*
X92665146Y-96548805D01*
X92625690Y-96496556D01*
X92625687Y-96496553D01*
X92625684Y-96496550D01*
X92466696Y-96351614D01*
X92426910Y-96326979D01*
X92283773Y-96238353D01*
X92083155Y-96160633D01*
X91871672Y-96121100D01*
X91656526Y-96121100D01*
X91445043Y-96160633D01*
X91318174Y-96209782D01*
X91244427Y-96238352D01*
X91244426Y-96238352D01*
X91061501Y-96351614D01*
X91034426Y-96376297D01*
X90971622Y-96406913D01*
X90902235Y-96398715D01*
X90856599Y-96365191D01*
X90845003Y-96351614D01*
X90728635Y-96215365D01*
X90548645Y-96061638D01*
X90548643Y-96061636D01*
X90548641Y-96061635D01*
X90548640Y-96061634D01*
X90346822Y-95937960D01*
X90128136Y-95847378D01*
X89897977Y-95792122D01*
X89662000Y-95773550D01*
X89426022Y-95792122D01*
X89195863Y-95847378D01*
X88977177Y-95937960D01*
X88775359Y-96061634D01*
X88775358Y-96061635D01*
X88595365Y-96215365D01*
X88441635Y-96395358D01*
X88441634Y-96395359D01*
X88317960Y-96597177D01*
X88227378Y-96815863D01*
X88172122Y-97046022D01*
X88153550Y-97282000D01*
X60000500Y-97282000D01*
X60000500Y-90000003D01*
X106994415Y-90000003D01*
X107014738Y-90348927D01*
X107014739Y-90348938D01*
X107075428Y-90693127D01*
X107075430Y-90693134D01*
X107175674Y-91027972D01*
X107314107Y-91348895D01*
X107314113Y-91348908D01*
X107488870Y-91651597D01*
X107697584Y-91931949D01*
X107697589Y-91931955D01*
X107821463Y-92063253D01*
X107937442Y-92186183D01*
X108113903Y-92334251D01*
X108205186Y-92410847D01*
X108205194Y-92410853D01*
X108497203Y-92602911D01*
X108497207Y-92602913D01*
X108809549Y-92759777D01*
X109137989Y-92879319D01*
X109478086Y-92959923D01*
X109825241Y-93000500D01*
X109825248Y-93000500D01*
X110174752Y-93000500D01*
X110174759Y-93000500D01*
X110521914Y-92959923D01*
X110862011Y-92879319D01*
X111190451Y-92759777D01*
X111502793Y-92602913D01*
X111794811Y-92410849D01*
X112062558Y-92186183D01*
X112302412Y-91931953D01*
X112511130Y-91651596D01*
X112685889Y-91348904D01*
X112824326Y-91027971D01*
X112924569Y-90693136D01*
X112985262Y-90348927D01*
X113005585Y-90000003D01*
X146994415Y-90000003D01*
X147014738Y-90348927D01*
X147014739Y-90348938D01*
X147075428Y-90693127D01*
X147075430Y-90693134D01*
X147175674Y-91027972D01*
X147314107Y-91348895D01*
X147314113Y-91348908D01*
X147488870Y-91651597D01*
X147697584Y-91931949D01*
X147697589Y-91931955D01*
X147821463Y-92063253D01*
X147937442Y-92186183D01*
X148113903Y-92334251D01*
X148205186Y-92410847D01*
X148205194Y-92410853D01*
X148497203Y-92602911D01*
X148497207Y-92602913D01*
X148809549Y-92759777D01*
X149137989Y-92879319D01*
X149478086Y-92959923D01*
X149825241Y-93000500D01*
X149825248Y-93000500D01*
X150174752Y-93000500D01*
X150174759Y-93000500D01*
X150521914Y-92959923D01*
X150862011Y-92879319D01*
X151190451Y-92759777D01*
X151502793Y-92602913D01*
X151794811Y-92410849D01*
X152062558Y-92186183D01*
X152302412Y-91931953D01*
X152511130Y-91651596D01*
X152685889Y-91348904D01*
X152824326Y-91027971D01*
X152924569Y-90693136D01*
X152985262Y-90348927D01*
X153005585Y-90000000D01*
X152985262Y-89651073D01*
X152985260Y-89651061D01*
X152924571Y-89306872D01*
X152924569Y-89306865D01*
X152824325Y-88972027D01*
X152685892Y-88651104D01*
X152685889Y-88651096D01*
X152511130Y-88348404D01*
X152511129Y-88348402D01*
X152302415Y-88068050D01*
X152302410Y-88068044D01*
X152186433Y-87945117D01*
X152062558Y-87813817D01*
X151914488Y-87689572D01*
X151794813Y-87589152D01*
X151794805Y-87589146D01*
X151502796Y-87397088D01*
X151190458Y-87240226D01*
X151190452Y-87240223D01*
X150862012Y-87120681D01*
X150862009Y-87120680D01*
X150521915Y-87040077D01*
X150478519Y-87035004D01*
X150174759Y-86999500D01*
X149825241Y-86999500D01*
X149521480Y-87035004D01*
X149478085Y-87040077D01*
X149478083Y-87040077D01*
X149137990Y-87120680D01*
X149137987Y-87120681D01*
X148809547Y-87240223D01*
X148809541Y-87240226D01*
X148497203Y-87397088D01*
X148205194Y-87589146D01*
X148205186Y-87589152D01*
X147937442Y-87813817D01*
X147937440Y-87813819D01*
X147697589Y-88068044D01*
X147697584Y-88068050D01*
X147488870Y-88348402D01*
X147314113Y-88651091D01*
X147314107Y-88651104D01*
X147175674Y-88972027D01*
X147075430Y-89306865D01*
X147075428Y-89306872D01*
X147014739Y-89651061D01*
X147014738Y-89651072D01*
X146994415Y-89999996D01*
X146994415Y-90000003D01*
X113005585Y-90000003D01*
X113005585Y-90000000D01*
X112985262Y-89651073D01*
X112985260Y-89651061D01*
X112924571Y-89306872D01*
X112924569Y-89306865D01*
X112824325Y-88972027D01*
X112685892Y-88651104D01*
X112685889Y-88651096D01*
X112511130Y-88348404D01*
X112511129Y-88348402D01*
X112302415Y-88068050D01*
X112302410Y-88068044D01*
X112186433Y-87945117D01*
X112062558Y-87813817D01*
X111914488Y-87689572D01*
X111794813Y-87589152D01*
X111794805Y-87589146D01*
X111502796Y-87397088D01*
X111190458Y-87240226D01*
X111190452Y-87240223D01*
X110862012Y-87120681D01*
X110862009Y-87120680D01*
X110521915Y-87040077D01*
X110478519Y-87035004D01*
X110174759Y-86999500D01*
X109825241Y-86999500D01*
X109521480Y-87035004D01*
X109478085Y-87040077D01*
X109478083Y-87040077D01*
X109137990Y-87120680D01*
X109137987Y-87120681D01*
X108809547Y-87240223D01*
X108809541Y-87240226D01*
X108497203Y-87397088D01*
X108205194Y-87589146D01*
X108205186Y-87589152D01*
X107937442Y-87813817D01*
X107937440Y-87813819D01*
X107697589Y-88068044D01*
X107697584Y-88068050D01*
X107488870Y-88348402D01*
X107314113Y-88651091D01*
X107314107Y-88651104D01*
X107175674Y-88972027D01*
X107075430Y-89306865D01*
X107075428Y-89306872D01*
X107014739Y-89651061D01*
X107014738Y-89651072D01*
X106994415Y-89999996D01*
X106994415Y-90000003D01*
X60000500Y-90000003D01*
X60000500Y-75946005D01*
X113667738Y-75946005D01*
X113686753Y-76175484D01*
X113743282Y-76398714D01*
X113835782Y-76609594D01*
X113961728Y-76802370D01*
X113961731Y-76802373D01*
X114117692Y-76971792D01*
X114299411Y-77113229D01*
X114501931Y-77222828D01*
X114615025Y-77261653D01*
X114719725Y-77297597D01*
X114719727Y-77297597D01*
X114719729Y-77297598D01*
X114946863Y-77335500D01*
X114946864Y-77335500D01*
X115177136Y-77335500D01*
X115177137Y-77335500D01*
X115404271Y-77297598D01*
X115622069Y-77222828D01*
X115824589Y-77113229D01*
X116006308Y-76971792D01*
X116162269Y-76802373D01*
X116288217Y-76609595D01*
X116380717Y-76398716D01*
X116437246Y-76175488D01*
X116456262Y-75946000D01*
X116437246Y-75716512D01*
X116380717Y-75493284D01*
X116288217Y-75282405D01*
X116162271Y-75089629D01*
X116135355Y-75060390D01*
X116006308Y-74920208D01*
X115938036Y-74867070D01*
X115824591Y-74778772D01*
X115824586Y-74778769D01*
X115754481Y-74740829D01*
X115704891Y-74691609D01*
X115689500Y-74631775D01*
X115689500Y-68383281D01*
X115709185Y-68316242D01*
X115725819Y-68295600D01*
X118089649Y-65931770D01*
X131732586Y-52288832D01*
X131793907Y-52255349D01*
X131863599Y-52260333D01*
X131919532Y-52302205D01*
X131924074Y-52308694D01*
X131995728Y-52418370D01*
X132036102Y-52462227D01*
X132151692Y-52587792D01*
X132333411Y-52729229D01*
X132535931Y-52838828D01*
X132649025Y-52877653D01*
X132753725Y-52913597D01*
X132753727Y-52913597D01*
X132753729Y-52913598D01*
X132980863Y-52951500D01*
X132980864Y-52951500D01*
X133211136Y-52951500D01*
X133211137Y-52951500D01*
X133438271Y-52913598D01*
X133656069Y-52838828D01*
X133858589Y-52729229D01*
X134040308Y-52587792D01*
X134196269Y-52418373D01*
X134322217Y-52225595D01*
X134414717Y-52014716D01*
X134471246Y-51791488D01*
X134485907Y-51614561D01*
X134490262Y-51562005D01*
X134490262Y-51561994D01*
X134474932Y-51376994D01*
X134471246Y-51332512D01*
X134414717Y-51109284D01*
X134322217Y-50898405D01*
X134309096Y-50878322D01*
X134196271Y-50705629D01*
X134169355Y-50676390D01*
X134040308Y-50536208D01*
X133954121Y-50469126D01*
X133858591Y-50394772D01*
X133656069Y-50285172D01*
X133656061Y-50285169D01*
X133438274Y-50210402D01*
X133267920Y-50181975D01*
X133211137Y-50172500D01*
X132980863Y-50172500D01*
X132935436Y-50180080D01*
X132753725Y-50210402D01*
X132535938Y-50285169D01*
X132535930Y-50285172D01*
X132333408Y-50394772D01*
X132151694Y-50536206D01*
X132151689Y-50536211D01*
X131995731Y-50705627D01*
X131882904Y-50878322D01*
X131829757Y-50923678D01*
X131779095Y-50934500D01*
X131654967Y-50934500D01*
X131639318Y-50932772D01*
X131639292Y-50933054D01*
X131631524Y-50932319D01*
X131562140Y-50934500D01*
X131532522Y-50934500D01*
X131525618Y-50935371D01*
X131519800Y-50935829D01*
X131473057Y-50937298D01*
X131453713Y-50942918D01*
X131434669Y-50946862D01*
X131431709Y-50947235D01*
X131414707Y-50949384D01*
X131414703Y-50949385D01*
X131414700Y-50949386D01*
X131371235Y-50966594D01*
X131365710Y-50968485D01*
X131320809Y-50981531D01*
X131320806Y-50981533D01*
X131303480Y-50991779D01*
X131286010Y-51000337D01*
X131267298Y-51007745D01*
X131229463Y-51035233D01*
X131224580Y-51038440D01*
X131184346Y-51062234D01*
X131170106Y-51076474D01*
X131155320Y-51089102D01*
X131139033Y-51100936D01*
X131139032Y-51100936D01*
X131109227Y-51136963D01*
X131105295Y-51141285D01*
X114676953Y-67569626D01*
X114664669Y-67579469D01*
X114664849Y-67579687D01*
X114658838Y-67584659D01*
X114611322Y-67635258D01*
X114590375Y-67656205D01*
X114586106Y-67661709D01*
X114582315Y-67666147D01*
X114550308Y-67700230D01*
X114550305Y-67700234D01*
X114540606Y-67717877D01*
X114529928Y-67734133D01*
X114517594Y-67750034D01*
X114517589Y-67750042D01*
X114499025Y-67792943D01*
X114496454Y-67798191D01*
X114473927Y-67839167D01*
X114468920Y-67858668D01*
X114462621Y-67877064D01*
X114455893Y-67892612D01*
X114454625Y-67895544D01*
X114454624Y-67895546D01*
X114447312Y-67941716D01*
X114446127Y-67947438D01*
X114434500Y-67992723D01*
X114434500Y-68012858D01*
X114432973Y-68032255D01*
X114429825Y-68052133D01*
X114434225Y-68098677D01*
X114434500Y-68104515D01*
X114434500Y-74631775D01*
X114414815Y-74698814D01*
X114369519Y-74740829D01*
X114299413Y-74778769D01*
X114299408Y-74778772D01*
X114117694Y-74920206D01*
X114117689Y-74920211D01*
X113961728Y-75089629D01*
X113835782Y-75282405D01*
X113743282Y-75493285D01*
X113686753Y-75716515D01*
X113667738Y-75945994D01*
X113667738Y-75946005D01*
X60000500Y-75946005D01*
X60000500Y-72439281D01*
X64121635Y-72439281D01*
X64131933Y-72681715D01*
X64131933Y-72681719D01*
X64183056Y-72918929D01*
X64183057Y-72918932D01*
X64273530Y-73144082D01*
X64400757Y-73350713D01*
X64561075Y-73532869D01*
X64561079Y-73532873D01*
X64749870Y-73685311D01*
X64961709Y-73803652D01*
X64961712Y-73803653D01*
X65190507Y-73884491D01*
X65190513Y-73884492D01*
X65429662Y-73925499D01*
X65429670Y-73925499D01*
X65429672Y-73925500D01*
X65429673Y-73925500D01*
X66809559Y-73925500D01*
X66990775Y-73910076D01*
X66990775Y-73910075D01*
X66990782Y-73910075D01*
X67225608Y-73848931D01*
X67225611Y-73848930D01*
X67446713Y-73748986D01*
X67446716Y-73748983D01*
X67446723Y-73748981D01*
X67647765Y-73613100D01*
X67822952Y-73445197D01*
X67967244Y-73250102D01*
X68076488Y-73033429D01*
X68147543Y-72801409D01*
X68178365Y-72560719D01*
X68168066Y-72318281D01*
X68116944Y-72081072D01*
X68026468Y-71855914D01*
X67899242Y-71649286D01*
X67738925Y-71467131D01*
X67738924Y-71467130D01*
X67738920Y-71467126D01*
X67550129Y-71314688D01*
X67338290Y-71196347D01*
X67109500Y-71115511D01*
X67109486Y-71115507D01*
X66870337Y-71074500D01*
X66870328Y-71074500D01*
X65490446Y-71074500D01*
X65490441Y-71074500D01*
X65309224Y-71089923D01*
X65309222Y-71089924D01*
X65074391Y-71151068D01*
X65074388Y-71151069D01*
X64853286Y-71251013D01*
X64853274Y-71251020D01*
X64652234Y-71386900D01*
X64652232Y-71386902D01*
X64477047Y-71554803D01*
X64477046Y-71554804D01*
X64332758Y-71749893D01*
X64223515Y-71966565D01*
X64223512Y-71966571D01*
X64152456Y-72198594D01*
X64121635Y-72439281D01*
X60000500Y-72439281D01*
X60000500Y-67249999D01*
X64146377Y-67249999D01*
X64146378Y-67250000D01*
X65549272Y-67250000D01*
X65526900Y-67297543D01*
X65496127Y-67458862D01*
X65506439Y-67622766D01*
X65547780Y-67750000D01*
X64147161Y-67750000D01*
X64183536Y-67918782D01*
X64183537Y-67918785D01*
X64273978Y-68143856D01*
X64401161Y-68350415D01*
X64561422Y-68532507D01*
X64561426Y-68532511D01*
X64750144Y-68684890D01*
X64750150Y-68684894D01*
X64961917Y-68803194D01*
X65190629Y-68884003D01*
X65190637Y-68884005D01*
X65429706Y-68924999D01*
X65429715Y-68925000D01*
X65900000Y-68925000D01*
X65900000Y-68104310D01*
X65908817Y-68109158D01*
X66067886Y-68150000D01*
X66190894Y-68150000D01*
X66312933Y-68134583D01*
X66400000Y-68100110D01*
X66400000Y-68925000D01*
X66809539Y-68925000D01*
X66990692Y-68909582D01*
X67225440Y-68848458D01*
X67446472Y-68748546D01*
X67446480Y-68748541D01*
X67647450Y-68612708D01*
X67647453Y-68612706D01*
X67822575Y-68444864D01*
X67822576Y-68444863D01*
X67966813Y-68249843D01*
X68076021Y-68033242D01*
X68147053Y-67801299D01*
X68153622Y-67750000D01*
X66750728Y-67750000D01*
X66773100Y-67702457D01*
X66803873Y-67541138D01*
X66793561Y-67377234D01*
X66752220Y-67250000D01*
X68152839Y-67250000D01*
X68116463Y-67081217D01*
X68116462Y-67081214D01*
X68026021Y-66856143D01*
X67898838Y-66649584D01*
X67738577Y-66467492D01*
X67738573Y-66467488D01*
X67549855Y-66315109D01*
X67549849Y-66315105D01*
X67338082Y-66196805D01*
X67109370Y-66115996D01*
X67109362Y-66115994D01*
X66870293Y-66075000D01*
X66400000Y-66075000D01*
X66400000Y-66895689D01*
X66391183Y-66890842D01*
X66232114Y-66850000D01*
X66109106Y-66850000D01*
X65987067Y-66865417D01*
X65900000Y-66899889D01*
X65900000Y-66075000D01*
X65490461Y-66075000D01*
X65309307Y-66090417D01*
X65074559Y-66151541D01*
X64853527Y-66251453D01*
X64853519Y-66251458D01*
X64652549Y-66387291D01*
X64652546Y-66387293D01*
X64477424Y-66555135D01*
X64477423Y-66555136D01*
X64333186Y-66750156D01*
X64223978Y-66966757D01*
X64152946Y-67198700D01*
X64146377Y-67249999D01*
X60000500Y-67249999D01*
X60000500Y-48768006D01*
X64126700Y-48768006D01*
X64145864Y-48999297D01*
X64145866Y-48999308D01*
X64202842Y-49224300D01*
X64296075Y-49436848D01*
X64423016Y-49631147D01*
X64423019Y-49631151D01*
X64423021Y-49631153D01*
X64580216Y-49801913D01*
X64580219Y-49801915D01*
X64580222Y-49801918D01*
X64763365Y-49944464D01*
X64763371Y-49944468D01*
X64763374Y-49944470D01*
X64967497Y-50054936D01*
X65081487Y-50094068D01*
X65187015Y-50130297D01*
X65187017Y-50130297D01*
X65187019Y-50130298D01*
X65415951Y-50168500D01*
X65415952Y-50168500D01*
X65648048Y-50168500D01*
X65648049Y-50168500D01*
X65876981Y-50130298D01*
X66096503Y-50054936D01*
X66300626Y-49944470D01*
X66483784Y-49801913D01*
X66492130Y-49792846D01*
X66552010Y-49756854D01*
X66621849Y-49758949D01*
X66679468Y-49798469D01*
X66699544Y-49833491D01*
X66728203Y-49910330D01*
X66728206Y-49910335D01*
X66814452Y-50025544D01*
X66814455Y-50025547D01*
X66929664Y-50111793D01*
X66929671Y-50111797D01*
X67064517Y-50162091D01*
X67064516Y-50162091D01*
X67071444Y-50162835D01*
X67124127Y-50168500D01*
X69019872Y-50168499D01*
X69079483Y-50162091D01*
X69214331Y-50111796D01*
X69329546Y-50025546D01*
X69415796Y-49910331D01*
X69466091Y-49775483D01*
X69472500Y-49715873D01*
X69472499Y-47820128D01*
X69466091Y-47760517D01*
X69456233Y-47734087D01*
X69415797Y-47625671D01*
X69415793Y-47625664D01*
X69329547Y-47510455D01*
X69329544Y-47510452D01*
X69214335Y-47424206D01*
X69214328Y-47424202D01*
X69079482Y-47373908D01*
X69079483Y-47373908D01*
X69019883Y-47367501D01*
X69019881Y-47367500D01*
X69019873Y-47367500D01*
X69019864Y-47367500D01*
X67124129Y-47367500D01*
X67124123Y-47367501D01*
X67064516Y-47373908D01*
X66929671Y-47424202D01*
X66929664Y-47424206D01*
X66814455Y-47510452D01*
X66814452Y-47510455D01*
X66728206Y-47625664D01*
X66728203Y-47625670D01*
X66699544Y-47702508D01*
X66657672Y-47758441D01*
X66592208Y-47782858D01*
X66523935Y-47768006D01*
X66492135Y-47743158D01*
X66483784Y-47734087D01*
X66483778Y-47734082D01*
X66483777Y-47734081D01*
X66300634Y-47591535D01*
X66300628Y-47591531D01*
X66096504Y-47481064D01*
X66096495Y-47481061D01*
X65876984Y-47405702D01*
X65686450Y-47373908D01*
X65648049Y-47367500D01*
X65415951Y-47367500D01*
X65377550Y-47373908D01*
X65187015Y-47405702D01*
X64967504Y-47481061D01*
X64967495Y-47481064D01*
X64763371Y-47591531D01*
X64763365Y-47591535D01*
X64580222Y-47734081D01*
X64580219Y-47734084D01*
X64580216Y-47734086D01*
X64580216Y-47734087D01*
X64535319Y-47782858D01*
X64423016Y-47904852D01*
X64296075Y-48099151D01*
X64202842Y-48311699D01*
X64145866Y-48536691D01*
X64145864Y-48536702D01*
X64126700Y-48767993D01*
X64126700Y-48768006D01*
X60000500Y-48768006D01*
X60000500Y-43394286D01*
X75568761Y-43394286D01*
X75572378Y-43451786D01*
X75572500Y-43455659D01*
X75572500Y-69967032D01*
X75570772Y-69982681D01*
X75571054Y-69982708D01*
X75570319Y-69990475D01*
X75572500Y-70059859D01*
X75572500Y-70089477D01*
X75573371Y-70096380D01*
X75573829Y-70102199D01*
X75575298Y-70148942D01*
X75576261Y-70152255D01*
X75580676Y-70167451D01*
X75580916Y-70168275D01*
X75584862Y-70187329D01*
X75587383Y-70207287D01*
X75587386Y-70207299D01*
X75604595Y-70250765D01*
X75606487Y-70256293D01*
X75619530Y-70301187D01*
X75619530Y-70301188D01*
X75629777Y-70318515D01*
X75638335Y-70335985D01*
X75645745Y-70354701D01*
X75673229Y-70392529D01*
X75676437Y-70397413D01*
X75700234Y-70437652D01*
X75700240Y-70437660D01*
X75714469Y-70451888D01*
X75727109Y-70466687D01*
X75738934Y-70482964D01*
X75738936Y-70482965D01*
X75738937Y-70482967D01*
X75774957Y-70512765D01*
X75779268Y-70516687D01*
X76317396Y-71054815D01*
X76833632Y-71571051D01*
X76867117Y-71632374D01*
X76862133Y-71702066D01*
X76845649Y-71732463D01*
X76832759Y-71749892D01*
X76723515Y-71966565D01*
X76723512Y-71966571D01*
X76652456Y-72198594D01*
X76621635Y-72439281D01*
X76631933Y-72681715D01*
X76631933Y-72681719D01*
X76683056Y-72918929D01*
X76683057Y-72918932D01*
X76773530Y-73144082D01*
X76900757Y-73350713D01*
X77061075Y-73532869D01*
X77061079Y-73532873D01*
X77249870Y-73685311D01*
X77461709Y-73803652D01*
X77461712Y-73803653D01*
X77690507Y-73884491D01*
X77690513Y-73884492D01*
X77929662Y-73925499D01*
X77929670Y-73925499D01*
X77929672Y-73925500D01*
X77929673Y-73925500D01*
X79309559Y-73925500D01*
X79490775Y-73910076D01*
X79490775Y-73910075D01*
X79490782Y-73910075D01*
X79725608Y-73848931D01*
X79725611Y-73848930D01*
X79946713Y-73748986D01*
X79946716Y-73748983D01*
X79946723Y-73748981D01*
X80147765Y-73613100D01*
X80322952Y-73445197D01*
X80467244Y-73250102D01*
X80576488Y-73033429D01*
X80647543Y-72801409D01*
X80678365Y-72560719D01*
X80668066Y-72318281D01*
X80616944Y-72081072D01*
X80526468Y-71855914D01*
X80399242Y-71649286D01*
X80238925Y-71467131D01*
X80238924Y-71467130D01*
X80238920Y-71467126D01*
X80050129Y-71314688D01*
X79838290Y-71196347D01*
X79609500Y-71115511D01*
X79609486Y-71115507D01*
X79370337Y-71074500D01*
X79370328Y-71074500D01*
X78163281Y-71074500D01*
X78096242Y-71054815D01*
X78075600Y-71038181D01*
X77529434Y-70492015D01*
X89669500Y-70492015D01*
X89680000Y-70594795D01*
X89680001Y-70594796D01*
X89735186Y-70761335D01*
X89735187Y-70761337D01*
X89827286Y-70910651D01*
X89827289Y-70910655D01*
X89951344Y-71034710D01*
X89951348Y-71034713D01*
X90100662Y-71126812D01*
X90100664Y-71126813D01*
X90100666Y-71126814D01*
X90267203Y-71181999D01*
X90369992Y-71192500D01*
X92257770Y-71192500D01*
X92324809Y-71212185D01*
X92345451Y-71228819D01*
X94420267Y-73303634D01*
X94432048Y-73317266D01*
X94446390Y-73336530D01*
X94486420Y-73370119D01*
X94490392Y-73373759D01*
X94496223Y-73379590D01*
X94496222Y-73379590D01*
X94518021Y-73396825D01*
X94521944Y-73399927D01*
X94580786Y-73449302D01*
X94580794Y-73449306D01*
X94586824Y-73453273D01*
X94586790Y-73453323D01*
X94593137Y-73457366D01*
X94593169Y-73457316D01*
X94599318Y-73461108D01*
X94599320Y-73461109D01*
X94599323Y-73461111D01*
X94668930Y-73493569D01*
X94737567Y-73528040D01*
X94737576Y-73528042D01*
X94744355Y-73530510D01*
X94744334Y-73530567D01*
X94751451Y-73533040D01*
X94751470Y-73532984D01*
X94758330Y-73535257D01*
X94833532Y-73550784D01*
X94908279Y-73568500D01*
X94908288Y-73568500D01*
X94915452Y-73569338D01*
X94915445Y-73569397D01*
X94922946Y-73570163D01*
X94922952Y-73570104D01*
X94930140Y-73570733D01*
X94930143Y-73570732D01*
X94930144Y-73570733D01*
X95006898Y-73568500D01*
X107712295Y-73568500D01*
X107730265Y-73569809D01*
X107754023Y-73573289D01*
X107806068Y-73568735D01*
X107811470Y-73568500D01*
X107819704Y-73568500D01*
X107819709Y-73568500D01*
X107831327Y-73567141D01*
X107852276Y-73564693D01*
X107865028Y-73563577D01*
X107928797Y-73557999D01*
X107928805Y-73557996D01*
X107935866Y-73556539D01*
X107935878Y-73556598D01*
X107943243Y-73554965D01*
X107943229Y-73554906D01*
X107950246Y-73553241D01*
X107950255Y-73553241D01*
X108022423Y-73526974D01*
X108095334Y-73502814D01*
X108095343Y-73502807D01*
X108101882Y-73499760D01*
X108101908Y-73499816D01*
X108108690Y-73496532D01*
X108108663Y-73496478D01*
X108115106Y-73493240D01*
X108115117Y-73493237D01*
X108179283Y-73451034D01*
X108244656Y-73410712D01*
X108244662Y-73410705D01*
X108250325Y-73406229D01*
X108250362Y-73406277D01*
X108256204Y-73401518D01*
X108256164Y-73401471D01*
X108261691Y-73396832D01*
X108261696Y-73396830D01*
X108305205Y-73350713D01*
X108314386Y-73340981D01*
X109922904Y-71732463D01*
X114785638Y-66869727D01*
X114799267Y-66857950D01*
X114818530Y-66843610D01*
X114818532Y-66843606D01*
X114818534Y-66843606D01*
X114836663Y-66821999D01*
X114852113Y-66803585D01*
X114855767Y-66799599D01*
X114861589Y-66793778D01*
X114881928Y-66768054D01*
X114887162Y-66761815D01*
X114931302Y-66709214D01*
X114931304Y-66709209D01*
X114935272Y-66703179D01*
X114935323Y-66703212D01*
X114939369Y-66696860D01*
X114939317Y-66696828D01*
X114943109Y-66690679D01*
X114943111Y-66690677D01*
X114975569Y-66621069D01*
X115010040Y-66552433D01*
X115010043Y-66552417D01*
X115012510Y-66545644D01*
X115012568Y-66545665D01*
X115015043Y-66538546D01*
X115014985Y-66538527D01*
X115017256Y-66531672D01*
X115032784Y-66456467D01*
X115050500Y-66381720D01*
X115051339Y-66374548D01*
X115051397Y-66374554D01*
X115052164Y-66367056D01*
X115052104Y-66367051D01*
X115052733Y-66359860D01*
X115050500Y-66283103D01*
X115050500Y-50000003D01*
X146994916Y-50000003D01*
X147015235Y-50348869D01*
X147015236Y-50348880D01*
X147075914Y-50693002D01*
X147075916Y-50693011D01*
X147176145Y-51027800D01*
X147314555Y-51348670D01*
X147314561Y-51348683D01*
X147489289Y-51651322D01*
X147697972Y-51931631D01*
X147697976Y-51931636D01*
X147706147Y-51940297D01*
X147706149Y-51940298D01*
X148702266Y-50944180D01*
X148865130Y-51134870D01*
X149055818Y-51297732D01*
X148062817Y-52290733D01*
X148062818Y-52290734D01*
X148205480Y-52410442D01*
X148497461Y-52602480D01*
X148809739Y-52759314D01*
X148809745Y-52759316D01*
X149138130Y-52878838D01*
X149138133Y-52878839D01*
X149478171Y-52959429D01*
X149825276Y-52999999D01*
X149825277Y-53000000D01*
X150174723Y-53000000D01*
X150174723Y-52999999D01*
X150521827Y-52959429D01*
X150521829Y-52959429D01*
X150861866Y-52878839D01*
X150861869Y-52878838D01*
X151190254Y-52759316D01*
X151190260Y-52759314D01*
X151502538Y-52602480D01*
X151794515Y-52410445D01*
X151937180Y-52290734D01*
X151937181Y-52290733D01*
X150944180Y-51297733D01*
X151134870Y-51134870D01*
X151297733Y-50944180D01*
X152293850Y-51940297D01*
X152302032Y-51931625D01*
X152510710Y-51651322D01*
X152685438Y-51348683D01*
X152685444Y-51348670D01*
X152823854Y-51027800D01*
X152924083Y-50693011D01*
X152924085Y-50693002D01*
X152984763Y-50348880D01*
X152984764Y-50348869D01*
X153005084Y-50000003D01*
X153005084Y-49999996D01*
X152984764Y-49651130D01*
X152984763Y-49651119D01*
X152924085Y-49306997D01*
X152924083Y-49306988D01*
X152823854Y-48972199D01*
X152685444Y-48651329D01*
X152685438Y-48651316D01*
X152510710Y-48348677D01*
X152302029Y-48068371D01*
X152293850Y-48059701D01*
X152293850Y-48059700D01*
X151297732Y-49055818D01*
X151134870Y-48865130D01*
X150944180Y-48702266D01*
X151937181Y-47709265D01*
X151937180Y-47709264D01*
X151794519Y-47589557D01*
X151502538Y-47397519D01*
X151190260Y-47240685D01*
X151190254Y-47240683D01*
X150861869Y-47121161D01*
X150861866Y-47121160D01*
X150521828Y-47040570D01*
X150174723Y-47000000D01*
X149825277Y-47000000D01*
X149478172Y-47040570D01*
X149478170Y-47040570D01*
X149138133Y-47121160D01*
X149138130Y-47121161D01*
X148809745Y-47240683D01*
X148809739Y-47240685D01*
X148497461Y-47397519D01*
X148205485Y-47589554D01*
X148062817Y-47709264D01*
X149055819Y-48702266D01*
X148865130Y-48865130D01*
X148702266Y-49055819D01*
X147706148Y-48059701D01*
X147706146Y-48059701D01*
X147697973Y-48068366D01*
X147489289Y-48348677D01*
X147314561Y-48651316D01*
X147314555Y-48651329D01*
X147176145Y-48972199D01*
X147075916Y-49306988D01*
X147075914Y-49306997D01*
X147015236Y-49651119D01*
X147015235Y-49651130D01*
X146994916Y-49999996D01*
X146994916Y-50000003D01*
X115050500Y-50000003D01*
X115050500Y-46703258D01*
X115070185Y-46636219D01*
X115098338Y-46605405D01*
X115137542Y-46574890D01*
X115244308Y-46491792D01*
X115400269Y-46322373D01*
X115526217Y-46129595D01*
X115618717Y-45918716D01*
X115675246Y-45695488D01*
X115687460Y-45548090D01*
X115694262Y-45466005D01*
X115694262Y-45465994D01*
X115675246Y-45236515D01*
X115675246Y-45236512D01*
X115618717Y-45013284D01*
X115526217Y-44802405D01*
X115454237Y-44692231D01*
X115400271Y-44609629D01*
X115373355Y-44580390D01*
X115244308Y-44440208D01*
X115170511Y-44382770D01*
X115062591Y-44298772D01*
X114860069Y-44189172D01*
X114860061Y-44189169D01*
X114642274Y-44114402D01*
X114471920Y-44085975D01*
X114415137Y-44076500D01*
X114184863Y-44076500D01*
X114139436Y-44084080D01*
X113957725Y-44114402D01*
X113739938Y-44189169D01*
X113739930Y-44189172D01*
X113537408Y-44298772D01*
X113355694Y-44440206D01*
X113355689Y-44440211D01*
X113199728Y-44609629D01*
X113073782Y-44802405D01*
X112981282Y-45013285D01*
X112924753Y-45236515D01*
X112905738Y-45465994D01*
X112905738Y-45466005D01*
X112924753Y-45695484D01*
X112981282Y-45918714D01*
X113073782Y-46129594D01*
X113199728Y-46322370D01*
X113199731Y-46322373D01*
X113355692Y-46491792D01*
X113410642Y-46534561D01*
X113501662Y-46605405D01*
X113542475Y-46662115D01*
X113549500Y-46703258D01*
X113549500Y-65931770D01*
X113529815Y-65998809D01*
X113513181Y-66019451D01*
X107501451Y-72031181D01*
X107440128Y-72064666D01*
X107413770Y-72067500D01*
X95358230Y-72067500D01*
X95291191Y-72047815D01*
X95270549Y-72031181D01*
X93406819Y-70167451D01*
X93373334Y-70106128D01*
X93370500Y-70079770D01*
X93370500Y-69342001D01*
X94665274Y-69342001D01*
X94684152Y-69605960D01*
X94740400Y-69864528D01*
X94832884Y-70112487D01*
X94959701Y-70344735D01*
X94959706Y-70344743D01*
X95047038Y-70461406D01*
X95047039Y-70461406D01*
X95768766Y-69739679D01*
X95812316Y-69821822D01*
X95932009Y-69962735D01*
X96079195Y-70074623D01*
X96121402Y-70094150D01*
X95400592Y-70814959D01*
X95400593Y-70814960D01*
X95517256Y-70902293D01*
X95517264Y-70902298D01*
X95749513Y-71029115D01*
X95749512Y-71029115D01*
X95997471Y-71121599D01*
X96256039Y-71177847D01*
X96519999Y-71196726D01*
X96520001Y-71196726D01*
X96783960Y-71177847D01*
X97042528Y-71121599D01*
X97290487Y-71029115D01*
X97522735Y-70902298D01*
X97522736Y-70902297D01*
X97639406Y-70814959D01*
X96918609Y-70094161D01*
X97037431Y-70022669D01*
X97171658Y-69895523D01*
X97274861Y-69743308D01*
X97992959Y-70461406D01*
X98080297Y-70344736D01*
X98080298Y-70344735D01*
X98207115Y-70112487D01*
X98299599Y-69864528D01*
X98355847Y-69605960D01*
X98374726Y-69342001D01*
X98374726Y-69341998D01*
X98355847Y-69078039D01*
X98299599Y-68819471D01*
X98207115Y-68571512D01*
X98080298Y-68339264D01*
X98080293Y-68339256D01*
X97992960Y-68222593D01*
X97992959Y-68222592D01*
X97271232Y-68944319D01*
X97227684Y-68862178D01*
X97107991Y-68721265D01*
X96960805Y-68609377D01*
X96918596Y-68589849D01*
X97639406Y-67869039D01*
X97639406Y-67869038D01*
X97522743Y-67781706D01*
X97522735Y-67781701D01*
X97290486Y-67654884D01*
X97290487Y-67654884D01*
X97042528Y-67562400D01*
X96783960Y-67506152D01*
X96520001Y-67487274D01*
X96519999Y-67487274D01*
X96256039Y-67506152D01*
X95997471Y-67562400D01*
X95749512Y-67654884D01*
X95517264Y-67781701D01*
X95400593Y-67869039D01*
X96121391Y-68589837D01*
X96002569Y-68661331D01*
X95868342Y-68788477D01*
X95765138Y-68940692D01*
X95047039Y-68222593D01*
X94959701Y-68339264D01*
X94832884Y-68571512D01*
X94740400Y-68819471D01*
X94684152Y-69078039D01*
X94665274Y-69341998D01*
X94665274Y-69342001D01*
X93370500Y-69342001D01*
X93370500Y-68191997D01*
X93370499Y-68191984D01*
X93362037Y-68109158D01*
X93359999Y-68089203D01*
X93304814Y-67922666D01*
X93302420Y-67918785D01*
X93212713Y-67773348D01*
X93212710Y-67773344D01*
X93088655Y-67649289D01*
X93088651Y-67649286D01*
X92939337Y-67557187D01*
X92939335Y-67557186D01*
X92856065Y-67529593D01*
X92772797Y-67502001D01*
X92772795Y-67502000D01*
X92670015Y-67491500D01*
X92670008Y-67491500D01*
X90369992Y-67491500D01*
X90369984Y-67491500D01*
X90267204Y-67502000D01*
X90267203Y-67502001D01*
X90100664Y-67557186D01*
X90100662Y-67557187D01*
X89951348Y-67649286D01*
X89951344Y-67649289D01*
X89827289Y-67773344D01*
X89827286Y-67773348D01*
X89735187Y-67922662D01*
X89735186Y-67922664D01*
X89680001Y-68089203D01*
X89680000Y-68089204D01*
X89669500Y-68191984D01*
X89669500Y-70492015D01*
X77529434Y-70492015D01*
X76863819Y-69826400D01*
X76830334Y-69765077D01*
X76827500Y-69738719D01*
X76827500Y-68595298D01*
X76847185Y-68528259D01*
X76899989Y-68482504D01*
X76969147Y-68472560D01*
X77032703Y-68501585D01*
X77044584Y-68513375D01*
X77061423Y-68532508D01*
X77061426Y-68532511D01*
X77250144Y-68684890D01*
X77250150Y-68684894D01*
X77461917Y-68803194D01*
X77690629Y-68884003D01*
X77690637Y-68884005D01*
X77929706Y-68924999D01*
X77929715Y-68925000D01*
X78400000Y-68925000D01*
X78400000Y-68104310D01*
X78408817Y-68109158D01*
X78567886Y-68150000D01*
X78690894Y-68150000D01*
X78812933Y-68134583D01*
X78900000Y-68100110D01*
X78900000Y-68925000D01*
X79309539Y-68925000D01*
X79490692Y-68909582D01*
X79725440Y-68848458D01*
X79946472Y-68748546D01*
X79946480Y-68748541D01*
X80147450Y-68612708D01*
X80147453Y-68612706D01*
X80322575Y-68444864D01*
X80322576Y-68444863D01*
X80466813Y-68249843D01*
X80576021Y-68033242D01*
X80647053Y-67801299D01*
X80653622Y-67750000D01*
X79250728Y-67750000D01*
X79273100Y-67702457D01*
X79303873Y-67541138D01*
X79293561Y-67377234D01*
X79252220Y-67250000D01*
X80652839Y-67250000D01*
X80616463Y-67081217D01*
X80616462Y-67081214D01*
X80526021Y-66856143D01*
X80398838Y-66649584D01*
X80238577Y-66467492D01*
X80238573Y-66467488D01*
X80049855Y-66315109D01*
X80049849Y-66315105D01*
X79838082Y-66196805D01*
X79609370Y-66115996D01*
X79609362Y-66115994D01*
X79370293Y-66075000D01*
X78900000Y-66075000D01*
X78900000Y-66895689D01*
X78891183Y-66890842D01*
X78732114Y-66850000D01*
X78609106Y-66850000D01*
X78487067Y-66865417D01*
X78400000Y-66899889D01*
X78400000Y-66075000D01*
X77990461Y-66075000D01*
X77809307Y-66090417D01*
X77574559Y-66151541D01*
X77353527Y-66251453D01*
X77353519Y-66251458D01*
X77152549Y-66387291D01*
X77152547Y-66387293D01*
X77037300Y-66497749D01*
X76975280Y-66529924D01*
X76905710Y-66523462D01*
X76850678Y-66480413D01*
X76827656Y-66414445D01*
X76827500Y-66408226D01*
X76827500Y-58892208D01*
X76847185Y-58825169D01*
X76899989Y-58779414D01*
X76969147Y-58769470D01*
X77032703Y-58798495D01*
X77044576Y-58810277D01*
X77140075Y-58918785D01*
X77140076Y-58918786D01*
X77140079Y-58918789D01*
X77324102Y-59067377D01*
X77530594Y-59182730D01*
X77753611Y-59261527D01*
X77753617Y-59261528D01*
X77986726Y-59301499D01*
X77986734Y-59301499D01*
X77986736Y-59301500D01*
X77986737Y-59301500D01*
X79942033Y-59301500D01*
X80118671Y-59286466D01*
X80118674Y-59286465D01*
X80118676Y-59286465D01*
X80347571Y-59226865D01*
X80563102Y-59129439D01*
X80759068Y-58996990D01*
X80929831Y-58833327D01*
X81070478Y-58643159D01*
X81176964Y-58431957D01*
X81246224Y-58205797D01*
X81276267Y-57971185D01*
X81271239Y-57852815D01*
X93475733Y-57852815D01*
X93485770Y-58089125D01*
X93485770Y-58089126D01*
X93535603Y-58320348D01*
X93623791Y-58539816D01*
X93747806Y-58741229D01*
X93904075Y-58918785D01*
X93904079Y-58918789D01*
X94088102Y-59067377D01*
X94294594Y-59182730D01*
X94517611Y-59261527D01*
X94517617Y-59261528D01*
X94750726Y-59301499D01*
X94750734Y-59301499D01*
X94750736Y-59301500D01*
X94750737Y-59301500D01*
X96706033Y-59301500D01*
X96882671Y-59286466D01*
X96882674Y-59286465D01*
X96882676Y-59286465D01*
X97111571Y-59226865D01*
X97327102Y-59129439D01*
X97523068Y-58996990D01*
X97693831Y-58833327D01*
X97834478Y-58643159D01*
X97940964Y-58431957D01*
X98010224Y-58205797D01*
X98040267Y-57971185D01*
X98030229Y-57734871D01*
X97980397Y-57503652D01*
X97892207Y-57284180D01*
X97768193Y-57082770D01*
X97611925Y-56905215D01*
X97611924Y-56905214D01*
X97611920Y-56905210D01*
X97427897Y-56756622D01*
X97413102Y-56748357D01*
X97364177Y-56698476D01*
X97349985Y-56630063D01*
X97375034Y-56564838D01*
X97404136Y-56537372D01*
X97523068Y-56456990D01*
X97693831Y-56293327D01*
X97834478Y-56103159D01*
X97940964Y-55891957D01*
X98010224Y-55665797D01*
X98040267Y-55431185D01*
X98030229Y-55194871D01*
X97980397Y-54963652D01*
X97892207Y-54744180D01*
X97768193Y-54542770D01*
X97611925Y-54365215D01*
X97611924Y-54365214D01*
X97611920Y-54365210D01*
X97427897Y-54216622D01*
X97413102Y-54208357D01*
X97364177Y-54158476D01*
X97349985Y-54090063D01*
X97375034Y-54024838D01*
X97404136Y-53997372D01*
X97523068Y-53916990D01*
X97693831Y-53753327D01*
X97834478Y-53563159D01*
X97940964Y-53351957D01*
X98010224Y-53125797D01*
X98040267Y-52891185D01*
X98030229Y-52654871D01*
X97980397Y-52423652D01*
X97892207Y-52204180D01*
X97768193Y-52002770D01*
X97611925Y-51825215D01*
X97611924Y-51825214D01*
X97611920Y-51825210D01*
X97427897Y-51676622D01*
X97413102Y-51668357D01*
X97364177Y-51618476D01*
X97349985Y-51550063D01*
X97375034Y-51484838D01*
X97404136Y-51457372D01*
X97523068Y-51376990D01*
X97693831Y-51213327D01*
X97834478Y-51023159D01*
X97940964Y-50811957D01*
X98010224Y-50585797D01*
X98040267Y-50351185D01*
X98030229Y-50114871D01*
X98005473Y-50000003D01*
X106994415Y-50000003D01*
X107014738Y-50348927D01*
X107014739Y-50348938D01*
X107075428Y-50693127D01*
X107075430Y-50693134D01*
X107175674Y-51027972D01*
X107314107Y-51348895D01*
X107314113Y-51348908D01*
X107488870Y-51651597D01*
X107697584Y-51931949D01*
X107697589Y-51931955D01*
X107764400Y-52002770D01*
X107937442Y-52186183D01*
X108113903Y-52334251D01*
X108205186Y-52410847D01*
X108205194Y-52410853D01*
X108497203Y-52602911D01*
X108497207Y-52602913D01*
X108809549Y-52759777D01*
X109137989Y-52879319D01*
X109478086Y-52959923D01*
X109825241Y-53000500D01*
X109825248Y-53000500D01*
X110174752Y-53000500D01*
X110174759Y-53000500D01*
X110521914Y-52959923D01*
X110862011Y-52879319D01*
X111190451Y-52759777D01*
X111502793Y-52602913D01*
X111794811Y-52410849D01*
X112062558Y-52186183D01*
X112302412Y-51931953D01*
X112511130Y-51651596D01*
X112685889Y-51348904D01*
X112824326Y-51027971D01*
X112924569Y-50693136D01*
X112943497Y-50585793D01*
X112985260Y-50348938D01*
X112985259Y-50348938D01*
X112985262Y-50348927D01*
X113005585Y-50000000D01*
X113005480Y-49998203D01*
X113001554Y-49930796D01*
X112985262Y-49651073D01*
X112959337Y-49504044D01*
X112924571Y-49306872D01*
X112924569Y-49306865D01*
X112924420Y-49306366D01*
X112824326Y-48972029D01*
X112685889Y-48651096D01*
X112511130Y-48348404D01*
X112483805Y-48311700D01*
X112302415Y-48068050D01*
X112302410Y-48068044D01*
X112171349Y-47929129D01*
X112062558Y-47813817D01*
X111838326Y-47625664D01*
X111794813Y-47589152D01*
X111794805Y-47589146D01*
X111502796Y-47397088D01*
X111190458Y-47240226D01*
X111190452Y-47240223D01*
X110862012Y-47120681D01*
X110862009Y-47120680D01*
X110521915Y-47040077D01*
X110478519Y-47035004D01*
X110174759Y-46999500D01*
X109825241Y-46999500D01*
X109521480Y-47035004D01*
X109478085Y-47040077D01*
X109478083Y-47040077D01*
X109137990Y-47120680D01*
X109137987Y-47120681D01*
X108809547Y-47240223D01*
X108809541Y-47240226D01*
X108497203Y-47397088D01*
X108205194Y-47589146D01*
X108205186Y-47589152D01*
X107937442Y-47813817D01*
X107937440Y-47813819D01*
X107697589Y-48068044D01*
X107697584Y-48068050D01*
X107488870Y-48348402D01*
X107314113Y-48651091D01*
X107314107Y-48651104D01*
X107175674Y-48972027D01*
X107075430Y-49306865D01*
X107075428Y-49306872D01*
X107014739Y-49651061D01*
X107014738Y-49651072D01*
X106994415Y-49999996D01*
X106994415Y-50000003D01*
X98005473Y-50000003D01*
X97980397Y-49883652D01*
X97892207Y-49664180D01*
X97768193Y-49462770D01*
X97611925Y-49285215D01*
X97611924Y-49285214D01*
X97611920Y-49285210D01*
X97427897Y-49136622D01*
X97413102Y-49128357D01*
X97364177Y-49078476D01*
X97349985Y-49010063D01*
X97375034Y-48944838D01*
X97404136Y-48917372D01*
X97523068Y-48836990D01*
X97693831Y-48673327D01*
X97834478Y-48483159D01*
X97940964Y-48271957D01*
X98010224Y-48045797D01*
X98040267Y-47811185D01*
X98030229Y-47574871D01*
X97980397Y-47343652D01*
X97892207Y-47124180D01*
X97768193Y-46922770D01*
X97611925Y-46745215D01*
X97611924Y-46745214D01*
X97611920Y-46745210D01*
X97427896Y-46596621D01*
X97427894Y-46596620D01*
X97412614Y-46588084D01*
X97363688Y-46538204D01*
X97349496Y-46469791D01*
X97374544Y-46404565D01*
X97403653Y-46377095D01*
X97522744Y-46296604D01*
X97522751Y-46296598D01*
X97693454Y-46132993D01*
X97834047Y-45942898D01*
X97940498Y-45731768D01*
X98009734Y-45505690D01*
X98015329Y-45462000D01*
X95439196Y-45462000D01*
X95462845Y-45425201D01*
X95504000Y-45285039D01*
X95504000Y-45138961D01*
X95462845Y-44998799D01*
X95439196Y-44962000D01*
X98014012Y-44962000D01*
X97979916Y-44803798D01*
X97979916Y-44803797D01*
X97891758Y-44584407D01*
X97767788Y-44383066D01*
X97611581Y-44205581D01*
X97611579Y-44205579D01*
X97427617Y-44057039D01*
X97427613Y-44057036D01*
X97412639Y-44048671D01*
X97363713Y-43998791D01*
X97349521Y-43930378D01*
X97374569Y-43865153D01*
X97403674Y-43837685D01*
X97523068Y-43756990D01*
X97693831Y-43593327D01*
X97834478Y-43403159D01*
X97940964Y-43191957D01*
X98010224Y-42965797D01*
X98040267Y-42731185D01*
X98037975Y-42677238D01*
X98030229Y-42494874D01*
X98030229Y-42494873D01*
X98030229Y-42494871D01*
X97980397Y-42263652D01*
X97892207Y-42044180D01*
X97768193Y-41842770D01*
X97611925Y-41665215D01*
X97611924Y-41665214D01*
X97611920Y-41665210D01*
X97427897Y-41516622D01*
X97221409Y-41401271D01*
X96998392Y-41322474D01*
X96998382Y-41322471D01*
X96765273Y-41282500D01*
X96765264Y-41282500D01*
X94809972Y-41282500D01*
X94809967Y-41282500D01*
X94633328Y-41297533D01*
X94404429Y-41357134D01*
X94188904Y-41454557D01*
X94188898Y-41454560D01*
X93992939Y-41587004D01*
X93992932Y-41587010D01*
X93822168Y-41750674D01*
X93681524Y-41940838D01*
X93681521Y-41940842D01*
X93575039Y-42152037D01*
X93575036Y-42152043D01*
X93505775Y-42378206D01*
X93475733Y-42612815D01*
X93485770Y-42849125D01*
X93485770Y-42849126D01*
X93535603Y-43080348D01*
X93587357Y-43209146D01*
X93623793Y-43299820D01*
X93687421Y-43403157D01*
X93747806Y-43501229D01*
X93904075Y-43678785D01*
X93904079Y-43678789D01*
X94088103Y-43827378D01*
X94088105Y-43827379D01*
X94103383Y-43835914D01*
X94152310Y-43885793D01*
X94166503Y-43954206D01*
X94141456Y-44019432D01*
X94112347Y-44046903D01*
X93993258Y-44127393D01*
X93993248Y-44127401D01*
X93822545Y-44291006D01*
X93681952Y-44481101D01*
X93575501Y-44692231D01*
X93506265Y-44918309D01*
X93500671Y-44962000D01*
X94552804Y-44962000D01*
X94529155Y-44998799D01*
X94488000Y-45138961D01*
X94488000Y-45285039D01*
X94529155Y-45425201D01*
X94552804Y-45462000D01*
X93501988Y-45462000D01*
X93536083Y-45620201D01*
X93536083Y-45620202D01*
X93624241Y-45839592D01*
X93748211Y-46040933D01*
X93904418Y-46218418D01*
X93904420Y-46218420D01*
X94088382Y-46366960D01*
X94088387Y-46366963D01*
X94103358Y-46375327D01*
X94152285Y-46425206D01*
X94166478Y-46493619D01*
X94141431Y-46558845D01*
X94112322Y-46586316D01*
X93992941Y-46667002D01*
X93992932Y-46667010D01*
X93955112Y-46703258D01*
X93822168Y-46830674D01*
X93681524Y-47020838D01*
X93681521Y-47020842D01*
X93575039Y-47232037D01*
X93575036Y-47232043D01*
X93505775Y-47458206D01*
X93475733Y-47692815D01*
X93485770Y-47929125D01*
X93485770Y-47929126D01*
X93535603Y-48160348D01*
X93591499Y-48299454D01*
X93623793Y-48379820D01*
X93645339Y-48414812D01*
X93747806Y-48581229D01*
X93904075Y-48758785D01*
X93904079Y-48758789D01*
X94035780Y-48865130D01*
X94088102Y-48907377D01*
X94102892Y-48915639D01*
X94151819Y-48965516D01*
X94166014Y-49033928D01*
X94140970Y-49099155D01*
X94111858Y-49126629D01*
X93992942Y-49207002D01*
X93992932Y-49207010D01*
X93822168Y-49370674D01*
X93681524Y-49560838D01*
X93681521Y-49560842D01*
X93575039Y-49772037D01*
X93575036Y-49772043D01*
X93505775Y-49998206D01*
X93475733Y-50232815D01*
X93485770Y-50469125D01*
X93485770Y-50469126D01*
X93535603Y-50700348D01*
X93615187Y-50898405D01*
X93623793Y-50919820D01*
X93668100Y-50991779D01*
X93747806Y-51121229D01*
X93904075Y-51298785D01*
X93904079Y-51298789D01*
X94088102Y-51447377D01*
X94102892Y-51455639D01*
X94151819Y-51505516D01*
X94166014Y-51573928D01*
X94140970Y-51639155D01*
X94111858Y-51666629D01*
X93992942Y-51747002D01*
X93992932Y-51747010D01*
X93822168Y-51910674D01*
X93681524Y-52100838D01*
X93681521Y-52100842D01*
X93575039Y-52312037D01*
X93575036Y-52312043D01*
X93505775Y-52538206D01*
X93475733Y-52772815D01*
X93485770Y-53009125D01*
X93485770Y-53009126D01*
X93535603Y-53240348D01*
X93623791Y-53459816D01*
X93747806Y-53661229D01*
X93904075Y-53838785D01*
X93904079Y-53838789D01*
X94088102Y-53987377D01*
X94102892Y-53995639D01*
X94151819Y-54045516D01*
X94166014Y-54113928D01*
X94140970Y-54179155D01*
X94111858Y-54206629D01*
X93992942Y-54287002D01*
X93992932Y-54287010D01*
X93822168Y-54450674D01*
X93681524Y-54640838D01*
X93681521Y-54640842D01*
X93575039Y-54852037D01*
X93575036Y-54852043D01*
X93505775Y-55078206D01*
X93475733Y-55312815D01*
X93485770Y-55549125D01*
X93485770Y-55549126D01*
X93535603Y-55780348D01*
X93623791Y-55999816D01*
X93747806Y-56201229D01*
X93904075Y-56378785D01*
X93904079Y-56378789D01*
X94088102Y-56527377D01*
X94102892Y-56535639D01*
X94151819Y-56585516D01*
X94166014Y-56653928D01*
X94140970Y-56719155D01*
X94111858Y-56746629D01*
X93992942Y-56827002D01*
X93992932Y-56827010D01*
X93822168Y-56990674D01*
X93681524Y-57180838D01*
X93681521Y-57180842D01*
X93575039Y-57392037D01*
X93575036Y-57392043D01*
X93505775Y-57618206D01*
X93475733Y-57852815D01*
X81271239Y-57852815D01*
X81266229Y-57734871D01*
X81216397Y-57503652D01*
X81128207Y-57284180D01*
X81004193Y-57082770D01*
X80847925Y-56905215D01*
X80847924Y-56905214D01*
X80847920Y-56905210D01*
X80663897Y-56756622D01*
X80649102Y-56748357D01*
X80600177Y-56698476D01*
X80585985Y-56630063D01*
X80611034Y-56564838D01*
X80640136Y-56537372D01*
X80759068Y-56456990D01*
X80929831Y-56293327D01*
X81070478Y-56103159D01*
X81176964Y-55891957D01*
X81246224Y-55665797D01*
X81276267Y-55431185D01*
X81266229Y-55194871D01*
X81216397Y-54963652D01*
X81128207Y-54744180D01*
X81004193Y-54542770D01*
X80847925Y-54365215D01*
X80847924Y-54365214D01*
X80847920Y-54365210D01*
X80663897Y-54216622D01*
X80649102Y-54208357D01*
X80600177Y-54158476D01*
X80585985Y-54090063D01*
X80611034Y-54024838D01*
X80640136Y-53997372D01*
X80759068Y-53916990D01*
X80929831Y-53753327D01*
X81070478Y-53563159D01*
X81176964Y-53351957D01*
X81246224Y-53125797D01*
X81276267Y-52891185D01*
X81266229Y-52654871D01*
X81216397Y-52423652D01*
X81128207Y-52204180D01*
X81004193Y-52002770D01*
X80847925Y-51825215D01*
X80847924Y-51825214D01*
X80847920Y-51825210D01*
X80663897Y-51676622D01*
X80649102Y-51668357D01*
X80600177Y-51618476D01*
X80585985Y-51550063D01*
X80611034Y-51484838D01*
X80640136Y-51457372D01*
X80759068Y-51376990D01*
X80929831Y-51213327D01*
X81070478Y-51023159D01*
X81176964Y-50811957D01*
X81246224Y-50585797D01*
X81276267Y-50351185D01*
X81266229Y-50114871D01*
X81216397Y-49883652D01*
X81128207Y-49664180D01*
X81004193Y-49462770D01*
X80847925Y-49285215D01*
X80847924Y-49285214D01*
X80847920Y-49285210D01*
X80663897Y-49136622D01*
X80649102Y-49128357D01*
X80600177Y-49078476D01*
X80585985Y-49010063D01*
X80611034Y-48944838D01*
X80640136Y-48917372D01*
X80759068Y-48836990D01*
X80929831Y-48673327D01*
X81070478Y-48483159D01*
X81176964Y-48271957D01*
X81246224Y-48045797D01*
X81276267Y-47811185D01*
X81266229Y-47574871D01*
X81216397Y-47343652D01*
X81128207Y-47124180D01*
X81004193Y-46922770D01*
X80847925Y-46745215D01*
X80847924Y-46745214D01*
X80847920Y-46745210D01*
X80663897Y-46596622D01*
X80649102Y-46588357D01*
X80600177Y-46538476D01*
X80585985Y-46470063D01*
X80611034Y-46404838D01*
X80640136Y-46377372D01*
X80759068Y-46296990D01*
X80929831Y-46133327D01*
X81070478Y-45943159D01*
X81176964Y-45731957D01*
X81246224Y-45505797D01*
X81276267Y-45271185D01*
X81266229Y-45034871D01*
X81216397Y-44803652D01*
X81128207Y-44584180D01*
X81004193Y-44382770D01*
X80847925Y-44205215D01*
X80847924Y-44205214D01*
X80847920Y-44205210D01*
X80663897Y-44056622D01*
X80649102Y-44048357D01*
X80600177Y-43998476D01*
X80585985Y-43930063D01*
X80611034Y-43864838D01*
X80640136Y-43837372D01*
X80759068Y-43756990D01*
X80929831Y-43593327D01*
X81070478Y-43403159D01*
X81176964Y-43191957D01*
X81246224Y-42965797D01*
X81276267Y-42731185D01*
X81273975Y-42677238D01*
X81266229Y-42494874D01*
X81266229Y-42494873D01*
X81266229Y-42494871D01*
X81216397Y-42263652D01*
X81128207Y-42044180D01*
X81004193Y-41842770D01*
X80847925Y-41665215D01*
X80847924Y-41665214D01*
X80847920Y-41665210D01*
X80663897Y-41516622D01*
X80457409Y-41401271D01*
X80234392Y-41322474D01*
X80234382Y-41322471D01*
X80001273Y-41282500D01*
X80001264Y-41282500D01*
X78045972Y-41282500D01*
X78045967Y-41282500D01*
X77869328Y-41297533D01*
X77640429Y-41357134D01*
X77424904Y-41454557D01*
X77424898Y-41454560D01*
X77228939Y-41587004D01*
X77228932Y-41587010D01*
X77058168Y-41750674D01*
X76917524Y-41940838D01*
X76917521Y-41940842D01*
X76811039Y-42152037D01*
X76811036Y-42152043D01*
X76741775Y-42378206D01*
X76711733Y-42612815D01*
X76714469Y-42677238D01*
X76697648Y-42745052D01*
X76646833Y-42793007D01*
X76590581Y-42806500D01*
X76271038Y-42806500D01*
X76247802Y-42804303D01*
X76239722Y-42802761D01*
X76239712Y-42802761D01*
X76230770Y-42803323D01*
X76182212Y-42806378D01*
X76178340Y-42806500D01*
X76160515Y-42806500D01*
X76142841Y-42808733D01*
X76138967Y-42809098D01*
X76127922Y-42809793D01*
X76081481Y-42812716D01*
X76081478Y-42812716D01*
X76073641Y-42815263D01*
X76050878Y-42820351D01*
X76046002Y-42820967D01*
X76042706Y-42821384D01*
X76042705Y-42821384D01*
X75989147Y-42842589D01*
X75985483Y-42843908D01*
X75930699Y-42861708D01*
X75930694Y-42861710D01*
X75923740Y-42866124D01*
X75902960Y-42876712D01*
X75895302Y-42879744D01*
X75895295Y-42879748D01*
X75848681Y-42913614D01*
X75845460Y-42915803D01*
X75796839Y-42946659D01*
X75796831Y-42946665D01*
X75791192Y-42952670D01*
X75773697Y-42968094D01*
X75767035Y-42972934D01*
X75730317Y-43017316D01*
X75727743Y-43020235D01*
X75688310Y-43062228D01*
X75688306Y-43062234D01*
X75684332Y-43069462D01*
X75671226Y-43088747D01*
X75665973Y-43095097D01*
X75665971Y-43095100D01*
X75641455Y-43147199D01*
X75639688Y-43150667D01*
X75611929Y-43201162D01*
X75611928Y-43201165D01*
X75609879Y-43209146D01*
X75601977Y-43231094D01*
X75598468Y-43238550D01*
X75587679Y-43295112D01*
X75586829Y-43298912D01*
X75572501Y-43354721D01*
X75572500Y-43354729D01*
X75572500Y-43362961D01*
X75570304Y-43386196D01*
X75568761Y-43394283D01*
X75568761Y-43394286D01*
X60000500Y-43394286D01*
X60000500Y-40124500D01*
X60020185Y-40057461D01*
X60072989Y-40011706D01*
X60124500Y-40000500D01*
X159875500Y-40000500D01*
X159942539Y-40020185D01*
G37*
%TD.AperFunction*%
%TD*%
M02*
