%TF.GenerationSoftware,KiCad,Pcbnew,7.0.9*%
%TF.CreationDate,2024-02-04T13:50:24-08:00*%
%TF.ProjectId,Sensing Device,53656e73-696e-4672-9044-65766963652e,rev?*%
%TF.SameCoordinates,Original*%
%TF.FileFunction,Copper,L2,Bot*%
%TF.FilePolarity,Positive*%
%FSLAX46Y46*%
G04 Gerber Fmt 4.6, Leading zero omitted, Abs format (unit mm)*
G04 Created by KiCad (PCBNEW 7.0.9) date 2024-02-04 13:50:24*
%MOMM*%
%LPD*%
G01*
G04 APERTURE LIST*
G04 Aperture macros list*
%AMRoundRect*
0 Rectangle with rounded corners*
0 $1 Rounding radius*
0 $2 $3 $4 $5 $6 $7 $8 $9 X,Y pos of 4 corners*
0 Add a 4 corners polygon primitive as box body*
4,1,4,$2,$3,$4,$5,$6,$7,$8,$9,$2,$3,0*
0 Add four circle primitives for the rounded corners*
1,1,$1+$1,$2,$3*
1,1,$1+$1,$4,$5*
1,1,$1+$1,$6,$7*
1,1,$1+$1,$8,$9*
0 Add four rect primitives between the rounded corners*
20,1,$1+$1,$2,$3,$4,$5,0*
20,1,$1+$1,$4,$5,$6,$7,0*
20,1,$1+$1,$6,$7,$8,$9,0*
20,1,$1+$1,$8,$9,$2,$3,0*%
G04 Aperture macros list end*
%TA.AperFunction,ComponentPad*%
%ADD10O,3.556000X1.778000*%
%TD*%
%TA.AperFunction,ComponentPad*%
%ADD11RoundRect,0.250001X-1.099999X-1.099999X1.099999X-1.099999X1.099999X1.099999X-1.099999X1.099999X0*%
%TD*%
%TA.AperFunction,ComponentPad*%
%ADD12C,2.700000*%
%TD*%
%TA.AperFunction,ComponentPad*%
%ADD13O,3.048000X1.850000*%
%TD*%
%TA.AperFunction,ComponentPad*%
%ADD14C,1.320800*%
%TD*%
%TA.AperFunction,ComponentPad*%
%ADD15C,2.006600*%
%TD*%
%TA.AperFunction,ComponentPad*%
%ADD16C,5.000000*%
%TD*%
%TA.AperFunction,ViaPad*%
%ADD17C,1.778000*%
%TD*%
%TA.AperFunction,Conductor*%
%ADD18C,0.500000*%
%TD*%
%TA.AperFunction,Conductor*%
%ADD19C,0.254000*%
%TD*%
G04 APERTURE END LIST*
D10*
%TO.P,U1,1,GPIO1_A0_D0*%
%TO.N,/Button*%
X78994000Y-42672000D03*
%TO.P,U1,2,GPIO2_A1_D1*%
%TO.N,unconnected-(U1-GPIO2_A1_D1-Pad2)*%
X78994000Y-45212000D03*
%TO.P,U1,3,GPIO3_A2_D2*%
%TO.N,unconnected-(U1-GPIO3_A2_D2-Pad3)*%
X78994000Y-47752000D03*
%TO.P,U1,4,GPIO4_A3_D3*%
%TO.N,/LED*%
X78994000Y-50292000D03*
%TO.P,U1,5,GPIO4_A3_D3_SDA*%
%TO.N,/SDA_XIAO*%
X78994000Y-52832000D03*
%TO.P,U1,6,GPIO6_A5_D5_SCL*%
%TO.N,/SCL_XIAO*%
X78994000Y-55372000D03*
%TO.P,U1,7,GPIO43_TX_D6*%
%TO.N,unconnected-(U1-GPIO43_TX_D6-Pad7)*%
X78994000Y-57912000D03*
%TO.P,U1,8,5V*%
%TO.N,unconnected-(U1-5V-Pad8)*%
X95758000Y-42672000D03*
%TO.P,U1,9,GND*%
%TO.N,GND*%
X95758000Y-45212000D03*
%TO.P,U1,10,3V3*%
%TO.N,/3V3*%
X95758000Y-47752000D03*
%TO.P,U1,11,GPIO9_A10_D10_COPI*%
%TO.N,unconnected-(U1-GPIO9_A10_D10_COPI-Pad11)*%
X95758000Y-50292000D03*
%TO.P,U1,12,GPIO8_A9_D9_CIPO*%
%TO.N,unconnected-(U1-GPIO8_A9_D9_CIPO-Pad12)*%
X95758000Y-52832000D03*
%TO.P,U1,13,GPIO7_A8_D8_SCK*%
%TO.N,/Id*%
X95758000Y-55372000D03*
%TO.P,U1,14,GPIO44_D7_RX*%
%TO.N,unconnected-(U1-GPIO44_D7_RX-Pad14)*%
X95758000Y-57912000D03*
%TD*%
D11*
%TO.P,J1,1,Pin_1*%
%TO.N,VCC*%
X91520000Y-69342000D03*
D12*
%TO.P,J1,2,Pin_2*%
%TO.N,GND*%
X96520000Y-69342000D03*
%TD*%
D13*
%TO.P,SW1,1,A*%
%TO.N,GND*%
X64760000Y-67500000D03*
X77260000Y-67500000D03*
%TO.P,SW1,2,B*%
%TO.N,/Button*%
X64760000Y-72500000D03*
X77260000Y-72500000D03*
%TD*%
D14*
%TO.P,SW2,1,A*%
%TO.N,VCC*%
X91764099Y-98044000D03*
%TO.P,SW2,2,B*%
%TO.N,Net-(BT1-+)*%
X93764100Y-98044000D03*
%TO.P,SW2,3,C*%
%TO.N,unconnected-(SW2-C-Pad3)*%
X95764101Y-98044000D03*
D15*
%TO.P,SW2,4*%
%TO.N,N/C*%
X89662000Y-98044000D03*
%TO.P,SW2,5*%
X97866200Y-98044000D03*
%TD*%
D16*
%TO.P,J2,1,Pin_1*%
%TO.N,/Id*%
X110000000Y-50000000D03*
%TO.P,J2,2,Pin_2*%
%TO.N,GND*%
X150000000Y-50000000D03*
%TO.P,J2,3*%
%TO.N,N/C*%
X110000000Y-90000000D03*
%TO.P,J2,4*%
X150000000Y-90000000D03*
%TD*%
D17*
%TO.N,GND*%
X84074000Y-72898000D03*
%TO.N,Net-(BT1-+)*%
X87376000Y-91948000D03*
%TO.N,/3V3*%
X77978000Y-83312000D03*
%TO.N,Net-(C1-Pad1)*%
X133080000Y-52832000D03*
X115062000Y-75946000D03*
%TD*%
D18*
%TO.N,GND*%
X84074000Y-72898000D02*
X82658000Y-72898000D01*
X82658000Y-72898000D02*
X77260000Y-67500000D01*
X78662000Y-67488000D02*
X94666000Y-67488000D01*
X94666000Y-67488000D02*
X96520000Y-69342000D01*
X78650000Y-67500000D02*
X78662000Y-67488000D01*
%TO.N,Net-(BT1-+)*%
X87668100Y-91948000D02*
X93764100Y-98044000D01*
X87376000Y-91948000D02*
X87668100Y-91948000D01*
D19*
%TO.N,/Button*%
X76962000Y-42672000D02*
X79756000Y-42672000D01*
X77260000Y-72500000D02*
X75355000Y-70595000D01*
X75355000Y-70595000D02*
X75355000Y-44279000D01*
X75355000Y-44279000D02*
X76962000Y-42672000D01*
X78994000Y-43434000D02*
X79756000Y-42672000D01*
D18*
%TO.N,/3V3*%
X77978000Y-80010000D02*
X72898000Y-74930000D01*
X72898000Y-74930000D02*
X72898000Y-44450000D01*
X76454000Y-40894000D02*
X86360000Y-40894000D01*
X93218000Y-47752000D02*
X94996000Y-47752000D01*
X86360000Y-40894000D02*
X93218000Y-47752000D01*
X77978000Y-83312000D02*
X77978000Y-80010000D01*
X72898000Y-44450000D02*
X76454000Y-40894000D01*
D19*
%TO.N,Net-(C1-Pad1)*%
X133080000Y-52832000D02*
X130302000Y-52832000D01*
X115062000Y-68072000D02*
X115062000Y-75946000D01*
X130302000Y-52832000D02*
X115062000Y-68072000D01*
%TD*%
%TA.AperFunction,Conductor*%
%TO.N,GND*%
G36*
X150592465Y-35015513D02*
G01*
X150761046Y-35019928D01*
X150764058Y-35020082D01*
X151225934Y-35055256D01*
X151531324Y-35079291D01*
X151534174Y-35079584D01*
X151966529Y-35134648D01*
X152297467Y-35178217D01*
X152300218Y-35178644D01*
X152710895Y-35252251D01*
X152717885Y-35253504D01*
X153057441Y-35316437D01*
X153060150Y-35317002D01*
X153467349Y-35411494D01*
X153810612Y-35493905D01*
X154209902Y-35608156D01*
X154552263Y-35709568D01*
X154942736Y-35843036D01*
X155281826Y-35963115D01*
X155663209Y-36115458D01*
X155997318Y-36253850D01*
X156369224Y-36424730D01*
X156593841Y-36531867D01*
X156696901Y-36581025D01*
X156853978Y-36663075D01*
X157058704Y-36770014D01*
X157378679Y-36943746D01*
X157729747Y-37150408D01*
X158040851Y-37341051D01*
X158380534Y-37564922D01*
X158565367Y-37691954D01*
X158681684Y-37771897D01*
X159009218Y-38012409D01*
X159299472Y-38235129D01*
X159614180Y-38491740D01*
X159892538Y-38729480D01*
X160043480Y-38865852D01*
X160193729Y-39001598D01*
X160459336Y-39253648D01*
X160746351Y-39540663D01*
X160998401Y-39806270D01*
X161119823Y-39940664D01*
X161270521Y-40107464D01*
X161508275Y-40385838D01*
X161702014Y-40623440D01*
X161764870Y-40700527D01*
X161987590Y-40990781D01*
X162228102Y-41318315D01*
X162435067Y-41619450D01*
X162465226Y-41665210D01*
X162658936Y-41959131D01*
X162740798Y-42092716D01*
X162849587Y-42270245D01*
X162945919Y-42433889D01*
X163033773Y-42583133D01*
X163056247Y-42621310D01*
X163229983Y-42941292D01*
X163418974Y-43303098D01*
X163523206Y-43521623D01*
X163570028Y-43619788D01*
X163575267Y-43630770D01*
X163746143Y-44002668D01*
X163772054Y-44065223D01*
X163884557Y-44336830D01*
X164036884Y-44718173D01*
X164156975Y-45057299D01*
X164290430Y-45447735D01*
X164391850Y-45790122D01*
X164506093Y-46189383D01*
X164588529Y-46532753D01*
X164682994Y-46939841D01*
X164683561Y-46942557D01*
X164746495Y-47282114D01*
X164821346Y-47699733D01*
X164821788Y-47702579D01*
X164865352Y-48033479D01*
X164920406Y-48465755D01*
X164920712Y-48468724D01*
X164944746Y-48774107D01*
X164979914Y-49235920D01*
X164980072Y-49239005D01*
X164984501Y-49408128D01*
X164999500Y-50000000D01*
X164999500Y-90000000D01*
X164984501Y-90591871D01*
X164980072Y-90760993D01*
X164979914Y-90764078D01*
X164944746Y-91225892D01*
X164920712Y-91531274D01*
X164920406Y-91534242D01*
X164865352Y-91966520D01*
X164821788Y-92297419D01*
X164821346Y-92300265D01*
X164746495Y-92717885D01*
X164683561Y-93057441D01*
X164682994Y-93060157D01*
X164588529Y-93467246D01*
X164506093Y-93810616D01*
X164391850Y-94209877D01*
X164290430Y-94552264D01*
X164156975Y-94942700D01*
X164036884Y-95281826D01*
X163884557Y-95663169D01*
X163746141Y-95997337D01*
X163575271Y-96369220D01*
X163418974Y-96696901D01*
X163229983Y-97058707D01*
X163056247Y-97378689D01*
X162849587Y-97729754D01*
X162658940Y-98040863D01*
X162435073Y-98380541D01*
X162228102Y-98681684D01*
X161987590Y-99009218D01*
X161764870Y-99299472D01*
X161508277Y-99614160D01*
X161270514Y-99892544D01*
X160998401Y-100193729D01*
X160746351Y-100459336D01*
X160459336Y-100746351D01*
X160193729Y-100998401D01*
X159892544Y-101270514D01*
X159614148Y-101508286D01*
X159299472Y-101764870D01*
X159009218Y-101987590D01*
X158681684Y-102228102D01*
X158380541Y-102435073D01*
X158040863Y-102658940D01*
X157729754Y-102849587D01*
X157378689Y-103056247D01*
X157058707Y-103229983D01*
X156696901Y-103418974D01*
X156369220Y-103575271D01*
X155997337Y-103746141D01*
X155663169Y-103884557D01*
X155281826Y-104036884D01*
X154942700Y-104156975D01*
X154552264Y-104290430D01*
X154209877Y-104391850D01*
X153810616Y-104506093D01*
X153467246Y-104588529D01*
X153060157Y-104682994D01*
X153057441Y-104683561D01*
X152717885Y-104746495D01*
X152300265Y-104821346D01*
X152297419Y-104821788D01*
X151966520Y-104865352D01*
X151534242Y-104920406D01*
X151531274Y-104920712D01*
X151225892Y-104944746D01*
X150764078Y-104979914D01*
X150760993Y-104980072D01*
X150591871Y-104984501D01*
X150000000Y-104999500D01*
X85624500Y-104999500D01*
X85557461Y-104979815D01*
X85511706Y-104927011D01*
X85500500Y-104875500D01*
X85500500Y-100024759D01*
X85500528Y-100024616D01*
X85500524Y-100024616D01*
X85500539Y-100000002D01*
X85500541Y-100000000D01*
X85500462Y-99999808D01*
X85500384Y-99999618D01*
X85500382Y-99999616D01*
X85500099Y-99999500D01*
X85500000Y-99999459D01*
X85475446Y-99999459D01*
X85475240Y-99999500D01*
X82524760Y-99999500D01*
X82524554Y-99999459D01*
X82500000Y-99999459D01*
X82499901Y-99999500D01*
X82499617Y-99999616D01*
X82499615Y-99999618D01*
X82499459Y-99999999D01*
X82499476Y-100024616D01*
X82499471Y-100024616D01*
X82499500Y-100024759D01*
X82499500Y-104875500D01*
X82479815Y-104942539D01*
X82427011Y-104988294D01*
X82375500Y-104999500D01*
X70000000Y-104999500D01*
X69408128Y-104984501D01*
X69239005Y-104980072D01*
X69235920Y-104979914D01*
X68774107Y-104944746D01*
X68468724Y-104920712D01*
X68465755Y-104920406D01*
X68033479Y-104865352D01*
X67702579Y-104821788D01*
X67699733Y-104821346D01*
X67282114Y-104746495D01*
X66942557Y-104683561D01*
X66939841Y-104682994D01*
X66532753Y-104588529D01*
X66189383Y-104506093D01*
X65790122Y-104391850D01*
X65447735Y-104290430D01*
X65057299Y-104156975D01*
X64718173Y-104036884D01*
X64336830Y-103884557D01*
X64002667Y-103746143D01*
X63630770Y-103575267D01*
X63303098Y-103418974D01*
X62941292Y-103229983D01*
X62621310Y-103056247D01*
X62270245Y-102849587D01*
X61959136Y-102658940D01*
X61619458Y-102435073D01*
X61318315Y-102228102D01*
X60990781Y-101987590D01*
X60700527Y-101764870D01*
X60623440Y-101702014D01*
X60385838Y-101508275D01*
X60107464Y-101270521D01*
X59949180Y-101127517D01*
X59806270Y-100998401D01*
X59540663Y-100746351D01*
X59253648Y-100459336D01*
X59001598Y-100193729D01*
X58848809Y-100024616D01*
X58729480Y-99892538D01*
X58491723Y-99614160D01*
X58235129Y-99299472D01*
X58012409Y-99009218D01*
X57771897Y-98681684D01*
X57647349Y-98500466D01*
X57564913Y-98380521D01*
X57557214Y-98368839D01*
X57341051Y-98040851D01*
X57150408Y-97729747D01*
X57110306Y-97661623D01*
X56943746Y-97378679D01*
X56776148Y-97069999D01*
X61324551Y-97069999D01*
X61332275Y-97168142D01*
X61332466Y-97173008D01*
X61332466Y-97195734D01*
X61336019Y-97218167D01*
X61336592Y-97223002D01*
X61339391Y-97258555D01*
X61344317Y-97321148D01*
X61344317Y-97321151D01*
X61344318Y-97321153D01*
X61367296Y-97416867D01*
X61368246Y-97421642D01*
X61371801Y-97444090D01*
X61378824Y-97465705D01*
X61380146Y-97470390D01*
X61403127Y-97566114D01*
X61440797Y-97657057D01*
X61442482Y-97661623D01*
X61448170Y-97679126D01*
X61449507Y-97683240D01*
X61449508Y-97683243D01*
X61449509Y-97683244D01*
X61459821Y-97703484D01*
X61461858Y-97707904D01*
X61499532Y-97798857D01*
X61550973Y-97882803D01*
X61553351Y-97887048D01*
X61560514Y-97901104D01*
X61563666Y-97907290D01*
X61563667Y-97907292D01*
X61577017Y-97925667D01*
X61579722Y-97929714D01*
X61629021Y-98010163D01*
X61631164Y-98013659D01*
X61654398Y-98040863D01*
X61695094Y-98088511D01*
X61698107Y-98092332D01*
X61711469Y-98110724D01*
X61727547Y-98126802D01*
X61730832Y-98130355D01*
X61794776Y-98205224D01*
X61869639Y-98269163D01*
X61873202Y-98272457D01*
X61889276Y-98288531D01*
X61907654Y-98301883D01*
X61907665Y-98301891D01*
X61911471Y-98304891D01*
X61986341Y-98368836D01*
X61986343Y-98368837D01*
X61986344Y-98368838D01*
X61986345Y-98368839D01*
X62070277Y-98420272D01*
X62074325Y-98422977D01*
X62074335Y-98422984D01*
X62092710Y-98436334D01*
X62112961Y-98446652D01*
X62117179Y-98449014D01*
X62201141Y-98500466D01*
X62201143Y-98500466D01*
X62201145Y-98500468D01*
X62224489Y-98510137D01*
X62292101Y-98538142D01*
X62296515Y-98540178D01*
X62304608Y-98544301D01*
X62316760Y-98550493D01*
X62338380Y-98557517D01*
X62342923Y-98559194D01*
X62433889Y-98596873D01*
X62529627Y-98619857D01*
X62534289Y-98621172D01*
X62555910Y-98628198D01*
X62555911Y-98628198D01*
X62555914Y-98628199D01*
X62564646Y-98629581D01*
X62578367Y-98631754D01*
X62583107Y-98632696D01*
X62678852Y-98655683D01*
X62777024Y-98663409D01*
X62781795Y-98663974D01*
X62804271Y-98667534D01*
X62804275Y-98667534D01*
X62826992Y-98667534D01*
X62831858Y-98667725D01*
X62930000Y-98675449D01*
X63028142Y-98667725D01*
X63033008Y-98667534D01*
X63055725Y-98667534D01*
X63055729Y-98667534D01*
X63078204Y-98663974D01*
X63082975Y-98663409D01*
X63181148Y-98655683D01*
X63276897Y-98632695D01*
X63281627Y-98631755D01*
X63304090Y-98628198D01*
X63325737Y-98621164D01*
X63330351Y-98619862D01*
X63426111Y-98596873D01*
X63517090Y-98559188D01*
X63521599Y-98557524D01*
X63543240Y-98550493D01*
X63563508Y-98540165D01*
X63567863Y-98538157D01*
X63658859Y-98500466D01*
X63742833Y-98449006D01*
X63747018Y-98446662D01*
X63767290Y-98436334D01*
X63785684Y-98422969D01*
X63789707Y-98420281D01*
X63873659Y-98368836D01*
X63948547Y-98304875D01*
X63952314Y-98301906D01*
X63970724Y-98288531D01*
X63986819Y-98272435D01*
X63990347Y-98269174D01*
X64065224Y-98205224D01*
X64129174Y-98130347D01*
X64132435Y-98126819D01*
X64148531Y-98110724D01*
X64161906Y-98092314D01*
X64164875Y-98088547D01*
X64228836Y-98013659D01*
X64280281Y-97929707D01*
X64282969Y-97925684D01*
X64296334Y-97907290D01*
X64306662Y-97887018D01*
X64309006Y-97882833D01*
X64360466Y-97798859D01*
X64398157Y-97707863D01*
X64400165Y-97703508D01*
X64410493Y-97683240D01*
X64417524Y-97661599D01*
X64419188Y-97657090D01*
X64456873Y-97566111D01*
X64479862Y-97470351D01*
X64481164Y-97465737D01*
X64488198Y-97444090D01*
X64491755Y-97421627D01*
X64492695Y-97416897D01*
X64515683Y-97321148D01*
X64523409Y-97222978D01*
X64523974Y-97218201D01*
X64527534Y-97195729D01*
X64528155Y-97164043D01*
X64528334Y-97160401D01*
X64535449Y-97070000D01*
X64528333Y-96979593D01*
X64528155Y-96975946D01*
X64527979Y-96966990D01*
X64527534Y-96944271D01*
X64523974Y-96921798D01*
X64523409Y-96917021D01*
X64515683Y-96818852D01*
X64492696Y-96723107D01*
X64491753Y-96718357D01*
X64489581Y-96704646D01*
X64488199Y-96695914D01*
X64488198Y-96695911D01*
X64488195Y-96695903D01*
X64481172Y-96674289D01*
X64479857Y-96669627D01*
X64456873Y-96573889D01*
X64419194Y-96482923D01*
X64417517Y-96478380D01*
X64410493Y-96456760D01*
X64400178Y-96436515D01*
X64398139Y-96432093D01*
X64360468Y-96341145D01*
X64360466Y-96341141D01*
X64309014Y-96257179D01*
X64306649Y-96252955D01*
X64296337Y-96232716D01*
X64296334Y-96232710D01*
X64288039Y-96221293D01*
X64282977Y-96214325D01*
X64280272Y-96210277D01*
X64228839Y-96126345D01*
X64228838Y-96126344D01*
X64228837Y-96126343D01*
X64228836Y-96126341D01*
X64164891Y-96051471D01*
X64161891Y-96047665D01*
X64148531Y-96029276D01*
X64132453Y-96013198D01*
X64129163Y-96009639D01*
X64065224Y-95934776D01*
X63990355Y-95870832D01*
X63986799Y-95867544D01*
X63970724Y-95851469D01*
X63952332Y-95838107D01*
X63948511Y-95835094D01*
X63873667Y-95771171D01*
X63873659Y-95771164D01*
X63873654Y-95771161D01*
X63873653Y-95771160D01*
X63789714Y-95719722D01*
X63785667Y-95717017D01*
X63767292Y-95703667D01*
X63767290Y-95703666D01*
X63761104Y-95700514D01*
X63747048Y-95693351D01*
X63742803Y-95690973D01*
X63658857Y-95639532D01*
X63567904Y-95601858D01*
X63563484Y-95599821D01*
X63543244Y-95589509D01*
X63543243Y-95589508D01*
X63543240Y-95589507D01*
X63539126Y-95588170D01*
X63521623Y-95582482D01*
X63517057Y-95580797D01*
X63426114Y-95543127D01*
X63330390Y-95520146D01*
X63325705Y-95518824D01*
X63304090Y-95511801D01*
X63281642Y-95508246D01*
X63276867Y-95507296D01*
X63181152Y-95484318D01*
X63181153Y-95484318D01*
X63181151Y-95484317D01*
X63181148Y-95484317D01*
X63133959Y-95480603D01*
X63083002Y-95476592D01*
X63078167Y-95476019D01*
X63055734Y-95472466D01*
X63055729Y-95472466D01*
X63033008Y-95472466D01*
X63028142Y-95472275D01*
X62930000Y-95464551D01*
X62831858Y-95472275D01*
X62826992Y-95472466D01*
X62804271Y-95472466D01*
X62781833Y-95476019D01*
X62776998Y-95476592D01*
X62678851Y-95484317D01*
X62678844Y-95484318D01*
X62583132Y-95507296D01*
X62578357Y-95508246D01*
X62555913Y-95511801D01*
X62555903Y-95511803D01*
X62534299Y-95518823D01*
X62529612Y-95520145D01*
X62433891Y-95543125D01*
X62342938Y-95580799D01*
X62338373Y-95582483D01*
X62316757Y-95589507D01*
X62296515Y-95599820D01*
X62292098Y-95601856D01*
X62201141Y-95639534D01*
X62117201Y-95690970D01*
X62112958Y-95693347D01*
X62092716Y-95703662D01*
X62092708Y-95703667D01*
X62074330Y-95717018D01*
X62070286Y-95719720D01*
X61986339Y-95771165D01*
X61911482Y-95835098D01*
X61907660Y-95838111D01*
X61889276Y-95851469D01*
X61873198Y-95867544D01*
X61869626Y-95870846D01*
X61794775Y-95934775D01*
X61730846Y-96009626D01*
X61727544Y-96013198D01*
X61711469Y-96029276D01*
X61698111Y-96047660D01*
X61695098Y-96051482D01*
X61631165Y-96126339D01*
X61579720Y-96210286D01*
X61577018Y-96214330D01*
X61563667Y-96232708D01*
X61563662Y-96232716D01*
X61553347Y-96252958D01*
X61550970Y-96257201D01*
X61499534Y-96341141D01*
X61461856Y-96432098D01*
X61459820Y-96436515D01*
X61449507Y-96456757D01*
X61442483Y-96478373D01*
X61440799Y-96482938D01*
X61403125Y-96573891D01*
X61380145Y-96669612D01*
X61378823Y-96674299D01*
X61371803Y-96695903D01*
X61371801Y-96695913D01*
X61368246Y-96718357D01*
X61367296Y-96723132D01*
X61344318Y-96818844D01*
X61344317Y-96818851D01*
X61336592Y-96916998D01*
X61336019Y-96921833D01*
X61332466Y-96944270D01*
X61332466Y-96966990D01*
X61332275Y-96971856D01*
X61324551Y-97069999D01*
X56776148Y-97069999D01*
X56770003Y-97058682D01*
X56726785Y-96975946D01*
X56594727Y-96723132D01*
X56581025Y-96696901D01*
X56522351Y-96573890D01*
X56424729Y-96369220D01*
X56253850Y-95997318D01*
X56115442Y-95663169D01*
X55963111Y-95281816D01*
X55843024Y-94942700D01*
X55812462Y-94853289D01*
X55709568Y-94552263D01*
X55608156Y-94209902D01*
X55493905Y-93810612D01*
X55411494Y-93467349D01*
X55317002Y-93060150D01*
X55316437Y-93057441D01*
X55253504Y-92717885D01*
X55232897Y-92602911D01*
X55178644Y-92300218D01*
X55178217Y-92297467D01*
X55134648Y-91966520D01*
X55132290Y-91948005D01*
X85981738Y-91948005D01*
X86000753Y-92177484D01*
X86057282Y-92400714D01*
X86149782Y-92611594D01*
X86275728Y-92804370D01*
X86275731Y-92804373D01*
X86431692Y-92973792D01*
X86613411Y-93115229D01*
X86815931Y-93224828D01*
X86919054Y-93260230D01*
X87033725Y-93299597D01*
X87033727Y-93299597D01*
X87033729Y-93299598D01*
X87260863Y-93337500D01*
X87260864Y-93337500D01*
X87491136Y-93337500D01*
X87491137Y-93337500D01*
X87718271Y-93299598D01*
X87823770Y-93263379D01*
X87893565Y-93260230D01*
X87951712Y-93292980D01*
X91408737Y-96750005D01*
X91442222Y-96811328D01*
X91437238Y-96881020D01*
X91395366Y-96936953D01*
X91365852Y-96953311D01*
X91335955Y-96964893D01*
X91244427Y-97000351D01*
X91244426Y-97000352D01*
X91061501Y-97113614D01*
X91034426Y-97138297D01*
X90971622Y-97168913D01*
X90902235Y-97160715D01*
X90856599Y-97127191D01*
X90845003Y-97113614D01*
X90728635Y-96977365D01*
X90548645Y-96823638D01*
X90548643Y-96823636D01*
X90548641Y-96823635D01*
X90548640Y-96823634D01*
X90346822Y-96699960D01*
X90128136Y-96609378D01*
X89897977Y-96554122D01*
X89662000Y-96535550D01*
X89426022Y-96554122D01*
X89195863Y-96609378D01*
X88977177Y-96699960D01*
X88775359Y-96823634D01*
X88775358Y-96823635D01*
X88595365Y-96977365D01*
X88441635Y-97157358D01*
X88441634Y-97157359D01*
X88317960Y-97359177D01*
X88227378Y-97577863D01*
X88172122Y-97808022D01*
X88153550Y-98044000D01*
X88172122Y-98279977D01*
X88227378Y-98510136D01*
X88317960Y-98728822D01*
X88441634Y-98930640D01*
X88441635Y-98930641D01*
X88441636Y-98930643D01*
X88441638Y-98930645D01*
X88595365Y-99110635D01*
X88775355Y-99264362D01*
X88775357Y-99264363D01*
X88775358Y-99264364D01*
X88775359Y-99264365D01*
X88977177Y-99388039D01*
X89195863Y-99478621D01*
X89426026Y-99533878D01*
X89662000Y-99552450D01*
X89897974Y-99533878D01*
X90128137Y-99478621D01*
X90346822Y-99388039D01*
X90548645Y-99264362D01*
X90728635Y-99110635D01*
X90856601Y-98960806D01*
X90915106Y-98922615D01*
X90984974Y-98922116D01*
X91034428Y-98949704D01*
X91061504Y-98974387D01*
X91244425Y-99087647D01*
X91445043Y-99165367D01*
X91656526Y-99204900D01*
X91656528Y-99204900D01*
X91871670Y-99204900D01*
X91871672Y-99204900D01*
X92083155Y-99165367D01*
X92283773Y-99087647D01*
X92466694Y-98974387D01*
X92625690Y-98829444D01*
X92665147Y-98777193D01*
X92721253Y-98735560D01*
X92790965Y-98730867D01*
X92852147Y-98764609D01*
X92863050Y-98777192D01*
X92863053Y-98777196D01*
X92902511Y-98829446D01*
X92902514Y-98829449D01*
X93061502Y-98974385D01*
X93061504Y-98974386D01*
X93061505Y-98974387D01*
X93244426Y-99087647D01*
X93445044Y-99165367D01*
X93656527Y-99204900D01*
X93656529Y-99204900D01*
X93871671Y-99204900D01*
X93871673Y-99204900D01*
X94083156Y-99165367D01*
X94283774Y-99087647D01*
X94466695Y-98974387D01*
X94625691Y-98829444D01*
X94665148Y-98777193D01*
X94721254Y-98735560D01*
X94790966Y-98730867D01*
X94852148Y-98764609D01*
X94863051Y-98777192D01*
X94863054Y-98777196D01*
X94902512Y-98829446D01*
X94902515Y-98829449D01*
X95061503Y-98974385D01*
X95061505Y-98974386D01*
X95061506Y-98974387D01*
X95244427Y-99087647D01*
X95445045Y-99165367D01*
X95656528Y-99204900D01*
X95656530Y-99204900D01*
X95871672Y-99204900D01*
X95871674Y-99204900D01*
X96083157Y-99165367D01*
X96283775Y-99087647D01*
X96466696Y-98974387D01*
X96493771Y-98949704D01*
X96556573Y-98919086D01*
X96625960Y-98927282D01*
X96671599Y-98960807D01*
X96799565Y-99110635D01*
X96979555Y-99264362D01*
X96979557Y-99264363D01*
X96979558Y-99264364D01*
X96979559Y-99264365D01*
X97181377Y-99388039D01*
X97400063Y-99478621D01*
X97630226Y-99533878D01*
X97866200Y-99552450D01*
X98102174Y-99533878D01*
X98332337Y-99478621D01*
X98551022Y-99388039D01*
X98752845Y-99264362D01*
X98932835Y-99110635D01*
X99086562Y-98930645D01*
X99210239Y-98728822D01*
X99300821Y-98510137D01*
X99356078Y-98279974D01*
X99374650Y-98044000D01*
X99356078Y-97808026D01*
X99300821Y-97577863D01*
X99256309Y-97470400D01*
X99210239Y-97359177D01*
X99086565Y-97157359D01*
X99086564Y-97157358D01*
X99086563Y-97157357D01*
X99086562Y-97157355D01*
X99011952Y-97069999D01*
X155464551Y-97069999D01*
X155472275Y-97168142D01*
X155472466Y-97173008D01*
X155472466Y-97195734D01*
X155476019Y-97218167D01*
X155476592Y-97223002D01*
X155479391Y-97258555D01*
X155484317Y-97321148D01*
X155484317Y-97321151D01*
X155484318Y-97321153D01*
X155507296Y-97416867D01*
X155508246Y-97421642D01*
X155511801Y-97444090D01*
X155518824Y-97465705D01*
X155520146Y-97470390D01*
X155543127Y-97566114D01*
X155580797Y-97657057D01*
X155582482Y-97661623D01*
X155588170Y-97679126D01*
X155589507Y-97683240D01*
X155589508Y-97683243D01*
X155589509Y-97683244D01*
X155599821Y-97703484D01*
X155601858Y-97707904D01*
X155639532Y-97798857D01*
X155690973Y-97882803D01*
X155693351Y-97887048D01*
X155700514Y-97901104D01*
X155703666Y-97907290D01*
X155703667Y-97907292D01*
X155717017Y-97925667D01*
X155719722Y-97929714D01*
X155769021Y-98010163D01*
X155771164Y-98013659D01*
X155794398Y-98040863D01*
X155835094Y-98088511D01*
X155838107Y-98092332D01*
X155851469Y-98110724D01*
X155867547Y-98126802D01*
X155870832Y-98130355D01*
X155934776Y-98205224D01*
X156009639Y-98269163D01*
X156013202Y-98272457D01*
X156029276Y-98288531D01*
X156047654Y-98301883D01*
X156047665Y-98301891D01*
X156051471Y-98304891D01*
X156126341Y-98368836D01*
X156126343Y-98368837D01*
X156126344Y-98368838D01*
X156126345Y-98368839D01*
X156210277Y-98420272D01*
X156214325Y-98422977D01*
X156214335Y-98422984D01*
X156232710Y-98436334D01*
X156252961Y-98446652D01*
X156257179Y-98449014D01*
X156341141Y-98500466D01*
X156341143Y-98500466D01*
X156341145Y-98500468D01*
X156364489Y-98510137D01*
X156432101Y-98538142D01*
X156436515Y-98540178D01*
X156444608Y-98544301D01*
X156456760Y-98550493D01*
X156478380Y-98557517D01*
X156482923Y-98559194D01*
X156573889Y-98596873D01*
X156669627Y-98619857D01*
X156674289Y-98621172D01*
X156695910Y-98628198D01*
X156695911Y-98628198D01*
X156695914Y-98628199D01*
X156704646Y-98629581D01*
X156718367Y-98631754D01*
X156723107Y-98632696D01*
X156818852Y-98655683D01*
X156917024Y-98663409D01*
X156921795Y-98663974D01*
X156944271Y-98667534D01*
X156944275Y-98667534D01*
X156966992Y-98667534D01*
X156971858Y-98667725D01*
X157070000Y-98675449D01*
X157168142Y-98667725D01*
X157173008Y-98667534D01*
X157195725Y-98667534D01*
X157195729Y-98667534D01*
X157218204Y-98663974D01*
X157222975Y-98663409D01*
X157321148Y-98655683D01*
X157416897Y-98632695D01*
X157421627Y-98631755D01*
X157444090Y-98628198D01*
X157465737Y-98621164D01*
X157470351Y-98619862D01*
X157566111Y-98596873D01*
X157657090Y-98559188D01*
X157661599Y-98557524D01*
X157683240Y-98550493D01*
X157703508Y-98540165D01*
X157707863Y-98538157D01*
X157798859Y-98500466D01*
X157882833Y-98449006D01*
X157887018Y-98446662D01*
X157907290Y-98436334D01*
X157925684Y-98422969D01*
X157929707Y-98420281D01*
X158013659Y-98368836D01*
X158088547Y-98304875D01*
X158092314Y-98301906D01*
X158110724Y-98288531D01*
X158126819Y-98272435D01*
X158130347Y-98269174D01*
X158205224Y-98205224D01*
X158269174Y-98130347D01*
X158272435Y-98126819D01*
X158288531Y-98110724D01*
X158301906Y-98092314D01*
X158304875Y-98088547D01*
X158368836Y-98013659D01*
X158420281Y-97929707D01*
X158422969Y-97925684D01*
X158436334Y-97907290D01*
X158446662Y-97887018D01*
X158449006Y-97882833D01*
X158500466Y-97798859D01*
X158538157Y-97707863D01*
X158540165Y-97703508D01*
X158550493Y-97683240D01*
X158557524Y-97661599D01*
X158559188Y-97657090D01*
X158596873Y-97566111D01*
X158619862Y-97470351D01*
X158621164Y-97465737D01*
X158628198Y-97444090D01*
X158631755Y-97421627D01*
X158632695Y-97416897D01*
X158655683Y-97321148D01*
X158663409Y-97222978D01*
X158663974Y-97218201D01*
X158667534Y-97195729D01*
X158668155Y-97164043D01*
X158668334Y-97160401D01*
X158675449Y-97070000D01*
X158668333Y-96979593D01*
X158668155Y-96975946D01*
X158667979Y-96966990D01*
X158667534Y-96944271D01*
X158663974Y-96921798D01*
X158663409Y-96917021D01*
X158655683Y-96818852D01*
X158632696Y-96723107D01*
X158631753Y-96718357D01*
X158629581Y-96704646D01*
X158628199Y-96695914D01*
X158628198Y-96695911D01*
X158628195Y-96695903D01*
X158621172Y-96674289D01*
X158619857Y-96669627D01*
X158596873Y-96573889D01*
X158559194Y-96482923D01*
X158557517Y-96478380D01*
X158550493Y-96456760D01*
X158540178Y-96436515D01*
X158538139Y-96432093D01*
X158500468Y-96341145D01*
X158500466Y-96341141D01*
X158449014Y-96257179D01*
X158446649Y-96252955D01*
X158436337Y-96232716D01*
X158436334Y-96232710D01*
X158428039Y-96221293D01*
X158422977Y-96214325D01*
X158420272Y-96210277D01*
X158368839Y-96126345D01*
X158368838Y-96126344D01*
X158368837Y-96126343D01*
X158368836Y-96126341D01*
X158304891Y-96051471D01*
X158301891Y-96047665D01*
X158288531Y-96029276D01*
X158272453Y-96013198D01*
X158269163Y-96009639D01*
X158205224Y-95934776D01*
X158130355Y-95870832D01*
X158126799Y-95867544D01*
X158110724Y-95851469D01*
X158092332Y-95838107D01*
X158088511Y-95835094D01*
X158013667Y-95771171D01*
X158013659Y-95771164D01*
X158013654Y-95771161D01*
X158013653Y-95771160D01*
X157929714Y-95719722D01*
X157925667Y-95717017D01*
X157907292Y-95703667D01*
X157907290Y-95703666D01*
X157901104Y-95700514D01*
X157887048Y-95693351D01*
X157882803Y-95690973D01*
X157798857Y-95639532D01*
X157707904Y-95601858D01*
X157703484Y-95599821D01*
X157683244Y-95589509D01*
X157683243Y-95589508D01*
X157683240Y-95589507D01*
X157679126Y-95588170D01*
X157661623Y-95582482D01*
X157657057Y-95580797D01*
X157566114Y-95543127D01*
X157470390Y-95520146D01*
X157465705Y-95518824D01*
X157444090Y-95511801D01*
X157421642Y-95508246D01*
X157416867Y-95507296D01*
X157321152Y-95484318D01*
X157321153Y-95484318D01*
X157321151Y-95484317D01*
X157321148Y-95484317D01*
X157273959Y-95480603D01*
X157223002Y-95476592D01*
X157218167Y-95476019D01*
X157195734Y-95472466D01*
X157195729Y-95472466D01*
X157173008Y-95472466D01*
X157168142Y-95472275D01*
X157070000Y-95464551D01*
X156971858Y-95472275D01*
X156966992Y-95472466D01*
X156944271Y-95472466D01*
X156921833Y-95476019D01*
X156916998Y-95476592D01*
X156818851Y-95484317D01*
X156818844Y-95484318D01*
X156723132Y-95507296D01*
X156718357Y-95508246D01*
X156695913Y-95511801D01*
X156695903Y-95511803D01*
X156674299Y-95518823D01*
X156669612Y-95520145D01*
X156573891Y-95543125D01*
X156482938Y-95580799D01*
X156478373Y-95582483D01*
X156456757Y-95589507D01*
X156436515Y-95599820D01*
X156432098Y-95601856D01*
X156341141Y-95639534D01*
X156257201Y-95690970D01*
X156252958Y-95693347D01*
X156232716Y-95703662D01*
X156232708Y-95703667D01*
X156214330Y-95717018D01*
X156210286Y-95719720D01*
X156126339Y-95771165D01*
X156051482Y-95835098D01*
X156047660Y-95838111D01*
X156029276Y-95851469D01*
X156013198Y-95867544D01*
X156009626Y-95870846D01*
X155934775Y-95934775D01*
X155870846Y-96009626D01*
X155867544Y-96013198D01*
X155851469Y-96029276D01*
X155838111Y-96047660D01*
X155835098Y-96051482D01*
X155771165Y-96126339D01*
X155719720Y-96210286D01*
X155717018Y-96214330D01*
X155703667Y-96232708D01*
X155703662Y-96232716D01*
X155693347Y-96252958D01*
X155690970Y-96257201D01*
X155639534Y-96341141D01*
X155601856Y-96432098D01*
X155599820Y-96436515D01*
X155589507Y-96456757D01*
X155582483Y-96478373D01*
X155580799Y-96482938D01*
X155543125Y-96573891D01*
X155520145Y-96669612D01*
X155518823Y-96674299D01*
X155511803Y-96695903D01*
X155511801Y-96695913D01*
X155508246Y-96718357D01*
X155507296Y-96723132D01*
X155484318Y-96818844D01*
X155484317Y-96818851D01*
X155476592Y-96916998D01*
X155476019Y-96921833D01*
X155472466Y-96944270D01*
X155472466Y-96966990D01*
X155472275Y-96971856D01*
X155464551Y-97069999D01*
X99011952Y-97069999D01*
X98932835Y-96977365D01*
X98752845Y-96823638D01*
X98752843Y-96823636D01*
X98752841Y-96823635D01*
X98752840Y-96823634D01*
X98551022Y-96699960D01*
X98332336Y-96609378D01*
X98102177Y-96554122D01*
X97866200Y-96535550D01*
X97630222Y-96554122D01*
X97400063Y-96609378D01*
X97181377Y-96699960D01*
X96979559Y-96823634D01*
X96979558Y-96823635D01*
X96799565Y-96977365D01*
X96671600Y-97127191D01*
X96613093Y-97165384D01*
X96543225Y-97165882D01*
X96493773Y-97138297D01*
X96466696Y-97113613D01*
X96283775Y-97000353D01*
X96083157Y-96922633D01*
X95871674Y-96883100D01*
X95656528Y-96883100D01*
X95445045Y-96922633D01*
X95381086Y-96947411D01*
X95244429Y-97000352D01*
X95244428Y-97000352D01*
X95061503Y-97113614D01*
X94902515Y-97258550D01*
X94902510Y-97258555D01*
X94863053Y-97310805D01*
X94806944Y-97352440D01*
X94737232Y-97357131D01*
X94676050Y-97323388D01*
X94665147Y-97310805D01*
X94625691Y-97258556D01*
X94625688Y-97258553D01*
X94625685Y-97258550D01*
X94466697Y-97113614D01*
X94426911Y-97088979D01*
X94283774Y-97000353D01*
X94083156Y-96922633D01*
X93871673Y-96883100D01*
X93871671Y-96883100D01*
X93715929Y-96883100D01*
X93648890Y-96863415D01*
X93628248Y-96846781D01*
X88806089Y-92024621D01*
X88772604Y-91963298D01*
X88770194Y-91947180D01*
X88768932Y-91931949D01*
X88751246Y-91718512D01*
X88694717Y-91495284D01*
X88602217Y-91284405D01*
X88507481Y-91139400D01*
X88476271Y-91091629D01*
X88449355Y-91062390D01*
X88320308Y-90922208D01*
X88252036Y-90869070D01*
X88138591Y-90780772D01*
X87936069Y-90671172D01*
X87936061Y-90671169D01*
X87718274Y-90596402D01*
X87547920Y-90567975D01*
X87491137Y-90558500D01*
X87260863Y-90558500D01*
X87215436Y-90566080D01*
X87033725Y-90596402D01*
X86815938Y-90671169D01*
X86815930Y-90671172D01*
X86613408Y-90780772D01*
X86431694Y-90922206D01*
X86431689Y-90922211D01*
X86275728Y-91091629D01*
X86149782Y-91284405D01*
X86057282Y-91495285D01*
X86000753Y-91718515D01*
X85981738Y-91947994D01*
X85981738Y-91948005D01*
X55132290Y-91948005D01*
X55079584Y-91534174D01*
X55079291Y-91531324D01*
X55055250Y-91225854D01*
X55048666Y-91139400D01*
X55020082Y-90764058D01*
X55019928Y-90761046D01*
X55015513Y-90592465D01*
X55000500Y-90000000D01*
X106994415Y-90000000D01*
X107014738Y-90348927D01*
X107014739Y-90348938D01*
X107075428Y-90693127D01*
X107075430Y-90693134D01*
X107175674Y-91027972D01*
X107314107Y-91348895D01*
X107314113Y-91348908D01*
X107488870Y-91651597D01*
X107697584Y-91931949D01*
X107697589Y-91931955D01*
X107730067Y-91966379D01*
X107937442Y-92186183D01*
X108073400Y-92300265D01*
X108205186Y-92410847D01*
X108205194Y-92410853D01*
X108497203Y-92602911D01*
X108497207Y-92602913D01*
X108809549Y-92759777D01*
X109137989Y-92879319D01*
X109478086Y-92959923D01*
X109825241Y-93000500D01*
X109825248Y-93000500D01*
X110174752Y-93000500D01*
X110174759Y-93000500D01*
X110521914Y-92959923D01*
X110862011Y-92879319D01*
X111190451Y-92759777D01*
X111502793Y-92602913D01*
X111794811Y-92410849D01*
X112062558Y-92186183D01*
X112302412Y-91931953D01*
X112511130Y-91651596D01*
X112685889Y-91348904D01*
X112824326Y-91027971D01*
X112924569Y-90693136D01*
X112928443Y-90671169D01*
X112985260Y-90348938D01*
X112985259Y-90348938D01*
X112985262Y-90348927D01*
X113005585Y-90000000D01*
X146994415Y-90000000D01*
X147014738Y-90348927D01*
X147014739Y-90348938D01*
X147075428Y-90693127D01*
X147075430Y-90693134D01*
X147175674Y-91027972D01*
X147314107Y-91348895D01*
X147314113Y-91348908D01*
X147488870Y-91651597D01*
X147697584Y-91931949D01*
X147697589Y-91931955D01*
X147730067Y-91966379D01*
X147937442Y-92186183D01*
X148073400Y-92300265D01*
X148205186Y-92410847D01*
X148205194Y-92410853D01*
X148497203Y-92602911D01*
X148497207Y-92602913D01*
X148809549Y-92759777D01*
X149137989Y-92879319D01*
X149478086Y-92959923D01*
X149825241Y-93000500D01*
X149825248Y-93000500D01*
X150174752Y-93000500D01*
X150174759Y-93000500D01*
X150521914Y-92959923D01*
X150862011Y-92879319D01*
X151190451Y-92759777D01*
X151502793Y-92602913D01*
X151794811Y-92410849D01*
X152062558Y-92186183D01*
X152302412Y-91931953D01*
X152511130Y-91651596D01*
X152685889Y-91348904D01*
X152824326Y-91027971D01*
X152924569Y-90693136D01*
X152928443Y-90671169D01*
X152985260Y-90348938D01*
X152985259Y-90348938D01*
X152985262Y-90348927D01*
X153005585Y-90000000D01*
X152985262Y-89651073D01*
X152985260Y-89651061D01*
X152924571Y-89306872D01*
X152924569Y-89306865D01*
X152824325Y-88972027D01*
X152685892Y-88651104D01*
X152685889Y-88651096D01*
X152511130Y-88348404D01*
X152511129Y-88348402D01*
X152302415Y-88068050D01*
X152302410Y-88068044D01*
X152186433Y-87945117D01*
X152062558Y-87813817D01*
X151914488Y-87689572D01*
X151794813Y-87589152D01*
X151794805Y-87589146D01*
X151502796Y-87397088D01*
X151190458Y-87240226D01*
X151190452Y-87240223D01*
X150862012Y-87120681D01*
X150862009Y-87120680D01*
X150521915Y-87040077D01*
X150478519Y-87035004D01*
X150174759Y-86999500D01*
X149825241Y-86999500D01*
X149521480Y-87035004D01*
X149478085Y-87040077D01*
X149478083Y-87040077D01*
X149137990Y-87120680D01*
X149137987Y-87120681D01*
X148809547Y-87240223D01*
X148809541Y-87240226D01*
X148497203Y-87397088D01*
X148205194Y-87589146D01*
X148205186Y-87589152D01*
X147937442Y-87813817D01*
X147937440Y-87813819D01*
X147697589Y-88068044D01*
X147697584Y-88068050D01*
X147488870Y-88348402D01*
X147314113Y-88651091D01*
X147314107Y-88651104D01*
X147175674Y-88972027D01*
X147075430Y-89306865D01*
X147075428Y-89306872D01*
X147014739Y-89651061D01*
X147014738Y-89651072D01*
X146994415Y-89999996D01*
X146994415Y-90000000D01*
X113005585Y-90000000D01*
X112985262Y-89651073D01*
X112985260Y-89651061D01*
X112924571Y-89306872D01*
X112924569Y-89306865D01*
X112824325Y-88972027D01*
X112685892Y-88651104D01*
X112685889Y-88651096D01*
X112511130Y-88348404D01*
X112511129Y-88348402D01*
X112302415Y-88068050D01*
X112302410Y-88068044D01*
X112186433Y-87945117D01*
X112062558Y-87813817D01*
X111914488Y-87689572D01*
X111794813Y-87589152D01*
X111794805Y-87589146D01*
X111502796Y-87397088D01*
X111190458Y-87240226D01*
X111190452Y-87240223D01*
X110862012Y-87120681D01*
X110862009Y-87120680D01*
X110521915Y-87040077D01*
X110478519Y-87035004D01*
X110174759Y-86999500D01*
X109825241Y-86999500D01*
X109521480Y-87035004D01*
X109478085Y-87040077D01*
X109478083Y-87040077D01*
X109137990Y-87120680D01*
X109137987Y-87120681D01*
X108809547Y-87240223D01*
X108809541Y-87240226D01*
X108497203Y-87397088D01*
X108205194Y-87589146D01*
X108205186Y-87589152D01*
X107937442Y-87813817D01*
X107937440Y-87813819D01*
X107697589Y-88068044D01*
X107697584Y-88068050D01*
X107488870Y-88348402D01*
X107314113Y-88651091D01*
X107314107Y-88651104D01*
X107175674Y-88972027D01*
X107075430Y-89306865D01*
X107075428Y-89306872D01*
X107014739Y-89651061D01*
X107014738Y-89651072D01*
X106994415Y-89999996D01*
X106994415Y-90000000D01*
X55000500Y-90000000D01*
X55000500Y-89999500D01*
X55000500Y-74908025D01*
X72142710Y-74908025D01*
X72147264Y-74960064D01*
X72147500Y-74965470D01*
X72147500Y-74973709D01*
X72151306Y-75006274D01*
X72158000Y-75082791D01*
X72159461Y-75089867D01*
X72159403Y-75089878D01*
X72161034Y-75097237D01*
X72161092Y-75097224D01*
X72162757Y-75104250D01*
X72189025Y-75176424D01*
X72213185Y-75249331D01*
X72216236Y-75255874D01*
X72216182Y-75255898D01*
X72219470Y-75262688D01*
X72219521Y-75262663D01*
X72222761Y-75269113D01*
X72222762Y-75269114D01*
X72222763Y-75269117D01*
X72231503Y-75282405D01*
X72264965Y-75333283D01*
X72305287Y-75398655D01*
X72309766Y-75404319D01*
X72309719Y-75404356D01*
X72314482Y-75410202D01*
X72314528Y-75410164D01*
X72319173Y-75415700D01*
X72375017Y-75468385D01*
X77191181Y-80284549D01*
X77224666Y-80345872D01*
X77227500Y-80372230D01*
X77227500Y-82074741D01*
X77207815Y-82141780D01*
X77179663Y-82172594D01*
X77033694Y-82286206D01*
X77033689Y-82286211D01*
X76877728Y-82455629D01*
X76751782Y-82648405D01*
X76659282Y-82859285D01*
X76602753Y-83082515D01*
X76583738Y-83311994D01*
X76583738Y-83312005D01*
X76602753Y-83541484D01*
X76659282Y-83764714D01*
X76751782Y-83975594D01*
X76877728Y-84168370D01*
X76877731Y-84168373D01*
X77033692Y-84337792D01*
X77215411Y-84479229D01*
X77417931Y-84588828D01*
X77531025Y-84627653D01*
X77635725Y-84663597D01*
X77635727Y-84663597D01*
X77635729Y-84663598D01*
X77862863Y-84701500D01*
X77862864Y-84701500D01*
X78093136Y-84701500D01*
X78093137Y-84701500D01*
X78320271Y-84663598D01*
X78538069Y-84588828D01*
X78740589Y-84479229D01*
X78922308Y-84337792D01*
X79078269Y-84168373D01*
X79204217Y-83975595D01*
X79296717Y-83764716D01*
X79353246Y-83541488D01*
X79372262Y-83312000D01*
X79353246Y-83082512D01*
X79296717Y-82859284D01*
X79204217Y-82648405D01*
X79078271Y-82455629D01*
X79051355Y-82426390D01*
X78922308Y-82286208D01*
X78873753Y-82248416D01*
X78776337Y-82172594D01*
X78735524Y-82115884D01*
X78728500Y-82074741D01*
X78728500Y-80073705D01*
X78729809Y-80055735D01*
X78730129Y-80053547D01*
X78733289Y-80031977D01*
X78728735Y-79979931D01*
X78728500Y-79974528D01*
X78728500Y-79966297D01*
X78728500Y-79966291D01*
X78724693Y-79933724D01*
X78717999Y-79857203D01*
X78717999Y-79857201D01*
X78716539Y-79850129D01*
X78716597Y-79850116D01*
X78714965Y-79842757D01*
X78714906Y-79842772D01*
X78713242Y-79835753D01*
X78713241Y-79835745D01*
X78686974Y-79763576D01*
X78662814Y-79690666D01*
X78662809Y-79690659D01*
X78659760Y-79684118D01*
X78659815Y-79684091D01*
X78656533Y-79677313D01*
X78656480Y-79677340D01*
X78653235Y-79670880D01*
X78611028Y-79606708D01*
X78570710Y-79541342D01*
X78566234Y-79535682D01*
X78566281Y-79535644D01*
X78561519Y-79529799D01*
X78561474Y-79529838D01*
X78556834Y-79524308D01*
X78500964Y-79471596D01*
X74975373Y-75946005D01*
X113667738Y-75946005D01*
X113686753Y-76175484D01*
X113743282Y-76398714D01*
X113835782Y-76609594D01*
X113961728Y-76802370D01*
X113961731Y-76802373D01*
X114117692Y-76971792D01*
X114299411Y-77113229D01*
X114501931Y-77222828D01*
X114615025Y-77261653D01*
X114719725Y-77297597D01*
X114719727Y-77297597D01*
X114719729Y-77297598D01*
X114946863Y-77335500D01*
X114946864Y-77335500D01*
X115177136Y-77335500D01*
X115177137Y-77335500D01*
X115404271Y-77297598D01*
X115622069Y-77222828D01*
X115824589Y-77113229D01*
X116006308Y-76971792D01*
X116162269Y-76802373D01*
X116288217Y-76609595D01*
X116380717Y-76398716D01*
X116437246Y-76175488D01*
X116456262Y-75946000D01*
X116437246Y-75716512D01*
X116380717Y-75493284D01*
X116288217Y-75282405D01*
X116270899Y-75255898D01*
X116162271Y-75089629D01*
X116055559Y-74973709D01*
X116006308Y-74920208D01*
X115937039Y-74866294D01*
X115824591Y-74778772D01*
X115824586Y-74778769D01*
X115754481Y-74740829D01*
X115704891Y-74691609D01*
X115689500Y-74631775D01*
X115689500Y-68383281D01*
X115709185Y-68316242D01*
X115725819Y-68295600D01*
X130525600Y-53495819D01*
X130586923Y-53462334D01*
X130613281Y-53459500D01*
X131763095Y-53459500D01*
X131830134Y-53479185D01*
X131866903Y-53515677D01*
X131979731Y-53688373D01*
X132135692Y-53857792D01*
X132317411Y-53999229D01*
X132519931Y-54108828D01*
X132633025Y-54147653D01*
X132737725Y-54183597D01*
X132737727Y-54183597D01*
X132737729Y-54183598D01*
X132964863Y-54221500D01*
X132964864Y-54221500D01*
X133195136Y-54221500D01*
X133195137Y-54221500D01*
X133422271Y-54183598D01*
X133640069Y-54108828D01*
X133842589Y-53999229D01*
X134024308Y-53857792D01*
X134180269Y-53688373D01*
X134306217Y-53495595D01*
X134398717Y-53284716D01*
X134455246Y-53061488D01*
X134474262Y-52832000D01*
X134468277Y-52759777D01*
X134455246Y-52602515D01*
X134455246Y-52602512D01*
X134398717Y-52379284D01*
X134306217Y-52168405D01*
X134262076Y-52100842D01*
X134180271Y-51975629D01*
X134139762Y-51931625D01*
X134024308Y-51806208D01*
X133857817Y-51676623D01*
X133842591Y-51664772D01*
X133640069Y-51555172D01*
X133640061Y-51555169D01*
X133422274Y-51480402D01*
X133224363Y-51447377D01*
X133195137Y-51442500D01*
X132964863Y-51442500D01*
X132935637Y-51447377D01*
X132737725Y-51480402D01*
X132519938Y-51555169D01*
X132519930Y-51555172D01*
X132317408Y-51664772D01*
X132135694Y-51806206D01*
X132135689Y-51806211D01*
X131979731Y-51975627D01*
X131866904Y-52148322D01*
X131813757Y-52193678D01*
X131763095Y-52204500D01*
X130384967Y-52204500D01*
X130369318Y-52202772D01*
X130369292Y-52203054D01*
X130361524Y-52202319D01*
X130292141Y-52204500D01*
X130262522Y-52204500D01*
X130255618Y-52205371D01*
X130249800Y-52205829D01*
X130203060Y-52207298D01*
X130203054Y-52207299D01*
X130183719Y-52212916D01*
X130164680Y-52216859D01*
X130144715Y-52219382D01*
X130144701Y-52219385D01*
X130101235Y-52236594D01*
X130095710Y-52238485D01*
X130050809Y-52251531D01*
X130050806Y-52251533D01*
X130033480Y-52261779D01*
X130016010Y-52270337D01*
X129997298Y-52277745D01*
X129959463Y-52305233D01*
X129954580Y-52308440D01*
X129914346Y-52332234D01*
X129900106Y-52346474D01*
X129885320Y-52359102D01*
X129869033Y-52370936D01*
X129869032Y-52370936D01*
X129839227Y-52406963D01*
X129835295Y-52411285D01*
X114676953Y-67569626D01*
X114664669Y-67579469D01*
X114664849Y-67579687D01*
X114658838Y-67584659D01*
X114611322Y-67635258D01*
X114590375Y-67656205D01*
X114586106Y-67661709D01*
X114582315Y-67666147D01*
X114550308Y-67700230D01*
X114550305Y-67700234D01*
X114540606Y-67717877D01*
X114529928Y-67734133D01*
X114517594Y-67750034D01*
X114517589Y-67750042D01*
X114499025Y-67792943D01*
X114496454Y-67798191D01*
X114473927Y-67839167D01*
X114468920Y-67858668D01*
X114462621Y-67877064D01*
X114455893Y-67892612D01*
X114454625Y-67895544D01*
X114454624Y-67895546D01*
X114447312Y-67941716D01*
X114446127Y-67947438D01*
X114434500Y-67992723D01*
X114434500Y-68012858D01*
X114432973Y-68032255D01*
X114429825Y-68052133D01*
X114434225Y-68098677D01*
X114434500Y-68104515D01*
X114434500Y-74631775D01*
X114414815Y-74698814D01*
X114369519Y-74740829D01*
X114299413Y-74778769D01*
X114299408Y-74778772D01*
X114117694Y-74920206D01*
X114117689Y-74920211D01*
X113961728Y-75089629D01*
X113835782Y-75282405D01*
X113743282Y-75493285D01*
X113686753Y-75716515D01*
X113667738Y-75945994D01*
X113667738Y-75946005D01*
X74975373Y-75946005D01*
X73684819Y-74655451D01*
X73651334Y-74594128D01*
X73648500Y-74567770D01*
X73648500Y-44812229D01*
X73668185Y-44745190D01*
X73684819Y-44724548D01*
X74150236Y-44259131D01*
X74643805Y-43765561D01*
X74705126Y-43732078D01*
X74774817Y-43737062D01*
X74830751Y-43778934D01*
X74855168Y-43844398D01*
X74840316Y-43912671D01*
X74840145Y-43912984D01*
X74833607Y-43924876D01*
X74822928Y-43941133D01*
X74810594Y-43957034D01*
X74810589Y-43957042D01*
X74792025Y-43999943D01*
X74789454Y-44005191D01*
X74766927Y-44046167D01*
X74761920Y-44065668D01*
X74755621Y-44084064D01*
X74755278Y-44084859D01*
X74747625Y-44102544D01*
X74747624Y-44102546D01*
X74740312Y-44148716D01*
X74739127Y-44154438D01*
X74727500Y-44199723D01*
X74727500Y-44219858D01*
X74725973Y-44239257D01*
X74722825Y-44259131D01*
X74727225Y-44305677D01*
X74727500Y-44311515D01*
X74727500Y-70512032D01*
X74725772Y-70527681D01*
X74726054Y-70527708D01*
X74725319Y-70535475D01*
X74727500Y-70604859D01*
X74727500Y-70634477D01*
X74728371Y-70641380D01*
X74728829Y-70647199D01*
X74730298Y-70693942D01*
X74735916Y-70713275D01*
X74739862Y-70732329D01*
X74742383Y-70752287D01*
X74742386Y-70752299D01*
X74759595Y-70795765D01*
X74761487Y-70801293D01*
X74774530Y-70846187D01*
X74774530Y-70846188D01*
X74784777Y-70863515D01*
X74793335Y-70880985D01*
X74800745Y-70899701D01*
X74828229Y-70937529D01*
X74831437Y-70942413D01*
X74855234Y-70982652D01*
X74855240Y-70982660D01*
X74869469Y-70996888D01*
X74882109Y-71011687D01*
X74893934Y-71027964D01*
X74893936Y-71027965D01*
X74893937Y-71027967D01*
X74902092Y-71034713D01*
X74929957Y-71057765D01*
X74934268Y-71061687D01*
X75259481Y-71386900D01*
X75443632Y-71571051D01*
X75477117Y-71632374D01*
X75472133Y-71702066D01*
X75455649Y-71732463D01*
X75442759Y-71749892D01*
X75333515Y-71966565D01*
X75333512Y-71966571D01*
X75262456Y-72198594D01*
X75231635Y-72439281D01*
X75241933Y-72681715D01*
X75241933Y-72681719D01*
X75293056Y-72918929D01*
X75293057Y-72918932D01*
X75383530Y-73144082D01*
X75510757Y-73350713D01*
X75671075Y-73532869D01*
X75671079Y-73532873D01*
X75859870Y-73685311D01*
X76071709Y-73803652D01*
X76071712Y-73803653D01*
X76300507Y-73884491D01*
X76300513Y-73884492D01*
X76539662Y-73925499D01*
X76539670Y-73925499D01*
X76539672Y-73925500D01*
X76539673Y-73925500D01*
X77919559Y-73925500D01*
X78100775Y-73910076D01*
X78100775Y-73910075D01*
X78100782Y-73910075D01*
X78335608Y-73848931D01*
X78335611Y-73848930D01*
X78556713Y-73748986D01*
X78556716Y-73748983D01*
X78556723Y-73748981D01*
X78757765Y-73613100D01*
X78932952Y-73445197D01*
X79077244Y-73250102D01*
X79186488Y-73033429D01*
X79257543Y-72801409D01*
X79288365Y-72560719D01*
X79278066Y-72318281D01*
X79226944Y-72081072D01*
X79136468Y-71855914D01*
X79009242Y-71649286D01*
X78848925Y-71467131D01*
X78848924Y-71467130D01*
X78848920Y-71467126D01*
X78660129Y-71314688D01*
X78448290Y-71196347D01*
X78219500Y-71115511D01*
X78219486Y-71115507D01*
X77980337Y-71074500D01*
X77980328Y-71074500D01*
X76773281Y-71074500D01*
X76706242Y-71054815D01*
X76685600Y-71038181D01*
X76139434Y-70492015D01*
X89669500Y-70492015D01*
X89680000Y-70594795D01*
X89680001Y-70594797D01*
X89693150Y-70634477D01*
X89735186Y-70761335D01*
X89735187Y-70761337D01*
X89827286Y-70910651D01*
X89827289Y-70910655D01*
X89951344Y-71034710D01*
X89951348Y-71034713D01*
X90100662Y-71126812D01*
X90100664Y-71126813D01*
X90100666Y-71126814D01*
X90267203Y-71181999D01*
X90369992Y-71192500D01*
X90369997Y-71192500D01*
X92670003Y-71192500D01*
X92670008Y-71192500D01*
X92772797Y-71181999D01*
X92939334Y-71126814D01*
X93088655Y-71034711D01*
X93212711Y-70910655D01*
X93304814Y-70761334D01*
X93359999Y-70594797D01*
X93370500Y-70492008D01*
X93370500Y-69342001D01*
X94665274Y-69342001D01*
X94684152Y-69605960D01*
X94740400Y-69864528D01*
X94832884Y-70112487D01*
X94959701Y-70344735D01*
X94959706Y-70344743D01*
X95047038Y-70461406D01*
X95047039Y-70461406D01*
X95768766Y-69739679D01*
X95812316Y-69821822D01*
X95932009Y-69962735D01*
X96079195Y-70074623D01*
X96121402Y-70094150D01*
X95400592Y-70814959D01*
X95400593Y-70814960D01*
X95517256Y-70902293D01*
X95517264Y-70902298D01*
X95749513Y-71029115D01*
X95749512Y-71029115D01*
X95997471Y-71121599D01*
X96256039Y-71177847D01*
X96519999Y-71196726D01*
X96520001Y-71196726D01*
X96783960Y-71177847D01*
X97042528Y-71121599D01*
X97290487Y-71029115D01*
X97522735Y-70902298D01*
X97522736Y-70902297D01*
X97639406Y-70814959D01*
X96918609Y-70094161D01*
X97037431Y-70022669D01*
X97171658Y-69895523D01*
X97274861Y-69743308D01*
X97992959Y-70461406D01*
X98080297Y-70344736D01*
X98080298Y-70344735D01*
X98207115Y-70112487D01*
X98299599Y-69864528D01*
X98355847Y-69605960D01*
X98374726Y-69342001D01*
X98374726Y-69341998D01*
X98355847Y-69078039D01*
X98299599Y-68819471D01*
X98207115Y-68571512D01*
X98080298Y-68339264D01*
X98080293Y-68339256D01*
X97992960Y-68222593D01*
X97992959Y-68222592D01*
X97271232Y-68944319D01*
X97227684Y-68862178D01*
X97107991Y-68721265D01*
X96960805Y-68609377D01*
X96918596Y-68589849D01*
X97639406Y-67869039D01*
X97639406Y-67869038D01*
X97522743Y-67781706D01*
X97522735Y-67781701D01*
X97290486Y-67654884D01*
X97290487Y-67654884D01*
X97042528Y-67562400D01*
X96783960Y-67506152D01*
X96520001Y-67487274D01*
X96519999Y-67487274D01*
X96256039Y-67506152D01*
X95997471Y-67562400D01*
X95749512Y-67654884D01*
X95517264Y-67781701D01*
X95400593Y-67869039D01*
X96121391Y-68589837D01*
X96002569Y-68661331D01*
X95868342Y-68788477D01*
X95765138Y-68940692D01*
X95047039Y-68222593D01*
X94959701Y-68339264D01*
X94832884Y-68571512D01*
X94740400Y-68819471D01*
X94684152Y-69078039D01*
X94665274Y-69341998D01*
X94665274Y-69342001D01*
X93370500Y-69342001D01*
X93370500Y-68191992D01*
X93359999Y-68089203D01*
X93304814Y-67922666D01*
X93302420Y-67918785D01*
X93212713Y-67773348D01*
X93212710Y-67773344D01*
X93088655Y-67649289D01*
X93088651Y-67649286D01*
X92939337Y-67557187D01*
X92939335Y-67557186D01*
X92856065Y-67529593D01*
X92772797Y-67502001D01*
X92772795Y-67502000D01*
X92670015Y-67491500D01*
X92670008Y-67491500D01*
X90369992Y-67491500D01*
X90369984Y-67491500D01*
X90267204Y-67502000D01*
X90267203Y-67502001D01*
X90100664Y-67557186D01*
X90100662Y-67557187D01*
X89951348Y-67649286D01*
X89951344Y-67649289D01*
X89827289Y-67773344D01*
X89827286Y-67773348D01*
X89735187Y-67922662D01*
X89735186Y-67922664D01*
X89680001Y-68089203D01*
X89680000Y-68089204D01*
X89669500Y-68191984D01*
X89669500Y-70492015D01*
X76139434Y-70492015D01*
X76018819Y-70371400D01*
X75985334Y-70310077D01*
X75982500Y-70283719D01*
X75982500Y-68946925D01*
X76002185Y-68879886D01*
X76054989Y-68834131D01*
X76124147Y-68824187D01*
X76147810Y-68830008D01*
X76300629Y-68884003D01*
X76300637Y-68884005D01*
X76539706Y-68924999D01*
X76539715Y-68925000D01*
X77010000Y-68925000D01*
X77010000Y-68104310D01*
X77018817Y-68109158D01*
X77177886Y-68150000D01*
X77300894Y-68150000D01*
X77422933Y-68134583D01*
X77510000Y-68100110D01*
X77510000Y-68925000D01*
X77919539Y-68925000D01*
X78100692Y-68909582D01*
X78335440Y-68848458D01*
X78556472Y-68748546D01*
X78556480Y-68748541D01*
X78757450Y-68612708D01*
X78757453Y-68612706D01*
X78932575Y-68444864D01*
X78932576Y-68444863D01*
X79076813Y-68249843D01*
X79186021Y-68033242D01*
X79257053Y-67801299D01*
X79263622Y-67750000D01*
X77860728Y-67750000D01*
X77883100Y-67702457D01*
X77913873Y-67541138D01*
X77903561Y-67377234D01*
X77862220Y-67250000D01*
X79262839Y-67250000D01*
X79226463Y-67081217D01*
X79226462Y-67081214D01*
X79136021Y-66856143D01*
X79008838Y-66649584D01*
X78848577Y-66467492D01*
X78848573Y-66467488D01*
X78659855Y-66315109D01*
X78659849Y-66315105D01*
X78448082Y-66196805D01*
X78219370Y-66115996D01*
X78219362Y-66115994D01*
X77980293Y-66075000D01*
X77510000Y-66075000D01*
X77510000Y-66895689D01*
X77501183Y-66890842D01*
X77342114Y-66850000D01*
X77219106Y-66850000D01*
X77097067Y-66865417D01*
X77010000Y-66899889D01*
X77010000Y-66075000D01*
X76600461Y-66075000D01*
X76419307Y-66090417D01*
X76184559Y-66151541D01*
X76184555Y-66151542D01*
X76157573Y-66163739D01*
X76088377Y-66173414D01*
X76024934Y-66144143D01*
X75987388Y-66085219D01*
X75982500Y-66050746D01*
X75982500Y-44590280D01*
X76002185Y-44523241D01*
X76018814Y-44502603D01*
X76907388Y-43614029D01*
X76968709Y-43580546D01*
X77038400Y-43585530D01*
X77088150Y-43619788D01*
X77140070Y-43678780D01*
X77140077Y-43678787D01*
X77324102Y-43827377D01*
X77338892Y-43835639D01*
X77387819Y-43885516D01*
X77402014Y-43953928D01*
X77376970Y-44019155D01*
X77347858Y-44046629D01*
X77228942Y-44127002D01*
X77228932Y-44127010D01*
X77058168Y-44290674D01*
X76917524Y-44480838D01*
X76917521Y-44480842D01*
X76811039Y-44692037D01*
X76811036Y-44692043D01*
X76741775Y-44918206D01*
X76711733Y-45152815D01*
X76721770Y-45389125D01*
X76721770Y-45389126D01*
X76771603Y-45620348D01*
X76839859Y-45790213D01*
X76859793Y-45839820D01*
X76923261Y-45942898D01*
X76983806Y-46041229D01*
X77140075Y-46218785D01*
X77140079Y-46218789D01*
X77318062Y-46362500D01*
X77324102Y-46367377D01*
X77338892Y-46375639D01*
X77387819Y-46425516D01*
X77402014Y-46493928D01*
X77376970Y-46559155D01*
X77347858Y-46586629D01*
X77228942Y-46667002D01*
X77228932Y-46667010D01*
X77058168Y-46830674D01*
X76917524Y-47020838D01*
X76917521Y-47020842D01*
X76811039Y-47232037D01*
X76811036Y-47232043D01*
X76741775Y-47458206D01*
X76711733Y-47692815D01*
X76721770Y-47929125D01*
X76721770Y-47929126D01*
X76771603Y-48160348D01*
X76841353Y-48333931D01*
X76859793Y-48379820D01*
X76910418Y-48462039D01*
X76983806Y-48581229D01*
X77140075Y-48758785D01*
X77140079Y-48758789D01*
X77266170Y-48860600D01*
X77324102Y-48907377D01*
X77338892Y-48915639D01*
X77387819Y-48965516D01*
X77402014Y-49033928D01*
X77376970Y-49099155D01*
X77347858Y-49126629D01*
X77228942Y-49207002D01*
X77228932Y-49207010D01*
X77058168Y-49370674D01*
X76917524Y-49560838D01*
X76917521Y-49560842D01*
X76811039Y-49772037D01*
X76811036Y-49772043D01*
X76741775Y-49998206D01*
X76711733Y-50232815D01*
X76721770Y-50469125D01*
X76721770Y-50469126D01*
X76771603Y-50700348D01*
X76816452Y-50811962D01*
X76859793Y-50919820D01*
X76923421Y-51023157D01*
X76983806Y-51121229D01*
X77140075Y-51298785D01*
X77140079Y-51298789D01*
X77318062Y-51442500D01*
X77324102Y-51447377D01*
X77338892Y-51455639D01*
X77387819Y-51505516D01*
X77402014Y-51573928D01*
X77376970Y-51639155D01*
X77347858Y-51666629D01*
X77228942Y-51747002D01*
X77228932Y-51747010D01*
X77058168Y-51910674D01*
X76917524Y-52100838D01*
X76917521Y-52100842D01*
X76811039Y-52312037D01*
X76811036Y-52312043D01*
X76741775Y-52538206D01*
X76711733Y-52772815D01*
X76721770Y-53009125D01*
X76721770Y-53009126D01*
X76771603Y-53240348D01*
X76816452Y-53351962D01*
X76859793Y-53459820D01*
X76923421Y-53563157D01*
X76983806Y-53661229D01*
X77140075Y-53838785D01*
X77140079Y-53838789D01*
X77324102Y-53987377D01*
X77338892Y-53995639D01*
X77387819Y-54045516D01*
X77402014Y-54113928D01*
X77376970Y-54179155D01*
X77347858Y-54206629D01*
X77228942Y-54287002D01*
X77228932Y-54287010D01*
X77058168Y-54450674D01*
X76917524Y-54640838D01*
X76917521Y-54640842D01*
X76811039Y-54852037D01*
X76811036Y-54852043D01*
X76741775Y-55078206D01*
X76711733Y-55312815D01*
X76721770Y-55549125D01*
X76721770Y-55549126D01*
X76771603Y-55780348D01*
X76859791Y-55999816D01*
X76983806Y-56201229D01*
X77140075Y-56378785D01*
X77140079Y-56378789D01*
X77324102Y-56527377D01*
X77338892Y-56535639D01*
X77387819Y-56585516D01*
X77402014Y-56653928D01*
X77376970Y-56719155D01*
X77347858Y-56746629D01*
X77228942Y-56827002D01*
X77228932Y-56827010D01*
X77058168Y-56990674D01*
X76917524Y-57180838D01*
X76917521Y-57180842D01*
X76811039Y-57392037D01*
X76811036Y-57392043D01*
X76741775Y-57618206D01*
X76711733Y-57852815D01*
X76721770Y-58089125D01*
X76721770Y-58089126D01*
X76771603Y-58320348D01*
X76859791Y-58539816D01*
X76983806Y-58741229D01*
X77140075Y-58918785D01*
X77140079Y-58918789D01*
X77324102Y-59067377D01*
X77530594Y-59182730D01*
X77753611Y-59261527D01*
X77753617Y-59261528D01*
X77986726Y-59301499D01*
X77986734Y-59301499D01*
X77986736Y-59301500D01*
X77986737Y-59301500D01*
X79942033Y-59301500D01*
X80118671Y-59286466D01*
X80118674Y-59286465D01*
X80118676Y-59286465D01*
X80347571Y-59226865D01*
X80563102Y-59129439D01*
X80759068Y-58996990D01*
X80929831Y-58833327D01*
X81070478Y-58643159D01*
X81176964Y-58431957D01*
X81246224Y-58205797D01*
X81276267Y-57971185D01*
X81266229Y-57734871D01*
X81216397Y-57503652D01*
X81128207Y-57284180D01*
X81004193Y-57082770D01*
X80847925Y-56905215D01*
X80847924Y-56905214D01*
X80847920Y-56905210D01*
X80663897Y-56756622D01*
X80649102Y-56748357D01*
X80600177Y-56698476D01*
X80585985Y-56630063D01*
X80611034Y-56564838D01*
X80640136Y-56537372D01*
X80759068Y-56456990D01*
X80929831Y-56293327D01*
X81070478Y-56103159D01*
X81176964Y-55891957D01*
X81246224Y-55665797D01*
X81276267Y-55431185D01*
X81266229Y-55194871D01*
X81216397Y-54963652D01*
X81128207Y-54744180D01*
X81004193Y-54542770D01*
X80847925Y-54365215D01*
X80847924Y-54365214D01*
X80847920Y-54365210D01*
X80663897Y-54216622D01*
X80649102Y-54208357D01*
X80600177Y-54158476D01*
X80585985Y-54090063D01*
X80611034Y-54024838D01*
X80640136Y-53997372D01*
X80759068Y-53916990D01*
X80929831Y-53753327D01*
X81070478Y-53563159D01*
X81176964Y-53351957D01*
X81246224Y-53125797D01*
X81276267Y-52891185D01*
X81266229Y-52654871D01*
X81216397Y-52423652D01*
X81128207Y-52204180D01*
X81004193Y-52002770D01*
X80847925Y-51825215D01*
X80847924Y-51825214D01*
X80847920Y-51825210D01*
X80663897Y-51676622D01*
X80649102Y-51668357D01*
X80600177Y-51618476D01*
X80585985Y-51550063D01*
X80611034Y-51484838D01*
X80640136Y-51457372D01*
X80759068Y-51376990D01*
X80929831Y-51213327D01*
X81070478Y-51023159D01*
X81176964Y-50811957D01*
X81246224Y-50585797D01*
X81276267Y-50351185D01*
X81266229Y-50114871D01*
X81216397Y-49883652D01*
X81128207Y-49664180D01*
X81004193Y-49462770D01*
X80847925Y-49285215D01*
X80847924Y-49285214D01*
X80847920Y-49285210D01*
X80663897Y-49136622D01*
X80649102Y-49128357D01*
X80600177Y-49078476D01*
X80585985Y-49010063D01*
X80611034Y-48944838D01*
X80640136Y-48917372D01*
X80759068Y-48836990D01*
X80929831Y-48673327D01*
X81070478Y-48483159D01*
X81176964Y-48271957D01*
X81246224Y-48045797D01*
X81276267Y-47811185D01*
X81266229Y-47574871D01*
X81216397Y-47343652D01*
X81128207Y-47124180D01*
X81004193Y-46922770D01*
X80847925Y-46745215D01*
X80847924Y-46745214D01*
X80847920Y-46745210D01*
X80663897Y-46596622D01*
X80649102Y-46588357D01*
X80600177Y-46538476D01*
X80585985Y-46470063D01*
X80611034Y-46404838D01*
X80640136Y-46377372D01*
X80759068Y-46296990D01*
X80929831Y-46133327D01*
X81070478Y-45943159D01*
X81176964Y-45731957D01*
X81246224Y-45505797D01*
X81276267Y-45271185D01*
X81266229Y-45034871D01*
X81216397Y-44803652D01*
X81128207Y-44584180D01*
X81004193Y-44382770D01*
X80847925Y-44205215D01*
X80847924Y-44205214D01*
X80847920Y-44205210D01*
X80663897Y-44056622D01*
X80649102Y-44048357D01*
X80600177Y-43998476D01*
X80585985Y-43930063D01*
X80611034Y-43864838D01*
X80640136Y-43837372D01*
X80759068Y-43756990D01*
X80929831Y-43593327D01*
X81070478Y-43403159D01*
X81176964Y-43191957D01*
X81246224Y-42965797D01*
X81276267Y-42731185D01*
X81266229Y-42494871D01*
X81216397Y-42263652D01*
X81128207Y-42044180D01*
X81032828Y-41889276D01*
X81004189Y-41842763D01*
X81003799Y-41842236D01*
X81003702Y-41841973D01*
X81001431Y-41838284D01*
X81002181Y-41837821D01*
X80979760Y-41776632D01*
X80995006Y-41708446D01*
X81044695Y-41659327D01*
X81103493Y-41644500D01*
X85997770Y-41644500D01*
X86064809Y-41664185D01*
X86085451Y-41680819D01*
X92642267Y-48237634D01*
X92654048Y-48251266D01*
X92668390Y-48270530D01*
X92708420Y-48304119D01*
X92712392Y-48307759D01*
X92718224Y-48313591D01*
X92718227Y-48313594D01*
X92743947Y-48333931D01*
X92802788Y-48383304D01*
X92808818Y-48387270D01*
X92808785Y-48387319D01*
X92815143Y-48391369D01*
X92815175Y-48391319D01*
X92821320Y-48395109D01*
X92821323Y-48395111D01*
X92890936Y-48427572D01*
X92959567Y-48462040D01*
X92959572Y-48462041D01*
X92966361Y-48464513D01*
X92966340Y-48464570D01*
X92973455Y-48467043D01*
X92973475Y-48466986D01*
X92980330Y-48469258D01*
X93047668Y-48483161D01*
X93055558Y-48484790D01*
X93130279Y-48502500D01*
X93130289Y-48502500D01*
X93137452Y-48503338D01*
X93137444Y-48503397D01*
X93144945Y-48504164D01*
X93144951Y-48504105D01*
X93152140Y-48504734D01*
X93152144Y-48504733D01*
X93152145Y-48504734D01*
X93228918Y-48502500D01*
X93630060Y-48502500D01*
X93697099Y-48522185D01*
X93735650Y-48561486D01*
X93747806Y-48581229D01*
X93904075Y-48758785D01*
X93904079Y-48758789D01*
X94030170Y-48860600D01*
X94088102Y-48907377D01*
X94102892Y-48915639D01*
X94151819Y-48965516D01*
X94166014Y-49033928D01*
X94140970Y-49099155D01*
X94111858Y-49126629D01*
X93992942Y-49207002D01*
X93992932Y-49207010D01*
X93822168Y-49370674D01*
X93681524Y-49560838D01*
X93681521Y-49560842D01*
X93575039Y-49772037D01*
X93575036Y-49772043D01*
X93505775Y-49998206D01*
X93475733Y-50232815D01*
X93485770Y-50469125D01*
X93485770Y-50469126D01*
X93535603Y-50700348D01*
X93580452Y-50811962D01*
X93623793Y-50919820D01*
X93687421Y-51023157D01*
X93747806Y-51121229D01*
X93904075Y-51298785D01*
X93904079Y-51298789D01*
X94082062Y-51442500D01*
X94088102Y-51447377D01*
X94102892Y-51455639D01*
X94151819Y-51505516D01*
X94166014Y-51573928D01*
X94140970Y-51639155D01*
X94111858Y-51666629D01*
X93992942Y-51747002D01*
X93992932Y-51747010D01*
X93822168Y-51910674D01*
X93681524Y-52100838D01*
X93681521Y-52100842D01*
X93575039Y-52312037D01*
X93575036Y-52312043D01*
X93505775Y-52538206D01*
X93475733Y-52772815D01*
X93485770Y-53009125D01*
X93485770Y-53009126D01*
X93535603Y-53240348D01*
X93580452Y-53351962D01*
X93623793Y-53459820D01*
X93687421Y-53563157D01*
X93747806Y-53661229D01*
X93904075Y-53838785D01*
X93904079Y-53838789D01*
X94088102Y-53987377D01*
X94102892Y-53995639D01*
X94151819Y-54045516D01*
X94166014Y-54113928D01*
X94140970Y-54179155D01*
X94111858Y-54206629D01*
X93992942Y-54287002D01*
X93992932Y-54287010D01*
X93822168Y-54450674D01*
X93681524Y-54640838D01*
X93681521Y-54640842D01*
X93575039Y-54852037D01*
X93575036Y-54852043D01*
X93505775Y-55078206D01*
X93475733Y-55312815D01*
X93485770Y-55549125D01*
X93485770Y-55549126D01*
X93535603Y-55780348D01*
X93623791Y-55999816D01*
X93747806Y-56201229D01*
X93904075Y-56378785D01*
X93904079Y-56378789D01*
X94088102Y-56527377D01*
X94102892Y-56535639D01*
X94151819Y-56585516D01*
X94166014Y-56653928D01*
X94140970Y-56719155D01*
X94111858Y-56746629D01*
X93992942Y-56827002D01*
X93992932Y-56827010D01*
X93822168Y-56990674D01*
X93681524Y-57180838D01*
X93681521Y-57180842D01*
X93575039Y-57392037D01*
X93575036Y-57392043D01*
X93505775Y-57618206D01*
X93475733Y-57852815D01*
X93485770Y-58089125D01*
X93485770Y-58089126D01*
X93535603Y-58320348D01*
X93623791Y-58539816D01*
X93747806Y-58741229D01*
X93904075Y-58918785D01*
X93904079Y-58918789D01*
X94088102Y-59067377D01*
X94294594Y-59182730D01*
X94517611Y-59261527D01*
X94517617Y-59261528D01*
X94750726Y-59301499D01*
X94750734Y-59301499D01*
X94750736Y-59301500D01*
X94750737Y-59301500D01*
X96706033Y-59301500D01*
X96882671Y-59286466D01*
X96882674Y-59286465D01*
X96882676Y-59286465D01*
X97111571Y-59226865D01*
X97327102Y-59129439D01*
X97523068Y-58996990D01*
X97693831Y-58833327D01*
X97834478Y-58643159D01*
X97940964Y-58431957D01*
X98010224Y-58205797D01*
X98040267Y-57971185D01*
X98030229Y-57734871D01*
X97980397Y-57503652D01*
X97892207Y-57284180D01*
X97768193Y-57082770D01*
X97611925Y-56905215D01*
X97611924Y-56905214D01*
X97611920Y-56905210D01*
X97427897Y-56756622D01*
X97413102Y-56748357D01*
X97364177Y-56698476D01*
X97349985Y-56630063D01*
X97375034Y-56564838D01*
X97404136Y-56537372D01*
X97523068Y-56456990D01*
X97693831Y-56293327D01*
X97834478Y-56103159D01*
X97940964Y-55891957D01*
X98010224Y-55665797D01*
X98040267Y-55431185D01*
X98030229Y-55194871D01*
X97980397Y-54963652D01*
X97892207Y-54744180D01*
X97768193Y-54542770D01*
X97611925Y-54365215D01*
X97611924Y-54365214D01*
X97611920Y-54365210D01*
X97427897Y-54216622D01*
X97413102Y-54208357D01*
X97364177Y-54158476D01*
X97349985Y-54090063D01*
X97375034Y-54024838D01*
X97404136Y-53997372D01*
X97523068Y-53916990D01*
X97693831Y-53753327D01*
X97834478Y-53563159D01*
X97940964Y-53351957D01*
X98010224Y-53125797D01*
X98040267Y-52891185D01*
X98030229Y-52654871D01*
X97980397Y-52423652D01*
X97892207Y-52204180D01*
X97768193Y-52002770D01*
X97611925Y-51825215D01*
X97611924Y-51825214D01*
X97611920Y-51825210D01*
X97427897Y-51676622D01*
X97413102Y-51668357D01*
X97364177Y-51618476D01*
X97349985Y-51550063D01*
X97375034Y-51484838D01*
X97404136Y-51457372D01*
X97523068Y-51376990D01*
X97693831Y-51213327D01*
X97834478Y-51023159D01*
X97940964Y-50811957D01*
X98010224Y-50585797D01*
X98040267Y-50351185D01*
X98030229Y-50114871D01*
X98005472Y-50000000D01*
X106994415Y-50000000D01*
X107014738Y-50348927D01*
X107014739Y-50348938D01*
X107075428Y-50693127D01*
X107075430Y-50693134D01*
X107175674Y-51027972D01*
X107314107Y-51348895D01*
X107314113Y-51348908D01*
X107488870Y-51651597D01*
X107697584Y-51931949D01*
X107697589Y-51931955D01*
X107738792Y-51975627D01*
X107937442Y-52186183D01*
X108111499Y-52332234D01*
X108205186Y-52410847D01*
X108205194Y-52410853D01*
X108497203Y-52602911D01*
X108497207Y-52602913D01*
X108809549Y-52759777D01*
X109137989Y-52879319D01*
X109478086Y-52959923D01*
X109825241Y-53000500D01*
X109825248Y-53000500D01*
X110174752Y-53000500D01*
X110174759Y-53000500D01*
X110521914Y-52959923D01*
X110862011Y-52879319D01*
X111190451Y-52759777D01*
X111502793Y-52602913D01*
X111794811Y-52410849D01*
X112062558Y-52186183D01*
X112302412Y-51931953D01*
X112511130Y-51651596D01*
X112685889Y-51348904D01*
X112824326Y-51027971D01*
X112924569Y-50693136D01*
X112943497Y-50585793D01*
X112985260Y-50348938D01*
X112985259Y-50348938D01*
X112985262Y-50348927D01*
X113005585Y-50000000D01*
X146994916Y-50000000D01*
X147015235Y-50348869D01*
X147015236Y-50348880D01*
X147075914Y-50693002D01*
X147075916Y-50693011D01*
X147176145Y-51027800D01*
X147314555Y-51348670D01*
X147314561Y-51348683D01*
X147489289Y-51651322D01*
X147697972Y-51931631D01*
X147697976Y-51931636D01*
X147706147Y-51940297D01*
X147706149Y-51940298D01*
X148702266Y-50944180D01*
X148865130Y-51134870D01*
X149055818Y-51297732D01*
X148062817Y-52290733D01*
X148062818Y-52290734D01*
X148205480Y-52410442D01*
X148497461Y-52602480D01*
X148809739Y-52759314D01*
X148809745Y-52759316D01*
X149138130Y-52878838D01*
X149138133Y-52878839D01*
X149478171Y-52959429D01*
X149825276Y-52999999D01*
X149825277Y-53000000D01*
X150174723Y-53000000D01*
X150174723Y-52999999D01*
X150521827Y-52959429D01*
X150521829Y-52959429D01*
X150861866Y-52878839D01*
X150861869Y-52878838D01*
X151190254Y-52759316D01*
X151190260Y-52759314D01*
X151502538Y-52602480D01*
X151794515Y-52410445D01*
X151937180Y-52290734D01*
X151937181Y-52290733D01*
X150944180Y-51297733D01*
X151134870Y-51134870D01*
X151297733Y-50944180D01*
X152293850Y-51940297D01*
X152302032Y-51931625D01*
X152510710Y-51651322D01*
X152685438Y-51348683D01*
X152685444Y-51348670D01*
X152823854Y-51027800D01*
X152924083Y-50693011D01*
X152924085Y-50693002D01*
X152984763Y-50348880D01*
X152984764Y-50348869D01*
X153005084Y-50000000D01*
X153005084Y-49999996D01*
X152984764Y-49651130D01*
X152984763Y-49651119D01*
X152924085Y-49306997D01*
X152924083Y-49306988D01*
X152823854Y-48972199D01*
X152685444Y-48651329D01*
X152685438Y-48651316D01*
X152510710Y-48348677D01*
X152302029Y-48068371D01*
X152293850Y-48059701D01*
X152293850Y-48059700D01*
X151297732Y-49055818D01*
X151134870Y-48865130D01*
X150944180Y-48702266D01*
X151937181Y-47709265D01*
X151937180Y-47709264D01*
X151794519Y-47589557D01*
X151502538Y-47397519D01*
X151190260Y-47240685D01*
X151190254Y-47240683D01*
X150861869Y-47121161D01*
X150861866Y-47121160D01*
X150521828Y-47040570D01*
X150174723Y-47000000D01*
X149825277Y-47000000D01*
X149478172Y-47040570D01*
X149478170Y-47040570D01*
X149138133Y-47121160D01*
X149138130Y-47121161D01*
X148809745Y-47240683D01*
X148809739Y-47240685D01*
X148497461Y-47397519D01*
X148205485Y-47589554D01*
X148062817Y-47709264D01*
X149055819Y-48702266D01*
X148865130Y-48865130D01*
X148702266Y-49055819D01*
X147706148Y-48059701D01*
X147706146Y-48059701D01*
X147697973Y-48068366D01*
X147489289Y-48348677D01*
X147314561Y-48651316D01*
X147314555Y-48651329D01*
X147176145Y-48972199D01*
X147075916Y-49306988D01*
X147075914Y-49306997D01*
X147015236Y-49651119D01*
X147015235Y-49651130D01*
X146994916Y-49999996D01*
X146994916Y-50000000D01*
X113005585Y-50000000D01*
X113005480Y-49998203D01*
X112998808Y-49883651D01*
X112985262Y-49651073D01*
X112959337Y-49504044D01*
X112924571Y-49306872D01*
X112924569Y-49306865D01*
X112924569Y-49306864D01*
X112824326Y-48972029D01*
X112685889Y-48651096D01*
X112533569Y-48387270D01*
X112511129Y-48348402D01*
X112302415Y-48068050D01*
X112302410Y-48068044D01*
X112171349Y-47929129D01*
X112062558Y-47813817D01*
X111914488Y-47689572D01*
X111794813Y-47589152D01*
X111794805Y-47589146D01*
X111502796Y-47397088D01*
X111190458Y-47240226D01*
X111190452Y-47240223D01*
X110862012Y-47120681D01*
X110862009Y-47120680D01*
X110521915Y-47040077D01*
X110478519Y-47035004D01*
X110174759Y-46999500D01*
X109825241Y-46999500D01*
X109521480Y-47035004D01*
X109478085Y-47040077D01*
X109478083Y-47040077D01*
X109137990Y-47120680D01*
X109137987Y-47120681D01*
X108809547Y-47240223D01*
X108809541Y-47240226D01*
X108497203Y-47397088D01*
X108205194Y-47589146D01*
X108205186Y-47589152D01*
X107937442Y-47813817D01*
X107937440Y-47813819D01*
X107697589Y-48068044D01*
X107697584Y-48068050D01*
X107488870Y-48348402D01*
X107314113Y-48651091D01*
X107314107Y-48651104D01*
X107175674Y-48972027D01*
X107075430Y-49306865D01*
X107075428Y-49306872D01*
X107014739Y-49651061D01*
X107014738Y-49651072D01*
X106994415Y-49999996D01*
X106994415Y-50000000D01*
X98005472Y-50000000D01*
X97980397Y-49883652D01*
X97892207Y-49664180D01*
X97768193Y-49462770D01*
X97611925Y-49285215D01*
X97611924Y-49285214D01*
X97611920Y-49285210D01*
X97427897Y-49136622D01*
X97413102Y-49128357D01*
X97364177Y-49078476D01*
X97349985Y-49010063D01*
X97375034Y-48944838D01*
X97404136Y-48917372D01*
X97523068Y-48836990D01*
X97693831Y-48673327D01*
X97834478Y-48483159D01*
X97940964Y-48271957D01*
X98010224Y-48045797D01*
X98040267Y-47811185D01*
X98030229Y-47574871D01*
X97980397Y-47343652D01*
X97892207Y-47124180D01*
X97768193Y-46922770D01*
X97611925Y-46745215D01*
X97611924Y-46745214D01*
X97611920Y-46745210D01*
X97427896Y-46596621D01*
X97427894Y-46596620D01*
X97412614Y-46588084D01*
X97363688Y-46538204D01*
X97349496Y-46469791D01*
X97374544Y-46404565D01*
X97403653Y-46377095D01*
X97522744Y-46296604D01*
X97522751Y-46296598D01*
X97693454Y-46132993D01*
X97834047Y-45942898D01*
X97940498Y-45731768D01*
X98009734Y-45505690D01*
X98015329Y-45462000D01*
X95439196Y-45462000D01*
X95462845Y-45425201D01*
X95504000Y-45285039D01*
X95504000Y-45138961D01*
X95462845Y-44998799D01*
X95439196Y-44962000D01*
X98014012Y-44962000D01*
X97979916Y-44803798D01*
X97979916Y-44803797D01*
X97891758Y-44584407D01*
X97767788Y-44383066D01*
X97611581Y-44205581D01*
X97611579Y-44205579D01*
X97427617Y-44057039D01*
X97427613Y-44057036D01*
X97412639Y-44048671D01*
X97363713Y-43998791D01*
X97349521Y-43930378D01*
X97374569Y-43865153D01*
X97403674Y-43837685D01*
X97523068Y-43756990D01*
X97693831Y-43593327D01*
X97834478Y-43403159D01*
X97940964Y-43191957D01*
X98010224Y-42965797D01*
X98014808Y-42929999D01*
X155464551Y-42929999D01*
X155472275Y-43028142D01*
X155472466Y-43033008D01*
X155472466Y-43055734D01*
X155476019Y-43078167D01*
X155476592Y-43083002D01*
X155480603Y-43133959D01*
X155484317Y-43181148D01*
X155484317Y-43181151D01*
X155484318Y-43181153D01*
X155507296Y-43276867D01*
X155508246Y-43281642D01*
X155511801Y-43304090D01*
X155518824Y-43325705D01*
X155520146Y-43330390D01*
X155543127Y-43426114D01*
X155580797Y-43517057D01*
X155582482Y-43521623D01*
X155588170Y-43539126D01*
X155589507Y-43543240D01*
X155589508Y-43543243D01*
X155589509Y-43543244D01*
X155599821Y-43563484D01*
X155601858Y-43567904D01*
X155639532Y-43658857D01*
X155690973Y-43742803D01*
X155693351Y-43747048D01*
X155698417Y-43756989D01*
X155703666Y-43767290D01*
X155703667Y-43767292D01*
X155717017Y-43785667D01*
X155719722Y-43789714D01*
X155769543Y-43871015D01*
X155771164Y-43873659D01*
X155830156Y-43942730D01*
X155835094Y-43948511D01*
X155838107Y-43952332D01*
X155851469Y-43970724D01*
X155867547Y-43986802D01*
X155870832Y-43990355D01*
X155934776Y-44065224D01*
X156009639Y-44129163D01*
X156013202Y-44132457D01*
X156029276Y-44148531D01*
X156047654Y-44161883D01*
X156047665Y-44161891D01*
X156051471Y-44164891D01*
X156126341Y-44228836D01*
X156126343Y-44228837D01*
X156126344Y-44228838D01*
X156126345Y-44228839D01*
X156210277Y-44280272D01*
X156214325Y-44282977D01*
X156214335Y-44282984D01*
X156232710Y-44296334D01*
X156252961Y-44306652D01*
X156257179Y-44309014D01*
X156341141Y-44360466D01*
X156341143Y-44360466D01*
X156341145Y-44360468D01*
X156362823Y-44369447D01*
X156432101Y-44398142D01*
X156436515Y-44400178D01*
X156444608Y-44404301D01*
X156456760Y-44410493D01*
X156478380Y-44417517D01*
X156482923Y-44419194D01*
X156573889Y-44456873D01*
X156669627Y-44479857D01*
X156674289Y-44481172D01*
X156695910Y-44488198D01*
X156695911Y-44488198D01*
X156695914Y-44488199D01*
X156704646Y-44489581D01*
X156718367Y-44491754D01*
X156723107Y-44492696D01*
X156818852Y-44515683D01*
X156917024Y-44523409D01*
X156921795Y-44523974D01*
X156944271Y-44527534D01*
X156944275Y-44527534D01*
X156966992Y-44527534D01*
X156971858Y-44527725D01*
X157070000Y-44535449D01*
X157168142Y-44527725D01*
X157173008Y-44527534D01*
X157195725Y-44527534D01*
X157195729Y-44527534D01*
X157218204Y-44523974D01*
X157222975Y-44523409D01*
X157321148Y-44515683D01*
X157416897Y-44492695D01*
X157421627Y-44491755D01*
X157444090Y-44488198D01*
X157465737Y-44481164D01*
X157470351Y-44479862D01*
X157566111Y-44456873D01*
X157657090Y-44419188D01*
X157661599Y-44417524D01*
X157683240Y-44410493D01*
X157703508Y-44400165D01*
X157707863Y-44398157D01*
X157798859Y-44360466D01*
X157882833Y-44309006D01*
X157887018Y-44306662D01*
X157907290Y-44296334D01*
X157925684Y-44282969D01*
X157929707Y-44280281D01*
X158013659Y-44228836D01*
X158088547Y-44164875D01*
X158092314Y-44161906D01*
X158110724Y-44148531D01*
X158126819Y-44132435D01*
X158130347Y-44129174D01*
X158205224Y-44065224D01*
X158269174Y-43990347D01*
X158272435Y-43986819D01*
X158288531Y-43970724D01*
X158301906Y-43952314D01*
X158304875Y-43948547D01*
X158368836Y-43873659D01*
X158420281Y-43789707D01*
X158422969Y-43785684D01*
X158436334Y-43767290D01*
X158446662Y-43747018D01*
X158449006Y-43742833D01*
X158500466Y-43658859D01*
X158538157Y-43567863D01*
X158540165Y-43563508D01*
X158550493Y-43543240D01*
X158557524Y-43521599D01*
X158559188Y-43517090D01*
X158596873Y-43426111D01*
X158619862Y-43330351D01*
X158621164Y-43325737D01*
X158628198Y-43304090D01*
X158631755Y-43281627D01*
X158632695Y-43276897D01*
X158655683Y-43181148D01*
X158663409Y-43082978D01*
X158663974Y-43078201D01*
X158667534Y-43055729D01*
X158668155Y-43024043D01*
X158668334Y-43020401D01*
X158675449Y-42930000D01*
X158668333Y-42839593D01*
X158668155Y-42835946D01*
X158667979Y-42826990D01*
X158667534Y-42804271D01*
X158663974Y-42781798D01*
X158663409Y-42777021D01*
X158655683Y-42678852D01*
X158632696Y-42583107D01*
X158631753Y-42578357D01*
X158628198Y-42555913D01*
X158628198Y-42555911D01*
X158628195Y-42555903D01*
X158621172Y-42534289D01*
X158619857Y-42529627D01*
X158596873Y-42433889D01*
X158559194Y-42342923D01*
X158557517Y-42338380D01*
X158550493Y-42316760D01*
X158540178Y-42296515D01*
X158538139Y-42292093D01*
X158529102Y-42270276D01*
X158500466Y-42201141D01*
X158449014Y-42117179D01*
X158446649Y-42112955D01*
X158445315Y-42110337D01*
X158436334Y-42092710D01*
X158424625Y-42076594D01*
X158422977Y-42074325D01*
X158420272Y-42070277D01*
X158368839Y-41986345D01*
X158368838Y-41986344D01*
X158368837Y-41986343D01*
X158368836Y-41986341D01*
X158304891Y-41911471D01*
X158301891Y-41907665D01*
X158288531Y-41889276D01*
X158272453Y-41873198D01*
X158269163Y-41869639D01*
X158205224Y-41794776D01*
X158130355Y-41730832D01*
X158126799Y-41727544D01*
X158110724Y-41711469D01*
X158092332Y-41698107D01*
X158088511Y-41695094D01*
X158071797Y-41680819D01*
X158013659Y-41631164D01*
X158013654Y-41631161D01*
X158013653Y-41631160D01*
X157929714Y-41579722D01*
X157925667Y-41577017D01*
X157907292Y-41563667D01*
X157907290Y-41563666D01*
X157901104Y-41560514D01*
X157887048Y-41553351D01*
X157882803Y-41550973D01*
X157798857Y-41499532D01*
X157707904Y-41461858D01*
X157703484Y-41459821D01*
X157683244Y-41449509D01*
X157683243Y-41449508D01*
X157683240Y-41449507D01*
X157679126Y-41448170D01*
X157661623Y-41442482D01*
X157657057Y-41440797D01*
X157566114Y-41403127D01*
X157470390Y-41380146D01*
X157465705Y-41378824D01*
X157444090Y-41371801D01*
X157421642Y-41368246D01*
X157416867Y-41367296D01*
X157321152Y-41344318D01*
X157321153Y-41344318D01*
X157321151Y-41344317D01*
X157321148Y-41344317D01*
X157273959Y-41340603D01*
X157223002Y-41336592D01*
X157218167Y-41336019D01*
X157195734Y-41332466D01*
X157195729Y-41332466D01*
X157173008Y-41332466D01*
X157168142Y-41332275D01*
X157070000Y-41324551D01*
X156971858Y-41332275D01*
X156966992Y-41332466D01*
X156944271Y-41332466D01*
X156921833Y-41336019D01*
X156916998Y-41336592D01*
X156818851Y-41344317D01*
X156818844Y-41344318D01*
X156723132Y-41367296D01*
X156718357Y-41368246D01*
X156695913Y-41371801D01*
X156695903Y-41371803D01*
X156674299Y-41378823D01*
X156669612Y-41380145D01*
X156573891Y-41403125D01*
X156482938Y-41440799D01*
X156478373Y-41442483D01*
X156456757Y-41449507D01*
X156436515Y-41459820D01*
X156432098Y-41461856D01*
X156341141Y-41499534D01*
X156257201Y-41550970D01*
X156252958Y-41553347D01*
X156232716Y-41563662D01*
X156232708Y-41563667D01*
X156214330Y-41577018D01*
X156210286Y-41579720D01*
X156126339Y-41631165D01*
X156051482Y-41695098D01*
X156047660Y-41698111D01*
X156029276Y-41711469D01*
X156013198Y-41727544D01*
X156009626Y-41730846D01*
X155934775Y-41794775D01*
X155870846Y-41869626D01*
X155867544Y-41873198D01*
X155851469Y-41889276D01*
X155838111Y-41907660D01*
X155835098Y-41911482D01*
X155771165Y-41986339D01*
X155719720Y-42070286D01*
X155717018Y-42074330D01*
X155703667Y-42092708D01*
X155703662Y-42092716D01*
X155693347Y-42112958D01*
X155690970Y-42117201D01*
X155639534Y-42201141D01*
X155601856Y-42292098D01*
X155599820Y-42296515D01*
X155589507Y-42316757D01*
X155582483Y-42338373D01*
X155580799Y-42342938D01*
X155543125Y-42433891D01*
X155520145Y-42529612D01*
X155518823Y-42534299D01*
X155511803Y-42555903D01*
X155511801Y-42555913D01*
X155508246Y-42578357D01*
X155507296Y-42583132D01*
X155484318Y-42678844D01*
X155484317Y-42678851D01*
X155476592Y-42776998D01*
X155476019Y-42781833D01*
X155472466Y-42804270D01*
X155472466Y-42826990D01*
X155472275Y-42831856D01*
X155464551Y-42929999D01*
X98014808Y-42929999D01*
X98040267Y-42731185D01*
X98030229Y-42494871D01*
X97980397Y-42263652D01*
X97892207Y-42044180D01*
X97768193Y-41842770D01*
X97611925Y-41665215D01*
X97611924Y-41665214D01*
X97611920Y-41665210D01*
X97427897Y-41516622D01*
X97221409Y-41401271D01*
X96998392Y-41322474D01*
X96998382Y-41322471D01*
X96765273Y-41282500D01*
X96765264Y-41282500D01*
X94809972Y-41282500D01*
X94809967Y-41282500D01*
X94633328Y-41297533D01*
X94404429Y-41357134D01*
X94188904Y-41454557D01*
X94188898Y-41454560D01*
X93992939Y-41587004D01*
X93992932Y-41587010D01*
X93822168Y-41750674D01*
X93681524Y-41940838D01*
X93681521Y-41940842D01*
X93575039Y-42152037D01*
X93575036Y-42152043D01*
X93505775Y-42378206D01*
X93475733Y-42612815D01*
X93485770Y-42849125D01*
X93485770Y-42849126D01*
X93535603Y-43080348D01*
X93616488Y-43281642D01*
X93623793Y-43299820D01*
X93639751Y-43325737D01*
X93747806Y-43501229D01*
X93904075Y-43678785D01*
X93904079Y-43678789D01*
X94088103Y-43827378D01*
X94088105Y-43827379D01*
X94103383Y-43835914D01*
X94152310Y-43885793D01*
X94166503Y-43954206D01*
X94141456Y-44019432D01*
X94112347Y-44046903D01*
X93993258Y-44127393D01*
X93993248Y-44127401D01*
X93822545Y-44291006D01*
X93681952Y-44481101D01*
X93575501Y-44692231D01*
X93506265Y-44918309D01*
X93500671Y-44962000D01*
X94552804Y-44962000D01*
X94529155Y-44998799D01*
X94488000Y-45138961D01*
X94488000Y-45285039D01*
X94529155Y-45425201D01*
X94552804Y-45462000D01*
X93501988Y-45462000D01*
X93536083Y-45620201D01*
X93536083Y-45620202D01*
X93624241Y-45839592D01*
X93748211Y-46040933D01*
X93904418Y-46218418D01*
X93904420Y-46218420D01*
X94088382Y-46366960D01*
X94088387Y-46366963D01*
X94103358Y-46375327D01*
X94152285Y-46425206D01*
X94166478Y-46493619D01*
X94141431Y-46558845D01*
X94112322Y-46586316D01*
X93992941Y-46667002D01*
X93992932Y-46667010D01*
X93822168Y-46830673D01*
X93822167Y-46830674D01*
X93733001Y-46951235D01*
X93677311Y-46993429D01*
X93633306Y-47001500D01*
X93580229Y-47001500D01*
X93513190Y-46981815D01*
X93492548Y-46965181D01*
X86935729Y-40408361D01*
X86923949Y-40394730D01*
X86916482Y-40384701D01*
X86909612Y-40375472D01*
X86909610Y-40375470D01*
X86869587Y-40341886D01*
X86865612Y-40338244D01*
X86862690Y-40335322D01*
X86859780Y-40332411D01*
X86834040Y-40312059D01*
X86775209Y-40262694D01*
X86769180Y-40258729D01*
X86769212Y-40258680D01*
X86762853Y-40254628D01*
X86762822Y-40254679D01*
X86756680Y-40250891D01*
X86756678Y-40250890D01*
X86756677Y-40250889D01*
X86717474Y-40232608D01*
X86687058Y-40218424D01*
X86652894Y-40201267D01*
X86618433Y-40183960D01*
X86618431Y-40183959D01*
X86618430Y-40183959D01*
X86611645Y-40181489D01*
X86611665Y-40181433D01*
X86604549Y-40178959D01*
X86604531Y-40179015D01*
X86597671Y-40176742D01*
X86569841Y-40170996D01*
X86522434Y-40161207D01*
X86473472Y-40149603D01*
X86447719Y-40143499D01*
X86440547Y-40142661D01*
X86440553Y-40142601D01*
X86433055Y-40141835D01*
X86433050Y-40141895D01*
X86425860Y-40141265D01*
X86349083Y-40143500D01*
X76517705Y-40143500D01*
X76499735Y-40142191D01*
X76475972Y-40138710D01*
X76430890Y-40142655D01*
X76423933Y-40143264D01*
X76418532Y-40143500D01*
X76410288Y-40143500D01*
X76377707Y-40147308D01*
X76301199Y-40154001D01*
X76294133Y-40155461D01*
X76294121Y-40155404D01*
X76286754Y-40157038D01*
X76286768Y-40157094D01*
X76279751Y-40158756D01*
X76207573Y-40185026D01*
X76134662Y-40209187D01*
X76128119Y-40212238D01*
X76128094Y-40212186D01*
X76121314Y-40215468D01*
X76121340Y-40215520D01*
X76114881Y-40218764D01*
X76050709Y-40260970D01*
X75985345Y-40301288D01*
X75979677Y-40305770D01*
X75979641Y-40305724D01*
X75973798Y-40310484D01*
X75973835Y-40310528D01*
X75968310Y-40315164D01*
X75915597Y-40371035D01*
X72412358Y-43874272D01*
X72398729Y-43886051D01*
X72379468Y-43900390D01*
X72345898Y-43940397D01*
X72342253Y-43944376D01*
X72336409Y-43950222D01*
X72316059Y-43975959D01*
X72266695Y-44034789D01*
X72262729Y-44040819D01*
X72262682Y-44040788D01*
X72258630Y-44047147D01*
X72258679Y-44047177D01*
X72254889Y-44053321D01*
X72222424Y-44122941D01*
X72187960Y-44191566D01*
X72185488Y-44198357D01*
X72185432Y-44198336D01*
X72182960Y-44205450D01*
X72183015Y-44205469D01*
X72180742Y-44212327D01*
X72177333Y-44228839D01*
X72165207Y-44287565D01*
X72160120Y-44309030D01*
X72147498Y-44362286D01*
X72146661Y-44369454D01*
X72146601Y-44369447D01*
X72145835Y-44376945D01*
X72145895Y-44376951D01*
X72145265Y-44384140D01*
X72147500Y-44460916D01*
X72147500Y-74866294D01*
X72146191Y-74884263D01*
X72142710Y-74908025D01*
X55000500Y-74908025D01*
X55000500Y-72439281D01*
X62731635Y-72439281D01*
X62741933Y-72681715D01*
X62741933Y-72681719D01*
X62793056Y-72918929D01*
X62793057Y-72918932D01*
X62883530Y-73144082D01*
X63010757Y-73350713D01*
X63171075Y-73532869D01*
X63171079Y-73532873D01*
X63359870Y-73685311D01*
X63571709Y-73803652D01*
X63571712Y-73803653D01*
X63800507Y-73884491D01*
X63800513Y-73884492D01*
X64039662Y-73925499D01*
X64039670Y-73925499D01*
X64039672Y-73925500D01*
X64039673Y-73925500D01*
X65419559Y-73925500D01*
X65600775Y-73910076D01*
X65600775Y-73910075D01*
X65600782Y-73910075D01*
X65835608Y-73848931D01*
X65835611Y-73848930D01*
X66056713Y-73748986D01*
X66056716Y-73748983D01*
X66056723Y-73748981D01*
X66257765Y-73613100D01*
X66432952Y-73445197D01*
X66577244Y-73250102D01*
X66686488Y-73033429D01*
X66757543Y-72801409D01*
X66788365Y-72560719D01*
X66778066Y-72318281D01*
X66726944Y-72081072D01*
X66636468Y-71855914D01*
X66509242Y-71649286D01*
X66348925Y-71467131D01*
X66348924Y-71467130D01*
X66348920Y-71467126D01*
X66160129Y-71314688D01*
X65948290Y-71196347D01*
X65719500Y-71115511D01*
X65719486Y-71115507D01*
X65480337Y-71074500D01*
X65480328Y-71074500D01*
X64100446Y-71074500D01*
X64100441Y-71074500D01*
X63919224Y-71089923D01*
X63919222Y-71089924D01*
X63684391Y-71151068D01*
X63684388Y-71151069D01*
X63463286Y-71251013D01*
X63463274Y-71251020D01*
X63262234Y-71386900D01*
X63262232Y-71386902D01*
X63087047Y-71554803D01*
X63087046Y-71554804D01*
X62942758Y-71749893D01*
X62833515Y-71966565D01*
X62833512Y-71966571D01*
X62762456Y-72198594D01*
X62731635Y-72439281D01*
X55000500Y-72439281D01*
X55000500Y-67249999D01*
X62756377Y-67249999D01*
X62756378Y-67250000D01*
X64159272Y-67250000D01*
X64136900Y-67297543D01*
X64106127Y-67458862D01*
X64116439Y-67622766D01*
X64157780Y-67750000D01*
X62757161Y-67750000D01*
X62793536Y-67918782D01*
X62793537Y-67918785D01*
X62883978Y-68143856D01*
X63011161Y-68350415D01*
X63171422Y-68532507D01*
X63171426Y-68532511D01*
X63360144Y-68684890D01*
X63360150Y-68684894D01*
X63571917Y-68803194D01*
X63800629Y-68884003D01*
X63800637Y-68884005D01*
X64039706Y-68924999D01*
X64039715Y-68925000D01*
X64510000Y-68925000D01*
X64510000Y-68104310D01*
X64518817Y-68109158D01*
X64677886Y-68150000D01*
X64800894Y-68150000D01*
X64922933Y-68134583D01*
X65010000Y-68100110D01*
X65010000Y-68925000D01*
X65419539Y-68925000D01*
X65600692Y-68909582D01*
X65835440Y-68848458D01*
X66056472Y-68748546D01*
X66056480Y-68748541D01*
X66257450Y-68612708D01*
X66257453Y-68612706D01*
X66432575Y-68444864D01*
X66432576Y-68444863D01*
X66576813Y-68249843D01*
X66686021Y-68033242D01*
X66757053Y-67801299D01*
X66763622Y-67750000D01*
X65360728Y-67750000D01*
X65383100Y-67702457D01*
X65413873Y-67541138D01*
X65403561Y-67377234D01*
X65362220Y-67250000D01*
X66762839Y-67250000D01*
X66726463Y-67081217D01*
X66726462Y-67081214D01*
X66636021Y-66856143D01*
X66508838Y-66649584D01*
X66348577Y-66467492D01*
X66348573Y-66467488D01*
X66159855Y-66315109D01*
X66159849Y-66315105D01*
X65948082Y-66196805D01*
X65719370Y-66115996D01*
X65719362Y-66115994D01*
X65480293Y-66075000D01*
X65010000Y-66075000D01*
X65010000Y-66895689D01*
X65001183Y-66890842D01*
X64842114Y-66850000D01*
X64719106Y-66850000D01*
X64597067Y-66865417D01*
X64510000Y-66899889D01*
X64510000Y-66075000D01*
X64100461Y-66075000D01*
X63919307Y-66090417D01*
X63684559Y-66151541D01*
X63463527Y-66251453D01*
X63463519Y-66251458D01*
X63262549Y-66387291D01*
X63262546Y-66387293D01*
X63087424Y-66555135D01*
X63087423Y-66555136D01*
X62943186Y-66750156D01*
X62833978Y-66966757D01*
X62762946Y-67198700D01*
X62756377Y-67249999D01*
X55000500Y-67249999D01*
X55000500Y-50000000D01*
X55015520Y-49407250D01*
X55019928Y-49238949D01*
X55020082Y-49235945D01*
X55055258Y-48774038D01*
X55079291Y-48468667D01*
X55079583Y-48465835D01*
X55134658Y-48033397D01*
X55178219Y-47702519D01*
X55178642Y-47699794D01*
X55253508Y-47282087D01*
X55316439Y-46942543D01*
X55316998Y-46939867D01*
X55411502Y-46532616D01*
X55493901Y-46189402D01*
X55608177Y-45790027D01*
X55709569Y-45447735D01*
X55843049Y-45057227D01*
X55963110Y-44718185D01*
X56115464Y-44336774D01*
X56253854Y-44002671D01*
X56424746Y-43630741D01*
X56581012Y-43303121D01*
X56770039Y-42941248D01*
X56776147Y-42929999D01*
X61324551Y-42929999D01*
X61332275Y-43028142D01*
X61332466Y-43033008D01*
X61332466Y-43055734D01*
X61336019Y-43078167D01*
X61336592Y-43083002D01*
X61340603Y-43133959D01*
X61344317Y-43181148D01*
X61344317Y-43181151D01*
X61344318Y-43181153D01*
X61367296Y-43276867D01*
X61368246Y-43281642D01*
X61371801Y-43304090D01*
X61378824Y-43325705D01*
X61380146Y-43330390D01*
X61403127Y-43426114D01*
X61440797Y-43517057D01*
X61442482Y-43521623D01*
X61448170Y-43539126D01*
X61449507Y-43543240D01*
X61449508Y-43543243D01*
X61449509Y-43543244D01*
X61459821Y-43563484D01*
X61461858Y-43567904D01*
X61499532Y-43658857D01*
X61550973Y-43742803D01*
X61553351Y-43747048D01*
X61558417Y-43756989D01*
X61563666Y-43767290D01*
X61563667Y-43767292D01*
X61577017Y-43785667D01*
X61579722Y-43789714D01*
X61629543Y-43871015D01*
X61631164Y-43873659D01*
X61690156Y-43942730D01*
X61695094Y-43948511D01*
X61698107Y-43952332D01*
X61711469Y-43970724D01*
X61727547Y-43986802D01*
X61730832Y-43990355D01*
X61794776Y-44065224D01*
X61869639Y-44129163D01*
X61873202Y-44132457D01*
X61889276Y-44148531D01*
X61907654Y-44161883D01*
X61907665Y-44161891D01*
X61911471Y-44164891D01*
X61986341Y-44228836D01*
X61986343Y-44228837D01*
X61986344Y-44228838D01*
X61986345Y-44228839D01*
X62070277Y-44280272D01*
X62074325Y-44282977D01*
X62074335Y-44282984D01*
X62092710Y-44296334D01*
X62112961Y-44306652D01*
X62117179Y-44309014D01*
X62201141Y-44360466D01*
X62201143Y-44360466D01*
X62201145Y-44360468D01*
X62222823Y-44369447D01*
X62292101Y-44398142D01*
X62296515Y-44400178D01*
X62304608Y-44404301D01*
X62316760Y-44410493D01*
X62338380Y-44417517D01*
X62342923Y-44419194D01*
X62433889Y-44456873D01*
X62529627Y-44479857D01*
X62534289Y-44481172D01*
X62555910Y-44488198D01*
X62555911Y-44488198D01*
X62555914Y-44488199D01*
X62564646Y-44489581D01*
X62578367Y-44491754D01*
X62583107Y-44492696D01*
X62678852Y-44515683D01*
X62777024Y-44523409D01*
X62781795Y-44523974D01*
X62804271Y-44527534D01*
X62804275Y-44527534D01*
X62826992Y-44527534D01*
X62831858Y-44527725D01*
X62930000Y-44535449D01*
X63028142Y-44527725D01*
X63033008Y-44527534D01*
X63055725Y-44527534D01*
X63055729Y-44527534D01*
X63078204Y-44523974D01*
X63082975Y-44523409D01*
X63181148Y-44515683D01*
X63276897Y-44492695D01*
X63281627Y-44491755D01*
X63304090Y-44488198D01*
X63325737Y-44481164D01*
X63330351Y-44479862D01*
X63426111Y-44456873D01*
X63517090Y-44419188D01*
X63521599Y-44417524D01*
X63543240Y-44410493D01*
X63563508Y-44400165D01*
X63567863Y-44398157D01*
X63658859Y-44360466D01*
X63742833Y-44309006D01*
X63747018Y-44306662D01*
X63767290Y-44296334D01*
X63785684Y-44282969D01*
X63789707Y-44280281D01*
X63873659Y-44228836D01*
X63948547Y-44164875D01*
X63952314Y-44161906D01*
X63970724Y-44148531D01*
X63986819Y-44132435D01*
X63990347Y-44129174D01*
X64065224Y-44065224D01*
X64129174Y-43990347D01*
X64132435Y-43986819D01*
X64148531Y-43970724D01*
X64161906Y-43952314D01*
X64164875Y-43948547D01*
X64228836Y-43873659D01*
X64280281Y-43789707D01*
X64282969Y-43785684D01*
X64296334Y-43767290D01*
X64306662Y-43747018D01*
X64309006Y-43742833D01*
X64360466Y-43658859D01*
X64398157Y-43567863D01*
X64400165Y-43563508D01*
X64410493Y-43543240D01*
X64417524Y-43521599D01*
X64419188Y-43517090D01*
X64456873Y-43426111D01*
X64479862Y-43330351D01*
X64481164Y-43325737D01*
X64488198Y-43304090D01*
X64491755Y-43281627D01*
X64492695Y-43276897D01*
X64515683Y-43181148D01*
X64523409Y-43082978D01*
X64523974Y-43078201D01*
X64527534Y-43055729D01*
X64528155Y-43024043D01*
X64528334Y-43020401D01*
X64535449Y-42930000D01*
X64528333Y-42839593D01*
X64528155Y-42835946D01*
X64527979Y-42826990D01*
X64527534Y-42804271D01*
X64523974Y-42781798D01*
X64523409Y-42777021D01*
X64515683Y-42678852D01*
X64492696Y-42583107D01*
X64491753Y-42578357D01*
X64488198Y-42555913D01*
X64488198Y-42555911D01*
X64488195Y-42555903D01*
X64481172Y-42534289D01*
X64479857Y-42529627D01*
X64456873Y-42433889D01*
X64419194Y-42342923D01*
X64417517Y-42338380D01*
X64410493Y-42316760D01*
X64400178Y-42296515D01*
X64398139Y-42292093D01*
X64389102Y-42270276D01*
X64360466Y-42201141D01*
X64309014Y-42117179D01*
X64306649Y-42112955D01*
X64305315Y-42110337D01*
X64296334Y-42092710D01*
X64284625Y-42076594D01*
X64282977Y-42074325D01*
X64280272Y-42070277D01*
X64228839Y-41986345D01*
X64228838Y-41986344D01*
X64228837Y-41986343D01*
X64228836Y-41986341D01*
X64164891Y-41911471D01*
X64161891Y-41907665D01*
X64148531Y-41889276D01*
X64132453Y-41873198D01*
X64129163Y-41869639D01*
X64065224Y-41794776D01*
X63990355Y-41730832D01*
X63986799Y-41727544D01*
X63970724Y-41711469D01*
X63952332Y-41698107D01*
X63948511Y-41695094D01*
X63931797Y-41680819D01*
X63873659Y-41631164D01*
X63873654Y-41631161D01*
X63873653Y-41631160D01*
X63789714Y-41579722D01*
X63785667Y-41577017D01*
X63767292Y-41563667D01*
X63767290Y-41563666D01*
X63761104Y-41560514D01*
X63747048Y-41553351D01*
X63742803Y-41550973D01*
X63658857Y-41499532D01*
X63567904Y-41461858D01*
X63563484Y-41459821D01*
X63543244Y-41449509D01*
X63543243Y-41449508D01*
X63543240Y-41449507D01*
X63539126Y-41448170D01*
X63521623Y-41442482D01*
X63517057Y-41440797D01*
X63426114Y-41403127D01*
X63330390Y-41380146D01*
X63325705Y-41378824D01*
X63304090Y-41371801D01*
X63281642Y-41368246D01*
X63276867Y-41367296D01*
X63181152Y-41344318D01*
X63181153Y-41344318D01*
X63181151Y-41344317D01*
X63181148Y-41344317D01*
X63133959Y-41340603D01*
X63083002Y-41336592D01*
X63078167Y-41336019D01*
X63055734Y-41332466D01*
X63055729Y-41332466D01*
X63033008Y-41332466D01*
X63028142Y-41332275D01*
X62930000Y-41324551D01*
X62831858Y-41332275D01*
X62826992Y-41332466D01*
X62804271Y-41332466D01*
X62781833Y-41336019D01*
X62776998Y-41336592D01*
X62678851Y-41344317D01*
X62678844Y-41344318D01*
X62583132Y-41367296D01*
X62578357Y-41368246D01*
X62555913Y-41371801D01*
X62555903Y-41371803D01*
X62534299Y-41378823D01*
X62529612Y-41380145D01*
X62433891Y-41403125D01*
X62342938Y-41440799D01*
X62338373Y-41442483D01*
X62316757Y-41449507D01*
X62296515Y-41459820D01*
X62292098Y-41461856D01*
X62201141Y-41499534D01*
X62117201Y-41550970D01*
X62112958Y-41553347D01*
X62092716Y-41563662D01*
X62092708Y-41563667D01*
X62074330Y-41577018D01*
X62070286Y-41579720D01*
X61986339Y-41631165D01*
X61911482Y-41695098D01*
X61907660Y-41698111D01*
X61889276Y-41711469D01*
X61873198Y-41727544D01*
X61869626Y-41730846D01*
X61794775Y-41794775D01*
X61730846Y-41869626D01*
X61727544Y-41873198D01*
X61711469Y-41889276D01*
X61698111Y-41907660D01*
X61695098Y-41911482D01*
X61631165Y-41986339D01*
X61579720Y-42070286D01*
X61577018Y-42074330D01*
X61563667Y-42092708D01*
X61563662Y-42092716D01*
X61553347Y-42112958D01*
X61550970Y-42117201D01*
X61499534Y-42201141D01*
X61461856Y-42292098D01*
X61459820Y-42296515D01*
X61449507Y-42316757D01*
X61442483Y-42338373D01*
X61440799Y-42342938D01*
X61403125Y-42433891D01*
X61380145Y-42529612D01*
X61378823Y-42534299D01*
X61371803Y-42555903D01*
X61371801Y-42555913D01*
X61368246Y-42578357D01*
X61367296Y-42583132D01*
X61344318Y-42678844D01*
X61344317Y-42678851D01*
X61336592Y-42776998D01*
X61336019Y-42781833D01*
X61332466Y-42804270D01*
X61332466Y-42826990D01*
X61332275Y-42831856D01*
X61324551Y-42929999D01*
X56776147Y-42929999D01*
X56943738Y-42621333D01*
X57150430Y-42270214D01*
X57341049Y-41959152D01*
X57564942Y-41619434D01*
X57771897Y-41318315D01*
X58012421Y-40990765D01*
X58235116Y-40700543D01*
X58491741Y-40385817D01*
X58729476Y-40107466D01*
X59001598Y-39806270D01*
X59035943Y-39770077D01*
X59253629Y-39540682D01*
X59540682Y-39253629D01*
X59806270Y-39001598D01*
X59822676Y-38986774D01*
X60107466Y-38729476D01*
X60385817Y-38491741D01*
X60700543Y-38235116D01*
X60990765Y-38012421D01*
X61318333Y-37771883D01*
X61619434Y-37564942D01*
X61959152Y-37341049D01*
X62270214Y-37150430D01*
X62621333Y-36943738D01*
X62941248Y-36770039D01*
X63303101Y-36581023D01*
X63630741Y-36424746D01*
X64002671Y-36253854D01*
X64336774Y-36115464D01*
X64718185Y-35963110D01*
X65057227Y-35843049D01*
X65447744Y-35709566D01*
X65790027Y-35608177D01*
X66189402Y-35493901D01*
X66532616Y-35411502D01*
X66939867Y-35316998D01*
X66942543Y-35316439D01*
X67282058Y-35253514D01*
X67699794Y-35178642D01*
X67702519Y-35178219D01*
X68033397Y-35134658D01*
X68465835Y-35079583D01*
X68468667Y-35079291D01*
X68773784Y-35055277D01*
X69235945Y-35020082D01*
X69238949Y-35019928D01*
X69407250Y-35015520D01*
X70000000Y-35000500D01*
X70000500Y-35000500D01*
X149999500Y-35000500D01*
X150000000Y-35000500D01*
X150592465Y-35015513D01*
G37*
%TD.AperFunction*%
%TD*%
M02*
