%TF.GenerationSoftware,KiCad,Pcbnew,7.0.9*%
%TF.CreationDate,2024-02-02T14:12:30-08:00*%
%TF.ProjectId,Sensing Device,53656e73-696e-4672-9044-65766963652e,rev?*%
%TF.SameCoordinates,Original*%
%TF.FileFunction,Copper,L1,Top*%
%TF.FilePolarity,Positive*%
%FSLAX46Y46*%
G04 Gerber Fmt 4.6, Leading zero omitted, Abs format (unit mm)*
G04 Created by KiCad (PCBNEW 7.0.9) date 2024-02-02 14:12:30*
%MOMM*%
%LPD*%
G01*
G04 APERTURE LIST*
G04 Aperture macros list*
%AMRoundRect*
0 Rectangle with rounded corners*
0 $1 Rounding radius*
0 $2 $3 $4 $5 $6 $7 $8 $9 X,Y pos of 4 corners*
0 Add a 4 corners polygon primitive as box body*
4,1,4,$2,$3,$4,$5,$6,$7,$8,$9,$2,$3,0*
0 Add four circle primitives for the rounded corners*
1,1,$1+$1,$2,$3*
1,1,$1+$1,$4,$5*
1,1,$1+$1,$6,$7*
1,1,$1+$1,$8,$9*
0 Add four rect primitives between the rounded corners*
20,1,$1+$1,$2,$3,$4,$5,0*
20,1,$1+$1,$4,$5,$6,$7,0*
20,1,$1+$1,$6,$7,$8,$9,0*
20,1,$1+$1,$8,$9,$2,$3,0*%
G04 Aperture macros list end*
%TA.AperFunction,SMDPad,CuDef*%
%ADD10RoundRect,0.250000X0.325000X0.450000X-0.325000X0.450000X-0.325000X-0.450000X0.325000X-0.450000X0*%
%TD*%
%TA.AperFunction,ComponentPad*%
%ADD11O,3.556000X1.778000*%
%TD*%
%TA.AperFunction,ComponentPad*%
%ADD12RoundRect,0.250001X-1.099999X-1.099999X1.099999X-1.099999X1.099999X1.099999X-1.099999X1.099999X0*%
%TD*%
%TA.AperFunction,ComponentPad*%
%ADD13C,2.700000*%
%TD*%
%TA.AperFunction,SMDPad,CuDef*%
%ADD14RoundRect,0.150000X-0.512500X-0.150000X0.512500X-0.150000X0.512500X0.150000X-0.512500X0.150000X0*%
%TD*%
%TA.AperFunction,ComponentPad*%
%ADD15O,3.048000X1.850000*%
%TD*%
%TA.AperFunction,SMDPad,CuDef*%
%ADD16RoundRect,0.250000X0.337500X0.475000X-0.337500X0.475000X-0.337500X-0.475000X0.337500X-0.475000X0*%
%TD*%
%TA.AperFunction,SMDPad,CuDef*%
%ADD17RoundRect,0.250000X-0.350000X-0.450000X0.350000X-0.450000X0.350000X0.450000X-0.350000X0.450000X0*%
%TD*%
%TA.AperFunction,SMDPad,CuDef*%
%ADD18RoundRect,0.250000X0.450000X-0.350000X0.450000X0.350000X-0.450000X0.350000X-0.450000X-0.350000X0*%
%TD*%
%TA.AperFunction,SMDPad,CuDef*%
%ADD19RoundRect,0.250000X0.475000X-0.337500X0.475000X0.337500X-0.475000X0.337500X-0.475000X-0.337500X0*%
%TD*%
%TA.AperFunction,SMDPad,CuDef*%
%ADD20RoundRect,0.250000X-0.650000X-1.650000X0.650000X-1.650000X0.650000X1.650000X-0.650000X1.650000X0*%
%TD*%
%TA.AperFunction,SMDPad,CuDef*%
%ADD21RoundRect,0.200000X-0.200000X-1.250000X0.200000X-1.250000X0.200000X1.250000X-0.200000X1.250000X0*%
%TD*%
%TA.AperFunction,ComponentPad*%
%ADD22C,1.320800*%
%TD*%
%TA.AperFunction,ComponentPad*%
%ADD23C,2.006600*%
%TD*%
%TA.AperFunction,SMDPad,CuDef*%
%ADD24RoundRect,0.250000X-0.450000X0.350000X-0.450000X-0.350000X0.450000X-0.350000X0.450000X0.350000X0*%
%TD*%
%TA.AperFunction,SMDPad,CuDef*%
%ADD25RoundRect,0.250000X0.350000X0.450000X-0.350000X0.450000X-0.350000X-0.450000X0.350000X-0.450000X0*%
%TD*%
%TA.AperFunction,ComponentPad*%
%ADD26C,5.000000*%
%TD*%
%TA.AperFunction,ViaPad*%
%ADD27C,1.778000*%
%TD*%
%TA.AperFunction,ViaPad*%
%ADD28C,5.000000*%
%TD*%
%TA.AperFunction,Conductor*%
%ADD29C,0.500000*%
%TD*%
%TA.AperFunction,Conductor*%
%ADD30C,0.254000*%
%TD*%
G04 APERTURE END LIST*
D10*
%TO.P,D1,1,K*%
%TO.N,Net-(D1-K)*%
X69097000Y-48768000D03*
%TO.P,D1,2,A*%
%TO.N,/LED*%
X67047000Y-48768000D03*
%TD*%
D11*
%TO.P,U1,1,GPIO1_A0_D0*%
%TO.N,/Button*%
X78994000Y-42672000D03*
%TO.P,U1,2,GPIO2_A1_D1*%
%TO.N,unconnected-(U1-GPIO2_A1_D1-Pad2)*%
X78994000Y-45212000D03*
%TO.P,U1,3,GPIO3_A2_D2*%
%TO.N,unconnected-(U1-GPIO3_A2_D2-Pad3)*%
X78994000Y-47752000D03*
%TO.P,U1,4,GPIO4_A3_D3*%
%TO.N,/LED*%
X78994000Y-50292000D03*
%TO.P,U1,5,GPIO4_A3_D3_SDA*%
%TO.N,/SDA_XIAO*%
X78994000Y-52832000D03*
%TO.P,U1,6,GPIO6_A5_D5_SCL*%
%TO.N,/SCL_XIAO*%
X78994000Y-55372000D03*
%TO.P,U1,7,GPIO43_TX_D6*%
%TO.N,unconnected-(U1-GPIO43_TX_D6-Pad7)*%
X78994000Y-57912000D03*
%TO.P,U1,8,5V*%
%TO.N,unconnected-(U1-5V-Pad8)*%
X95758000Y-42672000D03*
%TO.P,U1,9,GND*%
%TO.N,GND*%
X95758000Y-45212000D03*
%TO.P,U1,10,3V3*%
%TO.N,/3V3*%
X95758000Y-47752000D03*
%TO.P,U1,11,GPIO9_A10_D10_COPI*%
%TO.N,unconnected-(U1-GPIO9_A10_D10_COPI-Pad11)*%
X95758000Y-50292000D03*
%TO.P,U1,12,GPIO8_A9_D9_CIPO*%
%TO.N,unconnected-(U1-GPIO8_A9_D9_CIPO-Pad12)*%
X95758000Y-52832000D03*
%TO.P,U1,13,GPIO7_A8_D8_SCK*%
%TO.N,/Id*%
X95758000Y-55372000D03*
%TO.P,U1,14,GPIO44_D7_RX*%
%TO.N,unconnected-(U1-GPIO44_D7_RX-Pad14)*%
X95758000Y-57912000D03*
%TD*%
D12*
%TO.P,J1,1,Pin_1*%
%TO.N,VCC*%
X91520000Y-69342000D03*
D13*
%TO.P,J1,2,Pin_2*%
%TO.N,GND*%
X96520000Y-69342000D03*
%TD*%
D14*
%TO.P,U2,1,SCL/INT*%
%TO.N,/SCL_TLV*%
X128862500Y-69050000D03*
%TO.P,U2,2,GND*%
%TO.N,GND*%
X128862500Y-70000000D03*
%TO.P,U2,3,GND*%
X128862500Y-70950000D03*
%TO.P,U2,4,VDD*%
%TO.N,/3V3*%
X131137500Y-70950000D03*
%TO.P,U2,5,GND*%
%TO.N,GND*%
X131137500Y-70000000D03*
%TO.P,U2,6,SDA/ADDR*%
%TO.N,/SDA_TLV*%
X131137500Y-69050000D03*
%TD*%
D15*
%TO.P,SW1,2,B*%
%TO.N,/Button*%
X77260000Y-72500000D03*
X64760000Y-72500000D03*
%TO.P,SW1,1,A*%
%TO.N,GND*%
X77260000Y-67500000D03*
X64760000Y-67500000D03*
%TD*%
D16*
%TO.P,C4,1*%
%TO.N,VCC*%
X85133000Y-64770000D03*
%TO.P,C4,2*%
%TO.N,GND*%
X83058000Y-64770000D03*
%TD*%
D17*
%TO.P,R7,1*%
%TO.N,/SCL_TLV*%
X119666000Y-69088000D03*
%TO.P,R7,2*%
%TO.N,Net-(C1-Pad1)*%
X121666000Y-69088000D03*
%TD*%
D18*
%TO.P,R5,1*%
%TO.N,/SDA_TLV*%
X135382000Y-62415400D03*
%TO.P,R5,2*%
%TO.N,/SDA_XIAO*%
X135382000Y-60415400D03*
%TD*%
D19*
%TO.P,C3,1*%
%TO.N,/3V3*%
X100584000Y-45212000D03*
%TO.P,C3,2*%
%TO.N,GND*%
X100584000Y-43137000D03*
%TD*%
D20*
%TO.P,BT1,MP*%
%TO.N,N/C*%
X87424000Y-83945000D03*
X80724000Y-83945000D03*
D21*
%TO.P,BT1,2,-*%
%TO.N,GND*%
X84824000Y-79245000D03*
%TO.P,BT1,1,+*%
%TO.N,Net-(BT1-+)*%
X83324000Y-79245000D03*
%TD*%
D22*
%TO.P,SW2,1,A*%
%TO.N,VCC*%
X91764099Y-98044000D03*
%TO.P,SW2,2,B*%
%TO.N,Net-(BT1-+)*%
X93764100Y-98044000D03*
%TO.P,SW2,3,C*%
%TO.N,unconnected-(SW2-C-Pad3)*%
X95764101Y-98044000D03*
D23*
%TO.P,SW2,4*%
%TO.N,N/C*%
X89662000Y-98044000D03*
%TO.P,SW2,5*%
X97866200Y-98044000D03*
%TD*%
D17*
%TO.P,R8,1*%
%TO.N,/SCL_XIAO*%
X119666000Y-73660000D03*
%TO.P,R8,2*%
%TO.N,Net-(C1-Pad1)*%
X121666000Y-73660000D03*
%TD*%
D24*
%TO.P,R3,1*%
%TO.N,/Id*%
X126238000Y-60415400D03*
%TO.P,R3,2*%
%TO.N,/3V3*%
X126238000Y-62415400D03*
%TD*%
D17*
%TO.P,R1,1*%
%TO.N,/Button*%
X71628000Y-83312000D03*
%TO.P,R1,2*%
%TO.N,/3V3*%
X73628000Y-83312000D03*
%TD*%
D16*
%TO.P,C1,1*%
%TO.N,Net-(C1-Pad1)*%
X121920000Y-78486000D03*
%TO.P,C1,2*%
%TO.N,GND*%
X119845000Y-78486000D03*
%TD*%
D25*
%TO.P,R6,1*%
%TO.N,Net-(C1-Pad1)*%
X133080000Y-56134000D03*
%TO.P,R6,2*%
%TO.N,/3V3*%
X131080000Y-56134000D03*
%TD*%
D17*
%TO.P,R2,1*%
%TO.N,Net-(D1-K)*%
X72390000Y-48768000D03*
%TO.P,R2,2*%
%TO.N,GND*%
X74390000Y-48768000D03*
%TD*%
D18*
%TO.P,R4,1*%
%TO.N,/SDA_XIAO*%
X131064000Y-62415400D03*
%TO.P,R4,2*%
%TO.N,/3V3*%
X131064000Y-60415400D03*
%TD*%
D26*
%TO.P,J2,1,Pin_1*%
%TO.N,/Id*%
X110000000Y-50000000D03*
%TO.P,J2,2,Pin_2*%
%TO.N,GND*%
X150000000Y-50000000D03*
%TO.P,J2,3*%
%TO.N,N/C*%
X110000000Y-90000000D03*
%TO.P,J2,4*%
X150000000Y-90000000D03*
%TD*%
D19*
%TO.P,C2,1*%
%TO.N,/3V3*%
X104648000Y-45212000D03*
%TO.P,C2,2*%
%TO.N,GND*%
X104648000Y-43137000D03*
%TD*%
D27*
%TO.N,Net-(BT1-+)*%
X87376000Y-91948000D03*
%TO.N,GND*%
X84074000Y-72898000D03*
D28*
X62930000Y-42930000D03*
X62930000Y-97070000D03*
X157070000Y-97070000D03*
X157070000Y-42930000D03*
D27*
%TO.N,/3V3*%
X77978000Y-83312000D03*
%TO.N,Net-(C1-Pad1)*%
X133096000Y-51562000D03*
X115062000Y-75946000D03*
%TD*%
D29*
%TO.N,Net-(BT1-+)*%
X83324000Y-79245000D02*
X83324000Y-87896000D01*
X83324000Y-87896000D02*
X87376000Y-91948000D01*
%TO.N,GND*%
X84836000Y-77978000D02*
X84836000Y-73660000D01*
X84836000Y-73660000D02*
X84074000Y-72898000D01*
D30*
%TO.N,Net-(D1-K)*%
X72390000Y-48768000D02*
X69097000Y-48768000D01*
D29*
%TO.N,/LED*%
X79756000Y-50292000D02*
X75692000Y-50292000D01*
X74676000Y-51308000D02*
X67818000Y-51308000D01*
X75692000Y-50292000D02*
X74676000Y-51308000D01*
X67818000Y-51308000D02*
X67047000Y-50537000D01*
X67047000Y-50537000D02*
X67047000Y-48768000D01*
%TO.N,VCC*%
X91520000Y-69342000D02*
X91520000Y-84154000D01*
X91520000Y-84154000D02*
X100838000Y-93472000D01*
X91764099Y-99892099D02*
X91764099Y-98044000D01*
X100838000Y-93472000D02*
X100838000Y-99060000D01*
X100838000Y-99060000D02*
X99060000Y-100838000D01*
X99060000Y-100838000D02*
X92710000Y-100838000D01*
X92710000Y-100838000D02*
X91764099Y-99892099D01*
X91520000Y-69422000D02*
X91694000Y-69596000D01*
X91520000Y-69342000D02*
X91520000Y-69422000D01*
D30*
%TO.N,GND*%
X84824000Y-77990000D02*
X84836000Y-77978000D01*
X84824000Y-79245000D02*
X84824000Y-77990000D01*
%TO.N,/Button*%
X64760000Y-72500000D02*
X77260000Y-72500000D01*
D29*
%TO.N,GND*%
X83058000Y-64770000D02*
X79990000Y-64770000D01*
X79990000Y-64770000D02*
X77260000Y-67500000D01*
X77260000Y-67500000D02*
X64760000Y-67500000D01*
X64760000Y-67500000D02*
X62230000Y-64970000D01*
X62230000Y-64970000D02*
X62230000Y-49022000D01*
X65532000Y-45720000D02*
X71342000Y-45720000D01*
X62230000Y-49022000D02*
X65532000Y-45720000D01*
X71342000Y-45720000D02*
X74390000Y-48768000D01*
D30*
%TO.N,/Button*%
X64760000Y-72500000D02*
X64760000Y-76444000D01*
X64760000Y-76444000D02*
X71628000Y-83312000D01*
D29*
%TO.N,GND*%
X128862500Y-70000000D02*
X131137500Y-70000000D01*
X100584000Y-43137000D02*
X104648000Y-43137000D01*
X76454000Y-40894000D02*
X90678000Y-40894000D01*
X98509000Y-45212000D02*
X100584000Y-43137000D01*
X128862500Y-73255296D02*
X128862500Y-76369500D01*
X128862500Y-70950000D02*
X128862500Y-70000000D01*
X90678000Y-40894000D02*
X94996000Y-45212000D01*
X122385000Y-81026000D02*
X119845000Y-78486000D01*
X74390000Y-48768000D02*
X74390000Y-42958000D01*
X131137500Y-70000000D02*
X131799999Y-70000000D01*
X119845000Y-78486000D02*
X105664000Y-78486000D01*
X94996000Y-45212000D02*
X98509000Y-45212000D01*
D30*
X150000000Y-51799999D02*
X150000000Y-50000000D01*
D29*
X105664000Y-78486000D02*
X101346000Y-74168000D01*
X128862500Y-76369500D02*
X124206000Y-81026000D01*
X124206000Y-81026000D02*
X122385000Y-81026000D01*
X74390000Y-42958000D02*
X76454000Y-40894000D01*
X101346000Y-74168000D02*
X96520000Y-69342000D01*
X128862500Y-70950000D02*
X128862500Y-73255296D01*
X131799999Y-70000000D02*
X150000000Y-51799999D01*
%TO.N,VCC*%
X86948000Y-64770000D02*
X91520000Y-69342000D01*
X85133000Y-64770000D02*
X86948000Y-64770000D01*
X91764099Y-98014454D02*
X91764099Y-98044000D01*
D30*
%TO.N,/Id*%
X120415400Y-60415400D02*
X110000000Y-50000000D01*
X104628000Y-55372000D02*
X110000000Y-50000000D01*
X126238000Y-60415400D02*
X120415400Y-60415400D01*
X94996000Y-55372000D02*
X104628000Y-55372000D01*
D29*
%TO.N,/3V3*%
X94996000Y-47752000D02*
X92456000Y-47752000D01*
X156210000Y-62738000D02*
X147998000Y-70950000D01*
X137414000Y-44704000D02*
X151638000Y-44704000D01*
X147998000Y-70950000D02*
X131137500Y-70950000D01*
X156210000Y-49276000D02*
X156210000Y-62738000D01*
X131080000Y-56134000D02*
X131080000Y-60399400D01*
X104648000Y-45212000D02*
X117094000Y-45212000D01*
X90932000Y-49276000D02*
X90932000Y-59690000D01*
X126238000Y-62415400D02*
X129064000Y-62415400D01*
D30*
X125588180Y-62484000D02*
X125878790Y-62774610D01*
D29*
X129064000Y-62415400D02*
X131064000Y-60415400D01*
X131080000Y-51038000D02*
X137414000Y-44704000D01*
X93726000Y-62484000D02*
X125588180Y-62484000D01*
X92456000Y-47752000D02*
X90932000Y-49276000D01*
X94996000Y-47752000D02*
X98044000Y-47752000D01*
X151638000Y-44704000D02*
X156210000Y-49276000D01*
X100584000Y-45212000D02*
X104648000Y-45212000D01*
X90932000Y-59690000D02*
X93726000Y-62484000D01*
X131080000Y-56134000D02*
X131080000Y-51038000D01*
X98044000Y-47752000D02*
X100584000Y-45212000D01*
X117094000Y-45212000D02*
X128016000Y-56134000D01*
X73628000Y-83312000D02*
X77978000Y-83312000D01*
D30*
X131080000Y-60399400D02*
X131064000Y-60415400D01*
D29*
X128016000Y-56134000D02*
X131080000Y-56134000D01*
D30*
%TO.N,/SDA_XIAO*%
X91948000Y-65024000D02*
X128778000Y-65024000D01*
X131064000Y-62738000D02*
X131064000Y-62415400D01*
X79756000Y-52832000D02*
X91948000Y-65024000D01*
X128778000Y-65024000D02*
X131064000Y-62738000D01*
X133382000Y-62415400D02*
X135382000Y-60415400D01*
X131064000Y-62415400D02*
X133382000Y-62415400D01*
%TO.N,/SDA_TLV*%
X135382000Y-64805500D02*
X135382000Y-62415400D01*
X131137500Y-69050000D02*
X135382000Y-64805500D01*
%TO.N,/SCL_TLV*%
X127819500Y-68007000D02*
X120747000Y-68007000D01*
X128862500Y-69050000D02*
X127819500Y-68007000D01*
X120747000Y-68007000D02*
X119666000Y-69088000D01*
%TO.N,/SCL_XIAO*%
X112554000Y-66548000D02*
X119666000Y-73660000D01*
X90932000Y-66548000D02*
X112554000Y-66548000D01*
X79756000Y-55372000D02*
X90932000Y-66548000D01*
%TO.N,Net-(C1-Pad1)*%
X121666000Y-78232000D02*
X121920000Y-78486000D01*
X121666000Y-75946000D02*
X121666000Y-78232000D01*
X121666000Y-69088000D02*
X121666000Y-75946000D01*
X119079296Y-75946000D02*
X121158000Y-73867296D01*
X133096000Y-51562000D02*
X133080000Y-51578000D01*
X115062000Y-75946000D02*
X119079296Y-75946000D01*
X133080000Y-51578000D02*
X133080000Y-56134000D01*
%TD*%
%TA.AperFunction,Conductor*%
%TO.N,GND*%
G36*
X150594655Y-35015569D02*
G01*
X150661539Y-35017321D01*
X150760974Y-35019925D01*
X150764057Y-35020082D01*
X151226961Y-35055334D01*
X151531278Y-35079285D01*
X151534141Y-35079580D01*
X151953418Y-35132978D01*
X151966986Y-35134707D01*
X152297403Y-35178207D01*
X152300198Y-35178641D01*
X152718380Y-35253592D01*
X153057405Y-35316428D01*
X153060090Y-35316988D01*
X153467218Y-35411464D01*
X153467511Y-35411532D01*
X153810573Y-35493894D01*
X154210073Y-35608205D01*
X154524915Y-35701465D01*
X154552220Y-35709554D01*
X154942874Y-35843084D01*
X155281773Y-35963094D01*
X155494361Y-36048012D01*
X155663321Y-36115503D01*
X155997281Y-36253833D01*
X156239396Y-36365078D01*
X156369344Y-36424786D01*
X156696848Y-36580997D01*
X157058864Y-36770098D01*
X157378634Y-36943720D01*
X157729839Y-37150462D01*
X158040835Y-37341041D01*
X158380576Y-37564950D01*
X158573508Y-37697548D01*
X158681655Y-37771876D01*
X158681661Y-37771879D01*
X159009233Y-38012420D01*
X159009254Y-38012435D01*
X159204406Y-38162179D01*
X159299423Y-38235089D01*
X159614233Y-38491783D01*
X159892485Y-38729432D01*
X160043480Y-38865852D01*
X160193783Y-39001646D01*
X160459307Y-39253619D01*
X160746374Y-39540686D01*
X160998368Y-39806232D01*
X161270547Y-40107493D01*
X161387681Y-40244639D01*
X161508225Y-40385776D01*
X161764900Y-40700563D01*
X161987545Y-40990720D01*
X162114501Y-41163610D01*
X162228123Y-41318343D01*
X162435060Y-41619439D01*
X162658944Y-41959143D01*
X162849561Y-42270201D01*
X163056264Y-42621340D01*
X163229960Y-42941248D01*
X163418979Y-43303107D01*
X163575266Y-43630769D01*
X163746143Y-44002667D01*
X163884534Y-44336772D01*
X164036894Y-44718199D01*
X164156960Y-45057254D01*
X164290431Y-45447738D01*
X164391834Y-45790066D01*
X164506099Y-46189403D01*
X164588512Y-46532680D01*
X164682995Y-46939844D01*
X164683562Y-46942560D01*
X164746493Y-47282099D01*
X164821346Y-47699734D01*
X164821788Y-47702580D01*
X164865337Y-48033365D01*
X164882141Y-48165302D01*
X164919797Y-48460974D01*
X164920409Y-48465775D01*
X164920715Y-48468744D01*
X164944730Y-48773886D01*
X164979914Y-49235918D01*
X164980072Y-49239003D01*
X164984501Y-49408128D01*
X164999500Y-50000000D01*
X164999500Y-90000000D01*
X164984455Y-90593661D01*
X164980073Y-90760974D01*
X164979915Y-90764059D01*
X164944687Y-91226677D01*
X164920717Y-91531233D01*
X164920411Y-91534202D01*
X164865292Y-91966986D01*
X164821795Y-92297377D01*
X164821353Y-92300223D01*
X164746434Y-92718227D01*
X164683572Y-93057395D01*
X164683005Y-93060111D01*
X164588467Y-93467511D01*
X164506105Y-93810572D01*
X164391793Y-94210075D01*
X164290445Y-94552220D01*
X164156915Y-94942874D01*
X164036904Y-95281775D01*
X163884496Y-95663321D01*
X163746162Y-95997291D01*
X163575213Y-96369344D01*
X163419002Y-96696848D01*
X163229918Y-97058831D01*
X163056279Y-97378634D01*
X162849537Y-97729839D01*
X162658958Y-98040835D01*
X162435049Y-98380576D01*
X162228118Y-98681663D01*
X161987556Y-99009265D01*
X161764910Y-99299423D01*
X161508216Y-99614233D01*
X161270566Y-99892486D01*
X160998353Y-100193783D01*
X160746380Y-100459307D01*
X160459313Y-100746374D01*
X160193767Y-100998368D01*
X159892506Y-101270547D01*
X159614207Y-101508238D01*
X159299436Y-101764900D01*
X159009272Y-101987551D01*
X158681656Y-102228123D01*
X158380560Y-102435060D01*
X158040856Y-102658944D01*
X157729798Y-102849561D01*
X157378659Y-103056264D01*
X157058751Y-103229960D01*
X156696892Y-103418979D01*
X156369230Y-103575266D01*
X155997332Y-103746143D01*
X155663227Y-103884534D01*
X155281800Y-104036894D01*
X154942745Y-104156960D01*
X154552261Y-104290431D01*
X154209933Y-104391834D01*
X153810596Y-104506099D01*
X153467319Y-104588512D01*
X153060154Y-104682995D01*
X153057438Y-104683562D01*
X152717900Y-104746493D01*
X152300264Y-104821346D01*
X152297418Y-104821788D01*
X151966634Y-104865337D01*
X151586008Y-104913813D01*
X151534218Y-104920409D01*
X151531254Y-104920715D01*
X151226113Y-104944730D01*
X150764080Y-104979914D01*
X150760995Y-104980072D01*
X150591871Y-104984501D01*
X150000000Y-104999500D01*
X70000000Y-104999500D01*
X69406338Y-104984455D01*
X69239024Y-104980073D01*
X69235939Y-104979915D01*
X68773322Y-104944687D01*
X68468765Y-104920717D01*
X68465796Y-104920411D01*
X68033013Y-104865292D01*
X67702621Y-104821795D01*
X67699775Y-104821353D01*
X67281772Y-104746434D01*
X66942603Y-104683572D01*
X66939887Y-104683005D01*
X66532488Y-104588467D01*
X66189427Y-104506105D01*
X65789924Y-104391793D01*
X65447779Y-104290445D01*
X65057125Y-104156915D01*
X64718224Y-104036904D01*
X64336678Y-103884496D01*
X64002708Y-103746162D01*
X63630655Y-103575213D01*
X63303151Y-103419002D01*
X62941168Y-103229918D01*
X62621365Y-103056279D01*
X62270160Y-102849537D01*
X61959164Y-102658958D01*
X61619423Y-102435049D01*
X61318336Y-102228118D01*
X60990734Y-101987556D01*
X60990727Y-101987551D01*
X60932239Y-101942671D01*
X60700576Y-101764910D01*
X60385766Y-101508216D01*
X60185614Y-101337270D01*
X60107517Y-101270569D01*
X59913508Y-101095289D01*
X59806216Y-100998353D01*
X59540692Y-100746380D01*
X59253625Y-100459313D01*
X59031044Y-100224762D01*
X59001625Y-100193760D01*
X58729452Y-99892506D01*
X58643108Y-99791411D01*
X58491772Y-99614219D01*
X58235089Y-99299423D01*
X58208188Y-99264365D01*
X58012437Y-99009257D01*
X58001143Y-98993877D01*
X57771875Y-98681654D01*
X57564939Y-98380560D01*
X57341055Y-98040856D01*
X57150438Y-97729798D01*
X56943735Y-97378659D01*
X56829852Y-97168913D01*
X56770051Y-97058773D01*
X56581020Y-96696892D01*
X56504064Y-96535550D01*
X56424750Y-96369267D01*
X56253856Y-95997331D01*
X56115471Y-95663241D01*
X55963104Y-95281798D01*
X55843085Y-94942874D01*
X55843047Y-94942767D01*
X55709568Y-94552261D01*
X55709556Y-94552220D01*
X55608176Y-94209972D01*
X55493894Y-93810572D01*
X55411500Y-93467375D01*
X55316998Y-93060134D01*
X55316436Y-93057438D01*
X55304278Y-92991838D01*
X55253514Y-92717946D01*
X55178646Y-92300223D01*
X55178216Y-92297458D01*
X55134658Y-91966605D01*
X55079579Y-91534135D01*
X55079290Y-91531327D01*
X55055278Y-91226223D01*
X55020082Y-90764054D01*
X55019928Y-90761050D01*
X55015513Y-90592466D01*
X55000500Y-90000000D01*
X55000500Y-89999500D01*
X55000500Y-72439281D01*
X62731635Y-72439281D01*
X62741933Y-72681715D01*
X62741933Y-72681719D01*
X62793056Y-72918929D01*
X62793057Y-72918932D01*
X62876867Y-73127500D01*
X62883532Y-73144086D01*
X62909639Y-73186486D01*
X63010757Y-73350713D01*
X63171075Y-73532869D01*
X63171079Y-73532873D01*
X63359870Y-73685311D01*
X63571709Y-73803652D01*
X63571712Y-73803653D01*
X63800507Y-73884491D01*
X63800513Y-73884492D01*
X64029456Y-73923749D01*
X64092205Y-73954480D01*
X64128377Y-74014257D01*
X64132500Y-74045965D01*
X64132500Y-76361032D01*
X64130772Y-76376681D01*
X64131054Y-76376708D01*
X64130319Y-76384475D01*
X64132500Y-76453859D01*
X64132500Y-76483477D01*
X64133371Y-76490380D01*
X64133829Y-76496199D01*
X64135298Y-76542942D01*
X64140916Y-76562275D01*
X64144862Y-76581329D01*
X64147383Y-76601287D01*
X64147386Y-76601299D01*
X64164595Y-76644765D01*
X64166487Y-76650293D01*
X64179530Y-76695187D01*
X64179530Y-76695188D01*
X64189777Y-76712515D01*
X64198335Y-76729985D01*
X64205745Y-76748701D01*
X64233229Y-76786529D01*
X64236437Y-76791413D01*
X64260234Y-76831652D01*
X64260240Y-76831660D01*
X64274469Y-76845888D01*
X64287109Y-76860687D01*
X64298934Y-76876964D01*
X64298936Y-76876965D01*
X64298937Y-76876967D01*
X64334957Y-76906765D01*
X64339268Y-76910687D01*
X67980153Y-80551572D01*
X70491181Y-83062600D01*
X70524666Y-83123923D01*
X70527500Y-83150281D01*
X70527500Y-83812001D01*
X70527501Y-83812019D01*
X70538000Y-83914796D01*
X70538001Y-83914799D01*
X70593185Y-84081331D01*
X70593187Y-84081336D01*
X70602448Y-84096350D01*
X70685288Y-84230656D01*
X70809344Y-84354712D01*
X70958666Y-84446814D01*
X71125203Y-84501999D01*
X71227991Y-84512500D01*
X72028008Y-84512499D01*
X72028016Y-84512498D01*
X72028019Y-84512498D01*
X72084302Y-84506748D01*
X72130797Y-84501999D01*
X72297334Y-84446814D01*
X72446656Y-84354712D01*
X72540319Y-84261049D01*
X72601642Y-84227564D01*
X72671334Y-84232548D01*
X72715681Y-84261049D01*
X72809344Y-84354712D01*
X72958666Y-84446814D01*
X73125203Y-84501999D01*
X73227991Y-84512500D01*
X74028008Y-84512499D01*
X74028016Y-84512498D01*
X74028019Y-84512498D01*
X74084302Y-84506748D01*
X74130797Y-84501999D01*
X74297334Y-84446814D01*
X74446656Y-84354712D01*
X74570712Y-84230656D01*
X74638099Y-84121402D01*
X74690047Y-84074679D01*
X74743638Y-84062500D01*
X76741455Y-84062500D01*
X76808494Y-84082185D01*
X76845264Y-84118679D01*
X76877728Y-84168370D01*
X76894661Y-84186764D01*
X77033692Y-84337792D01*
X77215411Y-84479229D01*
X77417931Y-84588828D01*
X77516466Y-84622655D01*
X77635725Y-84663597D01*
X77635727Y-84663597D01*
X77635729Y-84663598D01*
X77862863Y-84701500D01*
X77862864Y-84701500D01*
X78093136Y-84701500D01*
X78093137Y-84701500D01*
X78320271Y-84663598D01*
X78538069Y-84588828D01*
X78740589Y-84479229D01*
X78922308Y-84337792D01*
X79078269Y-84168373D01*
X79095691Y-84141705D01*
X79148836Y-84096350D01*
X79218067Y-84086925D01*
X79281403Y-84116425D01*
X79318736Y-84175485D01*
X79323500Y-84209527D01*
X79323500Y-85645001D01*
X79323501Y-85645018D01*
X79334000Y-85747796D01*
X79334001Y-85747799D01*
X79389185Y-85914331D01*
X79389186Y-85914334D01*
X79481288Y-86063656D01*
X79605344Y-86187712D01*
X79754666Y-86279814D01*
X79921203Y-86334999D01*
X80023991Y-86345500D01*
X81424008Y-86345499D01*
X81526797Y-86334999D01*
X81693334Y-86279814D01*
X81842656Y-86187712D01*
X81966712Y-86063656D01*
X82058814Y-85914334D01*
X82113999Y-85747797D01*
X82124500Y-85645009D01*
X82124499Y-82244992D01*
X82113999Y-82142203D01*
X82058814Y-81975666D01*
X81966712Y-81826344D01*
X81842656Y-81702288D01*
X81693334Y-81610186D01*
X81526797Y-81555001D01*
X81526795Y-81555000D01*
X81424010Y-81544500D01*
X80023998Y-81544500D01*
X80023981Y-81544501D01*
X79921203Y-81555000D01*
X79921200Y-81555001D01*
X79754668Y-81610185D01*
X79754663Y-81610187D01*
X79605342Y-81702289D01*
X79481289Y-81826342D01*
X79389187Y-81975663D01*
X79389186Y-81975666D01*
X79334001Y-82142203D01*
X79334001Y-82142204D01*
X79334000Y-82142204D01*
X79323500Y-82244983D01*
X79323500Y-82414471D01*
X79303815Y-82481510D01*
X79251011Y-82527265D01*
X79181853Y-82537209D01*
X79118297Y-82508184D01*
X79095692Y-82482294D01*
X79078270Y-82455628D01*
X79023780Y-82396436D01*
X78922308Y-82286208D01*
X78854036Y-82233070D01*
X78740591Y-82144772D01*
X78538069Y-82035172D01*
X78538061Y-82035169D01*
X78320274Y-81960402D01*
X78149920Y-81931975D01*
X78093137Y-81922500D01*
X77862863Y-81922500D01*
X77817436Y-81930080D01*
X77635725Y-81960402D01*
X77417938Y-82035169D01*
X77417930Y-82035172D01*
X77215408Y-82144772D01*
X77033694Y-82286206D01*
X77033689Y-82286211D01*
X76877728Y-82455629D01*
X76845264Y-82505321D01*
X76792117Y-82550678D01*
X76741455Y-82561500D01*
X74743638Y-82561500D01*
X74676599Y-82541815D01*
X74638099Y-82502597D01*
X74570712Y-82393344D01*
X74446656Y-82269288D01*
X74297334Y-82177186D01*
X74130797Y-82122001D01*
X74130795Y-82122000D01*
X74028010Y-82111500D01*
X73227998Y-82111500D01*
X73227980Y-82111501D01*
X73125203Y-82122000D01*
X73125200Y-82122001D01*
X72958668Y-82177185D01*
X72958663Y-82177187D01*
X72809342Y-82269289D01*
X72715681Y-82362951D01*
X72654358Y-82396436D01*
X72584666Y-82391452D01*
X72540319Y-82362951D01*
X72446657Y-82269289D01*
X72446656Y-82269288D01*
X72297334Y-82177186D01*
X72130797Y-82122001D01*
X72130795Y-82122000D01*
X72028016Y-82111500D01*
X72028009Y-82111500D01*
X71366281Y-82111500D01*
X71299242Y-82091815D01*
X71278600Y-82075181D01*
X69755032Y-80551613D01*
X82423500Y-80551613D01*
X82429913Y-80622192D01*
X82429913Y-80622194D01*
X82429914Y-80622196D01*
X82480522Y-80784606D01*
X82555617Y-80908829D01*
X82573500Y-80972976D01*
X82573500Y-87832294D01*
X82572191Y-87850263D01*
X82568710Y-87874025D01*
X82573264Y-87926064D01*
X82573500Y-87931470D01*
X82573500Y-87939709D01*
X82577306Y-87972274D01*
X82584000Y-88048791D01*
X82585461Y-88055867D01*
X82585403Y-88055878D01*
X82587034Y-88063237D01*
X82587092Y-88063224D01*
X82588757Y-88070250D01*
X82615025Y-88142424D01*
X82639185Y-88215331D01*
X82642236Y-88221874D01*
X82642182Y-88221898D01*
X82645470Y-88228688D01*
X82645521Y-88228663D01*
X82648761Y-88235113D01*
X82648762Y-88235114D01*
X82648763Y-88235117D01*
X82690965Y-88299283D01*
X82731287Y-88364655D01*
X82735766Y-88370319D01*
X82735719Y-88370356D01*
X82740482Y-88376202D01*
X82740528Y-88376164D01*
X82745173Y-88381700D01*
X82801018Y-88434386D01*
X85967985Y-91601352D01*
X86001470Y-91662675D01*
X86000618Y-91713287D01*
X86001598Y-91713451D01*
X86000753Y-91718513D01*
X85981738Y-91947994D01*
X85981738Y-91948005D01*
X86000753Y-92177484D01*
X86057282Y-92400714D01*
X86149782Y-92611594D01*
X86275728Y-92804370D01*
X86275731Y-92804373D01*
X86431692Y-92973792D01*
X86613411Y-93115229D01*
X86815931Y-93224828D01*
X86929025Y-93263653D01*
X87033725Y-93299597D01*
X87033727Y-93299597D01*
X87033729Y-93299598D01*
X87260863Y-93337500D01*
X87260864Y-93337500D01*
X87491136Y-93337500D01*
X87491137Y-93337500D01*
X87718271Y-93299598D01*
X87936069Y-93224828D01*
X88138589Y-93115229D01*
X88320308Y-92973792D01*
X88476269Y-92804373D01*
X88602217Y-92611595D01*
X88694717Y-92400716D01*
X88751246Y-92177488D01*
X88768689Y-91966986D01*
X88770262Y-91948005D01*
X88770262Y-91947994D01*
X88751246Y-91718515D01*
X88751246Y-91718512D01*
X88694717Y-91495284D01*
X88602217Y-91284405D01*
X88476271Y-91091629D01*
X88449355Y-91062390D01*
X88320308Y-90922208D01*
X88252036Y-90869070D01*
X88138591Y-90780772D01*
X87936069Y-90671172D01*
X87936061Y-90671169D01*
X87718274Y-90596402D01*
X87547920Y-90567975D01*
X87491137Y-90558500D01*
X87260863Y-90558500D01*
X87260862Y-90558500D01*
X87141282Y-90578453D01*
X87071917Y-90570071D01*
X87033193Y-90543825D01*
X84110819Y-87621451D01*
X84077334Y-87560128D01*
X84074500Y-87533770D01*
X84074500Y-85645001D01*
X86023500Y-85645001D01*
X86023501Y-85645018D01*
X86034000Y-85747796D01*
X86034001Y-85747799D01*
X86089185Y-85914331D01*
X86089186Y-85914334D01*
X86181288Y-86063656D01*
X86305344Y-86187712D01*
X86454666Y-86279814D01*
X86621203Y-86334999D01*
X86723991Y-86345500D01*
X88124008Y-86345499D01*
X88226797Y-86334999D01*
X88393334Y-86279814D01*
X88542656Y-86187712D01*
X88666712Y-86063656D01*
X88758814Y-85914334D01*
X88813999Y-85747797D01*
X88824500Y-85645009D01*
X88824499Y-82244992D01*
X88813999Y-82142203D01*
X88758814Y-81975666D01*
X88666712Y-81826344D01*
X88542656Y-81702288D01*
X88393334Y-81610186D01*
X88226797Y-81555001D01*
X88226795Y-81555000D01*
X88124010Y-81544500D01*
X86723998Y-81544500D01*
X86723981Y-81544501D01*
X86621203Y-81555000D01*
X86621200Y-81555001D01*
X86454668Y-81610185D01*
X86454663Y-81610187D01*
X86305342Y-81702289D01*
X86181289Y-81826342D01*
X86089187Y-81975663D01*
X86089186Y-81975666D01*
X86034001Y-82142203D01*
X86034001Y-82142204D01*
X86034000Y-82142204D01*
X86023500Y-82244983D01*
X86023500Y-85645001D01*
X84074500Y-85645001D01*
X84074500Y-81200638D01*
X84094185Y-81133599D01*
X84146989Y-81087844D01*
X84216147Y-81077900D01*
X84262651Y-81094522D01*
X84334601Y-81138018D01*
X84334603Y-81138019D01*
X84496894Y-81188590D01*
X84496893Y-81188590D01*
X84567408Y-81194998D01*
X84567426Y-81194999D01*
X84573999Y-81194998D01*
X84574000Y-81194998D01*
X84574000Y-79495000D01*
X85074000Y-79495000D01*
X85074000Y-81194999D01*
X85080581Y-81194999D01*
X85151102Y-81188591D01*
X85151107Y-81188590D01*
X85313396Y-81138018D01*
X85458877Y-81050072D01*
X85579072Y-80929877D01*
X85667019Y-80784395D01*
X85717590Y-80622106D01*
X85724000Y-80551572D01*
X85724000Y-79495000D01*
X85074000Y-79495000D01*
X84574000Y-79495000D01*
X84574000Y-77295000D01*
X85074000Y-77295000D01*
X85074000Y-78995000D01*
X85723999Y-78995000D01*
X85723999Y-77938417D01*
X85717591Y-77867897D01*
X85717590Y-77867892D01*
X85667018Y-77705603D01*
X85579072Y-77560122D01*
X85458877Y-77439927D01*
X85313395Y-77351980D01*
X85313396Y-77351980D01*
X85151105Y-77301409D01*
X85151106Y-77301409D01*
X85080572Y-77295000D01*
X85074000Y-77295000D01*
X84574000Y-77295000D01*
X84573999Y-77294999D01*
X84567436Y-77295000D01*
X84567417Y-77295001D01*
X84496897Y-77301408D01*
X84496892Y-77301409D01*
X84334603Y-77351981D01*
X84189124Y-77439926D01*
X84162033Y-77467017D01*
X84100709Y-77500501D01*
X84031018Y-77495515D01*
X83986672Y-77467015D01*
X83959185Y-77439528D01*
X83813606Y-77351522D01*
X83651196Y-77300914D01*
X83651194Y-77300913D01*
X83651192Y-77300913D01*
X83601778Y-77296423D01*
X83580616Y-77294500D01*
X83067384Y-77294500D01*
X83048145Y-77296248D01*
X82996807Y-77300913D01*
X82834393Y-77351522D01*
X82688811Y-77439530D01*
X82568530Y-77559811D01*
X82480522Y-77705393D01*
X82429913Y-77867807D01*
X82423500Y-77938386D01*
X82423500Y-80551613D01*
X69755032Y-80551613D01*
X65423819Y-76220400D01*
X65390334Y-76159077D01*
X65387500Y-76132719D01*
X65387500Y-74042122D01*
X65407185Y-73975083D01*
X65459989Y-73929328D01*
X65500984Y-73918569D01*
X65520750Y-73916886D01*
X65600775Y-73910076D01*
X65600775Y-73910075D01*
X65600782Y-73910075D01*
X65835608Y-73848931D01*
X65835611Y-73848930D01*
X66056713Y-73748986D01*
X66056716Y-73748983D01*
X66056723Y-73748981D01*
X66257765Y-73613100D01*
X66432952Y-73445197D01*
X66577244Y-73250102D01*
X66604685Y-73195676D01*
X66652442Y-73144676D01*
X66715408Y-73127500D01*
X75304049Y-73127500D01*
X75371088Y-73147185D01*
X75409639Y-73186486D01*
X75510757Y-73350713D01*
X75671075Y-73532869D01*
X75671079Y-73532873D01*
X75859870Y-73685311D01*
X76071709Y-73803652D01*
X76071712Y-73803653D01*
X76300507Y-73884491D01*
X76300513Y-73884492D01*
X76539662Y-73925499D01*
X76539670Y-73925499D01*
X76539672Y-73925500D01*
X76539673Y-73925500D01*
X77919559Y-73925500D01*
X78100775Y-73910076D01*
X78100775Y-73910075D01*
X78100782Y-73910075D01*
X78335608Y-73848931D01*
X78335611Y-73848930D01*
X78556713Y-73748986D01*
X78556716Y-73748983D01*
X78556723Y-73748981D01*
X78757765Y-73613100D01*
X78932952Y-73445197D01*
X79077244Y-73250102D01*
X79186488Y-73033429D01*
X79257543Y-72801409D01*
X79288365Y-72560719D01*
X79286855Y-72525185D01*
X79278066Y-72318284D01*
X79278066Y-72318280D01*
X79252271Y-72198591D01*
X79226944Y-72081072D01*
X79136468Y-71855914D01*
X79009242Y-71649286D01*
X78848925Y-71467131D01*
X78848924Y-71467130D01*
X78848920Y-71467126D01*
X78660129Y-71314688D01*
X78448290Y-71196347D01*
X78219500Y-71115511D01*
X78219486Y-71115507D01*
X77980337Y-71074500D01*
X77980328Y-71074500D01*
X76600446Y-71074500D01*
X76600441Y-71074500D01*
X76419224Y-71089923D01*
X76419222Y-71089924D01*
X76184391Y-71151068D01*
X76184388Y-71151069D01*
X75963286Y-71251013D01*
X75963274Y-71251020D01*
X75762234Y-71386900D01*
X75762232Y-71386902D01*
X75587047Y-71554803D01*
X75587046Y-71554804D01*
X75442758Y-71749893D01*
X75442753Y-71749901D01*
X75415315Y-71804324D01*
X75367558Y-71855324D01*
X75304592Y-71872500D01*
X66715951Y-71872500D01*
X66648912Y-71852815D01*
X66610361Y-71813514D01*
X66569774Y-71747597D01*
X66509242Y-71649286D01*
X66348925Y-71467131D01*
X66348924Y-71467130D01*
X66348920Y-71467126D01*
X66160129Y-71314688D01*
X65948290Y-71196347D01*
X65719500Y-71115511D01*
X65719486Y-71115507D01*
X65480337Y-71074500D01*
X65480328Y-71074500D01*
X64100446Y-71074500D01*
X64100441Y-71074500D01*
X63919224Y-71089923D01*
X63919222Y-71089924D01*
X63684391Y-71151068D01*
X63684388Y-71151069D01*
X63463286Y-71251013D01*
X63463274Y-71251020D01*
X63262234Y-71386900D01*
X63262232Y-71386902D01*
X63087047Y-71554803D01*
X63087046Y-71554804D01*
X62942758Y-71749893D01*
X62833515Y-71966565D01*
X62833512Y-71966571D01*
X62762456Y-72198594D01*
X62731635Y-72439281D01*
X55000500Y-72439281D01*
X55000500Y-67249999D01*
X62756377Y-67249999D01*
X62756378Y-67250000D01*
X64159272Y-67250000D01*
X64136900Y-67297543D01*
X64106127Y-67458862D01*
X64116439Y-67622766D01*
X64157780Y-67750000D01*
X62757161Y-67750000D01*
X62793536Y-67918782D01*
X62793537Y-67918785D01*
X62883978Y-68143856D01*
X63011161Y-68350415D01*
X63171422Y-68532507D01*
X63171426Y-68532511D01*
X63360144Y-68684890D01*
X63360150Y-68684894D01*
X63571917Y-68803194D01*
X63800629Y-68884003D01*
X63800637Y-68884005D01*
X64039706Y-68924999D01*
X64039715Y-68925000D01*
X64510000Y-68925000D01*
X64510000Y-68104310D01*
X64518817Y-68109158D01*
X64677886Y-68150000D01*
X64800894Y-68150000D01*
X64922933Y-68134583D01*
X65010000Y-68100110D01*
X65010000Y-68925000D01*
X65419539Y-68925000D01*
X65600692Y-68909582D01*
X65835440Y-68848458D01*
X66056472Y-68748546D01*
X66056480Y-68748541D01*
X66257450Y-68612708D01*
X66257453Y-68612706D01*
X66432575Y-68444864D01*
X66432576Y-68444863D01*
X66576813Y-68249843D01*
X66686021Y-68033242D01*
X66757053Y-67801299D01*
X66763622Y-67750000D01*
X65360728Y-67750000D01*
X65383100Y-67702457D01*
X65413873Y-67541138D01*
X65403561Y-67377234D01*
X65362220Y-67250000D01*
X66762839Y-67250000D01*
X66762839Y-67249999D01*
X75256377Y-67249999D01*
X75256378Y-67250000D01*
X76659272Y-67250000D01*
X76636900Y-67297543D01*
X76606127Y-67458862D01*
X76616439Y-67622766D01*
X76657780Y-67750000D01*
X75257161Y-67750000D01*
X75293536Y-67918782D01*
X75293537Y-67918785D01*
X75383978Y-68143856D01*
X75511161Y-68350415D01*
X75671422Y-68532507D01*
X75671426Y-68532511D01*
X75860144Y-68684890D01*
X75860150Y-68684894D01*
X76071917Y-68803194D01*
X76300629Y-68884003D01*
X76300637Y-68884005D01*
X76539706Y-68924999D01*
X76539715Y-68925000D01*
X77010000Y-68925000D01*
X77010000Y-68104310D01*
X77018817Y-68109158D01*
X77177886Y-68150000D01*
X77300894Y-68150000D01*
X77422933Y-68134583D01*
X77510000Y-68100110D01*
X77510000Y-68925000D01*
X77919539Y-68925000D01*
X78100692Y-68909582D01*
X78335440Y-68848458D01*
X78556472Y-68748546D01*
X78556480Y-68748541D01*
X78757450Y-68612708D01*
X78757453Y-68612706D01*
X78932575Y-68444864D01*
X78932576Y-68444863D01*
X79076813Y-68249843D01*
X79186021Y-68033242D01*
X79257053Y-67801299D01*
X79263622Y-67750000D01*
X77860728Y-67750000D01*
X77883100Y-67702457D01*
X77913873Y-67541138D01*
X77903561Y-67377234D01*
X77862220Y-67250000D01*
X79262839Y-67250000D01*
X79226463Y-67081217D01*
X79226462Y-67081214D01*
X79136021Y-66856143D01*
X79008838Y-66649584D01*
X78848577Y-66467492D01*
X78848573Y-66467488D01*
X78659855Y-66315109D01*
X78659849Y-66315105D01*
X78448082Y-66196805D01*
X78219370Y-66115996D01*
X78219362Y-66115994D01*
X77980293Y-66075000D01*
X77510000Y-66075000D01*
X77510000Y-66895689D01*
X77501183Y-66890842D01*
X77342114Y-66850000D01*
X77219106Y-66850000D01*
X77097067Y-66865417D01*
X77010000Y-66899889D01*
X77010000Y-66075000D01*
X76600461Y-66075000D01*
X76419307Y-66090417D01*
X76184559Y-66151541D01*
X75963527Y-66251453D01*
X75963519Y-66251458D01*
X75762549Y-66387291D01*
X75762546Y-66387293D01*
X75587424Y-66555135D01*
X75587423Y-66555136D01*
X75443186Y-66750156D01*
X75333978Y-66966757D01*
X75262946Y-67198700D01*
X75256377Y-67249999D01*
X66762839Y-67249999D01*
X66726463Y-67081217D01*
X66726462Y-67081214D01*
X66636021Y-66856143D01*
X66508838Y-66649584D01*
X66348577Y-66467492D01*
X66348573Y-66467488D01*
X66159855Y-66315109D01*
X66159849Y-66315105D01*
X65948082Y-66196805D01*
X65719370Y-66115996D01*
X65719362Y-66115994D01*
X65480293Y-66075000D01*
X65010000Y-66075000D01*
X65010000Y-66895689D01*
X65001183Y-66890842D01*
X64842114Y-66850000D01*
X64719106Y-66850000D01*
X64597067Y-66865417D01*
X64510000Y-66899889D01*
X64510000Y-66075000D01*
X64100461Y-66075000D01*
X63919307Y-66090417D01*
X63684559Y-66151541D01*
X63463527Y-66251453D01*
X63463519Y-66251458D01*
X63262549Y-66387291D01*
X63262546Y-66387293D01*
X63087424Y-66555135D01*
X63087423Y-66555136D01*
X62943186Y-66750156D01*
X62833978Y-66966757D01*
X62762946Y-67198700D01*
X62756377Y-67249999D01*
X55000500Y-67249999D01*
X55000500Y-65020000D01*
X81970501Y-65020000D01*
X81970501Y-65294986D01*
X81980994Y-65397697D01*
X82036141Y-65564119D01*
X82036143Y-65564124D01*
X82128184Y-65713345D01*
X82252154Y-65837315D01*
X82401375Y-65929356D01*
X82401380Y-65929358D01*
X82567802Y-65984505D01*
X82567809Y-65984506D01*
X82670519Y-65994999D01*
X82807999Y-65994999D01*
X82808000Y-65994998D01*
X82808000Y-65020000D01*
X81970501Y-65020000D01*
X55000500Y-65020000D01*
X55000500Y-64520000D01*
X81970500Y-64520000D01*
X82808000Y-64520000D01*
X82808000Y-63545000D01*
X82670527Y-63545000D01*
X82670512Y-63545001D01*
X82567802Y-63555494D01*
X82401380Y-63610641D01*
X82401375Y-63610643D01*
X82252154Y-63702684D01*
X82128184Y-63826654D01*
X82036143Y-63975875D01*
X82036141Y-63975880D01*
X81980994Y-64142302D01*
X81980993Y-64142309D01*
X81970500Y-64245013D01*
X81970500Y-64520000D01*
X55000500Y-64520000D01*
X55000500Y-50000000D01*
X55015547Y-49406223D01*
X55019166Y-49268001D01*
X65971500Y-49268001D01*
X65971501Y-49268019D01*
X65982000Y-49370796D01*
X65982001Y-49370799D01*
X66037185Y-49537331D01*
X66037187Y-49537336D01*
X66048376Y-49555476D01*
X66107340Y-49651073D01*
X66129289Y-49686657D01*
X66258451Y-49815819D01*
X66256559Y-49817710D01*
X66289774Y-49864583D01*
X66296500Y-49904867D01*
X66296500Y-50473294D01*
X66295191Y-50491263D01*
X66291710Y-50515025D01*
X66296264Y-50567064D01*
X66296500Y-50572470D01*
X66296500Y-50580709D01*
X66300306Y-50613274D01*
X66307000Y-50689791D01*
X66308461Y-50696867D01*
X66308403Y-50696878D01*
X66310034Y-50704237D01*
X66310092Y-50704224D01*
X66311757Y-50711250D01*
X66338025Y-50783424D01*
X66362185Y-50856331D01*
X66365236Y-50862874D01*
X66365182Y-50862898D01*
X66368470Y-50869688D01*
X66368521Y-50869663D01*
X66371761Y-50876113D01*
X66371762Y-50876114D01*
X66371763Y-50876117D01*
X66413965Y-50940283D01*
X66454287Y-51005655D01*
X66458766Y-51011319D01*
X66458719Y-51011356D01*
X66463482Y-51017202D01*
X66463528Y-51017164D01*
X66468173Y-51022700D01*
X66524019Y-51075387D01*
X67242268Y-51793635D01*
X67254049Y-51807267D01*
X67268390Y-51826530D01*
X67308420Y-51860119D01*
X67312392Y-51863759D01*
X67318224Y-51869591D01*
X67318227Y-51869594D01*
X67343947Y-51889931D01*
X67402788Y-51939304D01*
X67408818Y-51943270D01*
X67408785Y-51943319D01*
X67415143Y-51947369D01*
X67415175Y-51947319D01*
X67421320Y-51951109D01*
X67421323Y-51951111D01*
X67490936Y-51983572D01*
X67559567Y-52018040D01*
X67559572Y-52018041D01*
X67566361Y-52020513D01*
X67566340Y-52020570D01*
X67573455Y-52023043D01*
X67573475Y-52022986D01*
X67580330Y-52025258D01*
X67655558Y-52040790D01*
X67730279Y-52058500D01*
X67730289Y-52058500D01*
X67737452Y-52059338D01*
X67737444Y-52059397D01*
X67744945Y-52060164D01*
X67744951Y-52060105D01*
X67752140Y-52060734D01*
X67752144Y-52060733D01*
X67752145Y-52060734D01*
X67828918Y-52058500D01*
X74612295Y-52058500D01*
X74630265Y-52059809D01*
X74654023Y-52063289D01*
X74706068Y-52058735D01*
X74711470Y-52058500D01*
X74719704Y-52058500D01*
X74719709Y-52058500D01*
X74731327Y-52057141D01*
X74752276Y-52054693D01*
X74765028Y-52053577D01*
X74828797Y-52047999D01*
X74828805Y-52047996D01*
X74835866Y-52046539D01*
X74835878Y-52046598D01*
X74843243Y-52044965D01*
X74843229Y-52044906D01*
X74850246Y-52043241D01*
X74850255Y-52043241D01*
X74922423Y-52016974D01*
X74995334Y-51992814D01*
X74995343Y-51992807D01*
X75001882Y-51989760D01*
X75001908Y-51989816D01*
X75008690Y-51986532D01*
X75008663Y-51986478D01*
X75015106Y-51983240D01*
X75015117Y-51983237D01*
X75079283Y-51941034D01*
X75144656Y-51900712D01*
X75144662Y-51900705D01*
X75150325Y-51896229D01*
X75150363Y-51896277D01*
X75156200Y-51891522D01*
X75156161Y-51891475D01*
X75161696Y-51886830D01*
X75214385Y-51830982D01*
X75966549Y-51078819D01*
X76027872Y-51045334D01*
X76054230Y-51042500D01*
X76866060Y-51042500D01*
X76933099Y-51062185D01*
X76971650Y-51101486D01*
X76983806Y-51121229D01*
X77140075Y-51298785D01*
X77140079Y-51298789D01*
X77324102Y-51447377D01*
X77338892Y-51455639D01*
X77387819Y-51505516D01*
X77402014Y-51573928D01*
X77376970Y-51639155D01*
X77347858Y-51666629D01*
X77228942Y-51747002D01*
X77228932Y-51747010D01*
X77110925Y-51860111D01*
X77058168Y-51910674D01*
X76917524Y-52100838D01*
X76917521Y-52100842D01*
X76811039Y-52312037D01*
X76811036Y-52312043D01*
X76741775Y-52538206D01*
X76711733Y-52772815D01*
X76721770Y-53009125D01*
X76721770Y-53009126D01*
X76771603Y-53240348D01*
X76859791Y-53459816D01*
X76983806Y-53661229D01*
X77140075Y-53838785D01*
X77140079Y-53838789D01*
X77324102Y-53987377D01*
X77338892Y-53995639D01*
X77387819Y-54045516D01*
X77402014Y-54113928D01*
X77376970Y-54179155D01*
X77347858Y-54206629D01*
X77228942Y-54287002D01*
X77228932Y-54287010D01*
X77058168Y-54450674D01*
X76917524Y-54640838D01*
X76917521Y-54640842D01*
X76811039Y-54852037D01*
X76811036Y-54852043D01*
X76741775Y-55078206D01*
X76711733Y-55312815D01*
X76721770Y-55549125D01*
X76721770Y-55549126D01*
X76771603Y-55780348D01*
X76859166Y-55998261D01*
X76859793Y-55999820D01*
X76901572Y-56067673D01*
X76983806Y-56201229D01*
X77140075Y-56378785D01*
X77140079Y-56378789D01*
X77324102Y-56527377D01*
X77338892Y-56535639D01*
X77387819Y-56585516D01*
X77402014Y-56653928D01*
X77376970Y-56719155D01*
X77347858Y-56746629D01*
X77228942Y-56827002D01*
X77228932Y-56827010D01*
X77058168Y-56990674D01*
X76917524Y-57180838D01*
X76917521Y-57180842D01*
X76811039Y-57392037D01*
X76811036Y-57392043D01*
X76741775Y-57618206D01*
X76711733Y-57852815D01*
X76721770Y-58089125D01*
X76721770Y-58089126D01*
X76771603Y-58320348D01*
X76859791Y-58539816D01*
X76983806Y-58741229D01*
X77140075Y-58918785D01*
X77140079Y-58918789D01*
X77324102Y-59067377D01*
X77530594Y-59182730D01*
X77753611Y-59261527D01*
X77753617Y-59261528D01*
X77986726Y-59301499D01*
X77986734Y-59301499D01*
X77986736Y-59301500D01*
X77986737Y-59301500D01*
X79942033Y-59301500D01*
X80118671Y-59286466D01*
X80118674Y-59286465D01*
X80118676Y-59286465D01*
X80347571Y-59226865D01*
X80563102Y-59129439D01*
X80759068Y-58996990D01*
X80929831Y-58833327D01*
X81070478Y-58643159D01*
X81176964Y-58431957D01*
X81246224Y-58205797D01*
X81265924Y-58051949D01*
X81293964Y-57987955D01*
X81352152Y-57949278D01*
X81422013Y-57948199D01*
X81476601Y-57980020D01*
X87366407Y-63869826D01*
X87399892Y-63931149D01*
X87394908Y-64000841D01*
X87353036Y-64056774D01*
X87287572Y-64081191D01*
X87223078Y-64068319D01*
X87206431Y-64059959D01*
X87199645Y-64057489D01*
X87199665Y-64057433D01*
X87192549Y-64054959D01*
X87192531Y-64055015D01*
X87185671Y-64052742D01*
X87157841Y-64046996D01*
X87110434Y-64037207D01*
X87061472Y-64025603D01*
X87035719Y-64019499D01*
X87028547Y-64018661D01*
X87028553Y-64018601D01*
X87021055Y-64017835D01*
X87021050Y-64017895D01*
X87013860Y-64017265D01*
X86937083Y-64019500D01*
X86251558Y-64019500D01*
X86184519Y-63999815D01*
X86146019Y-63960597D01*
X86063212Y-63826344D01*
X85939156Y-63702288D01*
X85789834Y-63610186D01*
X85623297Y-63555001D01*
X85623295Y-63555000D01*
X85520510Y-63544500D01*
X84745498Y-63544500D01*
X84745480Y-63544501D01*
X84642703Y-63555000D01*
X84642700Y-63555001D01*
X84476168Y-63610185D01*
X84476163Y-63610187D01*
X84326842Y-63702289D01*
X84202788Y-63826343D01*
X84202783Y-63826349D01*
X84200741Y-63829661D01*
X84198747Y-63831453D01*
X84198307Y-63832011D01*
X84198211Y-63831935D01*
X84148791Y-63876383D01*
X84079828Y-63887602D01*
X84015747Y-63859755D01*
X83989668Y-63829656D01*
X83987819Y-63826659D01*
X83987816Y-63826655D01*
X83863845Y-63702684D01*
X83714624Y-63610643D01*
X83714619Y-63610641D01*
X83548197Y-63555494D01*
X83548190Y-63555493D01*
X83445486Y-63545000D01*
X83308000Y-63545000D01*
X83308000Y-65994999D01*
X83445472Y-65994999D01*
X83445486Y-65994998D01*
X83548197Y-65984505D01*
X83714619Y-65929358D01*
X83714624Y-65929356D01*
X83863845Y-65837315D01*
X83987818Y-65713342D01*
X83989665Y-65710348D01*
X83991469Y-65708724D01*
X83992298Y-65707677D01*
X83992476Y-65707818D01*
X84041610Y-65663621D01*
X84110573Y-65652396D01*
X84174656Y-65680236D01*
X84200743Y-65710341D01*
X84202788Y-65713656D01*
X84326844Y-65837712D01*
X84476166Y-65929814D01*
X84642703Y-65984999D01*
X84745491Y-65995500D01*
X85520508Y-65995499D01*
X85520516Y-65995498D01*
X85520519Y-65995498D01*
X85576802Y-65989748D01*
X85623297Y-65984999D01*
X85789834Y-65929814D01*
X85939156Y-65837712D01*
X86063212Y-65713656D01*
X86146019Y-65579402D01*
X86197967Y-65532679D01*
X86251558Y-65520500D01*
X86585770Y-65520500D01*
X86652809Y-65540185D01*
X86673451Y-65556819D01*
X89633181Y-68516548D01*
X89666666Y-68577871D01*
X89669500Y-68604229D01*
X89669500Y-70492015D01*
X89680000Y-70594795D01*
X89680001Y-70594796D01*
X89735186Y-70761335D01*
X89735187Y-70761337D01*
X89827286Y-70910651D01*
X89827289Y-70910655D01*
X89951344Y-71034710D01*
X89951348Y-71034713D01*
X90100662Y-71126812D01*
X90100664Y-71126813D01*
X90100666Y-71126814D01*
X90267203Y-71181999D01*
X90369992Y-71192500D01*
X90645500Y-71192500D01*
X90712539Y-71212185D01*
X90758294Y-71264989D01*
X90769500Y-71316500D01*
X90769500Y-84090294D01*
X90768191Y-84108263D01*
X90764710Y-84132025D01*
X90769264Y-84184064D01*
X90769500Y-84189470D01*
X90769500Y-84197709D01*
X90773306Y-84230275D01*
X90773505Y-84232548D01*
X90780000Y-84306791D01*
X90781461Y-84313867D01*
X90781403Y-84313878D01*
X90783034Y-84321237D01*
X90783092Y-84321224D01*
X90784757Y-84328250D01*
X90811025Y-84400424D01*
X90835185Y-84473331D01*
X90838236Y-84479874D01*
X90838182Y-84479898D01*
X90841470Y-84486688D01*
X90841521Y-84486663D01*
X90844761Y-84493113D01*
X90844762Y-84493114D01*
X90844763Y-84493117D01*
X90886965Y-84557283D01*
X90927287Y-84622655D01*
X90931766Y-84628319D01*
X90931719Y-84628356D01*
X90936482Y-84634202D01*
X90936528Y-84634164D01*
X90941173Y-84639700D01*
X90997017Y-84692385D01*
X100051181Y-93746549D01*
X100084666Y-93807872D01*
X100087500Y-93834230D01*
X100087500Y-98697770D01*
X100067815Y-98764809D01*
X100051181Y-98785451D01*
X98785451Y-100051181D01*
X98724128Y-100084666D01*
X98697770Y-100087500D01*
X93072230Y-100087500D01*
X93005191Y-100067815D01*
X92984549Y-100051181D01*
X92550918Y-99617550D01*
X92517433Y-99556227D01*
X92514599Y-99529869D01*
X92514599Y-98985467D01*
X92534284Y-98918428D01*
X92555062Y-98893829D01*
X92568804Y-98881302D01*
X92625690Y-98829444D01*
X92665147Y-98777193D01*
X92721253Y-98735560D01*
X92790965Y-98730867D01*
X92852147Y-98764609D01*
X92863050Y-98777192D01*
X92869287Y-98785451D01*
X92902511Y-98829446D01*
X92902514Y-98829449D01*
X93061502Y-98974385D01*
X93061504Y-98974386D01*
X93061505Y-98974387D01*
X93244426Y-99087647D01*
X93445044Y-99165367D01*
X93656527Y-99204900D01*
X93656529Y-99204900D01*
X93871671Y-99204900D01*
X93871673Y-99204900D01*
X94083156Y-99165367D01*
X94283774Y-99087647D01*
X94466695Y-98974387D01*
X94625691Y-98829444D01*
X94665148Y-98777193D01*
X94721254Y-98735560D01*
X94790966Y-98730867D01*
X94852148Y-98764609D01*
X94863051Y-98777192D01*
X94869288Y-98785451D01*
X94902512Y-98829446D01*
X94902515Y-98829449D01*
X95061503Y-98974385D01*
X95061505Y-98974386D01*
X95061506Y-98974387D01*
X95244427Y-99087647D01*
X95445045Y-99165367D01*
X95656528Y-99204900D01*
X95656530Y-99204900D01*
X95871672Y-99204900D01*
X95871674Y-99204900D01*
X96083157Y-99165367D01*
X96283775Y-99087647D01*
X96466696Y-98974387D01*
X96493771Y-98949704D01*
X96556573Y-98919086D01*
X96625960Y-98927282D01*
X96671599Y-98960807D01*
X96799565Y-99110635D01*
X96979555Y-99264362D01*
X96979557Y-99264363D01*
X96979558Y-99264364D01*
X96979559Y-99264365D01*
X97181377Y-99388039D01*
X97362003Y-99462856D01*
X97400063Y-99478621D01*
X97630226Y-99533878D01*
X97866200Y-99552450D01*
X98102174Y-99533878D01*
X98332337Y-99478621D01*
X98551022Y-99388039D01*
X98752845Y-99264362D01*
X98932835Y-99110635D01*
X99086562Y-98930645D01*
X99210239Y-98728822D01*
X99300821Y-98510137D01*
X99356078Y-98279974D01*
X99374650Y-98044000D01*
X99356078Y-97808026D01*
X99300821Y-97577863D01*
X99239677Y-97430247D01*
X99210239Y-97359177D01*
X99086565Y-97157359D01*
X99086564Y-97157358D01*
X99086563Y-97157357D01*
X99086562Y-97157355D01*
X98932835Y-96977365D01*
X98752845Y-96823638D01*
X98752843Y-96823636D01*
X98752841Y-96823635D01*
X98752840Y-96823634D01*
X98551022Y-96699960D01*
X98332336Y-96609378D01*
X98102177Y-96554122D01*
X97866200Y-96535550D01*
X97630222Y-96554122D01*
X97400063Y-96609378D01*
X97181377Y-96699960D01*
X96979559Y-96823634D01*
X96979558Y-96823635D01*
X96799565Y-96977365D01*
X96671600Y-97127191D01*
X96613093Y-97165384D01*
X96543225Y-97165882D01*
X96493773Y-97138297D01*
X96466696Y-97113613D01*
X96283775Y-97000353D01*
X96083157Y-96922633D01*
X95871674Y-96883100D01*
X95656528Y-96883100D01*
X95445045Y-96922633D01*
X95381086Y-96947411D01*
X95244429Y-97000352D01*
X95244428Y-97000352D01*
X95061503Y-97113614D01*
X94902515Y-97258550D01*
X94902510Y-97258555D01*
X94863053Y-97310805D01*
X94806944Y-97352440D01*
X94737232Y-97357131D01*
X94676050Y-97323388D01*
X94665147Y-97310805D01*
X94625691Y-97258556D01*
X94625688Y-97258553D01*
X94625685Y-97258550D01*
X94466697Y-97113614D01*
X94378051Y-97058727D01*
X94283774Y-97000353D01*
X94083156Y-96922633D01*
X93871673Y-96883100D01*
X93656527Y-96883100D01*
X93445044Y-96922633D01*
X93381085Y-96947411D01*
X93244428Y-97000352D01*
X93244427Y-97000352D01*
X93061502Y-97113614D01*
X92902514Y-97258550D01*
X92902509Y-97258555D01*
X92863052Y-97310805D01*
X92806943Y-97352440D01*
X92737231Y-97357131D01*
X92676049Y-97323388D01*
X92665146Y-97310805D01*
X92625690Y-97258556D01*
X92625687Y-97258553D01*
X92625684Y-97258550D01*
X92466696Y-97113614D01*
X92378050Y-97058727D01*
X92283773Y-97000353D01*
X92083155Y-96922633D01*
X91871672Y-96883100D01*
X91656526Y-96883100D01*
X91445043Y-96922633D01*
X91381084Y-96947411D01*
X91244427Y-97000352D01*
X91244426Y-97000352D01*
X91061501Y-97113614D01*
X91034426Y-97138297D01*
X90971622Y-97168913D01*
X90902235Y-97160715D01*
X90856599Y-97127191D01*
X90845003Y-97113614D01*
X90728635Y-96977365D01*
X90548645Y-96823638D01*
X90548643Y-96823636D01*
X90548641Y-96823635D01*
X90548640Y-96823634D01*
X90346822Y-96699960D01*
X90128136Y-96609378D01*
X89897977Y-96554122D01*
X89662000Y-96535550D01*
X89426022Y-96554122D01*
X89195863Y-96609378D01*
X88977177Y-96699960D01*
X88775359Y-96823634D01*
X88775358Y-96823635D01*
X88595365Y-96977365D01*
X88441635Y-97157358D01*
X88441634Y-97157359D01*
X88317960Y-97359177D01*
X88227378Y-97577863D01*
X88172122Y-97808022D01*
X88153550Y-98044000D01*
X88172122Y-98279977D01*
X88227378Y-98510136D01*
X88317960Y-98728822D01*
X88441634Y-98930640D01*
X88441635Y-98930641D01*
X88441636Y-98930643D01*
X88441638Y-98930645D01*
X88595365Y-99110635D01*
X88775355Y-99264362D01*
X88775357Y-99264363D01*
X88775358Y-99264364D01*
X88775359Y-99264365D01*
X88977177Y-99388039D01*
X89157803Y-99462856D01*
X89195863Y-99478621D01*
X89426026Y-99533878D01*
X89662000Y-99552450D01*
X89897974Y-99533878D01*
X90128137Y-99478621D01*
X90346822Y-99388039D01*
X90548645Y-99264362D01*
X90728635Y-99110635D01*
X90795309Y-99032569D01*
X90853815Y-98994376D01*
X90923683Y-98993877D01*
X90982730Y-99031231D01*
X91012208Y-99094578D01*
X91013599Y-99113101D01*
X91013599Y-99828393D01*
X91012290Y-99846362D01*
X91008809Y-99870124D01*
X91013363Y-99922163D01*
X91013599Y-99927569D01*
X91013599Y-99935808D01*
X91017405Y-99968373D01*
X91024099Y-100044890D01*
X91025560Y-100051966D01*
X91025502Y-100051977D01*
X91027133Y-100059336D01*
X91027191Y-100059323D01*
X91028856Y-100066349D01*
X91055124Y-100138523D01*
X91079284Y-100211430D01*
X91082335Y-100217973D01*
X91082281Y-100217997D01*
X91085569Y-100224787D01*
X91085620Y-100224762D01*
X91088860Y-100231212D01*
X91088861Y-100231213D01*
X91088862Y-100231216D01*
X91131064Y-100295382D01*
X91171386Y-100360754D01*
X91175865Y-100366418D01*
X91175818Y-100366455D01*
X91180581Y-100372301D01*
X91180627Y-100372263D01*
X91185272Y-100377799D01*
X91241116Y-100430484D01*
X92134270Y-101323638D01*
X92146051Y-101337270D01*
X92160388Y-101356528D01*
X92200409Y-101390111D01*
X92204397Y-101393766D01*
X92210216Y-101399585D01*
X92210220Y-101399588D01*
X92210223Y-101399591D01*
X92235959Y-101419940D01*
X92294786Y-101469302D01*
X92294787Y-101469302D01*
X92294789Y-101469304D01*
X92300818Y-101473270D01*
X92300785Y-101473319D01*
X92307147Y-101477372D01*
X92307179Y-101477321D01*
X92313319Y-101481108D01*
X92313323Y-101481111D01*
X92348132Y-101497343D01*
X92382941Y-101513575D01*
X92401336Y-101522813D01*
X92451567Y-101548040D01*
X92451569Y-101548040D01*
X92458357Y-101550511D01*
X92458336Y-101550567D01*
X92465457Y-101553043D01*
X92465476Y-101552986D01*
X92472322Y-101555254D01*
X92472327Y-101555257D01*
X92472332Y-101555258D01*
X92472335Y-101555259D01*
X92547565Y-101570792D01*
X92622279Y-101588500D01*
X92622282Y-101588500D01*
X92622286Y-101588501D01*
X92629453Y-101589339D01*
X92629446Y-101589398D01*
X92636944Y-101590164D01*
X92636950Y-101590105D01*
X92644139Y-101590734D01*
X92644143Y-101590733D01*
X92644144Y-101590734D01*
X92720917Y-101588500D01*
X98996295Y-101588500D01*
X99014265Y-101589809D01*
X99038023Y-101593289D01*
X99090068Y-101588735D01*
X99095470Y-101588500D01*
X99103704Y-101588500D01*
X99103709Y-101588500D01*
X99115327Y-101587141D01*
X99136276Y-101584693D01*
X99149028Y-101583577D01*
X99212797Y-101577999D01*
X99212805Y-101577996D01*
X99219866Y-101576539D01*
X99219878Y-101576598D01*
X99227243Y-101574965D01*
X99227229Y-101574906D01*
X99234246Y-101573241D01*
X99234255Y-101573241D01*
X99306423Y-101546974D01*
X99379334Y-101522814D01*
X99379343Y-101522807D01*
X99385882Y-101519760D01*
X99385908Y-101519816D01*
X99392690Y-101516532D01*
X99392663Y-101516478D01*
X99399106Y-101513240D01*
X99399117Y-101513237D01*
X99463283Y-101471034D01*
X99528656Y-101430712D01*
X99528662Y-101430705D01*
X99534325Y-101426229D01*
X99534363Y-101426277D01*
X99540200Y-101421522D01*
X99540161Y-101421475D01*
X99545696Y-101416830D01*
X99598385Y-101360983D01*
X100891552Y-100067815D01*
X101323642Y-99635724D01*
X101337271Y-99623947D01*
X101356530Y-99609610D01*
X101390101Y-99569601D01*
X101393761Y-99565606D01*
X101399590Y-99559778D01*
X101419941Y-99534039D01*
X101425948Y-99526879D01*
X101469302Y-99475214D01*
X101469306Y-99475205D01*
X101473274Y-99469175D01*
X101473325Y-99469208D01*
X101477372Y-99462856D01*
X101477320Y-99462824D01*
X101481112Y-99456675D01*
X101513575Y-99387058D01*
X101548036Y-99318440D01*
X101548040Y-99318433D01*
X101548042Y-99318421D01*
X101550509Y-99311646D01*
X101550567Y-99311667D01*
X101553043Y-99304546D01*
X101552986Y-99304527D01*
X101555255Y-99297680D01*
X101555256Y-99297675D01*
X101555257Y-99297673D01*
X101570791Y-99222437D01*
X101588500Y-99147721D01*
X101588500Y-99147719D01*
X101589339Y-99140548D01*
X101589398Y-99140554D01*
X101590164Y-99133054D01*
X101590105Y-99133049D01*
X101590734Y-99125859D01*
X101588500Y-99049082D01*
X101588500Y-93535705D01*
X101589809Y-93517735D01*
X101590129Y-93515547D01*
X101593289Y-93493977D01*
X101588735Y-93441931D01*
X101588500Y-93436528D01*
X101588500Y-93428297D01*
X101588500Y-93428291D01*
X101584693Y-93395724D01*
X101577999Y-93319201D01*
X101576539Y-93312129D01*
X101576597Y-93312116D01*
X101574965Y-93304757D01*
X101574906Y-93304772D01*
X101573241Y-93297751D01*
X101573241Y-93297745D01*
X101546974Y-93225576D01*
X101522814Y-93152666D01*
X101522813Y-93152665D01*
X101522813Y-93152663D01*
X101519764Y-93146124D01*
X101519817Y-93146099D01*
X101516531Y-93139311D01*
X101516479Y-93139338D01*
X101513236Y-93132882D01*
X101501624Y-93115227D01*
X101471034Y-93068716D01*
X101430712Y-93003344D01*
X101430710Y-93003342D01*
X101426234Y-92997681D01*
X101426280Y-92997643D01*
X101421519Y-92991799D01*
X101421474Y-92991838D01*
X101416834Y-92986308D01*
X101360982Y-92933613D01*
X98427369Y-90000000D01*
X106994415Y-90000000D01*
X107014738Y-90348927D01*
X107014739Y-90348938D01*
X107075428Y-90693127D01*
X107075430Y-90693134D01*
X107175674Y-91027972D01*
X107314107Y-91348895D01*
X107314113Y-91348908D01*
X107488870Y-91651597D01*
X107697584Y-91931949D01*
X107697589Y-91931955D01*
X107821463Y-92063253D01*
X107937442Y-92186183D01*
X108038930Y-92271341D01*
X108205186Y-92410847D01*
X108205194Y-92410853D01*
X108497203Y-92602911D01*
X108497207Y-92602913D01*
X108809549Y-92759777D01*
X109137989Y-92879319D01*
X109478086Y-92959923D01*
X109825241Y-93000500D01*
X109825248Y-93000500D01*
X110174752Y-93000500D01*
X110174759Y-93000500D01*
X110521914Y-92959923D01*
X110862011Y-92879319D01*
X111190451Y-92759777D01*
X111502793Y-92602913D01*
X111794811Y-92410849D01*
X112062558Y-92186183D01*
X112302412Y-91931953D01*
X112511130Y-91651596D01*
X112685889Y-91348904D01*
X112824326Y-91027971D01*
X112924569Y-90693136D01*
X112928443Y-90671169D01*
X112985260Y-90348938D01*
X112985259Y-90348938D01*
X112985262Y-90348927D01*
X113005585Y-90000000D01*
X146994415Y-90000000D01*
X147014738Y-90348927D01*
X147014739Y-90348938D01*
X147075428Y-90693127D01*
X147075430Y-90693134D01*
X147175674Y-91027972D01*
X147314107Y-91348895D01*
X147314113Y-91348908D01*
X147488870Y-91651597D01*
X147697584Y-91931949D01*
X147697589Y-91931955D01*
X147821463Y-92063253D01*
X147937442Y-92186183D01*
X148038930Y-92271341D01*
X148205186Y-92410847D01*
X148205194Y-92410853D01*
X148497203Y-92602911D01*
X148497207Y-92602913D01*
X148809549Y-92759777D01*
X149137989Y-92879319D01*
X149478086Y-92959923D01*
X149825241Y-93000500D01*
X149825248Y-93000500D01*
X150174752Y-93000500D01*
X150174759Y-93000500D01*
X150521914Y-92959923D01*
X150862011Y-92879319D01*
X151190451Y-92759777D01*
X151502793Y-92602913D01*
X151794811Y-92410849D01*
X152062558Y-92186183D01*
X152302412Y-91931953D01*
X152511130Y-91651596D01*
X152685889Y-91348904D01*
X152824326Y-91027971D01*
X152924569Y-90693136D01*
X152928443Y-90671169D01*
X152985260Y-90348938D01*
X152985259Y-90348938D01*
X152985262Y-90348927D01*
X153005585Y-90000000D01*
X152985262Y-89651073D01*
X152985260Y-89651061D01*
X152924571Y-89306872D01*
X152924569Y-89306865D01*
X152824325Y-88972027D01*
X152685892Y-88651104D01*
X152685889Y-88651096D01*
X152560772Y-88434386D01*
X152511129Y-88348402D01*
X152302415Y-88068050D01*
X152302410Y-88068044D01*
X152119361Y-87874025D01*
X152062558Y-87813817D01*
X151833305Y-87621451D01*
X151794813Y-87589152D01*
X151794805Y-87589146D01*
X151502796Y-87397088D01*
X151190458Y-87240226D01*
X151190452Y-87240223D01*
X150862012Y-87120681D01*
X150862009Y-87120680D01*
X150521915Y-87040077D01*
X150478519Y-87035004D01*
X150174759Y-86999500D01*
X149825241Y-86999500D01*
X149521480Y-87035004D01*
X149478085Y-87040077D01*
X149478083Y-87040077D01*
X149137990Y-87120680D01*
X149137987Y-87120681D01*
X148809547Y-87240223D01*
X148809541Y-87240226D01*
X148497203Y-87397088D01*
X148205194Y-87589146D01*
X148205186Y-87589152D01*
X147937442Y-87813817D01*
X147937440Y-87813819D01*
X147697589Y-88068044D01*
X147697584Y-88068050D01*
X147488870Y-88348402D01*
X147314113Y-88651091D01*
X147314107Y-88651104D01*
X147175674Y-88972027D01*
X147075430Y-89306865D01*
X147075428Y-89306872D01*
X147014739Y-89651061D01*
X147014738Y-89651072D01*
X146994415Y-89999996D01*
X146994415Y-90000000D01*
X113005585Y-90000000D01*
X112985262Y-89651073D01*
X112985260Y-89651061D01*
X112924571Y-89306872D01*
X112924569Y-89306865D01*
X112824325Y-88972027D01*
X112685892Y-88651104D01*
X112685889Y-88651096D01*
X112560772Y-88434386D01*
X112511129Y-88348402D01*
X112302415Y-88068050D01*
X112302410Y-88068044D01*
X112119361Y-87874025D01*
X112062558Y-87813817D01*
X111833305Y-87621451D01*
X111794813Y-87589152D01*
X111794805Y-87589146D01*
X111502796Y-87397088D01*
X111190458Y-87240226D01*
X111190452Y-87240223D01*
X110862012Y-87120681D01*
X110862009Y-87120680D01*
X110521915Y-87040077D01*
X110478519Y-87035004D01*
X110174759Y-86999500D01*
X109825241Y-86999500D01*
X109521480Y-87035004D01*
X109478085Y-87040077D01*
X109478083Y-87040077D01*
X109137990Y-87120680D01*
X109137987Y-87120681D01*
X108809547Y-87240223D01*
X108809541Y-87240226D01*
X108497203Y-87397088D01*
X108205194Y-87589146D01*
X108205186Y-87589152D01*
X107937442Y-87813817D01*
X107937440Y-87813819D01*
X107697589Y-88068044D01*
X107697584Y-88068050D01*
X107488870Y-88348402D01*
X107314113Y-88651091D01*
X107314107Y-88651104D01*
X107175674Y-88972027D01*
X107075430Y-89306865D01*
X107075428Y-89306872D01*
X107014739Y-89651061D01*
X107014738Y-89651072D01*
X106994415Y-89999996D01*
X106994415Y-90000000D01*
X98427369Y-90000000D01*
X92306819Y-83879450D01*
X92273334Y-83818127D01*
X92270500Y-83791769D01*
X92270500Y-78736000D01*
X118757501Y-78736000D01*
X118757501Y-79010986D01*
X118767994Y-79113697D01*
X118823141Y-79280119D01*
X118823143Y-79280124D01*
X118915184Y-79429345D01*
X119039154Y-79553315D01*
X119188375Y-79645356D01*
X119188380Y-79645358D01*
X119354802Y-79700505D01*
X119354809Y-79700506D01*
X119457519Y-79710999D01*
X119594999Y-79710999D01*
X119595000Y-79710998D01*
X119595000Y-78736000D01*
X118757501Y-78736000D01*
X92270500Y-78736000D01*
X92270500Y-78236000D01*
X118757500Y-78236000D01*
X119595000Y-78236000D01*
X119595000Y-77261000D01*
X119457527Y-77261000D01*
X119457512Y-77261001D01*
X119354802Y-77271494D01*
X119188380Y-77326641D01*
X119188375Y-77326643D01*
X119039154Y-77418684D01*
X118915184Y-77542654D01*
X118823143Y-77691875D01*
X118823141Y-77691880D01*
X118767994Y-77858302D01*
X118767993Y-77858309D01*
X118757500Y-77961013D01*
X118757500Y-78236000D01*
X92270500Y-78236000D01*
X92270500Y-71316500D01*
X92290185Y-71249461D01*
X92342989Y-71203706D01*
X92394500Y-71192500D01*
X92670003Y-71192500D01*
X92670008Y-71192500D01*
X92772797Y-71181999D01*
X92939334Y-71126814D01*
X93088655Y-71034711D01*
X93212711Y-70910655D01*
X93304814Y-70761334D01*
X93359999Y-70594797D01*
X93370500Y-70492008D01*
X93370500Y-69342001D01*
X94665274Y-69342001D01*
X94684152Y-69605960D01*
X94740400Y-69864528D01*
X94832884Y-70112487D01*
X94959701Y-70344735D01*
X94959706Y-70344743D01*
X95047038Y-70461406D01*
X95047039Y-70461406D01*
X95768766Y-69739679D01*
X95812316Y-69821822D01*
X95932009Y-69962735D01*
X96079195Y-70074623D01*
X96121402Y-70094150D01*
X95400592Y-70814959D01*
X95400593Y-70814960D01*
X95517256Y-70902293D01*
X95517264Y-70902298D01*
X95749513Y-71029115D01*
X95749512Y-71029115D01*
X95997471Y-71121599D01*
X96256039Y-71177847D01*
X96519999Y-71196726D01*
X96520001Y-71196726D01*
X96783960Y-71177847D01*
X97042528Y-71121599D01*
X97290487Y-71029115D01*
X97522735Y-70902298D01*
X97522736Y-70902297D01*
X97639406Y-70814959D01*
X96918609Y-70094161D01*
X97037431Y-70022669D01*
X97171658Y-69895523D01*
X97274861Y-69743308D01*
X97992959Y-70461406D01*
X98080297Y-70344736D01*
X98080298Y-70344735D01*
X98207115Y-70112487D01*
X98299599Y-69864528D01*
X98355847Y-69605960D01*
X98374726Y-69342001D01*
X98374726Y-69341998D01*
X98355847Y-69078039D01*
X98299599Y-68819471D01*
X98207115Y-68571512D01*
X98080298Y-68339264D01*
X98080293Y-68339256D01*
X97992960Y-68222593D01*
X97992959Y-68222592D01*
X97271232Y-68944319D01*
X97227684Y-68862178D01*
X97107991Y-68721265D01*
X96960805Y-68609377D01*
X96918596Y-68589849D01*
X97639406Y-67869039D01*
X97639406Y-67869038D01*
X97522743Y-67781706D01*
X97522735Y-67781701D01*
X97290486Y-67654884D01*
X97290487Y-67654884D01*
X97042528Y-67562400D01*
X96783960Y-67506152D01*
X96520001Y-67487274D01*
X96519999Y-67487274D01*
X96256039Y-67506152D01*
X95997471Y-67562400D01*
X95749512Y-67654884D01*
X95517264Y-67781701D01*
X95400593Y-67869039D01*
X96121391Y-68589837D01*
X96002569Y-68661331D01*
X95868342Y-68788477D01*
X95765138Y-68940692D01*
X95047039Y-68222593D01*
X94959701Y-68339264D01*
X94832884Y-68571512D01*
X94740400Y-68819471D01*
X94684152Y-69078039D01*
X94665274Y-69341998D01*
X94665274Y-69342001D01*
X93370500Y-69342001D01*
X93370500Y-68191992D01*
X93359999Y-68089203D01*
X93304814Y-67922666D01*
X93302420Y-67918785D01*
X93212713Y-67773348D01*
X93212710Y-67773344D01*
X93088655Y-67649289D01*
X93088651Y-67649286D01*
X92939337Y-67557187D01*
X92939335Y-67557186D01*
X92849180Y-67527312D01*
X92772797Y-67502001D01*
X92772795Y-67502000D01*
X92670015Y-67491500D01*
X92670008Y-67491500D01*
X90782229Y-67491500D01*
X90715190Y-67471815D01*
X90694548Y-67455181D01*
X90584114Y-67344747D01*
X90550629Y-67283424D01*
X90555613Y-67213732D01*
X90597485Y-67157799D01*
X90662949Y-67133382D01*
X90702632Y-67136962D01*
X90718659Y-67141077D01*
X90737064Y-67147377D01*
X90755542Y-67155374D01*
X90799038Y-67162262D01*
X90801724Y-67162688D01*
X90807429Y-67163869D01*
X90852728Y-67175500D01*
X90872858Y-67175500D01*
X90892257Y-67177027D01*
X90912133Y-67180175D01*
X90954779Y-67176143D01*
X90958679Y-67175775D01*
X90964517Y-67175500D01*
X112242719Y-67175500D01*
X112309758Y-67195185D01*
X112330400Y-67211819D01*
X118529181Y-73410600D01*
X118562666Y-73471923D01*
X118565500Y-73498281D01*
X118565500Y-74160001D01*
X118565501Y-74160019D01*
X118576000Y-74262796D01*
X118576001Y-74262799D01*
X118631185Y-74429331D01*
X118631186Y-74429334D01*
X118723288Y-74578656D01*
X118847344Y-74702712D01*
X118996666Y-74794814D01*
X119066018Y-74817795D01*
X119123462Y-74857566D01*
X119150285Y-74922082D01*
X119137970Y-74990858D01*
X119114695Y-75023181D01*
X118855694Y-75282182D01*
X118794374Y-75315666D01*
X118768015Y-75318500D01*
X116378905Y-75318500D01*
X116311866Y-75298815D01*
X116275096Y-75262322D01*
X116162269Y-75089627D01*
X116006308Y-74920208D01*
X115916103Y-74849999D01*
X115824591Y-74778772D01*
X115622069Y-74669172D01*
X115622061Y-74669169D01*
X115404274Y-74594402D01*
X115233920Y-74565975D01*
X115177137Y-74556500D01*
X114946863Y-74556500D01*
X114901436Y-74564080D01*
X114719725Y-74594402D01*
X114501938Y-74669169D01*
X114501930Y-74669172D01*
X114299408Y-74778772D01*
X114117694Y-74920206D01*
X114117689Y-74920211D01*
X113961728Y-75089629D01*
X113835782Y-75282405D01*
X113743282Y-75493285D01*
X113686753Y-75716515D01*
X113667738Y-75945994D01*
X113667738Y-75946005D01*
X113686753Y-76175484D01*
X113743282Y-76398714D01*
X113835782Y-76609594D01*
X113961728Y-76802370D01*
X114001789Y-76845888D01*
X114117692Y-76971792D01*
X114299411Y-77113229D01*
X114501931Y-77222828D01*
X114563752Y-77244051D01*
X114719725Y-77297597D01*
X114719727Y-77297597D01*
X114719729Y-77297598D01*
X114946863Y-77335500D01*
X114946864Y-77335500D01*
X115177136Y-77335500D01*
X115177137Y-77335500D01*
X115404271Y-77297598D01*
X115622069Y-77222828D01*
X115824589Y-77113229D01*
X116006308Y-76971792D01*
X116162269Y-76802373D01*
X116275096Y-76629677D01*
X116328243Y-76584322D01*
X116378905Y-76573500D01*
X118996329Y-76573500D01*
X119011977Y-76575227D01*
X119012004Y-76574946D01*
X119019771Y-76575680D01*
X119019772Y-76575679D01*
X119019773Y-76575680D01*
X119089156Y-76573500D01*
X119118772Y-76573500D01*
X119125674Y-76572627D01*
X119131486Y-76572169D01*
X119178239Y-76570701D01*
X119197568Y-76565084D01*
X119216624Y-76561137D01*
X119236589Y-76558616D01*
X119280066Y-76541401D01*
X119285572Y-76539516D01*
X119330487Y-76526468D01*
X119347811Y-76516221D01*
X119365279Y-76507663D01*
X119383999Y-76500253D01*
X119421838Y-76472759D01*
X119426687Y-76469574D01*
X119466952Y-76445763D01*
X119481193Y-76431520D01*
X119495974Y-76418897D01*
X119512263Y-76407063D01*
X119512265Y-76407059D01*
X119512267Y-76407059D01*
X119530947Y-76384477D01*
X119542072Y-76371028D01*
X119545985Y-76366728D01*
X120826820Y-75085893D01*
X120888142Y-75052410D01*
X120957834Y-75057394D01*
X121013767Y-75099266D01*
X121038184Y-75164730D01*
X121038500Y-75173576D01*
X121038500Y-77442270D01*
X121018815Y-77509309D01*
X121002181Y-77529951D01*
X120989788Y-77542343D01*
X120989783Y-77542349D01*
X120987741Y-77545661D01*
X120985747Y-77547453D01*
X120985307Y-77548011D01*
X120985211Y-77547935D01*
X120935791Y-77592383D01*
X120866828Y-77603602D01*
X120802747Y-77575755D01*
X120776668Y-77545656D01*
X120774819Y-77542659D01*
X120774816Y-77542655D01*
X120650845Y-77418684D01*
X120501624Y-77326643D01*
X120501619Y-77326641D01*
X120335197Y-77271494D01*
X120335190Y-77271493D01*
X120232486Y-77261000D01*
X120095000Y-77261000D01*
X120095000Y-79710999D01*
X120232472Y-79710999D01*
X120232486Y-79710998D01*
X120335197Y-79700505D01*
X120501619Y-79645358D01*
X120501624Y-79645356D01*
X120650845Y-79553315D01*
X120774818Y-79429342D01*
X120776665Y-79426348D01*
X120778469Y-79424724D01*
X120779298Y-79423677D01*
X120779476Y-79423818D01*
X120828610Y-79379621D01*
X120897573Y-79368396D01*
X120961656Y-79396236D01*
X120987743Y-79426341D01*
X120989788Y-79429656D01*
X121113844Y-79553712D01*
X121263166Y-79645814D01*
X121429703Y-79700999D01*
X121532491Y-79711500D01*
X122307508Y-79711499D01*
X122307516Y-79711498D01*
X122307519Y-79711498D01*
X122363802Y-79705748D01*
X122410297Y-79700999D01*
X122576834Y-79645814D01*
X122726156Y-79553712D01*
X122850212Y-79429656D01*
X122942314Y-79280334D01*
X122997499Y-79113797D01*
X123008000Y-79011009D01*
X123007999Y-77960992D01*
X122997499Y-77858203D01*
X122942314Y-77691666D01*
X122850212Y-77542344D01*
X122726156Y-77418288D01*
X122618653Y-77351980D01*
X122576836Y-77326187D01*
X122576831Y-77326185D01*
X122575362Y-77325698D01*
X122410297Y-77271001D01*
X122404894Y-77270449D01*
X122340203Y-77244051D01*
X122300053Y-77186869D01*
X122293500Y-77147091D01*
X122293500Y-74889824D01*
X122313185Y-74822785D01*
X122352404Y-74784285D01*
X122361344Y-74778771D01*
X122484656Y-74702712D01*
X122608712Y-74578656D01*
X122700814Y-74429334D01*
X122755999Y-74262797D01*
X122766500Y-74160009D01*
X122766499Y-73159992D01*
X122764934Y-73144676D01*
X122755999Y-73057203D01*
X122755998Y-73057200D01*
X122710179Y-72918928D01*
X122700814Y-72890666D01*
X122608712Y-72741344D01*
X122484656Y-72617288D01*
X122352403Y-72535714D01*
X122305679Y-72483766D01*
X122293500Y-72430175D01*
X122293500Y-71200001D01*
X127702704Y-71200001D01*
X127702899Y-71202486D01*
X127748718Y-71360198D01*
X127832314Y-71501552D01*
X127832321Y-71501561D01*
X127948438Y-71617678D01*
X127948447Y-71617685D01*
X128089803Y-71701282D01*
X128089806Y-71701283D01*
X128247504Y-71747099D01*
X128247510Y-71747100D01*
X128284356Y-71750000D01*
X128612500Y-71750000D01*
X128612500Y-71200000D01*
X127702705Y-71200000D01*
X127702704Y-71200001D01*
X122293500Y-71200001D01*
X122293500Y-70699998D01*
X127702704Y-70699998D01*
X127702705Y-70700000D01*
X128612500Y-70700000D01*
X128612500Y-70250000D01*
X127702705Y-70250000D01*
X127702704Y-70250001D01*
X127702899Y-70252488D01*
X127702900Y-70252494D01*
X127748716Y-70410193D01*
X127748722Y-70410208D01*
X127749716Y-70411888D01*
X127750093Y-70413375D01*
X127751817Y-70417359D01*
X127751174Y-70417637D01*
X127766893Y-70479613D01*
X127751378Y-70532451D01*
X127751817Y-70532641D01*
X127750278Y-70536196D01*
X127749716Y-70538112D01*
X127748722Y-70539791D01*
X127748716Y-70539806D01*
X127702900Y-70697505D01*
X127702899Y-70697511D01*
X127702704Y-70699998D01*
X122293500Y-70699998D01*
X122293500Y-70317824D01*
X122313185Y-70250785D01*
X122352404Y-70212285D01*
X122375149Y-70198256D01*
X122484656Y-70130712D01*
X122608712Y-70006656D01*
X122700814Y-69857334D01*
X122755999Y-69690797D01*
X122766500Y-69588009D01*
X122766499Y-68758499D01*
X122786183Y-68691461D01*
X122838987Y-68645706D01*
X122890499Y-68634500D01*
X127508219Y-68634500D01*
X127575258Y-68654185D01*
X127595900Y-68670819D01*
X127663447Y-68738366D01*
X127696932Y-68799689D01*
X127699388Y-68835725D01*
X127699501Y-68834279D01*
X127699500Y-68834304D01*
X127699500Y-69265696D01*
X127702401Y-69302567D01*
X127702402Y-69302573D01*
X127748254Y-69460393D01*
X127748256Y-69460399D01*
X127749426Y-69462377D01*
X127749869Y-69464126D01*
X127751353Y-69467554D01*
X127750799Y-69467793D01*
X127766603Y-69530102D01*
X127751249Y-69582395D01*
X127751817Y-69582641D01*
X127749827Y-69587239D01*
X127749428Y-69588599D01*
X127748722Y-69589791D01*
X127748716Y-69589806D01*
X127702900Y-69747505D01*
X127702899Y-69747511D01*
X127702704Y-69749998D01*
X127702705Y-69750000D01*
X127968185Y-69750000D01*
X128031306Y-69767268D01*
X128089602Y-69801744D01*
X128131224Y-69813836D01*
X128247426Y-69847597D01*
X128247429Y-69847597D01*
X128247431Y-69847598D01*
X128259722Y-69848565D01*
X128284304Y-69850500D01*
X128284306Y-69850500D01*
X129440696Y-69850500D01*
X129459131Y-69849049D01*
X129477569Y-69847598D01*
X129477571Y-69847597D01*
X129477573Y-69847597D01*
X129519191Y-69835505D01*
X129635398Y-69801744D01*
X129693694Y-69767268D01*
X129756815Y-69750000D01*
X130243185Y-69750000D01*
X130306306Y-69767268D01*
X130364602Y-69801744D01*
X130406224Y-69813836D01*
X130522426Y-69847597D01*
X130522429Y-69847597D01*
X130522431Y-69847598D01*
X130534722Y-69848565D01*
X130559304Y-69850500D01*
X130559306Y-69850500D01*
X131715696Y-69850500D01*
X131734131Y-69849049D01*
X131752569Y-69847598D01*
X131752571Y-69847597D01*
X131752573Y-69847597D01*
X131794191Y-69835505D01*
X131910398Y-69801744D01*
X131968694Y-69767268D01*
X132031815Y-69750000D01*
X132297295Y-69750000D01*
X132297295Y-69749998D01*
X132297100Y-69747511D01*
X132297099Y-69747505D01*
X132251283Y-69589806D01*
X132251281Y-69589801D01*
X132250578Y-69588612D01*
X132250310Y-69587558D01*
X132248184Y-69582644D01*
X132248976Y-69582300D01*
X132233395Y-69520888D01*
X132249009Y-69467714D01*
X132248646Y-69467557D01*
X132249920Y-69464612D01*
X132250579Y-69462369D01*
X132251742Y-69460401D01*
X132251743Y-69460399D01*
X132251744Y-69460398D01*
X132297598Y-69302569D01*
X132300500Y-69265694D01*
X132300500Y-68834306D01*
X132300501Y-68834338D01*
X132300621Y-68835842D01*
X132314947Y-68767457D01*
X132336549Y-68738368D01*
X135767043Y-65307874D01*
X135779325Y-65298037D01*
X135779144Y-65297818D01*
X135785152Y-65292846D01*
X135785162Y-65292840D01*
X135832677Y-65242241D01*
X135853623Y-65221296D01*
X135857892Y-65215790D01*
X135861676Y-65211359D01*
X135893693Y-65177267D01*
X135903389Y-65159628D01*
X135914073Y-65143361D01*
X135926408Y-65127462D01*
X135944978Y-65084546D01*
X135947534Y-65079327D01*
X135970072Y-65038334D01*
X135975078Y-65018834D01*
X135981382Y-65000424D01*
X135989370Y-64981965D01*
X135989373Y-64981959D01*
X135996687Y-64935780D01*
X135997868Y-64930070D01*
X136009500Y-64884772D01*
X136009500Y-64864635D01*
X136011027Y-64845235D01*
X136014174Y-64825367D01*
X136009775Y-64778829D01*
X136009500Y-64772991D01*
X136009500Y-63586753D01*
X136029185Y-63519714D01*
X136081989Y-63473959D01*
X136094482Y-63469052D01*
X136151334Y-63450214D01*
X136300656Y-63358112D01*
X136424712Y-63234056D01*
X136516814Y-63084734D01*
X136571999Y-62918197D01*
X136582500Y-62815409D01*
X136582499Y-62015392D01*
X136571999Y-61912603D01*
X136516814Y-61746066D01*
X136424712Y-61596744D01*
X136331049Y-61503081D01*
X136297564Y-61441758D01*
X136302548Y-61372066D01*
X136331049Y-61327719D01*
X136424712Y-61234056D01*
X136516814Y-61084734D01*
X136571999Y-60918197D01*
X136582500Y-60815409D01*
X136582499Y-60015392D01*
X136571999Y-59912603D01*
X136516814Y-59746066D01*
X136424712Y-59596744D01*
X136300656Y-59472688D01*
X136207404Y-59415170D01*
X136151336Y-59380587D01*
X136151331Y-59380585D01*
X136146946Y-59379132D01*
X135984797Y-59325401D01*
X135984795Y-59325400D01*
X135882010Y-59314900D01*
X134881998Y-59314900D01*
X134881980Y-59314901D01*
X134779203Y-59325400D01*
X134779200Y-59325401D01*
X134612668Y-59380585D01*
X134612663Y-59380587D01*
X134463342Y-59472689D01*
X134339289Y-59596742D01*
X134247187Y-59746063D01*
X134247185Y-59746068D01*
X134219349Y-59830070D01*
X134192001Y-59912603D01*
X134192001Y-59912604D01*
X134192000Y-59912604D01*
X134181500Y-60015383D01*
X134181500Y-60677118D01*
X134161815Y-60744157D01*
X134145181Y-60764799D01*
X133158400Y-61751581D01*
X133097077Y-61785066D01*
X133070719Y-61787900D01*
X132293824Y-61787900D01*
X132226785Y-61768215D01*
X132188285Y-61728996D01*
X132178921Y-61713815D01*
X132106712Y-61596744D01*
X132013049Y-61503081D01*
X131979564Y-61441758D01*
X131984548Y-61372066D01*
X132013049Y-61327719D01*
X132106712Y-61234056D01*
X132198814Y-61084734D01*
X132253999Y-60918197D01*
X132264500Y-60815409D01*
X132264499Y-60015392D01*
X132253999Y-59912603D01*
X132198814Y-59746066D01*
X132106712Y-59596744D01*
X131982656Y-59472688D01*
X131982655Y-59472687D01*
X131889404Y-59415170D01*
X131842679Y-59363222D01*
X131830500Y-59309631D01*
X131830500Y-57287957D01*
X131850185Y-57220918D01*
X131889407Y-57182416D01*
X131898656Y-57176712D01*
X131992319Y-57083049D01*
X132053642Y-57049564D01*
X132123334Y-57054548D01*
X132167681Y-57083049D01*
X132261344Y-57176712D01*
X132410666Y-57268814D01*
X132577203Y-57323999D01*
X132679991Y-57334500D01*
X133480008Y-57334499D01*
X133480016Y-57334498D01*
X133480019Y-57334498D01*
X133536302Y-57328748D01*
X133582797Y-57323999D01*
X133749334Y-57268814D01*
X133898656Y-57176712D01*
X134022712Y-57052656D01*
X134114814Y-56903334D01*
X134169999Y-56736797D01*
X134180500Y-56634009D01*
X134180499Y-55633992D01*
X134169999Y-55531203D01*
X134114814Y-55364666D01*
X134022712Y-55215344D01*
X133898656Y-55091288D01*
X133766403Y-55009714D01*
X133719679Y-54957766D01*
X133707500Y-54904175D01*
X133707500Y-52884882D01*
X133727185Y-52817843D01*
X133772483Y-52775827D01*
X133802141Y-52759777D01*
X133858589Y-52729229D01*
X134040308Y-52587792D01*
X134196269Y-52418373D01*
X134322217Y-52225595D01*
X134414717Y-52014716D01*
X134471246Y-51791488D01*
X134485907Y-51614561D01*
X134490262Y-51562005D01*
X134490262Y-51561994D01*
X134474932Y-51376994D01*
X134471246Y-51332512D01*
X134414717Y-51109284D01*
X134322217Y-50898405D01*
X134299019Y-50862898D01*
X134196271Y-50705629D01*
X134131415Y-50635177D01*
X134040308Y-50536208D01*
X133954121Y-50469126D01*
X133858591Y-50394772D01*
X133656069Y-50285172D01*
X133656061Y-50285169D01*
X133438274Y-50210402D01*
X133273690Y-50182938D01*
X133210805Y-50152487D01*
X133174365Y-50092872D01*
X133175941Y-50023020D01*
X133189953Y-50000000D01*
X146994916Y-50000000D01*
X147015235Y-50348869D01*
X147015236Y-50348880D01*
X147075914Y-50693002D01*
X147075916Y-50693011D01*
X147176145Y-51027800D01*
X147314555Y-51348670D01*
X147314561Y-51348683D01*
X147489289Y-51651322D01*
X147697972Y-51931631D01*
X147697976Y-51931636D01*
X147706147Y-51940297D01*
X147706149Y-51940298D01*
X148702266Y-50944180D01*
X148865130Y-51134870D01*
X149055818Y-51297732D01*
X148062817Y-52290733D01*
X148062818Y-52290734D01*
X148205480Y-52410442D01*
X148497461Y-52602480D01*
X148809739Y-52759314D01*
X148809745Y-52759316D01*
X149138130Y-52878838D01*
X149138133Y-52878839D01*
X149478171Y-52959429D01*
X149825276Y-52999999D01*
X149825277Y-53000000D01*
X150174723Y-53000000D01*
X150174723Y-52999999D01*
X150521827Y-52959429D01*
X150521829Y-52959429D01*
X150861866Y-52878839D01*
X150861869Y-52878838D01*
X151190254Y-52759316D01*
X151190260Y-52759314D01*
X151502538Y-52602480D01*
X151794515Y-52410445D01*
X151937180Y-52290734D01*
X151937181Y-52290733D01*
X150944180Y-51297733D01*
X151134870Y-51134870D01*
X151297733Y-50944180D01*
X152293850Y-51940297D01*
X152302032Y-51931625D01*
X152510710Y-51651322D01*
X152685438Y-51348683D01*
X152685444Y-51348670D01*
X152823854Y-51027800D01*
X152924083Y-50693011D01*
X152924085Y-50693002D01*
X152984763Y-50348880D01*
X152984764Y-50348869D01*
X153005084Y-50000000D01*
X153005084Y-49999996D01*
X152984764Y-49651130D01*
X152984763Y-49651119D01*
X152924085Y-49306997D01*
X152924083Y-49306988D01*
X152823854Y-48972199D01*
X152685444Y-48651329D01*
X152685438Y-48651316D01*
X152510710Y-48348677D01*
X152302029Y-48068371D01*
X152293850Y-48059701D01*
X152293850Y-48059700D01*
X151297732Y-49055818D01*
X151134870Y-48865130D01*
X150944180Y-48702266D01*
X151937181Y-47709265D01*
X151937180Y-47709264D01*
X151794519Y-47589557D01*
X151502538Y-47397519D01*
X151190260Y-47240685D01*
X151190254Y-47240683D01*
X150861869Y-47121161D01*
X150861866Y-47121160D01*
X150521828Y-47040570D01*
X150174723Y-47000000D01*
X149825277Y-47000000D01*
X149478172Y-47040570D01*
X149478170Y-47040570D01*
X149138133Y-47121160D01*
X149138130Y-47121161D01*
X148809745Y-47240683D01*
X148809739Y-47240685D01*
X148497461Y-47397519D01*
X148205485Y-47589554D01*
X148062817Y-47709264D01*
X149055819Y-48702266D01*
X148865130Y-48865130D01*
X148702266Y-49055819D01*
X147706148Y-48059701D01*
X147706146Y-48059701D01*
X147697973Y-48068366D01*
X147489289Y-48348677D01*
X147314561Y-48651316D01*
X147314555Y-48651329D01*
X147176145Y-48972199D01*
X147075916Y-49306988D01*
X147075914Y-49306997D01*
X147015236Y-49651119D01*
X147015235Y-49651130D01*
X146994916Y-49999996D01*
X146994916Y-50000000D01*
X133189953Y-50000000D01*
X133206417Y-49972950D01*
X137688548Y-45490818D01*
X137749871Y-45457334D01*
X137776229Y-45454500D01*
X151275770Y-45454500D01*
X151342809Y-45474185D01*
X151363451Y-45490819D01*
X155423181Y-49550548D01*
X155456666Y-49611871D01*
X155459500Y-49638229D01*
X155459500Y-62375770D01*
X155439815Y-62442809D01*
X155423181Y-62463451D01*
X147723451Y-70163181D01*
X147662128Y-70196666D01*
X147635770Y-70199500D01*
X131932328Y-70199500D01*
X131897733Y-70194576D01*
X131752573Y-70152402D01*
X131752567Y-70152401D01*
X131715696Y-70149500D01*
X131715694Y-70149500D01*
X130559306Y-70149500D01*
X130559304Y-70149500D01*
X130522432Y-70152401D01*
X130522426Y-70152402D01*
X130364606Y-70198254D01*
X130364603Y-70198255D01*
X130306306Y-70232732D01*
X130243185Y-70250000D01*
X129112500Y-70250000D01*
X129112500Y-71750000D01*
X129440644Y-71750000D01*
X129477489Y-71747100D01*
X129477495Y-71747099D01*
X129635193Y-71701283D01*
X129635196Y-71701282D01*
X129776552Y-71617685D01*
X129776561Y-71617678D01*
X129892678Y-71501561D01*
X129892680Y-71501558D01*
X129892972Y-71501066D01*
X129893301Y-71500758D01*
X129897463Y-71495393D01*
X129898328Y-71496064D01*
X129944038Y-71453379D01*
X130012778Y-71440870D01*
X130077370Y-71467510D01*
X130101936Y-71495858D01*
X130102139Y-71495702D01*
X130105022Y-71499420D01*
X130106438Y-71501053D01*
X130106914Y-71501859D01*
X130106923Y-71501870D01*
X130223129Y-71618076D01*
X130223133Y-71618079D01*
X130223135Y-71618081D01*
X130364602Y-71701744D01*
X130376804Y-71705289D01*
X130522426Y-71747597D01*
X130522429Y-71747597D01*
X130522431Y-71747598D01*
X130534722Y-71748565D01*
X130559304Y-71750500D01*
X130559306Y-71750500D01*
X131715696Y-71750500D01*
X131734131Y-71749049D01*
X131752569Y-71747598D01*
X131752571Y-71747597D01*
X131752573Y-71747597D01*
X131897733Y-71705424D01*
X131932328Y-71700500D01*
X147934295Y-71700500D01*
X147952265Y-71701809D01*
X147976023Y-71705289D01*
X148028068Y-71700735D01*
X148033470Y-71700500D01*
X148041704Y-71700500D01*
X148041709Y-71700500D01*
X148053327Y-71699141D01*
X148074276Y-71696693D01*
X148087028Y-71695577D01*
X148150797Y-71689999D01*
X148150805Y-71689996D01*
X148157866Y-71688539D01*
X148157878Y-71688598D01*
X148165243Y-71686965D01*
X148165229Y-71686906D01*
X148172246Y-71685241D01*
X148172255Y-71685241D01*
X148244423Y-71658974D01*
X148317334Y-71634814D01*
X148317343Y-71634807D01*
X148323882Y-71631760D01*
X148323908Y-71631816D01*
X148330690Y-71628532D01*
X148330663Y-71628478D01*
X148337106Y-71625240D01*
X148337117Y-71625237D01*
X148401283Y-71583034D01*
X148466656Y-71542712D01*
X148466662Y-71542705D01*
X148472325Y-71538229D01*
X148472363Y-71538277D01*
X148478200Y-71533522D01*
X148478161Y-71533475D01*
X148483696Y-71528830D01*
X148536385Y-71472982D01*
X152614983Y-67394384D01*
X156695642Y-63313724D01*
X156709271Y-63301947D01*
X156728530Y-63287610D01*
X156762101Y-63247601D01*
X156765761Y-63243606D01*
X156771590Y-63237778D01*
X156772416Y-63236734D01*
X156791940Y-63212040D01*
X156841302Y-63153214D01*
X156841306Y-63153205D01*
X156845274Y-63147175D01*
X156845325Y-63147208D01*
X156849372Y-63140856D01*
X156849320Y-63140824D01*
X156853112Y-63134675D01*
X156885575Y-63065058D01*
X156914174Y-63008112D01*
X156920040Y-62996433D01*
X156920042Y-62996421D01*
X156922509Y-62989646D01*
X156922567Y-62989667D01*
X156925043Y-62982546D01*
X156924986Y-62982528D01*
X156927257Y-62975673D01*
X156942792Y-62900434D01*
X156957545Y-62838189D01*
X156960500Y-62825721D01*
X156960500Y-62825710D01*
X156961338Y-62818548D01*
X156961398Y-62818555D01*
X156962164Y-62811055D01*
X156962105Y-62811050D01*
X156962734Y-62803860D01*
X156962699Y-62802671D01*
X156960500Y-62727082D01*
X156960500Y-49339705D01*
X156961809Y-49321735D01*
X156965289Y-49297974D01*
X156960736Y-49245939D01*
X156960500Y-49240532D01*
X156960500Y-49232297D01*
X156960500Y-49232291D01*
X156956691Y-49199707D01*
X156956657Y-49199324D01*
X156949998Y-49123205D01*
X156949998Y-49123202D01*
X156949996Y-49123197D01*
X156948538Y-49116133D01*
X156948597Y-49116120D01*
X156946967Y-49108764D01*
X156946908Y-49108779D01*
X156945242Y-49101753D01*
X156945241Y-49101745D01*
X156918973Y-49029573D01*
X156917238Y-49024336D01*
X156894815Y-48956666D01*
X156891763Y-48950121D01*
X156891817Y-48950095D01*
X156888533Y-48943312D01*
X156888480Y-48943340D01*
X156885238Y-48936885D01*
X156885237Y-48936883D01*
X156843029Y-48872709D01*
X156802711Y-48807344D01*
X156802710Y-48807343D01*
X156802709Y-48807341D01*
X156798233Y-48801681D01*
X156798280Y-48801643D01*
X156793519Y-48795799D01*
X156793474Y-48795838D01*
X156788834Y-48790308D01*
X156732964Y-48737596D01*
X152213729Y-44218361D01*
X152201949Y-44204730D01*
X152190669Y-44189579D01*
X152187612Y-44185472D01*
X152187610Y-44185470D01*
X152147587Y-44151886D01*
X152143612Y-44148244D01*
X152140690Y-44145322D01*
X152137780Y-44142411D01*
X152112040Y-44122059D01*
X152053209Y-44072694D01*
X152047180Y-44068729D01*
X152047212Y-44068680D01*
X152040853Y-44064628D01*
X152040822Y-44064679D01*
X152034680Y-44060891D01*
X152034678Y-44060890D01*
X152034677Y-44060889D01*
X151995474Y-44042608D01*
X151965058Y-44028424D01*
X151906052Y-43998791D01*
X151896433Y-43993960D01*
X151896431Y-43993959D01*
X151896430Y-43993959D01*
X151889645Y-43991489D01*
X151889665Y-43991433D01*
X151882549Y-43988959D01*
X151882531Y-43989015D01*
X151875671Y-43986742D01*
X151847841Y-43980996D01*
X151800434Y-43971207D01*
X151751472Y-43959603D01*
X151725719Y-43953499D01*
X151718547Y-43952661D01*
X151718553Y-43952601D01*
X151711055Y-43951835D01*
X151711050Y-43951895D01*
X151703860Y-43951265D01*
X151627083Y-43953500D01*
X137477705Y-43953500D01*
X137459735Y-43952191D01*
X137435972Y-43948710D01*
X137391512Y-43952601D01*
X137383931Y-43953264D01*
X137378530Y-43953500D01*
X137370289Y-43953500D01*
X137348579Y-43956037D01*
X137337724Y-43957306D01*
X137322419Y-43958645D01*
X137261199Y-43964001D01*
X137254132Y-43965460D01*
X137254120Y-43965404D01*
X137246763Y-43967035D01*
X137246777Y-43967092D01*
X137239743Y-43968759D01*
X137167575Y-43995025D01*
X137094675Y-44019181D01*
X137088126Y-44022236D01*
X137088101Y-44022183D01*
X137081308Y-44025471D01*
X137081334Y-44025523D01*
X137074880Y-44028764D01*
X137010708Y-44070971D01*
X136945347Y-44111285D01*
X136939683Y-44115765D01*
X136939647Y-44115719D01*
X136933798Y-44120484D01*
X136933835Y-44120528D01*
X136928310Y-44125164D01*
X136928304Y-44125169D01*
X136928304Y-44125170D01*
X136912040Y-44142409D01*
X136875597Y-44181035D01*
X130594358Y-50462272D01*
X130580729Y-50474051D01*
X130561468Y-50488390D01*
X130527898Y-50528397D01*
X130524253Y-50532376D01*
X130518409Y-50538222D01*
X130498059Y-50563959D01*
X130448695Y-50622789D01*
X130444729Y-50628819D01*
X130444682Y-50628788D01*
X130440630Y-50635147D01*
X130440679Y-50635177D01*
X130436889Y-50641321D01*
X130404424Y-50710941D01*
X130369960Y-50779566D01*
X130367488Y-50786357D01*
X130367432Y-50786336D01*
X130364960Y-50793450D01*
X130365015Y-50793469D01*
X130362742Y-50800327D01*
X130360340Y-50811962D01*
X130347207Y-50875565D01*
X130336720Y-50919816D01*
X130329498Y-50950286D01*
X130328661Y-50957454D01*
X130328601Y-50957447D01*
X130327835Y-50964945D01*
X130327895Y-50964951D01*
X130327265Y-50972140D01*
X130329500Y-51048916D01*
X130329500Y-54980042D01*
X130309815Y-55047081D01*
X130270598Y-55085580D01*
X130261344Y-55091287D01*
X130137289Y-55215342D01*
X130069901Y-55324597D01*
X130017953Y-55371321D01*
X129964362Y-55383500D01*
X128378229Y-55383500D01*
X128311190Y-55363815D01*
X128290548Y-55347181D01*
X122983855Y-50040488D01*
X117669729Y-44726361D01*
X117657949Y-44712730D01*
X117650482Y-44702701D01*
X117643612Y-44693472D01*
X117641902Y-44692037D01*
X117603587Y-44659886D01*
X117599612Y-44656244D01*
X117596690Y-44653322D01*
X117593780Y-44650411D01*
X117568040Y-44630059D01*
X117513367Y-44584183D01*
X117509214Y-44580698D01*
X117509213Y-44580697D01*
X117509209Y-44580694D01*
X117503180Y-44576729D01*
X117503212Y-44576680D01*
X117496853Y-44572628D01*
X117496822Y-44572679D01*
X117490680Y-44568891D01*
X117490678Y-44568890D01*
X117490677Y-44568889D01*
X117451474Y-44550608D01*
X117421058Y-44536424D01*
X117386894Y-44519267D01*
X117352433Y-44501960D01*
X117352431Y-44501959D01*
X117352430Y-44501959D01*
X117345645Y-44499489D01*
X117345665Y-44499433D01*
X117338549Y-44496959D01*
X117338531Y-44497015D01*
X117331671Y-44494742D01*
X117303841Y-44488996D01*
X117256434Y-44479207D01*
X117207472Y-44467603D01*
X117181719Y-44461499D01*
X117174547Y-44460661D01*
X117174553Y-44460601D01*
X117167055Y-44459835D01*
X117167050Y-44459895D01*
X117159860Y-44459265D01*
X117083083Y-44461500D01*
X105819248Y-44461500D01*
X105752209Y-44441815D01*
X105721468Y-44410502D01*
X105720193Y-44411511D01*
X105715711Y-44405843D01*
X105591657Y-44281789D01*
X105591656Y-44281788D01*
X105588342Y-44279743D01*
X105586546Y-44277748D01*
X105585989Y-44277307D01*
X105586064Y-44277211D01*
X105541618Y-44227797D01*
X105530397Y-44158834D01*
X105558240Y-44094752D01*
X105588348Y-44068665D01*
X105591342Y-44066818D01*
X105715315Y-43942845D01*
X105807356Y-43793624D01*
X105807358Y-43793619D01*
X105862505Y-43627197D01*
X105862506Y-43627190D01*
X105872999Y-43524486D01*
X105873000Y-43524473D01*
X105873000Y-43387000D01*
X103423001Y-43387000D01*
X103423001Y-43524486D01*
X103433494Y-43627197D01*
X103488641Y-43793619D01*
X103488643Y-43793624D01*
X103580684Y-43942845D01*
X103704655Y-44066816D01*
X103704659Y-44066819D01*
X103707656Y-44068668D01*
X103709279Y-44070472D01*
X103710323Y-44071298D01*
X103710181Y-44071476D01*
X103754381Y-44120616D01*
X103765602Y-44189579D01*
X103737759Y-44253661D01*
X103707661Y-44279741D01*
X103704349Y-44281783D01*
X103704343Y-44281788D01*
X103580288Y-44405843D01*
X103575807Y-44411511D01*
X103573984Y-44410069D01*
X103530335Y-44449325D01*
X103476752Y-44461500D01*
X101755248Y-44461500D01*
X101688209Y-44441815D01*
X101657468Y-44410502D01*
X101656193Y-44411511D01*
X101651711Y-44405843D01*
X101527657Y-44281789D01*
X101527656Y-44281788D01*
X101524342Y-44279743D01*
X101522546Y-44277748D01*
X101521989Y-44277307D01*
X101522064Y-44277211D01*
X101477618Y-44227797D01*
X101466397Y-44158834D01*
X101494240Y-44094752D01*
X101524348Y-44068665D01*
X101527342Y-44066818D01*
X101651315Y-43942845D01*
X101743356Y-43793624D01*
X101743358Y-43793619D01*
X101798505Y-43627197D01*
X101798506Y-43627190D01*
X101808999Y-43524486D01*
X101809000Y-43524473D01*
X101809000Y-43387000D01*
X99359001Y-43387000D01*
X99359001Y-43524486D01*
X99369494Y-43627197D01*
X99424641Y-43793619D01*
X99424643Y-43793624D01*
X99516684Y-43942845D01*
X99640655Y-44066816D01*
X99640659Y-44066819D01*
X99643656Y-44068668D01*
X99645279Y-44070472D01*
X99646323Y-44071298D01*
X99646181Y-44071476D01*
X99690381Y-44120616D01*
X99701602Y-44189579D01*
X99673759Y-44253661D01*
X99643661Y-44279741D01*
X99640349Y-44281783D01*
X99640343Y-44281788D01*
X99516289Y-44405842D01*
X99424187Y-44555163D01*
X99424185Y-44555168D01*
X99414496Y-44584407D01*
X99369001Y-44721703D01*
X99369001Y-44721704D01*
X99369000Y-44721704D01*
X99358500Y-44824483D01*
X99358500Y-45324769D01*
X99338815Y-45391808D01*
X99322181Y-45412450D01*
X97882085Y-46852545D01*
X97820762Y-46886030D01*
X97751070Y-46881046D01*
X97701321Y-46846788D01*
X97611924Y-46745214D01*
X97611920Y-46745210D01*
X97427896Y-46596621D01*
X97427894Y-46596620D01*
X97412614Y-46588084D01*
X97363688Y-46538204D01*
X97349496Y-46469791D01*
X97374544Y-46404565D01*
X97403653Y-46377095D01*
X97522744Y-46296604D01*
X97522751Y-46296598D01*
X97693454Y-46132993D01*
X97834047Y-45942898D01*
X97940498Y-45731768D01*
X98009734Y-45505690D01*
X98015329Y-45462000D01*
X95439196Y-45462000D01*
X95462845Y-45425201D01*
X95504000Y-45285039D01*
X95504000Y-45138961D01*
X95462845Y-44998799D01*
X95439196Y-44962000D01*
X98014012Y-44962000D01*
X97979916Y-44803798D01*
X97979916Y-44803797D01*
X97891758Y-44584407D01*
X97767788Y-44383066D01*
X97611581Y-44205581D01*
X97611579Y-44205579D01*
X97427617Y-44057039D01*
X97427613Y-44057036D01*
X97412639Y-44048671D01*
X97363713Y-43998791D01*
X97349521Y-43930378D01*
X97374569Y-43865153D01*
X97403674Y-43837685D01*
X97523068Y-43756990D01*
X97693831Y-43593327D01*
X97834478Y-43403159D01*
X97940964Y-43191957D01*
X98010224Y-42965797D01*
X98020314Y-42887000D01*
X99359000Y-42887000D01*
X100334000Y-42887000D01*
X100334000Y-42049500D01*
X100834000Y-42049500D01*
X100834000Y-42887000D01*
X101808999Y-42887000D01*
X103423000Y-42887000D01*
X104398000Y-42887000D01*
X104398000Y-42049500D01*
X104898000Y-42049500D01*
X104898000Y-42887000D01*
X105872999Y-42887000D01*
X105872999Y-42749528D01*
X105872998Y-42749513D01*
X105862505Y-42646802D01*
X105807358Y-42480380D01*
X105807356Y-42480375D01*
X105715315Y-42331154D01*
X105591345Y-42207184D01*
X105442124Y-42115143D01*
X105442119Y-42115141D01*
X105275697Y-42059994D01*
X105275690Y-42059993D01*
X105172986Y-42049500D01*
X104898000Y-42049500D01*
X104398000Y-42049500D01*
X104123029Y-42049500D01*
X104123012Y-42049501D01*
X104020302Y-42059994D01*
X103853880Y-42115141D01*
X103853875Y-42115143D01*
X103704654Y-42207184D01*
X103580684Y-42331154D01*
X103488643Y-42480375D01*
X103488641Y-42480380D01*
X103433494Y-42646802D01*
X103433493Y-42646809D01*
X103423000Y-42749513D01*
X103423000Y-42887000D01*
X101808999Y-42887000D01*
X101808999Y-42749528D01*
X101808998Y-42749513D01*
X101798505Y-42646802D01*
X101743358Y-42480380D01*
X101743356Y-42480375D01*
X101651315Y-42331154D01*
X101527345Y-42207184D01*
X101378124Y-42115143D01*
X101378119Y-42115141D01*
X101211697Y-42059994D01*
X101211690Y-42059993D01*
X101108986Y-42049500D01*
X100834000Y-42049500D01*
X100334000Y-42049500D01*
X100059029Y-42049500D01*
X100059012Y-42049501D01*
X99956302Y-42059994D01*
X99789880Y-42115141D01*
X99789875Y-42115143D01*
X99640654Y-42207184D01*
X99516684Y-42331154D01*
X99424643Y-42480375D01*
X99424641Y-42480380D01*
X99369494Y-42646802D01*
X99369493Y-42646809D01*
X99359000Y-42749513D01*
X99359000Y-42887000D01*
X98020314Y-42887000D01*
X98040267Y-42731185D01*
X98035601Y-42621350D01*
X98030229Y-42494874D01*
X98030229Y-42494873D01*
X98030229Y-42494871D01*
X97980397Y-42263652D01*
X97892207Y-42044180D01*
X97768193Y-41842770D01*
X97611925Y-41665215D01*
X97611924Y-41665214D01*
X97611920Y-41665210D01*
X97427897Y-41516622D01*
X97221409Y-41401271D01*
X96998392Y-41322474D01*
X96998382Y-41322471D01*
X96765273Y-41282500D01*
X96765264Y-41282500D01*
X94809972Y-41282500D01*
X94809967Y-41282500D01*
X94633328Y-41297533D01*
X94404429Y-41357134D01*
X94188904Y-41454557D01*
X94188898Y-41454560D01*
X93992939Y-41587004D01*
X93992932Y-41587010D01*
X93822168Y-41750674D01*
X93681524Y-41940838D01*
X93681521Y-41940842D01*
X93575039Y-42152037D01*
X93575036Y-42152043D01*
X93505775Y-42378206D01*
X93475733Y-42612815D01*
X93485770Y-42849125D01*
X93485770Y-42849126D01*
X93535603Y-43080348D01*
X93580452Y-43191962D01*
X93623793Y-43299820D01*
X93677472Y-43387000D01*
X93747806Y-43501229D01*
X93904075Y-43678785D01*
X93904079Y-43678789D01*
X94088103Y-43827378D01*
X94088105Y-43827379D01*
X94103383Y-43835914D01*
X94152310Y-43885793D01*
X94166503Y-43954206D01*
X94141456Y-44019432D01*
X94112347Y-44046903D01*
X93993258Y-44127393D01*
X93993248Y-44127401D01*
X93822545Y-44291006D01*
X93681952Y-44481101D01*
X93575501Y-44692231D01*
X93506265Y-44918309D01*
X93500671Y-44962000D01*
X94552804Y-44962000D01*
X94529155Y-44998799D01*
X94488000Y-45138961D01*
X94488000Y-45285039D01*
X94529155Y-45425201D01*
X94552804Y-45462000D01*
X93501988Y-45462000D01*
X93536083Y-45620201D01*
X93536083Y-45620202D01*
X93624241Y-45839592D01*
X93748211Y-46040933D01*
X93904418Y-46218418D01*
X93904420Y-46218420D01*
X94088382Y-46366960D01*
X94088387Y-46366963D01*
X94103358Y-46375327D01*
X94152285Y-46425206D01*
X94166478Y-46493619D01*
X94141431Y-46558845D01*
X94112322Y-46586316D01*
X93992941Y-46667002D01*
X93992932Y-46667010D01*
X93822168Y-46830673D01*
X93822167Y-46830674D01*
X93733001Y-46951235D01*
X93677311Y-46993429D01*
X93633306Y-47001500D01*
X92519705Y-47001500D01*
X92501735Y-47000191D01*
X92477972Y-46996710D01*
X92432890Y-47000655D01*
X92425933Y-47001264D01*
X92420532Y-47001500D01*
X92412288Y-47001500D01*
X92379707Y-47005308D01*
X92303199Y-47012001D01*
X92296133Y-47013461D01*
X92296121Y-47013404D01*
X92288752Y-47015038D01*
X92288766Y-47015095D01*
X92281741Y-47016759D01*
X92209556Y-47043033D01*
X92136670Y-47067185D01*
X92136667Y-47067186D01*
X92136665Y-47067187D01*
X92136662Y-47067188D01*
X92130128Y-47070236D01*
X92130102Y-47070182D01*
X92123306Y-47073472D01*
X92123332Y-47073524D01*
X92116884Y-47076762D01*
X92052699Y-47118977D01*
X91987350Y-47159284D01*
X91981682Y-47163766D01*
X91981646Y-47163720D01*
X91975798Y-47168484D01*
X91975835Y-47168528D01*
X91970310Y-47173164D01*
X91917598Y-47229034D01*
X90446358Y-48700272D01*
X90432729Y-48712051D01*
X90413468Y-48726390D01*
X90379898Y-48766397D01*
X90376253Y-48770376D01*
X90370409Y-48776222D01*
X90350059Y-48801959D01*
X90300695Y-48860789D01*
X90296729Y-48866819D01*
X90296682Y-48866788D01*
X90292630Y-48873147D01*
X90292679Y-48873177D01*
X90288889Y-48879321D01*
X90256424Y-48948941D01*
X90221960Y-49017566D01*
X90219488Y-49024357D01*
X90219432Y-49024336D01*
X90216960Y-49031450D01*
X90217015Y-49031469D01*
X90214742Y-49038327D01*
X90207261Y-49074561D01*
X90199207Y-49113565D01*
X90186001Y-49169284D01*
X90181498Y-49188286D01*
X90180661Y-49195454D01*
X90180601Y-49195447D01*
X90179835Y-49202945D01*
X90179895Y-49202951D01*
X90179265Y-49210140D01*
X90181500Y-49286916D01*
X90181500Y-59626294D01*
X90180191Y-59644263D01*
X90176710Y-59668025D01*
X90181264Y-59720064D01*
X90181500Y-59725470D01*
X90181500Y-59733709D01*
X90185306Y-59766274D01*
X90192000Y-59842791D01*
X90193461Y-59849867D01*
X90193403Y-59849878D01*
X90195034Y-59857237D01*
X90195092Y-59857224D01*
X90196757Y-59864250D01*
X90223025Y-59936424D01*
X90247185Y-60009331D01*
X90250236Y-60015874D01*
X90250182Y-60015898D01*
X90253470Y-60022688D01*
X90253521Y-60022663D01*
X90256761Y-60029113D01*
X90256762Y-60029114D01*
X90256763Y-60029117D01*
X90298965Y-60093283D01*
X90339287Y-60158655D01*
X90343766Y-60164319D01*
X90343719Y-60164356D01*
X90348482Y-60170202D01*
X90348528Y-60170164D01*
X90353173Y-60175700D01*
X90409018Y-60228386D01*
X93150267Y-62969634D01*
X93162048Y-62983266D01*
X93163851Y-62985688D01*
X93176390Y-63002530D01*
X93216420Y-63036119D01*
X93220392Y-63039759D01*
X93223532Y-63042899D01*
X93226224Y-63045591D01*
X93226227Y-63045594D01*
X93251947Y-63065931D01*
X93310788Y-63115304D01*
X93316818Y-63119270D01*
X93316785Y-63119319D01*
X93323147Y-63123372D01*
X93323179Y-63123321D01*
X93329319Y-63127108D01*
X93329323Y-63127111D01*
X93358731Y-63140824D01*
X93398941Y-63159575D01*
X93435784Y-63178078D01*
X93467567Y-63194040D01*
X93467569Y-63194040D01*
X93474357Y-63196511D01*
X93474336Y-63196567D01*
X93481455Y-63199042D01*
X93481474Y-63198986D01*
X93488329Y-63201258D01*
X93563562Y-63216791D01*
X93638279Y-63234500D01*
X93638289Y-63234500D01*
X93645452Y-63235338D01*
X93645444Y-63235397D01*
X93652945Y-63236164D01*
X93652951Y-63236105D01*
X93660140Y-63236734D01*
X93660144Y-63236733D01*
X93660145Y-63236734D01*
X93736918Y-63234500D01*
X125144370Y-63234500D01*
X125211409Y-63254185D01*
X125232051Y-63270819D01*
X125319344Y-63358112D01*
X125468666Y-63450214D01*
X125635203Y-63505399D01*
X125737991Y-63515900D01*
X126738008Y-63515899D01*
X126738016Y-63515898D01*
X126738019Y-63515898D01*
X126807327Y-63508818D01*
X126840797Y-63505399D01*
X127007334Y-63450214D01*
X127156656Y-63358112D01*
X127280712Y-63234056D01*
X127286420Y-63224802D01*
X127338368Y-63178078D01*
X127391958Y-63165900D01*
X129000295Y-63165900D01*
X129018265Y-63167209D01*
X129042023Y-63170689D01*
X129094068Y-63166135D01*
X129099470Y-63165900D01*
X129107704Y-63165900D01*
X129107709Y-63165900D01*
X129119327Y-63164541D01*
X129140276Y-63162093D01*
X129153028Y-63160977D01*
X129216797Y-63155399D01*
X129216805Y-63155396D01*
X129223866Y-63153939D01*
X129223878Y-63153998D01*
X129231243Y-63152365D01*
X129231229Y-63152306D01*
X129238246Y-63150641D01*
X129238255Y-63150641D01*
X129310423Y-63124374D01*
X129383334Y-63100214D01*
X129383343Y-63100207D01*
X129389882Y-63097160D01*
X129389908Y-63097216D01*
X129396690Y-63093932D01*
X129396663Y-63093878D01*
X129403106Y-63090640D01*
X129403117Y-63090637D01*
X129467283Y-63048434D01*
X129532656Y-63008112D01*
X129532662Y-63008105D01*
X129538325Y-63003629D01*
X129538362Y-63003677D01*
X129544204Y-62998918D01*
X129544164Y-62998871D01*
X129549686Y-62994236D01*
X129549696Y-62994230D01*
X129572901Y-62969634D01*
X129602386Y-62938382D01*
X129652480Y-62888287D01*
X129669270Y-62871496D01*
X129730591Y-62838013D01*
X129800283Y-62842997D01*
X129856217Y-62884868D01*
X129874657Y-62920179D01*
X129880403Y-62937521D01*
X129882803Y-63007349D01*
X129850377Y-63064202D01*
X128554400Y-64360181D01*
X128493077Y-64393666D01*
X128466719Y-64396500D01*
X92259281Y-64396500D01*
X92192242Y-64376815D01*
X92171600Y-64360181D01*
X81226490Y-53415071D01*
X81193005Y-53353748D01*
X81195605Y-53291084D01*
X81246224Y-53125797D01*
X81276267Y-52891185D01*
X81266229Y-52654871D01*
X81216397Y-52423652D01*
X81128207Y-52204180D01*
X81004193Y-52002770D01*
X80847925Y-51825215D01*
X80847924Y-51825214D01*
X80847920Y-51825210D01*
X80663897Y-51676622D01*
X80649102Y-51668357D01*
X80600177Y-51618476D01*
X80585985Y-51550063D01*
X80611034Y-51484838D01*
X80640136Y-51457372D01*
X80759068Y-51376990D01*
X80929831Y-51213327D01*
X81070478Y-51023159D01*
X81176964Y-50811957D01*
X81246224Y-50585797D01*
X81276267Y-50351185D01*
X81266229Y-50114871D01*
X81216397Y-49883652D01*
X81128207Y-49664180D01*
X81004193Y-49462770D01*
X80847925Y-49285215D01*
X80847924Y-49285214D01*
X80847920Y-49285210D01*
X80663897Y-49136622D01*
X80649102Y-49128357D01*
X80600177Y-49078476D01*
X80585985Y-49010063D01*
X80611034Y-48944838D01*
X80640136Y-48917372D01*
X80759068Y-48836990D01*
X80929831Y-48673327D01*
X81070478Y-48483159D01*
X81176964Y-48271957D01*
X81246224Y-48045797D01*
X81276267Y-47811185D01*
X81266229Y-47574871D01*
X81216397Y-47343652D01*
X81128207Y-47124180D01*
X81004193Y-46922770D01*
X80847925Y-46745215D01*
X80847924Y-46745214D01*
X80847920Y-46745210D01*
X80663897Y-46596622D01*
X80649102Y-46588357D01*
X80600177Y-46538476D01*
X80585985Y-46470063D01*
X80611034Y-46404838D01*
X80640136Y-46377372D01*
X80759068Y-46296990D01*
X80929831Y-46133327D01*
X81070478Y-45943159D01*
X81176964Y-45731957D01*
X81246224Y-45505797D01*
X81276267Y-45271185D01*
X81266229Y-45034871D01*
X81216397Y-44803652D01*
X81128207Y-44584180D01*
X81004193Y-44382770D01*
X80847925Y-44205215D01*
X80847924Y-44205214D01*
X80847920Y-44205210D01*
X80663897Y-44056622D01*
X80649102Y-44048357D01*
X80600177Y-43998476D01*
X80585985Y-43930063D01*
X80611034Y-43864838D01*
X80640136Y-43837372D01*
X80759068Y-43756990D01*
X80929831Y-43593327D01*
X81070478Y-43403159D01*
X81176964Y-43191957D01*
X81246224Y-42965797D01*
X81276267Y-42731185D01*
X81271601Y-42621350D01*
X81266229Y-42494874D01*
X81266229Y-42494873D01*
X81266229Y-42494871D01*
X81216397Y-42263652D01*
X81128207Y-42044180D01*
X81004193Y-41842770D01*
X80847925Y-41665215D01*
X80847924Y-41665214D01*
X80847920Y-41665210D01*
X80663897Y-41516622D01*
X80457409Y-41401271D01*
X80234392Y-41322474D01*
X80234382Y-41322471D01*
X80001273Y-41282500D01*
X80001264Y-41282500D01*
X78045972Y-41282500D01*
X78045967Y-41282500D01*
X77869328Y-41297533D01*
X77640429Y-41357134D01*
X77424904Y-41454557D01*
X77424898Y-41454560D01*
X77228939Y-41587004D01*
X77228932Y-41587010D01*
X77058168Y-41750674D01*
X76917524Y-41940838D01*
X76917521Y-41940842D01*
X76811039Y-42152037D01*
X76811036Y-42152043D01*
X76741775Y-42378206D01*
X76711733Y-42612815D01*
X76721770Y-42849125D01*
X76721770Y-42849126D01*
X76771603Y-43080348D01*
X76816452Y-43191962D01*
X76859793Y-43299820D01*
X76913472Y-43387000D01*
X76983806Y-43501229D01*
X77140075Y-43678785D01*
X77140079Y-43678789D01*
X77282300Y-43793624D01*
X77324102Y-43827377D01*
X77338892Y-43835639D01*
X77387819Y-43885516D01*
X77402014Y-43953928D01*
X77376970Y-44019155D01*
X77347858Y-44046629D01*
X77228942Y-44127002D01*
X77228932Y-44127010D01*
X77058168Y-44290674D01*
X76917524Y-44480838D01*
X76917521Y-44480842D01*
X76811039Y-44692037D01*
X76811036Y-44692043D01*
X76741775Y-44918206D01*
X76711733Y-45152815D01*
X76721770Y-45389125D01*
X76721770Y-45389126D01*
X76771603Y-45620348D01*
X76816452Y-45731962D01*
X76859793Y-45839820D01*
X76923261Y-45942898D01*
X76983806Y-46041229D01*
X77140075Y-46218785D01*
X77140079Y-46218789D01*
X77240655Y-46299998D01*
X77324102Y-46367377D01*
X77338892Y-46375639D01*
X77387819Y-46425516D01*
X77402014Y-46493928D01*
X77376970Y-46559155D01*
X77347858Y-46586629D01*
X77228942Y-46667002D01*
X77228932Y-46667010D01*
X77058168Y-46830674D01*
X76917524Y-47020838D01*
X76917521Y-47020842D01*
X76811039Y-47232037D01*
X76811036Y-47232043D01*
X76741775Y-47458206D01*
X76711733Y-47692815D01*
X76721770Y-47929125D01*
X76721770Y-47929126D01*
X76771603Y-48160348D01*
X76845685Y-48344712D01*
X76859793Y-48379820D01*
X76893040Y-48433816D01*
X76983806Y-48581229D01*
X77140075Y-48758785D01*
X77140079Y-48758789D01*
X77281709Y-48873147D01*
X77324102Y-48907377D01*
X77338892Y-48915639D01*
X77387819Y-48965516D01*
X77402014Y-49033928D01*
X77376970Y-49099155D01*
X77347858Y-49126629D01*
X77228942Y-49207002D01*
X77228932Y-49207010D01*
X77058168Y-49370673D01*
X77058167Y-49370674D01*
X76969001Y-49491235D01*
X76913311Y-49533429D01*
X76869306Y-49541500D01*
X75755705Y-49541500D01*
X75737735Y-49540191D01*
X75713972Y-49536710D01*
X75668533Y-49540686D01*
X75661931Y-49541264D01*
X75656530Y-49541500D01*
X75648289Y-49541500D01*
X75638354Y-49542661D01*
X75615724Y-49545306D01*
X75610197Y-49545789D01*
X75603657Y-49546361D01*
X75535158Y-49532589D01*
X75484979Y-49483970D01*
X75469051Y-49415940D01*
X75475155Y-49383822D01*
X75479505Y-49370694D01*
X75479506Y-49370690D01*
X75489999Y-49267986D01*
X75490000Y-49267973D01*
X75490000Y-49018000D01*
X74640000Y-49018000D01*
X74640000Y-49967999D01*
X74655270Y-49967999D01*
X74722309Y-49987684D01*
X74768064Y-50040488D01*
X74778008Y-50109646D01*
X74748983Y-50173202D01*
X74742951Y-50179680D01*
X74401451Y-50521181D01*
X74340128Y-50554666D01*
X74313770Y-50557500D01*
X68180229Y-50557500D01*
X68113190Y-50537815D01*
X68092548Y-50521181D01*
X67833819Y-50262451D01*
X67800334Y-50201128D01*
X67797500Y-50174770D01*
X67797500Y-49904867D01*
X67817185Y-49837828D01*
X67836386Y-49816656D01*
X67835549Y-49815819D01*
X67882351Y-49769017D01*
X67964712Y-49686656D01*
X67966461Y-49683819D01*
X67968169Y-49682283D01*
X67969193Y-49680989D01*
X67969414Y-49681163D01*
X68018406Y-49637096D01*
X68087368Y-49625872D01*
X68151451Y-49653713D01*
X68177537Y-49683817D01*
X68179288Y-49686656D01*
X68303344Y-49810712D01*
X68452666Y-49902814D01*
X68619203Y-49957999D01*
X68721991Y-49968500D01*
X69472008Y-49968499D01*
X69472016Y-49968498D01*
X69472019Y-49968498D01*
X69528302Y-49962748D01*
X69574797Y-49957999D01*
X69741334Y-49902814D01*
X69890656Y-49810712D01*
X70014712Y-49686656D01*
X70106814Y-49537334D01*
X70125648Y-49480495D01*
X70165421Y-49423051D01*
X70229937Y-49396228D01*
X70243354Y-49395500D01*
X71218646Y-49395500D01*
X71285685Y-49415185D01*
X71331440Y-49467989D01*
X71336350Y-49480492D01*
X71340000Y-49491505D01*
X71355185Y-49537331D01*
X71355187Y-49537336D01*
X71366376Y-49555476D01*
X71447288Y-49686656D01*
X71571344Y-49810712D01*
X71720666Y-49902814D01*
X71887203Y-49957999D01*
X71989991Y-49968500D01*
X72790008Y-49968499D01*
X72790016Y-49968498D01*
X72790019Y-49968498D01*
X72846302Y-49962748D01*
X72892797Y-49957999D01*
X73059334Y-49902814D01*
X73208656Y-49810712D01*
X73302675Y-49716692D01*
X73363994Y-49683210D01*
X73433686Y-49688194D01*
X73478034Y-49716695D01*
X73571654Y-49810315D01*
X73720875Y-49902356D01*
X73720880Y-49902358D01*
X73887302Y-49957505D01*
X73887309Y-49957506D01*
X73990019Y-49967999D01*
X74139999Y-49967999D01*
X74140000Y-49967998D01*
X74140000Y-47568000D01*
X74640000Y-47568000D01*
X74640000Y-48518000D01*
X75489999Y-48518000D01*
X75489999Y-48268028D01*
X75489998Y-48268013D01*
X75479505Y-48165302D01*
X75424358Y-47998880D01*
X75424356Y-47998875D01*
X75332315Y-47849654D01*
X75208345Y-47725684D01*
X75059124Y-47633643D01*
X75059119Y-47633641D01*
X74892697Y-47578494D01*
X74892690Y-47578493D01*
X74789986Y-47568000D01*
X74640000Y-47568000D01*
X74140000Y-47568000D01*
X73990027Y-47568000D01*
X73990012Y-47568001D01*
X73887302Y-47578494D01*
X73720880Y-47633641D01*
X73720875Y-47633643D01*
X73571657Y-47725682D01*
X73478034Y-47819305D01*
X73416710Y-47852789D01*
X73347019Y-47847805D01*
X73302672Y-47819304D01*
X73208657Y-47725289D01*
X73208656Y-47725288D01*
X73059334Y-47633186D01*
X72892797Y-47578001D01*
X72892795Y-47578000D01*
X72790010Y-47567500D01*
X71989998Y-47567500D01*
X71989980Y-47567501D01*
X71887203Y-47578000D01*
X71887200Y-47578001D01*
X71720668Y-47633185D01*
X71720663Y-47633187D01*
X71571342Y-47725289D01*
X71447289Y-47849342D01*
X71355187Y-47998663D01*
X71355185Y-47998668D01*
X71336352Y-48055504D01*
X71296579Y-48112949D01*
X71232063Y-48139772D01*
X71218646Y-48140500D01*
X70243354Y-48140500D01*
X70176315Y-48120815D01*
X70130560Y-48068011D01*
X70125648Y-48055504D01*
X70106814Y-47998666D01*
X70014712Y-47849344D01*
X69890656Y-47725288D01*
X69741334Y-47633186D01*
X69574797Y-47578001D01*
X69574795Y-47578000D01*
X69472010Y-47567500D01*
X68721998Y-47567500D01*
X68721980Y-47567501D01*
X68619203Y-47578000D01*
X68619200Y-47578001D01*
X68452668Y-47633185D01*
X68452663Y-47633187D01*
X68303342Y-47725289D01*
X68179285Y-47849346D01*
X68177537Y-47852182D01*
X68175829Y-47853717D01*
X68174807Y-47855011D01*
X68174585Y-47854836D01*
X68125589Y-47898905D01*
X68056626Y-47910126D01*
X67992544Y-47882282D01*
X67966463Y-47852182D01*
X67964714Y-47849346D01*
X67840657Y-47725289D01*
X67840656Y-47725288D01*
X67691334Y-47633186D01*
X67524797Y-47578001D01*
X67524795Y-47578000D01*
X67422010Y-47567500D01*
X66671998Y-47567500D01*
X66671980Y-47567501D01*
X66569203Y-47578000D01*
X66569200Y-47578001D01*
X66402668Y-47633185D01*
X66402663Y-47633187D01*
X66253342Y-47725289D01*
X66129289Y-47849342D01*
X66037187Y-47998663D01*
X66037185Y-47998668D01*
X66021568Y-48045797D01*
X65982001Y-48165203D01*
X65982001Y-48165204D01*
X65982000Y-48165204D01*
X65971500Y-48267983D01*
X65971500Y-49268001D01*
X55019166Y-49268001D01*
X55019925Y-49239024D01*
X55020083Y-49235939D01*
X55020085Y-49235918D01*
X55055328Y-48773118D01*
X55079286Y-48468713D01*
X55079579Y-48465866D01*
X55134709Y-48032994D01*
X55150885Y-47910126D01*
X55178209Y-47702580D01*
X55178638Y-47699814D01*
X55253578Y-47281697D01*
X55261180Y-47240685D01*
X55316435Y-46942560D01*
X55316984Y-46939927D01*
X55411541Y-46532448D01*
X55420790Y-46493928D01*
X55493891Y-46189435D01*
X55608234Y-45789827D01*
X55709556Y-45447773D01*
X55717272Y-45425201D01*
X55843087Y-45057114D01*
X55963092Y-44718232D01*
X56115512Y-44336654D01*
X56134421Y-44291006D01*
X56253827Y-44002731D01*
X56424789Y-43630648D01*
X56580989Y-43303167D01*
X56770084Y-42941163D01*
X56943709Y-42621383D01*
X57150491Y-42270111D01*
X57341046Y-41959156D01*
X57564956Y-41619413D01*
X57587231Y-41587004D01*
X57771871Y-41318350D01*
X58012461Y-40990710D01*
X58235079Y-40700588D01*
X58491797Y-40385749D01*
X58729410Y-40107539D01*
X59001673Y-39806185D01*
X59253600Y-39540711D01*
X59540706Y-39253605D01*
X59806219Y-39001643D01*
X60107513Y-38729434D01*
X60385756Y-38491791D01*
X60700577Y-38235089D01*
X60990701Y-38012467D01*
X61318374Y-37771853D01*
X61619423Y-37564950D01*
X61959168Y-37341038D01*
X62270161Y-37150462D01*
X62621346Y-36943731D01*
X62941185Y-36770073D01*
X63303122Y-36581012D01*
X63630728Y-36424752D01*
X64002681Y-36253850D01*
X64336742Y-36115477D01*
X64718220Y-35963096D01*
X65057202Y-35843057D01*
X65447746Y-35709565D01*
X65790027Y-35608176D01*
X66189415Y-35493897D01*
X66532590Y-35411508D01*
X66939883Y-35316994D01*
X66942534Y-35316441D01*
X67281921Y-35253538D01*
X67699788Y-35178643D01*
X67702528Y-35178217D01*
X68033252Y-35134676D01*
X68465873Y-35079578D01*
X68468663Y-35079291D01*
X68773495Y-35055299D01*
X69235950Y-35020082D01*
X69238945Y-35019928D01*
X69407249Y-35015520D01*
X70000000Y-35000500D01*
X70000500Y-35000500D01*
X149999500Y-35000500D01*
X150000000Y-35000500D01*
X150594655Y-35015569D01*
G37*
%TD.AperFunction*%
%TD*%
M02*
