%TF.GenerationSoftware,KiCad,Pcbnew,7.0.9*%
%TF.CreationDate,2024-02-02T14:12:30-08:00*%
%TF.ProjectId,Sensing Device,53656e73-696e-4672-9044-65766963652e,rev?*%
%TF.SameCoordinates,Original*%
%TF.FileFunction,Legend,Top*%
%TF.FilePolarity,Positive*%
%FSLAX46Y46*%
G04 Gerber Fmt 4.6, Leading zero omitted, Abs format (unit mm)*
G04 Created by KiCad (PCBNEW 7.0.9) date 2024-02-02 14:12:30*
%MOMM*%
%LPD*%
G01*
G04 APERTURE LIST*
%ADD10C,0.150000*%
%ADD11C,0.100000*%
%ADD12C,0.120000*%
%ADD13C,0.152400*%
G04 APERTURE END LIST*
D10*
X113604874Y-98045438D02*
X113604874Y-96045438D01*
X113604874Y-96045438D02*
X114271541Y-97474009D01*
X114271541Y-97474009D02*
X114938207Y-96045438D01*
X114938207Y-96045438D02*
X114938207Y-98045438D01*
X116747731Y-98045438D02*
X116747731Y-96997819D01*
X116747731Y-96997819D02*
X116652493Y-96807342D01*
X116652493Y-96807342D02*
X116462017Y-96712104D01*
X116462017Y-96712104D02*
X116081064Y-96712104D01*
X116081064Y-96712104D02*
X115890588Y-96807342D01*
X116747731Y-97950200D02*
X116557255Y-98045438D01*
X116557255Y-98045438D02*
X116081064Y-98045438D01*
X116081064Y-98045438D02*
X115890588Y-97950200D01*
X115890588Y-97950200D02*
X115795350Y-97759723D01*
X115795350Y-97759723D02*
X115795350Y-97569247D01*
X115795350Y-97569247D02*
X115890588Y-97378771D01*
X115890588Y-97378771D02*
X116081064Y-97283533D01*
X116081064Y-97283533D02*
X116557255Y-97283533D01*
X116557255Y-97283533D02*
X116747731Y-97188295D01*
X118557255Y-96712104D02*
X118557255Y-98331152D01*
X118557255Y-98331152D02*
X118462017Y-98521628D01*
X118462017Y-98521628D02*
X118366779Y-98616866D01*
X118366779Y-98616866D02*
X118176302Y-98712104D01*
X118176302Y-98712104D02*
X117890588Y-98712104D01*
X117890588Y-98712104D02*
X117700112Y-98616866D01*
X118557255Y-97950200D02*
X118366779Y-98045438D01*
X118366779Y-98045438D02*
X117985826Y-98045438D01*
X117985826Y-98045438D02*
X117795350Y-97950200D01*
X117795350Y-97950200D02*
X117700112Y-97854961D01*
X117700112Y-97854961D02*
X117604874Y-97664485D01*
X117604874Y-97664485D02*
X117604874Y-97093057D01*
X117604874Y-97093057D02*
X117700112Y-96902580D01*
X117700112Y-96902580D02*
X117795350Y-96807342D01*
X117795350Y-96807342D02*
X117985826Y-96712104D01*
X117985826Y-96712104D02*
X118366779Y-96712104D01*
X118366779Y-96712104D02*
X118557255Y-96807342D01*
X119509636Y-98045438D02*
X119509636Y-96045438D01*
X119509636Y-96045438D02*
X119985826Y-96045438D01*
X119985826Y-96045438D02*
X120271541Y-96140676D01*
X120271541Y-96140676D02*
X120462017Y-96331152D01*
X120462017Y-96331152D02*
X120557255Y-96521628D01*
X120557255Y-96521628D02*
X120652493Y-96902580D01*
X120652493Y-96902580D02*
X120652493Y-97188295D01*
X120652493Y-97188295D02*
X120557255Y-97569247D01*
X120557255Y-97569247D02*
X120462017Y-97759723D01*
X120462017Y-97759723D02*
X120271541Y-97950200D01*
X120271541Y-97950200D02*
X119985826Y-98045438D01*
X119985826Y-98045438D02*
X119509636Y-98045438D01*
X121795350Y-98045438D02*
X121604874Y-97950200D01*
X121604874Y-97950200D02*
X121509636Y-97854961D01*
X121509636Y-97854961D02*
X121414398Y-97664485D01*
X121414398Y-97664485D02*
X121414398Y-97093057D01*
X121414398Y-97093057D02*
X121509636Y-96902580D01*
X121509636Y-96902580D02*
X121604874Y-96807342D01*
X121604874Y-96807342D02*
X121795350Y-96712104D01*
X121795350Y-96712104D02*
X122081065Y-96712104D01*
X122081065Y-96712104D02*
X122271541Y-96807342D01*
X122271541Y-96807342D02*
X122366779Y-96902580D01*
X122366779Y-96902580D02*
X122462017Y-97093057D01*
X122462017Y-97093057D02*
X122462017Y-97664485D01*
X122462017Y-97664485D02*
X122366779Y-97854961D01*
X122366779Y-97854961D02*
X122271541Y-97950200D01*
X122271541Y-97950200D02*
X122081065Y-98045438D01*
X122081065Y-98045438D02*
X121795350Y-98045438D01*
X124176303Y-97950200D02*
X123985827Y-98045438D01*
X123985827Y-98045438D02*
X123604874Y-98045438D01*
X123604874Y-98045438D02*
X123414398Y-97950200D01*
X123414398Y-97950200D02*
X123319160Y-97854961D01*
X123319160Y-97854961D02*
X123223922Y-97664485D01*
X123223922Y-97664485D02*
X123223922Y-97093057D01*
X123223922Y-97093057D02*
X123319160Y-96902580D01*
X123319160Y-96902580D02*
X123414398Y-96807342D01*
X123414398Y-96807342D02*
X123604874Y-96712104D01*
X123604874Y-96712104D02*
X123985827Y-96712104D01*
X123985827Y-96712104D02*
X124176303Y-96807342D01*
X125033446Y-98045438D02*
X125033446Y-96045438D01*
X125223922Y-97283533D02*
X125795351Y-98045438D01*
X125795351Y-96712104D02*
X125033446Y-97474009D01*
X127414399Y-97950200D02*
X127223923Y-98045438D01*
X127223923Y-98045438D02*
X126842970Y-98045438D01*
X126842970Y-98045438D02*
X126652494Y-97950200D01*
X126652494Y-97950200D02*
X126557256Y-97759723D01*
X126557256Y-97759723D02*
X126557256Y-96997819D01*
X126557256Y-96997819D02*
X126652494Y-96807342D01*
X126652494Y-96807342D02*
X126842970Y-96712104D01*
X126842970Y-96712104D02*
X127223923Y-96712104D01*
X127223923Y-96712104D02*
X127414399Y-96807342D01*
X127414399Y-96807342D02*
X127509637Y-96997819D01*
X127509637Y-96997819D02*
X127509637Y-97188295D01*
X127509637Y-97188295D02*
X126557256Y-97378771D01*
X128366780Y-98045438D02*
X128366780Y-96712104D01*
X128366780Y-97093057D02*
X128462018Y-96902580D01*
X128462018Y-96902580D02*
X128557256Y-96807342D01*
X128557256Y-96807342D02*
X128747732Y-96712104D01*
X128747732Y-96712104D02*
X128938209Y-96712104D01*
X132366780Y-97093057D02*
X132271542Y-96997819D01*
X132271542Y-96997819D02*
X132081066Y-96902580D01*
X132081066Y-96902580D02*
X131890590Y-96902580D01*
X131890590Y-96902580D02*
X131700114Y-96997819D01*
X131700114Y-96997819D02*
X131604875Y-97093057D01*
X131604875Y-97093057D02*
X131509637Y-97283533D01*
X131509637Y-97283533D02*
X131509637Y-97474009D01*
X131509637Y-97474009D02*
X131604875Y-97664485D01*
X131604875Y-97664485D02*
X131700114Y-97759723D01*
X131700114Y-97759723D02*
X131890590Y-97854961D01*
X131890590Y-97854961D02*
X132081066Y-97854961D01*
X132081066Y-97854961D02*
X132271542Y-97759723D01*
X132271542Y-97759723D02*
X132366780Y-97664485D01*
X132366780Y-96902580D02*
X132366780Y-97664485D01*
X132366780Y-97664485D02*
X132462018Y-97759723D01*
X132462018Y-97759723D02*
X132557256Y-97759723D01*
X132557256Y-97759723D02*
X132747733Y-97664485D01*
X132747733Y-97664485D02*
X132842971Y-97474009D01*
X132842971Y-97474009D02*
X132842971Y-96997819D01*
X132842971Y-96997819D02*
X132652495Y-96712104D01*
X132652495Y-96712104D02*
X132366780Y-96521628D01*
X132366780Y-96521628D02*
X131985828Y-96426390D01*
X131985828Y-96426390D02*
X131604875Y-96521628D01*
X131604875Y-96521628D02*
X131319161Y-96712104D01*
X131319161Y-96712104D02*
X131128685Y-96997819D01*
X131128685Y-96997819D02*
X131033447Y-97378771D01*
X131033447Y-97378771D02*
X131128685Y-97759723D01*
X131128685Y-97759723D02*
X131319161Y-98045438D01*
X131319161Y-98045438D02*
X131604875Y-98235914D01*
X131604875Y-98235914D02*
X131985828Y-98331152D01*
X131985828Y-98331152D02*
X132366780Y-98235914D01*
X132366780Y-98235914D02*
X132652495Y-98045438D01*
X134081066Y-97093057D02*
X134081066Y-98045438D01*
X133414400Y-96045438D02*
X134081066Y-97093057D01*
X134081066Y-97093057D02*
X134747733Y-96045438D01*
X136271543Y-96712104D02*
X136271543Y-98045438D01*
X135414400Y-96712104D02*
X135414400Y-97759723D01*
X135414400Y-97759723D02*
X135509638Y-97950200D01*
X135509638Y-97950200D02*
X135700114Y-98045438D01*
X135700114Y-98045438D02*
X135985829Y-98045438D01*
X135985829Y-98045438D02*
X136176305Y-97950200D01*
X136176305Y-97950200D02*
X136271543Y-97854961D01*
X137985829Y-97950200D02*
X137795353Y-98045438D01*
X137795353Y-98045438D02*
X137414400Y-98045438D01*
X137414400Y-98045438D02*
X137223924Y-97950200D01*
X137223924Y-97950200D02*
X137128686Y-97759723D01*
X137128686Y-97759723D02*
X137128686Y-96997819D01*
X137128686Y-96997819D02*
X137223924Y-96807342D01*
X137223924Y-96807342D02*
X137414400Y-96712104D01*
X137414400Y-96712104D02*
X137795353Y-96712104D01*
X137795353Y-96712104D02*
X137985829Y-96807342D01*
X137985829Y-96807342D02*
X138081067Y-96997819D01*
X138081067Y-96997819D02*
X138081067Y-97188295D01*
X138081067Y-97188295D02*
X137128686Y-97378771D01*
X139795353Y-97950200D02*
X139604877Y-98045438D01*
X139604877Y-98045438D02*
X139223924Y-98045438D01*
X139223924Y-98045438D02*
X139033448Y-97950200D01*
X139033448Y-97950200D02*
X138938210Y-97854961D01*
X138938210Y-97854961D02*
X138842972Y-97664485D01*
X138842972Y-97664485D02*
X138842972Y-97093057D01*
X138842972Y-97093057D02*
X138938210Y-96902580D01*
X138938210Y-96902580D02*
X139033448Y-96807342D01*
X139033448Y-96807342D02*
X139223924Y-96712104D01*
X139223924Y-96712104D02*
X139604877Y-96712104D01*
X139604877Y-96712104D02*
X139795353Y-96807342D01*
X140652496Y-98045438D02*
X140652496Y-96045438D01*
X141509639Y-98045438D02*
X141509639Y-96997819D01*
X141509639Y-96997819D02*
X141414401Y-96807342D01*
X141414401Y-96807342D02*
X141223925Y-96712104D01*
X141223925Y-96712104D02*
X140938210Y-96712104D01*
X140938210Y-96712104D02*
X140747734Y-96807342D01*
X140747734Y-96807342D02*
X140652496Y-96902580D01*
X143223925Y-97950200D02*
X143033449Y-98045438D01*
X143033449Y-98045438D02*
X142652496Y-98045438D01*
X142652496Y-98045438D02*
X142462020Y-97950200D01*
X142462020Y-97950200D02*
X142366782Y-97759723D01*
X142366782Y-97759723D02*
X142366782Y-96997819D01*
X142366782Y-96997819D02*
X142462020Y-96807342D01*
X142462020Y-96807342D02*
X142652496Y-96712104D01*
X142652496Y-96712104D02*
X143033449Y-96712104D01*
X143033449Y-96712104D02*
X143223925Y-96807342D01*
X143223925Y-96807342D02*
X143319163Y-96997819D01*
X143319163Y-96997819D02*
X143319163Y-97188295D01*
X143319163Y-97188295D02*
X142366782Y-97378771D01*
X144176306Y-96712104D02*
X144176306Y-98045438D01*
X144176306Y-96902580D02*
X144271544Y-96807342D01*
X144271544Y-96807342D02*
X144462020Y-96712104D01*
X144462020Y-96712104D02*
X144747735Y-96712104D01*
X144747735Y-96712104D02*
X144938211Y-96807342D01*
X144938211Y-96807342D02*
X145033449Y-96997819D01*
X145033449Y-96997819D02*
X145033449Y-98045438D01*
X146842973Y-96712104D02*
X146842973Y-98331152D01*
X146842973Y-98331152D02*
X146747735Y-98521628D01*
X146747735Y-98521628D02*
X146652497Y-98616866D01*
X146652497Y-98616866D02*
X146462020Y-98712104D01*
X146462020Y-98712104D02*
X146176306Y-98712104D01*
X146176306Y-98712104D02*
X145985830Y-98616866D01*
X146842973Y-97950200D02*
X146652497Y-98045438D01*
X146652497Y-98045438D02*
X146271544Y-98045438D01*
X146271544Y-98045438D02*
X146081068Y-97950200D01*
X146081068Y-97950200D02*
X145985830Y-97854961D01*
X145985830Y-97854961D02*
X145890592Y-97664485D01*
X145890592Y-97664485D02*
X145890592Y-97093057D01*
X145890592Y-97093057D02*
X145985830Y-96902580D01*
X145985830Y-96902580D02*
X146081068Y-96807342D01*
X146081068Y-96807342D02*
X146271544Y-96712104D01*
X146271544Y-96712104D02*
X146652497Y-96712104D01*
X146652497Y-96712104D02*
X146842973Y-96807342D01*
X67333905Y-50872819D02*
X67333905Y-49872819D01*
X67333905Y-49872819D02*
X67572000Y-49872819D01*
X67572000Y-49872819D02*
X67714857Y-49920438D01*
X67714857Y-49920438D02*
X67810095Y-50015676D01*
X67810095Y-50015676D02*
X67857714Y-50110914D01*
X67857714Y-50110914D02*
X67905333Y-50301390D01*
X67905333Y-50301390D02*
X67905333Y-50444247D01*
X67905333Y-50444247D02*
X67857714Y-50634723D01*
X67857714Y-50634723D02*
X67810095Y-50729961D01*
X67810095Y-50729961D02*
X67714857Y-50825200D01*
X67714857Y-50825200D02*
X67572000Y-50872819D01*
X67572000Y-50872819D02*
X67333905Y-50872819D01*
X68857714Y-50872819D02*
X68286286Y-50872819D01*
X68572000Y-50872819D02*
X68572000Y-49872819D01*
X68572000Y-49872819D02*
X68476762Y-50015676D01*
X68476762Y-50015676D02*
X68381524Y-50110914D01*
X68381524Y-50110914D02*
X68286286Y-50158533D01*
D11*
X86868095Y-40605419D02*
X86868095Y-41414942D01*
X86868095Y-41414942D02*
X86915714Y-41510180D01*
X86915714Y-41510180D02*
X86963333Y-41557800D01*
X86963333Y-41557800D02*
X87058571Y-41605419D01*
X87058571Y-41605419D02*
X87249047Y-41605419D01*
X87249047Y-41605419D02*
X87344285Y-41557800D01*
X87344285Y-41557800D02*
X87391904Y-41510180D01*
X87391904Y-41510180D02*
X87439523Y-41414942D01*
X87439523Y-41414942D02*
X87439523Y-40605419D01*
X88439523Y-41605419D02*
X87868095Y-41605419D01*
X88153809Y-41605419D02*
X88153809Y-40605419D01*
X88153809Y-40605419D02*
X88058571Y-40748276D01*
X88058571Y-40748276D02*
X87963333Y-40843514D01*
X87963333Y-40843514D02*
X87868095Y-40891133D01*
D10*
X93686666Y-63896819D02*
X93686666Y-64611104D01*
X93686666Y-64611104D02*
X93639047Y-64753961D01*
X93639047Y-64753961D02*
X93543809Y-64849200D01*
X93543809Y-64849200D02*
X93400952Y-64896819D01*
X93400952Y-64896819D02*
X93305714Y-64896819D01*
X94686666Y-64896819D02*
X94115238Y-64896819D01*
X94400952Y-64896819D02*
X94400952Y-63896819D01*
X94400952Y-63896819D02*
X94305714Y-64039676D01*
X94305714Y-64039676D02*
X94210476Y-64134914D01*
X94210476Y-64134914D02*
X94115238Y-64182533D01*
X129238095Y-67054819D02*
X129238095Y-67864342D01*
X129238095Y-67864342D02*
X129285714Y-67959580D01*
X129285714Y-67959580D02*
X129333333Y-68007200D01*
X129333333Y-68007200D02*
X129428571Y-68054819D01*
X129428571Y-68054819D02*
X129619047Y-68054819D01*
X129619047Y-68054819D02*
X129714285Y-68007200D01*
X129714285Y-68007200D02*
X129761904Y-67959580D01*
X129761904Y-67959580D02*
X129809523Y-67864342D01*
X129809523Y-67864342D02*
X129809523Y-67054819D01*
X130238095Y-67150057D02*
X130285714Y-67102438D01*
X130285714Y-67102438D02*
X130380952Y-67054819D01*
X130380952Y-67054819D02*
X130619047Y-67054819D01*
X130619047Y-67054819D02*
X130714285Y-67102438D01*
X130714285Y-67102438D02*
X130761904Y-67150057D01*
X130761904Y-67150057D02*
X130809523Y-67245295D01*
X130809523Y-67245295D02*
X130809523Y-67340533D01*
X130809523Y-67340533D02*
X130761904Y-67483390D01*
X130761904Y-67483390D02*
X130190476Y-68054819D01*
X130190476Y-68054819D02*
X130809523Y-68054819D01*
X69506667Y-63247200D02*
X69649524Y-63294819D01*
X69649524Y-63294819D02*
X69887619Y-63294819D01*
X69887619Y-63294819D02*
X69982857Y-63247200D01*
X69982857Y-63247200D02*
X70030476Y-63199580D01*
X70030476Y-63199580D02*
X70078095Y-63104342D01*
X70078095Y-63104342D02*
X70078095Y-63009104D01*
X70078095Y-63009104D02*
X70030476Y-62913866D01*
X70030476Y-62913866D02*
X69982857Y-62866247D01*
X69982857Y-62866247D02*
X69887619Y-62818628D01*
X69887619Y-62818628D02*
X69697143Y-62771009D01*
X69697143Y-62771009D02*
X69601905Y-62723390D01*
X69601905Y-62723390D02*
X69554286Y-62675771D01*
X69554286Y-62675771D02*
X69506667Y-62580533D01*
X69506667Y-62580533D02*
X69506667Y-62485295D01*
X69506667Y-62485295D02*
X69554286Y-62390057D01*
X69554286Y-62390057D02*
X69601905Y-62342438D01*
X69601905Y-62342438D02*
X69697143Y-62294819D01*
X69697143Y-62294819D02*
X69935238Y-62294819D01*
X69935238Y-62294819D02*
X70078095Y-62342438D01*
X70411429Y-62294819D02*
X70649524Y-63294819D01*
X70649524Y-63294819D02*
X70840000Y-62580533D01*
X70840000Y-62580533D02*
X71030476Y-63294819D01*
X71030476Y-63294819D02*
X71268572Y-62294819D01*
X72173333Y-63294819D02*
X71601905Y-63294819D01*
X71887619Y-63294819D02*
X71887619Y-62294819D01*
X71887619Y-62294819D02*
X71792381Y-62437676D01*
X71792381Y-62437676D02*
X71697143Y-62532914D01*
X71697143Y-62532914D02*
X71601905Y-62580533D01*
X83928833Y-66809580D02*
X83881214Y-66857200D01*
X83881214Y-66857200D02*
X83738357Y-66904819D01*
X83738357Y-66904819D02*
X83643119Y-66904819D01*
X83643119Y-66904819D02*
X83500262Y-66857200D01*
X83500262Y-66857200D02*
X83405024Y-66761961D01*
X83405024Y-66761961D02*
X83357405Y-66666723D01*
X83357405Y-66666723D02*
X83309786Y-66476247D01*
X83309786Y-66476247D02*
X83309786Y-66333390D01*
X83309786Y-66333390D02*
X83357405Y-66142914D01*
X83357405Y-66142914D02*
X83405024Y-66047676D01*
X83405024Y-66047676D02*
X83500262Y-65952438D01*
X83500262Y-65952438D02*
X83643119Y-65904819D01*
X83643119Y-65904819D02*
X83738357Y-65904819D01*
X83738357Y-65904819D02*
X83881214Y-65952438D01*
X83881214Y-65952438D02*
X83928833Y-66000057D01*
X84785976Y-66238152D02*
X84785976Y-66904819D01*
X84547881Y-65857200D02*
X84309786Y-66571485D01*
X84309786Y-66571485D02*
X84928833Y-66571485D01*
X120499333Y-67892819D02*
X120166000Y-67416628D01*
X119927905Y-67892819D02*
X119927905Y-66892819D01*
X119927905Y-66892819D02*
X120308857Y-66892819D01*
X120308857Y-66892819D02*
X120404095Y-66940438D01*
X120404095Y-66940438D02*
X120451714Y-66988057D01*
X120451714Y-66988057D02*
X120499333Y-67083295D01*
X120499333Y-67083295D02*
X120499333Y-67226152D01*
X120499333Y-67226152D02*
X120451714Y-67321390D01*
X120451714Y-67321390D02*
X120404095Y-67369009D01*
X120404095Y-67369009D02*
X120308857Y-67416628D01*
X120308857Y-67416628D02*
X119927905Y-67416628D01*
X120832667Y-66892819D02*
X121499333Y-66892819D01*
X121499333Y-66892819D02*
X121070762Y-67892819D01*
X135836819Y-64614066D02*
X135360628Y-64947399D01*
X135836819Y-65185494D02*
X134836819Y-65185494D01*
X134836819Y-65185494D02*
X134836819Y-64804542D01*
X134836819Y-64804542D02*
X134884438Y-64709304D01*
X134884438Y-64709304D02*
X134932057Y-64661685D01*
X134932057Y-64661685D02*
X135027295Y-64614066D01*
X135027295Y-64614066D02*
X135170152Y-64614066D01*
X135170152Y-64614066D02*
X135265390Y-64661685D01*
X135265390Y-64661685D02*
X135313009Y-64709304D01*
X135313009Y-64709304D02*
X135360628Y-64804542D01*
X135360628Y-64804542D02*
X135360628Y-65185494D01*
X134836819Y-63709304D02*
X134836819Y-64185494D01*
X134836819Y-64185494D02*
X135313009Y-64233113D01*
X135313009Y-64233113D02*
X135265390Y-64185494D01*
X135265390Y-64185494D02*
X135217771Y-64090256D01*
X135217771Y-64090256D02*
X135217771Y-63852161D01*
X135217771Y-63852161D02*
X135265390Y-63756923D01*
X135265390Y-63756923D02*
X135313009Y-63709304D01*
X135313009Y-63709304D02*
X135408247Y-63661685D01*
X135408247Y-63661685D02*
X135646342Y-63661685D01*
X135646342Y-63661685D02*
X135741580Y-63709304D01*
X135741580Y-63709304D02*
X135789200Y-63756923D01*
X135789200Y-63756923D02*
X135836819Y-63852161D01*
X135836819Y-63852161D02*
X135836819Y-64090256D01*
X135836819Y-64090256D02*
X135789200Y-64185494D01*
X135789200Y-64185494D02*
X135741580Y-64233113D01*
X100943580Y-41293166D02*
X100991200Y-41340785D01*
X100991200Y-41340785D02*
X101038819Y-41483642D01*
X101038819Y-41483642D02*
X101038819Y-41578880D01*
X101038819Y-41578880D02*
X100991200Y-41721737D01*
X100991200Y-41721737D02*
X100895961Y-41816975D01*
X100895961Y-41816975D02*
X100800723Y-41864594D01*
X100800723Y-41864594D02*
X100610247Y-41912213D01*
X100610247Y-41912213D02*
X100467390Y-41912213D01*
X100467390Y-41912213D02*
X100276914Y-41864594D01*
X100276914Y-41864594D02*
X100181676Y-41816975D01*
X100181676Y-41816975D02*
X100086438Y-41721737D01*
X100086438Y-41721737D02*
X100038819Y-41578880D01*
X100038819Y-41578880D02*
X100038819Y-41483642D01*
X100038819Y-41483642D02*
X100086438Y-41340785D01*
X100086438Y-41340785D02*
X100134057Y-41293166D01*
X100038819Y-40959832D02*
X100038819Y-40340785D01*
X100038819Y-40340785D02*
X100419771Y-40674118D01*
X100419771Y-40674118D02*
X100419771Y-40531261D01*
X100419771Y-40531261D02*
X100467390Y-40436023D01*
X100467390Y-40436023D02*
X100515009Y-40388404D01*
X100515009Y-40388404D02*
X100610247Y-40340785D01*
X100610247Y-40340785D02*
X100848342Y-40340785D01*
X100848342Y-40340785D02*
X100943580Y-40388404D01*
X100943580Y-40388404D02*
X100991200Y-40436023D01*
X100991200Y-40436023D02*
X101038819Y-40531261D01*
X101038819Y-40531261D02*
X101038819Y-40816975D01*
X101038819Y-40816975D02*
X100991200Y-40912213D01*
X100991200Y-40912213D02*
X100943580Y-40959832D01*
X83288285Y-76531009D02*
X83431142Y-76578628D01*
X83431142Y-76578628D02*
X83478761Y-76626247D01*
X83478761Y-76626247D02*
X83526380Y-76721485D01*
X83526380Y-76721485D02*
X83526380Y-76864342D01*
X83526380Y-76864342D02*
X83478761Y-76959580D01*
X83478761Y-76959580D02*
X83431142Y-77007200D01*
X83431142Y-77007200D02*
X83335904Y-77054819D01*
X83335904Y-77054819D02*
X82954952Y-77054819D01*
X82954952Y-77054819D02*
X82954952Y-76054819D01*
X82954952Y-76054819D02*
X83288285Y-76054819D01*
X83288285Y-76054819D02*
X83383523Y-76102438D01*
X83383523Y-76102438D02*
X83431142Y-76150057D01*
X83431142Y-76150057D02*
X83478761Y-76245295D01*
X83478761Y-76245295D02*
X83478761Y-76340533D01*
X83478761Y-76340533D02*
X83431142Y-76435771D01*
X83431142Y-76435771D02*
X83383523Y-76483390D01*
X83383523Y-76483390D02*
X83288285Y-76531009D01*
X83288285Y-76531009D02*
X82954952Y-76531009D01*
X83812095Y-76054819D02*
X84383523Y-76054819D01*
X84097809Y-77054819D02*
X84097809Y-76054819D01*
X85240666Y-77054819D02*
X84669238Y-77054819D01*
X84954952Y-77054819D02*
X84954952Y-76054819D01*
X84954952Y-76054819D02*
X84859714Y-76197676D01*
X84859714Y-76197676D02*
X84764476Y-76292914D01*
X84764476Y-76292914D02*
X84669238Y-76340533D01*
X92430767Y-96584200D02*
X92573624Y-96631819D01*
X92573624Y-96631819D02*
X92811719Y-96631819D01*
X92811719Y-96631819D02*
X92906957Y-96584200D01*
X92906957Y-96584200D02*
X92954576Y-96536580D01*
X92954576Y-96536580D02*
X93002195Y-96441342D01*
X93002195Y-96441342D02*
X93002195Y-96346104D01*
X93002195Y-96346104D02*
X92954576Y-96250866D01*
X92954576Y-96250866D02*
X92906957Y-96203247D01*
X92906957Y-96203247D02*
X92811719Y-96155628D01*
X92811719Y-96155628D02*
X92621243Y-96108009D01*
X92621243Y-96108009D02*
X92526005Y-96060390D01*
X92526005Y-96060390D02*
X92478386Y-96012771D01*
X92478386Y-96012771D02*
X92430767Y-95917533D01*
X92430767Y-95917533D02*
X92430767Y-95822295D01*
X92430767Y-95822295D02*
X92478386Y-95727057D01*
X92478386Y-95727057D02*
X92526005Y-95679438D01*
X92526005Y-95679438D02*
X92621243Y-95631819D01*
X92621243Y-95631819D02*
X92859338Y-95631819D01*
X92859338Y-95631819D02*
X93002195Y-95679438D01*
X93335529Y-95631819D02*
X93573624Y-96631819D01*
X93573624Y-96631819D02*
X93764100Y-95917533D01*
X93764100Y-95917533D02*
X93954576Y-96631819D01*
X93954576Y-96631819D02*
X94192672Y-95631819D01*
X94526005Y-95727057D02*
X94573624Y-95679438D01*
X94573624Y-95679438D02*
X94668862Y-95631819D01*
X94668862Y-95631819D02*
X94906957Y-95631819D01*
X94906957Y-95631819D02*
X95002195Y-95679438D01*
X95002195Y-95679438D02*
X95049814Y-95727057D01*
X95049814Y-95727057D02*
X95097433Y-95822295D01*
X95097433Y-95822295D02*
X95097433Y-95917533D01*
X95097433Y-95917533D02*
X95049814Y-96060390D01*
X95049814Y-96060390D02*
X94478386Y-96631819D01*
X94478386Y-96631819D02*
X95097433Y-96631819D01*
X120499333Y-72464819D02*
X120166000Y-71988628D01*
X119927905Y-72464819D02*
X119927905Y-71464819D01*
X119927905Y-71464819D02*
X120308857Y-71464819D01*
X120308857Y-71464819D02*
X120404095Y-71512438D01*
X120404095Y-71512438D02*
X120451714Y-71560057D01*
X120451714Y-71560057D02*
X120499333Y-71655295D01*
X120499333Y-71655295D02*
X120499333Y-71798152D01*
X120499333Y-71798152D02*
X120451714Y-71893390D01*
X120451714Y-71893390D02*
X120404095Y-71941009D01*
X120404095Y-71941009D02*
X120308857Y-71988628D01*
X120308857Y-71988628D02*
X119927905Y-71988628D01*
X121070762Y-71893390D02*
X120975524Y-71845771D01*
X120975524Y-71845771D02*
X120927905Y-71798152D01*
X120927905Y-71798152D02*
X120880286Y-71702914D01*
X120880286Y-71702914D02*
X120880286Y-71655295D01*
X120880286Y-71655295D02*
X120927905Y-71560057D01*
X120927905Y-71560057D02*
X120975524Y-71512438D01*
X120975524Y-71512438D02*
X121070762Y-71464819D01*
X121070762Y-71464819D02*
X121261238Y-71464819D01*
X121261238Y-71464819D02*
X121356476Y-71512438D01*
X121356476Y-71512438D02*
X121404095Y-71560057D01*
X121404095Y-71560057D02*
X121451714Y-71655295D01*
X121451714Y-71655295D02*
X121451714Y-71702914D01*
X121451714Y-71702914D02*
X121404095Y-71798152D01*
X121404095Y-71798152D02*
X121356476Y-71845771D01*
X121356476Y-71845771D02*
X121261238Y-71893390D01*
X121261238Y-71893390D02*
X121070762Y-71893390D01*
X121070762Y-71893390D02*
X120975524Y-71941009D01*
X120975524Y-71941009D02*
X120927905Y-71988628D01*
X120927905Y-71988628D02*
X120880286Y-72083866D01*
X120880286Y-72083866D02*
X120880286Y-72274342D01*
X120880286Y-72274342D02*
X120927905Y-72369580D01*
X120927905Y-72369580D02*
X120975524Y-72417200D01*
X120975524Y-72417200D02*
X121070762Y-72464819D01*
X121070762Y-72464819D02*
X121261238Y-72464819D01*
X121261238Y-72464819D02*
X121356476Y-72417200D01*
X121356476Y-72417200D02*
X121404095Y-72369580D01*
X121404095Y-72369580D02*
X121451714Y-72274342D01*
X121451714Y-72274342D02*
X121451714Y-72083866D01*
X121451714Y-72083866D02*
X121404095Y-71988628D01*
X121404095Y-71988628D02*
X121356476Y-71941009D01*
X121356476Y-71941009D02*
X121261238Y-71893390D01*
X126692819Y-64630066D02*
X126216628Y-64963399D01*
X126692819Y-65201494D02*
X125692819Y-65201494D01*
X125692819Y-65201494D02*
X125692819Y-64820542D01*
X125692819Y-64820542D02*
X125740438Y-64725304D01*
X125740438Y-64725304D02*
X125788057Y-64677685D01*
X125788057Y-64677685D02*
X125883295Y-64630066D01*
X125883295Y-64630066D02*
X126026152Y-64630066D01*
X126026152Y-64630066D02*
X126121390Y-64677685D01*
X126121390Y-64677685D02*
X126169009Y-64725304D01*
X126169009Y-64725304D02*
X126216628Y-64820542D01*
X126216628Y-64820542D02*
X126216628Y-65201494D01*
X125692819Y-64296732D02*
X125692819Y-63677685D01*
X125692819Y-63677685D02*
X126073771Y-64011018D01*
X126073771Y-64011018D02*
X126073771Y-63868161D01*
X126073771Y-63868161D02*
X126121390Y-63772923D01*
X126121390Y-63772923D02*
X126169009Y-63725304D01*
X126169009Y-63725304D02*
X126264247Y-63677685D01*
X126264247Y-63677685D02*
X126502342Y-63677685D01*
X126502342Y-63677685D02*
X126597580Y-63725304D01*
X126597580Y-63725304D02*
X126645200Y-63772923D01*
X126645200Y-63772923D02*
X126692819Y-63868161D01*
X126692819Y-63868161D02*
X126692819Y-64153875D01*
X126692819Y-64153875D02*
X126645200Y-64249113D01*
X126645200Y-64249113D02*
X126597580Y-64296732D01*
X72461333Y-82116819D02*
X72128000Y-81640628D01*
X71889905Y-82116819D02*
X71889905Y-81116819D01*
X71889905Y-81116819D02*
X72270857Y-81116819D01*
X72270857Y-81116819D02*
X72366095Y-81164438D01*
X72366095Y-81164438D02*
X72413714Y-81212057D01*
X72413714Y-81212057D02*
X72461333Y-81307295D01*
X72461333Y-81307295D02*
X72461333Y-81450152D01*
X72461333Y-81450152D02*
X72413714Y-81545390D01*
X72413714Y-81545390D02*
X72366095Y-81593009D01*
X72366095Y-81593009D02*
X72270857Y-81640628D01*
X72270857Y-81640628D02*
X71889905Y-81640628D01*
X73413714Y-82116819D02*
X72842286Y-82116819D01*
X73128000Y-82116819D02*
X73128000Y-81116819D01*
X73128000Y-81116819D02*
X73032762Y-81259676D01*
X73032762Y-81259676D02*
X72937524Y-81354914D01*
X72937524Y-81354914D02*
X72842286Y-81402533D01*
X120715833Y-80525580D02*
X120668214Y-80573200D01*
X120668214Y-80573200D02*
X120525357Y-80620819D01*
X120525357Y-80620819D02*
X120430119Y-80620819D01*
X120430119Y-80620819D02*
X120287262Y-80573200D01*
X120287262Y-80573200D02*
X120192024Y-80477961D01*
X120192024Y-80477961D02*
X120144405Y-80382723D01*
X120144405Y-80382723D02*
X120096786Y-80192247D01*
X120096786Y-80192247D02*
X120096786Y-80049390D01*
X120096786Y-80049390D02*
X120144405Y-79858914D01*
X120144405Y-79858914D02*
X120192024Y-79763676D01*
X120192024Y-79763676D02*
X120287262Y-79668438D01*
X120287262Y-79668438D02*
X120430119Y-79620819D01*
X120430119Y-79620819D02*
X120525357Y-79620819D01*
X120525357Y-79620819D02*
X120668214Y-79668438D01*
X120668214Y-79668438D02*
X120715833Y-79716057D01*
X121668214Y-80620819D02*
X121096786Y-80620819D01*
X121382500Y-80620819D02*
X121382500Y-79620819D01*
X121382500Y-79620819D02*
X121287262Y-79763676D01*
X121287262Y-79763676D02*
X121192024Y-79858914D01*
X121192024Y-79858914D02*
X121096786Y-79906533D01*
X131913333Y-58238819D02*
X131580000Y-57762628D01*
X131341905Y-58238819D02*
X131341905Y-57238819D01*
X131341905Y-57238819D02*
X131722857Y-57238819D01*
X131722857Y-57238819D02*
X131818095Y-57286438D01*
X131818095Y-57286438D02*
X131865714Y-57334057D01*
X131865714Y-57334057D02*
X131913333Y-57429295D01*
X131913333Y-57429295D02*
X131913333Y-57572152D01*
X131913333Y-57572152D02*
X131865714Y-57667390D01*
X131865714Y-57667390D02*
X131818095Y-57715009D01*
X131818095Y-57715009D02*
X131722857Y-57762628D01*
X131722857Y-57762628D02*
X131341905Y-57762628D01*
X132770476Y-57238819D02*
X132580000Y-57238819D01*
X132580000Y-57238819D02*
X132484762Y-57286438D01*
X132484762Y-57286438D02*
X132437143Y-57334057D01*
X132437143Y-57334057D02*
X132341905Y-57476914D01*
X132341905Y-57476914D02*
X132294286Y-57667390D01*
X132294286Y-57667390D02*
X132294286Y-58048342D01*
X132294286Y-58048342D02*
X132341905Y-58143580D01*
X132341905Y-58143580D02*
X132389524Y-58191200D01*
X132389524Y-58191200D02*
X132484762Y-58238819D01*
X132484762Y-58238819D02*
X132675238Y-58238819D01*
X132675238Y-58238819D02*
X132770476Y-58191200D01*
X132770476Y-58191200D02*
X132818095Y-58143580D01*
X132818095Y-58143580D02*
X132865714Y-58048342D01*
X132865714Y-58048342D02*
X132865714Y-57810247D01*
X132865714Y-57810247D02*
X132818095Y-57715009D01*
X132818095Y-57715009D02*
X132770476Y-57667390D01*
X132770476Y-57667390D02*
X132675238Y-57619771D01*
X132675238Y-57619771D02*
X132484762Y-57619771D01*
X132484762Y-57619771D02*
X132389524Y-57667390D01*
X132389524Y-57667390D02*
X132341905Y-57715009D01*
X132341905Y-57715009D02*
X132294286Y-57810247D01*
X73223333Y-47572819D02*
X72890000Y-47096628D01*
X72651905Y-47572819D02*
X72651905Y-46572819D01*
X72651905Y-46572819D02*
X73032857Y-46572819D01*
X73032857Y-46572819D02*
X73128095Y-46620438D01*
X73128095Y-46620438D02*
X73175714Y-46668057D01*
X73175714Y-46668057D02*
X73223333Y-46763295D01*
X73223333Y-46763295D02*
X73223333Y-46906152D01*
X73223333Y-46906152D02*
X73175714Y-47001390D01*
X73175714Y-47001390D02*
X73128095Y-47049009D01*
X73128095Y-47049009D02*
X73032857Y-47096628D01*
X73032857Y-47096628D02*
X72651905Y-47096628D01*
X73604286Y-46668057D02*
X73651905Y-46620438D01*
X73651905Y-46620438D02*
X73747143Y-46572819D01*
X73747143Y-46572819D02*
X73985238Y-46572819D01*
X73985238Y-46572819D02*
X74080476Y-46620438D01*
X74080476Y-46620438D02*
X74128095Y-46668057D01*
X74128095Y-46668057D02*
X74175714Y-46763295D01*
X74175714Y-46763295D02*
X74175714Y-46858533D01*
X74175714Y-46858533D02*
X74128095Y-47001390D01*
X74128095Y-47001390D02*
X73556667Y-47572819D01*
X73556667Y-47572819D02*
X74175714Y-47572819D01*
X131518819Y-64682666D02*
X131042628Y-65015999D01*
X131518819Y-65254094D02*
X130518819Y-65254094D01*
X130518819Y-65254094D02*
X130518819Y-64873142D01*
X130518819Y-64873142D02*
X130566438Y-64777904D01*
X130566438Y-64777904D02*
X130614057Y-64730285D01*
X130614057Y-64730285D02*
X130709295Y-64682666D01*
X130709295Y-64682666D02*
X130852152Y-64682666D01*
X130852152Y-64682666D02*
X130947390Y-64730285D01*
X130947390Y-64730285D02*
X130995009Y-64777904D01*
X130995009Y-64777904D02*
X131042628Y-64873142D01*
X131042628Y-64873142D02*
X131042628Y-65254094D01*
X130852152Y-63825523D02*
X131518819Y-63825523D01*
X130471200Y-64063618D02*
X131185485Y-64301713D01*
X131185485Y-64301713D02*
X131185485Y-63682666D01*
D11*
X129666666Y-47153419D02*
X129666666Y-47867704D01*
X129666666Y-47867704D02*
X129619047Y-48010561D01*
X129619047Y-48010561D02*
X129523809Y-48105800D01*
X129523809Y-48105800D02*
X129380952Y-48153419D01*
X129380952Y-48153419D02*
X129285714Y-48153419D01*
X130095238Y-47248657D02*
X130142857Y-47201038D01*
X130142857Y-47201038D02*
X130238095Y-47153419D01*
X130238095Y-47153419D02*
X130476190Y-47153419D01*
X130476190Y-47153419D02*
X130571428Y-47201038D01*
X130571428Y-47201038D02*
X130619047Y-47248657D01*
X130619047Y-47248657D02*
X130666666Y-47343895D01*
X130666666Y-47343895D02*
X130666666Y-47439133D01*
X130666666Y-47439133D02*
X130619047Y-47581990D01*
X130619047Y-47581990D02*
X130047619Y-48153419D01*
X130047619Y-48153419D02*
X130666666Y-48153419D01*
D10*
X105007580Y-41293166D02*
X105055200Y-41340785D01*
X105055200Y-41340785D02*
X105102819Y-41483642D01*
X105102819Y-41483642D02*
X105102819Y-41578880D01*
X105102819Y-41578880D02*
X105055200Y-41721737D01*
X105055200Y-41721737D02*
X104959961Y-41816975D01*
X104959961Y-41816975D02*
X104864723Y-41864594D01*
X104864723Y-41864594D02*
X104674247Y-41912213D01*
X104674247Y-41912213D02*
X104531390Y-41912213D01*
X104531390Y-41912213D02*
X104340914Y-41864594D01*
X104340914Y-41864594D02*
X104245676Y-41816975D01*
X104245676Y-41816975D02*
X104150438Y-41721737D01*
X104150438Y-41721737D02*
X104102819Y-41578880D01*
X104102819Y-41578880D02*
X104102819Y-41483642D01*
X104102819Y-41483642D02*
X104150438Y-41340785D01*
X104150438Y-41340785D02*
X104198057Y-41293166D01*
X104198057Y-40912213D02*
X104150438Y-40864594D01*
X104150438Y-40864594D02*
X104102819Y-40769356D01*
X104102819Y-40769356D02*
X104102819Y-40531261D01*
X104102819Y-40531261D02*
X104150438Y-40436023D01*
X104150438Y-40436023D02*
X104198057Y-40388404D01*
X104198057Y-40388404D02*
X104293295Y-40340785D01*
X104293295Y-40340785D02*
X104388533Y-40340785D01*
X104388533Y-40340785D02*
X104531390Y-40388404D01*
X104531390Y-40388404D02*
X105102819Y-40959832D01*
X105102819Y-40959832D02*
X105102819Y-40340785D01*
D12*
%TO.C,D1*%
X69932000Y-47808000D02*
X67072000Y-47808000D01*
X67072000Y-49728000D02*
X69932000Y-49728000D01*
X69932000Y-49728000D02*
X69932000Y-47808000D01*
D11*
%TO.C,U1*%
X83566000Y-40132000D02*
X83566000Y-43942000D01*
X83566000Y-43942000D02*
X91186000Y-43942000D01*
X91186000Y-43942000D02*
X91186000Y-40132000D01*
D12*
%TO.C,J1*%
X88110000Y-69042000D02*
X88710000Y-69342000D01*
X88110000Y-69642000D02*
X88110000Y-69042000D01*
X88710000Y-69342000D02*
X88110000Y-69642000D01*
X88910000Y-65532000D02*
X88910000Y-74252000D01*
X88910000Y-74252000D02*
X99130000Y-74252000D01*
X99130000Y-65532000D02*
X88910000Y-65532000D01*
X99130000Y-74252000D02*
X99130000Y-65532000D01*
%TO.C,U2*%
X130000000Y-68440000D02*
X128200000Y-68440000D01*
X130000000Y-68440000D02*
X130800000Y-68440000D01*
X130000000Y-71560000D02*
X129200000Y-71560000D01*
X130000000Y-71560000D02*
X130800000Y-71560000D01*
%TO.C,SW1*%
X75689050Y-70040000D02*
G75*
G03*
X75689050Y-70040000I-4579050J0D01*
G01*
X77160000Y-76150000D02*
X64860000Y-76150000D01*
X77160000Y-73430000D02*
X77160000Y-76150000D01*
X77160000Y-68430000D02*
X77160000Y-71570000D01*
X77160000Y-63850000D02*
X77160000Y-66570000D01*
X64860000Y-76150000D02*
X64860000Y-73430000D01*
X64860000Y-71570000D02*
X64860000Y-68430000D01*
X64860000Y-66570000D02*
X64860000Y-63850000D01*
X64860000Y-63850000D02*
X77160000Y-63850000D01*
%TO.C,C4*%
X84356752Y-65505000D02*
X83834248Y-65505000D01*
X84356752Y-64035000D02*
X83834248Y-64035000D01*
%TO.C,R7*%
X120438936Y-68353000D02*
X120893064Y-68353000D01*
X120438936Y-69823000D02*
X120893064Y-69823000D01*
%TO.C,R5*%
X134647000Y-61642464D02*
X134647000Y-61188336D01*
X136117000Y-61642464D02*
X136117000Y-61188336D01*
%TO.C,C3*%
X99849000Y-44435752D02*
X99849000Y-43913248D01*
X101319000Y-44435752D02*
X101319000Y-43913248D01*
%TO.C,BT1*%
X87934000Y-87405000D02*
X87934000Y-86105000D01*
X87934000Y-81785000D02*
X87934000Y-79685000D01*
X87934000Y-79685000D02*
X85484000Y-79685000D01*
X82664000Y-79685000D02*
X82664000Y-77795000D01*
X80214000Y-87405000D02*
X87934000Y-87405000D01*
X80214000Y-86105000D02*
X80214000Y-87405000D01*
X80214000Y-81785000D02*
X80214000Y-79685000D01*
X80214000Y-79685000D02*
X82664000Y-79685000D01*
D13*
%TO.C,SW2*%
X89331800Y-99338593D02*
X89331800Y-100698200D01*
X89331800Y-100698200D02*
X98196400Y-100698200D01*
X92369350Y-95389600D02*
X90741354Y-95389600D01*
X94369351Y-95389600D02*
X92369350Y-95389600D01*
X96369352Y-95389600D02*
X94369351Y-95389600D01*
X96786847Y-95389600D02*
X96369352Y-95389600D01*
X98196400Y-100698200D02*
X98196400Y-99338593D01*
D12*
%TO.C,R8*%
X120438936Y-72925000D02*
X120893064Y-72925000D01*
X120438936Y-74395000D02*
X120893064Y-74395000D01*
%TO.C,R3*%
X126973000Y-61188336D02*
X126973000Y-61642464D01*
X125503000Y-61188336D02*
X125503000Y-61642464D01*
%TO.C,R1*%
X72400936Y-82577000D02*
X72855064Y-82577000D01*
X72400936Y-84047000D02*
X72855064Y-84047000D01*
%TO.C,C1*%
X121143752Y-79221000D02*
X120621248Y-79221000D01*
X121143752Y-77751000D02*
X120621248Y-77751000D01*
%TO.C,R6*%
X132307064Y-56869000D02*
X131852936Y-56869000D01*
X132307064Y-55399000D02*
X131852936Y-55399000D01*
%TO.C,R2*%
X73162936Y-48033000D02*
X73617064Y-48033000D01*
X73162936Y-49503000D02*
X73617064Y-49503000D01*
%TO.C,R4*%
X130329000Y-61642464D02*
X130329000Y-61188336D01*
X131799000Y-61642464D02*
X131799000Y-61188336D01*
%TO.C,C2*%
X103913000Y-44435752D02*
X103913000Y-43913248D01*
X105383000Y-44435752D02*
X105383000Y-43913248D01*
%TD*%
M02*
